<?xml version="1.0" encoding="UTF-8" standalone="no"?>
<!-- Created with Inkscape (http://www.inkscape.org/) -->

<svg
   version="1.1"
   id="svg2181"
   xml:space="preserve"
   width="800"
   height="800"
   viewBox="0 0 800 800"
   sodipodi:docname="nova.svg"
   inkscape:version="1.1.2 (b8e25be833, 2022-02-05)"
   xmlns:inkscape="http://www.inkscape.org/namespaces/inkscape"
   xmlns:sodipodi="http://sodipodi.sourceforge.net/DTD/sodipodi-0.dtd"
   xmlns="http://www.w3.org/2000/svg"
   xmlns:svg="http://www.w3.org/2000/svg"
   xmlns:rdf="http://www.w3.org/1999/02/22-rdf-syntax-ns#"
   xmlns:cc="http://creativecommons.org/ns#"
   xmlns:dc="http://purl.org/dc/elements/1.1/"><metadata
     id="metadata2187"><rdf:RDF><cc:Work
         rdf:about=""><dc:format>image/svg+xml</dc:format><dc:type
           rdf:resource="http://purl.org/dc/dcmitype/StillImage" /></cc:Work></rdf:RDF></metadata><defs
     id="defs2185"><clipPath
       clipPathUnits="userSpaceOnUse"
       id="clipPath2197"><path
         d="M 0,600 H 600 V 0 H 0 Z"
         id="path2195"
         inkscape:connector-curvature="0" /></clipPath></defs><sodipodi:namedview
     pagecolor="#ffffff"
     bordercolor="#666666"
     borderopacity="1"
     objecttolerance="10"
     gridtolerance="10"
     guidetolerance="10"
     inkscape:pageopacity="0"
     inkscape:pageshadow="2"
     inkscape:window-width="1529"
     inkscape:window-height="1082"
     id="namedview2183"
     showgrid="false"
     inkscape:zoom="0.85188776"
     inkscape:cx="339.24657"
     inkscape:cy="365.6585"
     inkscape:window-x="949"
     inkscape:window-y="181"
     inkscape:window-maximized="0"
     inkscape:current-layer="g2189"
     inkscape:pagecheckerboard="0" /><g
     id="g2189"
     inkscape:groupmode="layer"
     inkscape:label="sun-shape-publicdomainvectors.org [Converted]"
     transform="matrix(1.3333333,0,0,-1.3333333,0,800)"><path
       d="m 315.74548,304.19063 c 0,0 9.99234,-4.15992 35.43716,-9.20195 19.21135,-3.80579 41.79436,-9.72034 64.88083,-13.5528 22.60008,-3.73859 45.3687,1.22558 61.74597,4.77004 23.35846,5.04203 44.00232,7.69691 59.88253,3.72793 16.22901,-4.06819 26.50827,-14.09572 26.50827,-14.09572 0,0 -7.57105,14.19598 -23.2422,22.27155 -15.05783,7.74385 -36.29794,4.35298 -67.57838,-0.46612 -20.31106,-3.12207 -46.28921,-2.04583 -75.0641,3.25753 17.61672,15.18476 38.86856,15.11223 55.1765,18.4327 17.00126,3.46553 28.48583,7.29052 28.48583,7.29052 0,0 -8.17904,-2.10876 -20.19586,-3.41433 -11.8547,-1.28958 -27.26346,-0.15253 -41.45731,-2.11943 -22.17342,-3.51779 -27.67411,-10.21206 -53.64159,-15.43329 -10.45419,-3.44206 -22.97341,-1.83889 -33.21747,-1.61916 -10.14699,0.21013 -17.72018,0.15253 -17.72018,0.15253"
       style="fill:#000000;fill-opacity:1;fill-rule:nonzero;stroke:none;stroke-width:0;stroke-miterlimit:4;stroke-dasharray:none"
       id="path2199"
       inkscape:connector-curvature="0" /><path
       d="m 315.74548,304.19063 c 0,0 9.99234,-4.15992 35.43716,-9.20195 19.21135,-3.80579 41.79436,-9.72034 64.88083,-13.5528 22.60008,-3.73859 45.3687,1.22558 61.74597,4.77004 23.35846,5.04203 44.00232,7.69691 59.88253,3.72793 16.22901,-4.06819 26.50827,-14.09572 26.50827,-14.09572 0,0 -7.57105,14.19598 -23.2422,22.27155 -15.05783,7.74385 -36.29794,4.35298 -67.57838,-0.46612 -20.31106,-3.12207 -46.28921,-2.04583 -75.0641,3.25753 17.61672,15.18476 38.86856,15.11223 55.1765,18.4327 17.00126,3.46553 28.48583,7.29052 28.48583,7.29052 0,0 -8.17904,-2.10876 -20.19586,-3.41433 -11.8547,-1.28958 -27.26346,-0.15253 -41.45731,-2.11943 -22.17342,-3.51779 -27.67411,-10.21206 -53.64159,-15.43329 -10.45419,-3.44206 -22.97341,-1.83889 -33.21747,-1.61916 -10.14699,0.21013 -17.72018,0.15253 -17.72018,0.15253 z"
       style="fill:#000000;stroke:none;stroke-width:0;stroke-linecap:butt;stroke-linejoin:miter;stroke-miterlimit:4;stroke-dasharray:none;stroke-opacity:1;fill-opacity:1"
       id="path2201"
       inkscape:connector-curvature="0" /><path
       d="m 315.89481,312.64592 c 0,0 10.81152,0.58986 35.92248,7.08466 18.96282,4.9055 41.8733,9.37581 64.33685,15.94102 21.98463,6.43613 40.34052,20.78571 53.56266,31.08524 18.85616,14.67597 36.30114,26.02721 52.32962,29.34128 16.38794,3.37806 29.9994,-1.19998 29.9994,-1.19998 0,0 -12.97681,9.50808 -30.59886,9.98487 -16.92659,0.44159 -34.5945,-11.82803 -60.68571,-29.7434 -16.9426,-11.62111 -40.81412,-21.92383 -69.04609,-29.63354 9.28835,21.32757 28.46663,30.48258 41.71543,40.55065 13.81413,10.49686 22.50622,18.92335 22.50622,18.92335 0,0 -6.46067,-5.44735 -16.71753,-11.83656 -10.12247,-6.30387 -24.49765,-11.96776 -36.43127,-19.89827 -18.45083,-12.78907 -20.50306,-21.20491 -41.6333,-37.17792 -7.92624,-7.63931 -19.90254,-11.6211 -29.22502,-15.87168 -9.23501,-4.21005 -16.03488,-7.54972 -16.03488,-7.54972"
       style="fill:#000000;fill-opacity:1;fill-rule:nonzero;stroke:none;stroke-width:0;stroke-miterlimit:4;stroke-dasharray:none"
       id="path2203"
       inkscape:connector-curvature="0" /><path
       d="m 315.89481,312.64592 c 0,0 10.81152,0.58986 35.92248,7.08466 18.96282,4.9055 41.8733,9.37581 64.33685,15.94102 21.98463,6.43613 40.34052,20.78571 53.56266,31.08524 18.85616,14.67597 36.30114,26.02721 52.32962,29.34128 16.38794,3.37806 29.9994,-1.19998 29.9994,-1.19998 0,0 -12.97681,9.50808 -30.59886,9.98487 -16.92659,0.44159 -34.5945,-11.82803 -60.68571,-29.7434 -16.9426,-11.62111 -40.81412,-21.92383 -69.04609,-29.63354 9.28835,21.32757 28.46663,30.48258 41.71543,40.55065 13.81413,10.49686 22.50622,18.92335 22.50622,18.92335 0,0 -6.46067,-5.44735 -16.71753,-11.83656 -10.12247,-6.30387 -24.49765,-11.96776 -36.43127,-19.89827 -18.45083,-12.78907 -20.50306,-21.20491 -41.6333,-37.17792 -7.92624,-7.63931 -19.90254,-11.6211 -29.22502,-15.87168 -9.23501,-4.21005 -16.03488,-7.54972 -16.03488,-7.54972 z"
       style="fill:#000000;stroke:none;stroke-width:0;stroke-linecap:butt;stroke-linejoin:miter;stroke-miterlimit:4;stroke-dasharray:none;stroke-opacity:1;fill-opacity:1"
       id="path2205"
       inkscape:connector-curvature="0" /><path
       d="m 312.36635,320.33004 c 0,0 9.48034,5.22016 29.28901,21.96862 14.95544,12.64295 33.66013,26.61387 51.04538,42.27222 17.01726,15.34263 27.33065,36.23288 34.77264,51.24911 10.61845,21.40544 21.41184,39.20028 34.42064,49.14248 13.30107,10.15447 27.54718,11.9347 27.54718,11.9347 0,0 -15.81941,2.93754 -31.90656,-4.28152 -15.43649,-6.94279 -26.03254,-25.66668 -41.76663,-53.12533 -10.22059,-17.82471 -27.26025,-37.46592 -49.34834,-56.657 -0.89065,23.24113 12.42002,39.8104 19.98893,54.63144 7.89104,15.45355 12.06483,26.81439 12.06483,26.81439 0,0 -3.45487,-7.70971 -9.9262,-17.91644 -6.38494,-10.07233 -16.8786,-21.41184 -24.19045,-33.73586 -11.07498,-19.5292 -9.27235,-28.0005 -21.37984,-51.55843 -3.82499,-10.32193 -12.88828,-19.10895 -19.44175,-26.98293 -6.49373,-7.80037 -11.16884,-13.75545 -11.16884,-13.75545"
       style="fill:#000000;fill-opacity:1;fill-rule:nonzero;stroke:none;stroke-width:0;stroke-miterlimit:4;stroke-dasharray:none"
       id="path2207"
       inkscape:connector-curvature="0" /><path
       d="m 312.36635,320.33004 c 0,0 9.48034,5.22016 29.28901,21.96862 14.95544,12.64295 33.66013,26.61387 51.04538,42.27222 17.01726,15.34263 27.33065,36.23288 34.77264,51.24911 10.61845,21.40544 21.41184,39.20028 34.42064,49.14248 13.30107,10.15447 27.54718,11.9347 27.54718,11.9347 0,0 -15.81941,2.93754 -31.90656,-4.28152 -15.43649,-6.94279 -26.03254,-25.66668 -41.76663,-53.12533 -10.22059,-17.82471 -27.26025,-37.46592 -49.34834,-56.657 -0.89065,23.24113 12.42002,39.8104 19.98893,54.63144 7.89104,15.45355 12.06483,26.81439 12.06483,26.81439 0,0 -3.45487,-7.70971 -9.9262,-17.91644 -6.38494,-10.07233 -16.8786,-21.41184 -24.19045,-33.73586 -11.07498,-19.5292 -9.27235,-28.0005 -21.37984,-51.55843 -3.82499,-10.32193 -12.88828,-19.10895 -19.44175,-26.98293 -6.49373,-7.80037 -11.16884,-13.75545 -11.16884,-13.75545 z"
       style="fill:#000000;stroke:none;stroke-width:0;stroke-linecap:butt;stroke-linejoin:miter;stroke-miterlimit:4;stroke-dasharray:none;stroke-opacity:1;fill-opacity:1"
       id="path2209"
       inkscape:connector-curvature="0" /><path
       d="m 305.84915,325.71766 c 0,0 6.27827,8.82116 16.85726,32.50175 7.98597,17.88124 18.77829,38.58483 27.64851,60.23666 8.67716,21.20384 8.90436,44.50258 9.09422,61.26064 0.27946,23.89392 2.28262,44.60924 9.68514,59.20841 7.57852,14.91917 19.64547,22.70782 19.64547,22.70782 0,0 -15.52928,-4.21965 -26.88692,-17.70205 -10.90112,-12.95654 -12.32189,-34.42064 -14.58318,-65.98801 -1.47517,-20.49346 -8.30703,-45.58095 -19.87693,-72.45828 -10.88405,20.55639 -6.08735,41.26104 -5.69589,57.89644 0.40533,17.34685 -0.76585,29.39248 -0.76585,29.39248 0,0 0.23253,-8.44464 -1.16798,-20.4476 -1.38237,-11.84402 -5.91668,-26.61706 -7.15719,-40.88878 -1.5029,-22.40275 3.79513,-29.25488 3.10821,-55.73008 1.03144,-10.96191 -3.32154,-22.80701 -5.81002,-32.74708 -2.46608,-9.84407 -4.09485,-17.24232 -4.09485,-17.24232"
       style="fill:#000000;fill-opacity:1;fill-rule:nonzero;stroke:none;stroke-width:0;stroke-miterlimit:4;stroke-dasharray:none"
       id="path2211"
       inkscape:connector-curvature="0" /><path
       d="m 305.84915,325.71766 c 0,0 6.27827,8.82116 16.85726,32.50175 7.98597,17.88124 18.77829,38.58483 27.64851,60.23666 8.67716,21.20384 8.90436,44.50258 9.09422,61.26064 0.27946,23.89392 2.28262,44.60924 9.68514,59.20841 7.57852,14.91917 19.64547,22.70782 19.64547,22.70782 0,0 -15.52928,-4.21965 -26.88692,-17.70205 -10.90112,-12.95654 -12.32189,-34.42064 -14.58318,-65.98801 -1.47517,-20.49346 -8.30703,-45.58095 -19.87693,-72.45828 -10.88405,20.55639 -6.08735,41.26104 -5.69589,57.89644 0.40533,17.34685 -0.76585,29.39248 -0.76585,29.39248 0,0 0.23253,-8.44464 -1.16798,-20.4476 -1.38237,-11.84402 -5.91668,-26.61706 -7.15719,-40.88878 -1.5029,-22.40275 3.79513,-29.25488 3.10821,-55.73008 1.03144,-10.96191 -3.32154,-22.80701 -5.81002,-32.74708 -2.46608,-9.84407 -4.09485,-17.24232 -4.09485,-17.24232 z"
       style="fill:#000000;stroke:none;stroke-width:0;stroke-linecap:butt;stroke-linejoin:miter;stroke-miterlimit:4;stroke-dasharray:none;stroke-opacity:1;fill-opacity:1"
       id="path2213"
       inkscape:connector-curvature="0" /><path
       d="m 297.64131,327.74855 c 0,0 1.8293,10.66752 1.08478,36.59554 -0.56105,19.57507 0.17813,42.90901 -1.22451,66.26854 -1.38237,22.86781 -11.28724,43.95858 -18.38683,59.13801 -10.11393,21.64864 -17.29779,41.18318 -16.96179,57.54978 0.35199,16.72927 7.84624,28.98076 7.84624,28.98076 0,0 -12.15869,-10.53739 -16.54474,-27.61438 -4.19724,-16.40181 3.83459,-36.35874 15.49196,-65.78109 7.56358,-19.10681 12.29522,-44.67217 13.52933,-73.90892 -18.72602,13.80026 -23.383,34.53585 -30.24899,49.69394 -7.16146,15.80342 -13.444,26.14774 -13.444,26.14774 0,0 3.87512,-7.50491 7.81958,-18.92975 3.89325,-11.27017 6.21534,-26.5456 11.29257,-39.94373 8.36357,-20.83692 16.11381,-24.70884 26.97973,-48.86196 5.68521,-9.42914 6.90439,-21.98889 8.97155,-32.02709 2.05222,-9.93793 3.79512,-17.30739 3.79512,-17.30739"
       style="fill:#000000;fill-opacity:1;fill-rule:nonzero;stroke:none;stroke-width:0;stroke-miterlimit:4;stroke-dasharray:none"
       id="path2215"
       inkscape:connector-curvature="0" /><path
       d="m 297.64131,327.74855 c 0,0 1.8293,10.66752 1.08478,36.59554 -0.56105,19.57507 0.17813,42.90901 -1.22451,66.26854 -1.38237,22.86781 -11.28724,43.95858 -18.38683,59.13801 -10.11393,21.64864 -17.29779,41.18318 -16.96179,57.54978 0.35199,16.72927 7.84624,28.98076 7.84624,28.98076 0,0 -12.15869,-10.53739 -16.54474,-27.61438 -4.19724,-16.40181 3.83459,-36.35874 15.49196,-65.78109 7.56358,-19.10681 12.29522,-44.67217 13.52933,-73.90892 -18.72602,13.80026 -23.383,34.53585 -30.24899,49.69394 -7.16146,15.80342 -13.444,26.14774 -13.444,26.14774 0,0 3.87512,-7.50491 7.81958,-18.92975 3.89325,-11.27017 6.21534,-26.5456 11.29257,-39.94373 8.36357,-20.83692 16.11381,-24.70884 26.97973,-48.86196 5.68521,-9.42914 6.90439,-21.98889 8.97155,-32.02709 2.05222,-9.93793 3.79512,-17.30739 3.79512,-17.30739 z"
       style="fill:#000000;stroke:none;stroke-width:0;stroke-linecap:butt;stroke-linejoin:miter;stroke-miterlimit:4;stroke-dasharray:none;stroke-opacity:1;fill-opacity:1"
       id="path2217"
       inkscape:connector-curvature="0" /><path
       d="m 289.36415,326.01632 c 0,0 -2.97914,10.40193 -14.90104,33.4404 -9.00035,17.39485 -18.45723,38.73629 -29.8554,59.17428 -11.16778,20.00387 -29.24315,34.70757 -42.22636,45.30469 -18.50522,15.1165 -33.45213,29.59621 -40.25092,44.48871 -6.9396,15.2285 -5.50496,29.51728 -5.50496,29.51728 0,0 -6.3828,-14.76877 -2.92474,-32.05803 3.3354,-16.60126 19.22948,-31.09377 42.49942,-52.54508 15.10476,-13.93039 30.46019,-34.9113 44.25618,-60.71985 -22.85608,4.30712 -36.05048,20.96918 -48.81503,31.64737 -13.3096,11.13044 -23.45873,17.72764 -23.45873,17.72764 0,0 6.74973,-5.08363 15.2605,-13.66372 8.4009,-8.46597 17.11752,-21.22091 27.50558,-31.08845 16.57673,-15.14423 25.23683,-15.27116 45.50949,-32.31615 9.21261,-6.02975 15.76288,-16.8178 21.97929,-24.9627 6.15881,-8.06384 10.92672,-13.94639 10.92672,-13.94639"
       style="fill:#000000;fill-opacity:1;fill-rule:nonzero;stroke:none;stroke-width:0;stroke-miterlimit:4;stroke-dasharray:none"
       id="path2219"
       inkscape:connector-curvature="0" /><path
       d="m 289.36415,326.01632 c 0,0 -2.97914,10.40193 -14.90104,33.4404 -9.00035,17.39485 -18.45723,38.73629 -29.8554,59.17428 -11.16778,20.00387 -29.24315,34.70757 -42.22636,45.30469 -18.50522,15.1165 -33.45213,29.59621 -40.25092,44.48871 -6.9396,15.2285 -5.50496,29.51728 -5.50496,29.51728 0,0 -6.3828,-14.76877 -2.92474,-32.05803 3.3354,-16.60126 19.22948,-31.09377 42.49942,-52.54508 15.10476,-13.93039 30.46019,-34.9113 44.25618,-60.71985 -22.85608,4.30712 -36.05048,20.96918 -48.81503,31.64737 -13.3096,11.13044 -23.45873,17.72764 -23.45873,17.72764 0,0 6.74973,-5.08363 15.2605,-13.66372 8.4009,-8.46597 17.11752,-21.22091 27.50558,-31.08845 16.57673,-15.14423 25.23683,-15.27116 45.50949,-32.31615 9.21261,-6.02975 15.76288,-16.8178 21.97929,-24.9627 6.15881,-8.06384 10.92672,-13.94639 10.92672,-13.94639 z"
       style="fill:#000000;stroke:none;stroke-width:0;stroke-linecap:butt;stroke-linejoin:miter;stroke-miterlimit:4;stroke-dasharray:none;stroke-opacity:1;fill-opacity:1"
       id="path2221"
       inkscape:connector-curvature="0" /><path
       d="m 282.66028,320.86123 c 0,0 -7.19986,8.08303 -27.93544,23.66565 -15.65729,11.76617 -33.4372,26.89227 -52.57495,40.3608 -18.74202,13.17413 -41.4061,18.58202 -57.70124,22.49448 -23.23154,5.59242 -42.97941,12.15336 -55.567955,22.62035 -12.859476,10.71018 -17.766044,24.20431 -17.766044,24.20431 0,0 0.657053,-16.07434 11.274441,-30.15193 10.204595,-13.50586 30.817518,-19.67214 61.088908,-28.89969 19.65187,-5.99881 42.59008,-18.2407 66.21734,-35.50328 -22.46248,-6.03935 -41.5789,3.25006 -57.71084,7.33212 -16.82207,4.25271 -28.82609,5.79081 -28.82609,5.79081 0,0 8.28463,-1.6469 19.67534,-5.68628 11.24137,-3.98499 24.63204,-11.69257 38.2723,-16.07755 21.50463,-6.45107 29.36154,-2.80848 55.02396,-9.37048 10.91392,-1.43464 21.49717,-8.31343 30.63299,-12.95227 9.04835,-4.59511 15.89728,-7.82704 15.89728,-7.82704"
       style="fill:#000000;fill-opacity:1;fill-rule:nonzero;stroke:none;stroke-width:0;stroke-miterlimit:4;stroke-dasharray:none"
       id="path2223"
       inkscape:connector-curvature="0" /><path
       d="m 282.66028,320.86123 c 0,0 -7.19986,8.08303 -27.93544,23.66565 -15.65729,11.76617 -33.4372,26.89227 -52.57495,40.3608 -18.74202,13.17413 -41.4061,18.58202 -57.70124,22.49448 -23.23154,5.59242 -42.97941,12.15336 -55.567955,22.62035 -12.859476,10.71018 -17.766044,24.20431 -17.766044,24.20431 0,0 0.657053,-16.07434 11.274441,-30.15193 10.204595,-13.50586 30.817518,-19.67214 61.088908,-28.89969 19.65187,-5.99881 42.59008,-18.2407 66.21734,-35.50328 -22.46248,-6.03935 -41.5789,3.25006 -57.71084,7.33212 -16.82207,4.25271 -28.82609,5.79081 -28.82609,5.79081 0,0 8.28463,-1.6469 19.67534,-5.68628 11.24137,-3.98499 24.63204,-11.69257 38.2723,-16.07755 21.50463,-6.45107 29.36154,-2.80848 55.02396,-9.37048 10.91392,-1.43464 21.49717,-8.31343 30.63299,-12.95227 9.04835,-4.59511 15.89728,-7.82704 15.89728,-7.82704 z"
       style="fill:#000000;stroke:none;stroke-width:0;stroke-linecap:butt;stroke-linejoin:miter;stroke-miterlimit:4;stroke-dasharray:none;stroke-opacity:1;fill-opacity:1"
       id="path2225"
       inkscape:connector-curvature="0" /><path
       d="m 278.85449,313.30938 c 0,0 -9.9934,4.15885 -35.43716,9.19981 -19.21028,3.80793 -41.79329,9.72354 -64.8787,13.55386 -22.60328,3.7418 -45.36762,-1.22237 -61.75023,-4.7679 -23.35313,-5.04097 -43.995916,-7.69905 -59.876131,-3.73006 -16.234342,4.06712 -26.510403,14.09999 -26.510403,14.09999 0,0 7.566782,-14.20025 23.241135,-22.27582 15.056765,-7.74385 36.300073,-4.35298 67.578379,0.46825 20.30999,3.12101 46.28601,2.04583 75.0641,-3.2586 -17.61778,-15.18583 -38.87069,-15.10903 -55.1765,-18.43376 -17.00126,-3.4666 -28.48583,-7.28946 -28.48583,-7.28946 0,0 8.18117,2.10876 20.19586,3.41433 11.85577,1.28851 27.26559,0.15253 41.45731,2.12263 22.17235,3.5146 27.67518,10.20779 53.63946,15.43009 10.45739,3.44206 22.97447,1.8389 33.2196,1.62023 10.14593,-0.21226 17.71911,-0.15359 17.71911,-0.15359"
       style="fill:#000000;fill-opacity:1;fill-rule:nonzero;stroke:none;stroke-width:0;stroke-miterlimit:4;stroke-dasharray:none"
       id="path2227"
       inkscape:connector-curvature="0" /><path
       d="m 278.85449,313.30938 c 0,0 -9.9934,4.15885 -35.43716,9.19981 -19.21028,3.80793 -41.79329,9.72354 -64.8787,13.55386 -22.60328,3.7418 -45.36762,-1.22237 -61.75023,-4.7679 -23.35313,-5.04097 -43.995916,-7.69905 -59.876131,-3.73006 -16.234342,4.06712 -26.510403,14.09999 -26.510403,14.09999 0,0 7.566782,-14.20025 23.241135,-22.27582 15.056765,-7.74385 36.300073,-4.35298 67.578379,0.46825 20.30999,3.12101 46.28601,2.04583 75.0641,-3.2586 -17.61778,-15.18583 -38.87069,-15.10903 -55.1765,-18.43376 -17.00126,-3.4666 -28.48583,-7.28946 -28.48583,-7.28946 0,0 8.18117,2.10876 20.19586,3.41433 11.85577,1.28851 27.26559,0.15253 41.45731,2.12263 22.17235,3.5146 27.67518,10.20779 53.63946,15.43009 10.45739,3.44206 22.97447,1.8389 33.2196,1.62023 10.14593,-0.21226 17.71911,-0.15359 17.71911,-0.15359 z"
       style="fill:#000000;stroke:none;stroke-width:0;stroke-linecap:butt;stroke-linejoin:miter;stroke-miterlimit:4;stroke-dasharray:none;stroke-opacity:1;fill-opacity:1"
       id="path2229"
       inkscape:connector-curvature="0" /><path
       d="m 278.70409,304.85408 c 0,0 -10.80938,-0.59092 -35.92034,-7.08466 -18.96176,-4.9055 -41.8733,-9.37368 -64.33578,-15.94101 -21.98463,-6.43507 -40.34266,-20.78572 -53.5648,-31.08525 -18.85509,-14.67704 -36.299002,-26.02934 -52.329615,-29.34128 -16.390071,-3.37806 -30.001532,1.19891 -30.001532,1.19891 0,0 12.977873,-9.50487 30.604187,-9.98166 16.924461,-0.44586 34.59344,11.83016 60.68358,29.7402 16.94153,11.62537 40.81519,21.92703 69.04502,29.63567 -9.28621,-21.3297 -28.46663,-30.48365 -41.71543,-40.55065 -13.81412,-10.50006 -22.50088,-18.92442 -22.50088,-18.92442 0,0 6.4532,5.44736 16.7122,11.83656 10.12353,6.30601 24.50084,11.96563 36.43233,19.89934 18.45297,12.79014 20.50413,21.20491 41.63224,37.17472 7.9273,7.64038 19.90253,11.6243 29.22608,15.87488 9.23395,4.21112 16.03274,7.54865 16.03274,7.54865"
       style="fill:#000000;fill-opacity:1;fill-rule:nonzero;stroke:none;stroke-width:0;stroke-miterlimit:4;stroke-dasharray:none"
       id="path2231"
       inkscape:connector-curvature="0" /><path
       d="m 278.70409,304.85408 c 0,0 -10.80938,-0.59092 -35.92034,-7.08466 -18.96176,-4.9055 -41.8733,-9.37368 -64.33578,-15.94101 -21.98463,-6.43507 -40.34266,-20.78572 -53.5648,-31.08525 -18.85509,-14.67704 -36.299002,-26.02934 -52.329615,-29.34128 -16.390071,-3.37806 -30.001532,1.19891 -30.001532,1.19891 0,0 12.977873,-9.50487 30.604187,-9.98166 16.924461,-0.44586 34.59344,11.83016 60.68358,29.7402 16.94153,11.62537 40.81519,21.92703 69.04502,29.63567 -9.28621,-21.3297 -28.46663,-30.48365 -41.71543,-40.55065 -13.81412,-10.50006 -22.50088,-18.92442 -22.50088,-18.92442 0,0 6.4532,5.44736 16.7122,11.83656 10.12353,6.30601 24.50084,11.96563 36.43233,19.89934 18.45297,12.79014 20.50413,21.20491 41.63224,37.17472 7.9273,7.64038 19.90253,11.6243 29.22608,15.87488 9.23395,4.21112 16.03274,7.54865 16.03274,7.54865 z"
       style="fill:#000000;stroke:none;stroke-width:0;stroke-linecap:butt;stroke-linejoin:miter;stroke-miterlimit:4;stroke-dasharray:none;stroke-opacity:1;fill-opacity:1"
       id="path2233"
       inkscape:connector-curvature="0" /><path
       d="m 282.23469,297.16997 c 0,0 -9.48141,-5.22017 -29.28795,-21.96863 -14.95543,-12.64508 -33.65906,-26.61707 -51.04644,-42.27009 -17.01833,-15.34582 -27.32959,-36.23714 -34.77371,-51.25124 -10.61952,-21.40543 -21.4129,-39.20028 -34.41637,-49.14355 -13.30214,-10.15339 -27.55038,-11.93149 -27.55038,-11.93149 0,0 15.81835,-2.94074 31.90336,4.27725 15.44182,6.94493 26.03681,25.66988 41.77089,53.12747 10.22166,17.82257 27.25919,37.46271 49.34621,56.657 0.88852,-23.24327 -12.42001,-39.80934 -19.98786,-54.63144 -7.89104,-15.45463 -12.06376,-26.81547 -12.06376,-26.81547 0,0 3.45166,7.71078 9.923,17.91964 6.38601,10.06807 16.88073,21.40758 24.19152,33.73373 11.07604,19.52601 9.27021,28.00157 21.37983,51.55843 3.82606,10.323 12.88828,19.11002 19.44282,26.984 6.4948,7.79931 11.16884,13.75439 11.16884,13.75439"
       style="fill:#000000;fill-opacity:1;fill-rule:nonzero;stroke:none;stroke-width:0;stroke-miterlimit:4;stroke-dasharray:none"
       id="path2235"
       inkscape:connector-curvature="0" /><path
       d="m 282.23469,297.16997 c 0,0 -9.48141,-5.22017 -29.28795,-21.96863 -14.95543,-12.64508 -33.65906,-26.61707 -51.04644,-42.27009 -17.01833,-15.34582 -27.32959,-36.23714 -34.77371,-51.25124 -10.61952,-21.40543 -21.4129,-39.20028 -34.41637,-49.14355 -13.30214,-10.15339 -27.55038,-11.93149 -27.55038,-11.93149 0,0 15.81835,-2.94074 31.90336,4.27725 15.44182,6.94493 26.03681,25.66988 41.77089,53.12747 10.22166,17.82257 27.25919,37.46271 49.34621,56.657 0.88852,-23.24327 -12.42001,-39.80934 -19.98786,-54.63144 -7.89104,-15.45463 -12.06376,-26.81547 -12.06376,-26.81547 0,0 3.45166,7.71078 9.923,17.91964 6.38601,10.06807 16.88073,21.40758 24.19152,33.73373 11.07604,19.52601 9.27021,28.00157 21.37983,51.55843 3.82606,10.323 12.88828,19.11002 19.44282,26.984 6.4948,7.79931 11.16884,13.75439 11.16884,13.75439 z"
       style="fill:#000000;stroke:none;stroke-width:0;stroke-linecap:butt;stroke-linejoin:miter;stroke-miterlimit:4;stroke-dasharray:none;stroke-opacity:1;fill-opacity:1"
       id="path2237"
       inkscape:connector-curvature="0" /><path
       d="m 288.75082,291.78234 c 0,0 -6.2772,-8.81796 -16.85512,-32.50068 -7.98811,-17.88231 -18.77936,-38.58589 -27.65065,-60.23879 -8.67503,-21.20385 -8.90222,-44.50045 -9.09209,-61.26278 -0.28159,-23.88965 -2.28582,-44.607103 -9.6862,-59.206278 -7.57958,-14.917034 -19.64654,-22.706745 -19.64654,-22.706745 0,0 15.52715,4.218582 26.88693,17.700979 10.89898,12.957607 12.32295,34.420644 14.58317,65.990144 1.47517,20.49239 8.30597,45.58202 19.8812,72.45828 10.88085,-20.55532 6.08201,-41.26104 5.69269,-57.89537 -0.40319,-17.34899 0.76372,-29.39355 0.76372,-29.39355 0,0 -0.23253,8.4457 1.16797,20.44653 1.38344,11.84723 5.91989,26.61707 7.15933,40.89305 1.50397,22.39635 -3.79726,29.24848 -3.11034,55.72261 -1.02825,10.96512 3.3226,22.81021 5.81215,32.74921 2.46608,9.84727 4.09378,17.24339 4.09378,17.24339"
       style="fill:#000000;fill-opacity:1;fill-rule:nonzero;stroke:none;stroke-width:0;stroke-miterlimit:4;stroke-dasharray:none"
       id="path2239"
       inkscape:connector-curvature="0" /><path
       d="m 288.75082,291.78234 c 0,0 -6.2772,-8.81796 -16.85512,-32.50068 -7.98811,-17.88231 -18.77936,-38.58589 -27.65065,-60.23879 -8.67503,-21.20385 -8.90222,-44.50045 -9.09209,-61.26278 -0.28159,-23.88965 -2.28582,-44.607103 -9.6862,-59.206278 -7.57958,-14.917034 -19.64654,-22.706745 -19.64654,-22.706745 0,0 15.52715,4.218582 26.88693,17.700979 10.89898,12.957607 12.32295,34.420644 14.58317,65.990144 1.47517,20.49239 8.30597,45.58202 19.8812,72.45828 10.88085,-20.55532 6.08201,-41.26104 5.69269,-57.89537 -0.40319,-17.34899 0.76372,-29.39355 0.76372,-29.39355 0,0 -0.23253,8.4457 1.16797,20.44653 1.38344,11.84723 5.91989,26.61707 7.15933,40.89305 1.50397,22.39635 -3.79726,29.24848 -3.11034,55.72261 -1.02825,10.96512 3.3226,22.81021 5.81215,32.74921 2.46608,9.84727 4.09378,17.24339 4.09378,17.24339 z"
       style="fill:#000000;stroke:none;stroke-width:0;stroke-linecap:butt;stroke-linejoin:miter;stroke-miterlimit:4;stroke-dasharray:none;stroke-opacity:1;fill-opacity:1"
       id="path2241"
       inkscape:connector-curvature="0" /><path
       d="m 296.96186,289.75252 c 0,0 -1.83356,-10.66859 -1.08584,-36.59447 0.56212,-19.57614 -0.17813,-42.91221 1.22557,-66.27067 1.38237,-22.86781 11.28617,-43.95752 18.3847,-59.13695 10.11286,-21.6497 17.29885,-41.181044 16.96286,-57.55085 -0.35626,-16.727131 -7.84518,-28.982886 -7.84518,-28.982886 0,0 12.15763,10.539522 16.54047,27.61758 4.20045,16.403938 -3.83139,36.360876 -15.49302,65.782146 -7.56038,19.10575 -12.29202,44.66898 -13.524,73.90892 18.72283,-13.79919 23.38193,-34.53797 30.24686,-49.695 7.16253,-15.80449 13.444,-26.15201 13.444,-26.15201 0,0 -3.87405,7.50705 -7.82064,18.93082 -3.89326,11.27337 -6.21748,26.54667 -11.29258,39.94587 -8.36143,20.83478 -16.11167,24.7099 -26.97866,48.86088 -5.68308,9.42915 -6.90546,21.98996 -8.97262,32.0271 -2.05115,9.93793 -3.79192,17.30952 -3.79192,17.30952"
       style="fill:#000000;fill-opacity:1;fill-rule:nonzero;stroke:none;stroke-width:0;stroke-miterlimit:4;stroke-dasharray:none"
       id="path2243"
       inkscape:connector-curvature="0" /><path
       d="m 296.96186,289.75252 c 0,0 -1.83356,-10.66859 -1.08584,-36.59447 0.56212,-19.57614 -0.17813,-42.91221 1.22557,-66.27067 1.38237,-22.86781 11.28617,-43.95752 18.3847,-59.13695 10.11286,-21.6497 17.29885,-41.181044 16.96286,-57.55085 -0.35626,-16.727131 -7.84518,-28.982886 -7.84518,-28.982886 0,0 12.15763,10.539522 16.54047,27.61758 4.20045,16.403938 -3.83139,36.360876 -15.49302,65.782146 -7.56038,19.10575 -12.29202,44.66898 -13.524,73.90892 18.72283,-13.79919 23.38193,-34.53797 30.24686,-49.695 7.16253,-15.80449 13.444,-26.15201 13.444,-26.15201 0,0 -3.87405,7.50705 -7.82064,18.93082 -3.89326,11.27337 -6.21748,26.54667 -11.29258,39.94587 -8.36143,20.83478 -16.11167,24.7099 -26.97866,48.86088 -5.68308,9.42915 -6.90546,21.98996 -8.97262,32.0271 -2.05115,9.93793 -3.79192,17.30952 -3.79192,17.30952 z"
       style="fill:#000000;stroke:none;stroke-width:0;stroke-linecap:butt;stroke-linejoin:miter;stroke-miterlimit:4;stroke-dasharray:none;stroke-opacity:1;fill-opacity:1"
       id="path2245"
       inkscape:connector-curvature="0" /><path
       d="m 305.23903,291.48581 c 0,0 2.97807,-10.40405 14.8989,-33.44146 9.00142,-17.39378 18.45723,-38.73842 29.8554,-59.17748 11.16778,-20.00173 29.24208,-34.70757 42.22742,-45.30363 18.50203,-15.11436 33.45,-29.5962 40.2488,-44.48871 6.93959,-15.22849 5.50495,-29.516204 5.50495,-29.516204 0,0 6.38281,14.768771 2.92154,32.060154 -3.33006,16.597 -19.22521,31.09271 -42.49408,52.54082 -15.10583,13.93145 -30.46019,34.9145 -44.25725,60.72198 22.85501,-4.30605 36.04942,-20.97131 48.81609,-31.64523 13.30854,-11.13258 23.45767,-17.72871 23.45767,-17.72871 0,0 -6.75187,5.08256 -15.2605,13.66159 -8.3977,8.4681 -17.11645,21.22091 -27.50665,31.09271 -16.57353,15.1389 -25.23469,15.26796 -45.50628,32.31402 -9.21475,6.02868 -15.76289,16.8146 -21.98036,24.96163 -6.16308,8.06384 -10.92565,13.94852 -10.92565,13.94852"
       style="fill:#000000;fill-opacity:1;fill-rule:nonzero;stroke:none;stroke-width:0;stroke-miterlimit:4;stroke-dasharray:none"
       id="path2247"
       inkscape:connector-curvature="0" /><path
       d="m 305.23903,291.48581 c 0,0 2.97807,-10.40405 14.8989,-33.44146 9.00142,-17.39378 18.45723,-38.73842 29.8554,-59.17748 11.16778,-20.00173 29.24208,-34.70757 42.22742,-45.30363 18.50203,-15.11436 33.45,-29.5962 40.2488,-44.48871 6.93959,-15.22849 5.50495,-29.516204 5.50495,-29.516204 0,0 6.38281,14.768771 2.92154,32.060154 -3.33006,16.597 -19.22521,31.09271 -42.49408,52.54082 -15.10583,13.93145 -30.46019,34.9145 -44.25725,60.72198 22.85501,-4.30605 36.04942,-20.97131 48.81609,-31.64523 13.30854,-11.13258 23.45767,-17.72871 23.45767,-17.72871 0,0 -6.75187,5.08256 -15.2605,13.66159 -8.3977,8.4681 -17.11645,21.22091 -27.50665,31.09271 -16.57353,15.1389 -25.23469,15.26796 -45.50628,32.31402 -9.21475,6.02868 -15.76289,16.8146 -21.98036,24.96163 -6.16308,8.06384 -10.92565,13.94852 -10.92565,13.94852 z"
       style="fill:#000000;stroke:none;stroke-width:0;stroke-linecap:butt;stroke-linejoin:miter;stroke-miterlimit:4;stroke-dasharray:none;stroke-opacity:1;fill-opacity:1"
       id="path2249"
       inkscape:connector-curvature="0" /><path
       d="m 311.93969,296.63878 c 0,0 7.20199,-8.08197 27.93651,-23.66353 15.65622,-11.7683 33.4372,-26.89546 52.57495,-40.36292 18.74096,-13.17734 41.40397,-18.58096 57.70231,-22.49449 23.2262,-5.59348 42.9826,-12.15229 55.56795,-22.61821 12.86054,-10.71018 17.76285,-24.20858 17.76285,-24.20858 0,0 -0.65599,16.08074 -11.27231,30.15513 -10.20886,13.50693 -30.81538,19.67427 -61.08678,28.89755 -19.65294,5.99882 -42.59221,18.2439 -66.21947,35.50436 22.46248,6.03828 41.57677,-3.24794 57.71191,-7.33106 16.81886,-4.25484 28.82715,-5.79188 28.82715,-5.79188 0,0 -8.28783,1.65117 -19.67853,5.68522 -11.23711,3.98605 -24.62884,11.69257 -38.2691,16.07754 -21.50464,6.45214 -29.36582,2.81062 -55.02824,9.37262 -10.91284,1.4325 -21.49396,8.31236 -30.63192,12.95014 -9.04728,4.59511 -15.89728,7.82811 -15.89728,7.82811"
       style="fill:#000000;fill-opacity:1;fill-rule:nonzero;stroke:none;stroke-width:0;stroke-miterlimit:4;stroke-dasharray:none"
       id="path2251"
       inkscape:connector-curvature="0" /><path
       d="m 311.93969,296.63878 c 0,0 7.20199,-8.08197 27.93651,-23.66353 15.65622,-11.7683 33.4372,-26.89546 52.57495,-40.36292 18.74096,-13.17734 41.40397,-18.58096 57.70231,-22.49449 23.2262,-5.59348 42.9826,-12.15229 55.56795,-22.61821 12.86054,-10.71018 17.76285,-24.20858 17.76285,-24.20858 0,0 -0.65599,16.08074 -11.27231,30.15513 -10.20886,13.50693 -30.81538,19.67427 -61.08678,28.89755 -19.65294,5.99882 -42.59221,18.2439 -66.21947,35.50436 22.46248,6.03828 41.57677,-3.24794 57.71191,-7.33106 16.81886,-4.25484 28.82715,-5.79188 28.82715,-5.79188 0,0 -8.28783,1.65117 -19.67853,5.68522 -11.23711,3.98605 -24.62884,11.69257 -38.2691,16.07754 -21.50464,6.45214 -29.36582,2.81062 -55.02824,9.37262 -10.91284,1.4325 -21.49396,8.31236 -30.63192,12.95014 -9.04728,4.59511 -15.89728,7.82811 -15.89728,7.82811 z"
       style="fill:#000000;stroke:none;stroke-width:0;stroke-linecap:butt;stroke-linejoin:miter;stroke-miterlimit:4;stroke-dasharray:none;stroke-opacity:1;fill-opacity:1"
       id="path2253"
       inkscape:connector-curvature="0" /></g></svg>
