  0
SECTION
  2
HEADER
  9
$ACADVER
  1
AC1009
  9
$EXTMIN
 10
0.0
 20
0.0
 30
0.0
  9
$EXTMAX
 10
1000.0
 20
1000.0
 30
0.0
  9
$FILLMODE
 70
 0
  9
$SPLFRAME
 70
 1
  0
ENDSEC
  0
SECTION
  2
TABLES
  0
TABLE
  2
LAYER
 70
1
  0
LAYER
  2
0
 70
     0
 62
     7
  6
CONTINUOUS
  0
ENDTAB
  0
ENDSEC
  0
SECTION
  2
ENTITIES
  0
LINE
  8
0
 62
     0
 10
201.097
 20
88.452
 30
0.0
 11
201.213
 21
88.4481
 31
0.0
  0
LINE
  8
0
 62
     0
 10
201.213
 20
88.4481
 30
0.0
 11
201.33
 21
88.4343
 31
0.0
  0
LINE
  8
0
 62
     0
 10
201.33
 20
88.4343
 30
0.0
 11
201.447
 21
88.4107
 31
0.0
  0
LINE
  8
0
 62
     0
 10
201.447
 20
88.4107
 30
0.0
 11
201.56
 21
88.3789
 31
0.0
  0
LINE
  8
0
 62
     0
 10
201.56
 20
88.3789
 30
0.0
 11
201.67
 21
88.3377
 31
0.0
  0
LINE
  8
0
 62
     0
 10
201.67
 20
88.3377
 30
0.0
 11
201.777
 21
88.2883
 31
0.0
  0
LINE
  8
0
 62
     0
 10
201.777
 20
88.2883
 30
0.0
 11
201.88
 21
88.2304
 31
0.0
  0
LINE
  8
0
 62
     0
 10
201.88
 20
88.2304
 30
0.0
 11
201.978
 21
88.1655
 31
0.0
  0
LINE
  8
0
 62
     0
 10
201.978
 20
88.1655
 30
0.0
 11
202.07
 21
88.0925
 31
0.0
  0
LINE
  8
0
 62
     0
 10
202.07
 20
88.0925
 30
0.0
 11
202.157
 21
88.0124
 31
0.0
  0
LINE
  8
0
 62
     0
 10
202.157
 20
88.0124
 30
0.0
 11
202.237
 21
87.927
 31
0.0
  0
LINE
  8
0
 62
     0
 10
202.237
 20
87.927
 30
0.0
 11
202.31
 21
87.8336
 31
0.0
  0
LINE
  8
0
 62
     0
 10
202.31
 20
87.8336
 30
0.0
 11
202.374
 21
87.7355
 31
0.0
  0
LINE
  8
0
 62
     0
 10
202.374
 20
87.7355
 30
0.0
 11
202.432
 21
87.6321
 31
0.0
  0
LINE
  8
0
 62
     0
 10
202.432
 20
87.6321
 30
0.0
 11
202.482
 21
87.5259
 31
0.0
  0
LINE
  8
0
 62
     0
 10
202.482
 20
87.5259
 30
0.0
 11
202.522
 21
87.4159
 31
0.0
  0
LINE
  8
0
 62
     0
 10
202.522
 20
87.4159
 30
0.0
 11
202.555
 21
87.303
 31
0.0
  0
LINE
  8
0
 62
     0
 10
202.555
 20
87.303
 30
0.0
 11
202.577
 21
87.1873
 31
0.0
  0
LINE
  8
0
 62
     0
 10
202.577
 20
87.1873
 30
0.0
 11
202.591
 21
87.0701
 31
0.0
  0
LINE
  8
0
 62
     0
 10
202.591
 20
87.0701
 30
0.0
 11
202.596
 21
86.9516
 31
0.0
  0
LINE
  8
0
 62
     0
 10
202.596
 20
86.9516
 30
0.0
 11
202.596
 21
1.75011
 31
0.0
  0
LINE
  8
0
 62
     0
 10
202.596
 20
1.75011
 30
0.0
 11
202.591
 21
1.63435
 31
0.0
  0
LINE
  8
0
 62
     0
 10
202.591
 20
1.63435
 30
0.0
 11
202.577
 21
1.51722
 31
0.0
  0
LINE
  8
0
 62
     0
 10
202.577
 20
1.51722
 30
0.0
 11
202.555
 21
1.40009
 31
0.0
  0
LINE
  8
0
 62
     0
 10
202.555
 20
1.40009
 30
0.0
 11
202.522
 21
1.28709
 31
0.0
  0
LINE
  8
0
 62
     0
 10
202.522
 20
1.28709
 30
0.0
 11
202.482
 21
1.17685
 31
0.0
  0
LINE
  8
0
 62
     0
 10
202.482
 20
1.17685
 30
0.0
 11
202.432
 21
1.07074
 31
0.0
  0
LINE
  8
0
 62
     0
 10
202.432
 20
1.07074
 30
0.0
 11
202.374
 21
0.967384
 31
0.0
  0
LINE
  8
0
 62
     0
 10
202.374
 20
0.967384
 30
0.0
 11
202.31
 21
0.869541
 31
0.0
  0
LINE
  8
0
 62
     0
 10
202.31
 20
0.869541
 30
0.0
 11
202.237
 21
0.777215
 31
0.0
  0
LINE
  8
0
 62
     0
 10
202.237
 20
0.777215
 30
0.0
 11
202.157
 21
0.690397
 31
0.0
  0
LINE
  8
0
 62
     0
 10
202.157
 20
0.690397
 30
0.0
 11
202.07
 21
0.610471
 31
0.0
  0
LINE
  8
0
 62
     0
 10
202.07
 20
0.610471
 30
0.0
 11
201.978
 21
0.537436
 31
0.0
  0
LINE
  8
0
 62
     0
 10
201.978
 20
0.537436
 30
0.0
 11
201.88
 21
0.472666
 31
0.0
  0
LINE
  8
0
 62
     0
 10
201.88
 20
0.472666
 30
0.0
 11
201.777
 21
0.414789
 31
0.0
  0
LINE
  8
0
 62
     0
 10
201.777
 20
0.414789
 30
0.0
 11
201.67
 21
0.365181
 31
0.0
  0
LINE
  8
0
 62
     0
 10
201.67
 20
0.365181
 30
0.0
 11
201.56
 21
0.325217
 31
0.0
  0
LINE
  8
0
 62
     0
 10
201.56
 20
0.325217
 30
0.0
 11
201.447
 21
0.292144
 31
0.0
  0
LINE
  8
0
 62
     0
 10
201.447
 20
0.292144
 30
0.0
 11
201.33
 21
0.270095
 31
0.0
  0
LINE
  8
0
 62
     0
 10
201.33
 20
0.270095
 30
0.0
 11
201.213
 21
0.256315
 31
0.0
  0
LINE
  8
0
 62
     0
 10
201.213
 20
0.256315
 30
0.0
 11
201.097
 21
0.250803
 31
0.0
  0
LINE
  8
0
 62
     0
 10
201.097
 20
0.250803
 30
0.0
 11
1.59577
 21
0.250803
 31
0.0
  0
LINE
  8
0
 62
     0
 10
1.59577
 20
0.250803
 30
0.0
 11
1.47726
 21
0.256315
 31
0.0
  0
LINE
  8
0
 62
     0
 10
1.47726
 20
0.256315
 30
0.0
 11
1.36012
 21
0.270095
 31
0.0
  0
LINE
  8
0
 62
     0
 10
1.36012
 20
0.270095
 30
0.0
 11
1.24437
 21
0.292144
 31
0.0
  0
LINE
  8
0
 62
     0
 10
1.24437
 20
0.292144
 30
0.0
 11
1.13137
 21
0.325217
 31
0.0
  0
LINE
  8
0
 62
     0
 10
1.13137
 20
0.325217
 30
0.0
 11
1.02113
 21
0.365181
 31
0.0
  0
LINE
  8
0
 62
     0
 10
1.02113
 20
0.365181
 30
0.0
 11
0.915017
 21
0.414789
 31
0.0
  0
LINE
  8
0
 62
     0
 10
0.915017
 20
0.414789
 30
0.0
 11
0.811664
 21
0.472666
 31
0.0
  0
LINE
  8
0
 62
     0
 10
0.811664
 20
0.472666
 30
0.0
 11
0.713825
 21
0.537436
 31
0.0
  0
LINE
  8
0
 62
     0
 10
0.713825
 20
0.537436
 30
0.0
 11
0.620116
 21
0.610471
 31
0.0
  0
LINE
  8
0
 62
     0
 10
0.620116
 20
0.610471
 30
0.0
 11
0.534681
 21
0.690397
 31
0.0
  0
LINE
  8
0
 62
     0
 10
0.534681
 20
0.690397
 30
0.0
 11
0.454752
 21
0.777215
 31
0.0
  0
LINE
  8
0
 62
     0
 10
0.454752
 20
0.777215
 30
0.0
 11
0.381716
 21
0.869541
 31
0.0
  0
LINE
  8
0
 62
     0
 10
0.381716
 20
0.869541
 30
0.0
 11
0.316949
 21
0.967384
 31
0.0
  0
LINE
  8
0
 62
     0
 10
0.316949
 20
0.967384
 30
0.0
 11
0.259071
 21
1.07074
 31
0.0
  0
LINE
  8
0
 62
     0
 10
0.259071
 20
1.07074
 30
0.0
 11
0.209462
 21
1.17685
 31
0.0
  0
LINE
  8
0
 62
     0
 10
0.209462
 20
1.17685
 30
0.0
 11
0.168121
 21
1.28709
 31
0.0
  0
LINE
  8
0
 62
     0
 10
0.168121
 20
1.28709
 30
0.0
 11
0.136426
 21
1.40009
 31
0.0
  0
LINE
  8
0
 62
     0
 10
0.136426
 20
1.40009
 30
0.0
 11
0.112999
 21
1.51722
 31
0.0
  0
LINE
  8
0
 62
     0
 10
0.112999
 20
1.51722
 30
0.0
 11
0.0992188
 21
1.63435
 31
0.0
  0
LINE
  8
0
 62
     0
 10
0.0992188
 20
1.63435
 30
0.0
 11
0.0950846
 21
1.75149
 31
0.0
  0
LINE
  8
0
 62
     0
 10
0.0950846
 20
1.75149
 30
0.0
 11
0.0950846
 21
86.9516
 31
0.0
  0
LINE
  8
0
 62
     0
 10
0.0950846
 20
86.9516
 30
0.0
 11
0.0992188
 21
87.0701
 31
0.0
  0
LINE
  8
0
 62
     0
 10
0.0992188
 20
87.0701
 30
0.0
 11
0.112999
 21
87.1873
 31
0.0
  0
LINE
  8
0
 62
     0
 10
0.112999
 20
87.1873
 30
0.0
 11
0.136426
 21
87.303
 31
0.0
  0
LINE
  8
0
 62
     0
 10
0.136426
 20
87.303
 30
0.0
 11
0.168121
 21
87.4159
 31
0.0
  0
LINE
  8
0
 62
     0
 10
0.168121
 20
87.4159
 30
0.0
 11
0.209462
 21
87.5259
 31
0.0
  0
LINE
  8
0
 62
     0
 10
0.209462
 20
87.5259
 30
0.0
 11
0.259071
 21
87.6321
 31
0.0
  0
LINE
  8
0
 62
     0
 10
0.259071
 20
87.6321
 30
0.0
 11
0.316949
 21
87.7355
 31
0.0
  0
LINE
  8
0
 62
     0
 10
0.316949
 20
87.7355
 30
0.0
 11
0.381716
 21
87.8336
 31
0.0
  0
LINE
  8
0
 62
     0
 10
0.381716
 20
87.8336
 30
0.0
 11
0.454752
 21
87.927
 31
0.0
  0
LINE
  8
0
 62
     0
 10
0.454752
 20
87.927
 30
0.0
 11
0.534681
 21
88.0124
 31
0.0
  0
LINE
  8
0
 62
     0
 10
0.534681
 20
88.0124
 30
0.0
 11
0.620116
 21
88.0925
 31
0.0
  0
LINE
  8
0
 62
     0
 10
0.620116
 20
88.0925
 30
0.0
 11
0.713825
 21
88.1655
 31
0.0
  0
LINE
  8
0
 62
     0
 10
0.713825
 20
88.1655
 30
0.0
 11
0.811664
 21
88.2304
 31
0.0
  0
LINE
  8
0
 62
     0
 10
0.811664
 20
88.2304
 30
0.0
 11
0.915017
 21
88.2883
 31
0.0
  0
LINE
  8
0
 62
     0
 10
0.915017
 20
88.2883
 30
0.0
 11
1.02113
 21
88.3377
 31
0.0
  0
LINE
  8
0
 62
     0
 10
1.02113
 20
88.3377
 30
0.0
 11
1.13137
 21
88.3789
 31
0.0
  0
LINE
  8
0
 62
     0
 10
1.13137
 20
88.3789
 30
0.0
 11
1.24437
 21
88.4107
 31
0.0
  0
LINE
  8
0
 62
     0
 10
1.24437
 20
88.4107
 30
0.0
 11
1.36012
 21
88.4343
 31
0.0
  0
LINE
  8
0
 62
     0
 10
1.36012
 20
88.4343
 30
0.0
 11
1.47726
 21
88.4481
 31
0.0
  0
LINE
  8
0
 62
     0
 10
1.47726
 20
88.4481
 30
0.0
 11
1.59577
 21
88.452
 31
0.0
  0
LINE
  8
0
 62
     0
 10
1.59577
 20
88.452
 30
0.0
 11
201.097
 21
88.452
 31
0.0
  0
LINE
  8
0
 62
     0
 10
1.78594
 20
3.20256
 30
0.0
 11
1.50757
 21
3.06062
 31
0.0
  0
LINE
  8
0
 62
     0
 10
1.50757
 20
3.06062
 30
0.0
 11
1.28571
 21
2.83876
 31
0.0
  0
LINE
  8
0
 62
     0
 10
1.28571
 20
2.83876
 30
0.0
 11
1.14377
 21
2.56039
 31
0.0
  0
LINE
  8
0
 62
     0
 10
1.14377
 20
2.56039
 30
0.0
 11
1.09554
 21
2.25034
 31
0.0
  0
LINE
  8
0
 62
     0
 10
1.09554
 20
2.25034
 30
0.0
 11
1.14377
 21
1.94166
 31
0.0
  0
LINE
  8
0
 62
     0
 10
1.14377
 20
1.94166
 30
0.0
 11
1.28571
 21
1.66329
 31
0.0
  0
LINE
  8
0
 62
     0
 10
1.28571
 20
1.66329
 30
0.0
 11
1.50757
 21
1.44143
 31
0.0
  0
LINE
  8
0
 62
     0
 10
1.50757
 20
1.44143
 30
0.0
 11
1.78594
 21
1.29949
 31
0.0
  0
LINE
  8
0
 62
     0
 10
1.78594
 20
1.29949
 30
0.0
 11
2.096
 21
1.25126
 31
0.0
  0
LINE
  8
0
 62
     0
 10
2.096
 20
1.25126
 30
0.0
 11
2.40468
 21
1.29949
 31
0.0
  0
LINE
  8
0
 62
     0
 10
2.40468
 20
1.29949
 30
0.0
 11
2.68304
 21
1.44143
 31
0.0
  0
LINE
  8
0
 62
     0
 10
2.68304
 20
1.44143
 30
0.0
 11
2.90491
 21
1.66329
 31
0.0
  0
LINE
  8
0
 62
     0
 10
2.90491
 20
1.66329
 30
0.0
 11
3.04684
 21
1.94166
 31
0.0
  0
LINE
  8
0
 62
     0
 10
3.04684
 20
1.94166
 30
0.0
 11
3.09507
 21
2.25034
 31
0.0
  0
LINE
  8
0
 62
     0
 10
3.09507
 20
2.25034
 30
0.0
 11
3.04684
 21
2.56039
 31
0.0
  0
LINE
  8
0
 62
     0
 10
3.04684
 20
2.56039
 30
0.0
 11
2.90491
 21
2.83876
 31
0.0
  0
LINE
  8
0
 62
     0
 10
2.90491
 20
2.83876
 30
0.0
 11
2.68304
 21
3.06062
 31
0.0
  0
LINE
  8
0
 62
     0
 10
2.68304
 20
3.06062
 30
0.0
 11
2.40468
 21
3.20256
 31
0.0
  0
LINE
  8
0
 62
     0
 10
2.40468
 20
3.20256
 30
0.0
 11
2.096
 21
3.25079
 31
0.0
  0
LINE
  8
0
 62
     0
 10
2.096
 20
3.25079
 30
0.0
 11
1.78594
 21
3.20256
 31
0.0
  0
LINE
  8
0
 62
     0
 10
200.287
 20
3.20256
 30
0.0
 11
200.008
 21
3.06062
 31
0.0
  0
LINE
  8
0
 62
     0
 10
200.008
 20
3.06062
 30
0.0
 11
199.787
 21
2.83876
 31
0.0
  0
LINE
  8
0
 62
     0
 10
199.787
 20
2.83876
 30
0.0
 11
199.645
 21
2.56039
 31
0.0
  0
LINE
  8
0
 62
     0
 10
199.645
 20
2.56039
 30
0.0
 11
199.596
 21
2.25034
 31
0.0
  0
LINE
  8
0
 62
     0
 10
199.596
 20
2.25034
 30
0.0
 11
199.645
 21
1.94166
 31
0.0
  0
LINE
  8
0
 62
     0
 10
199.645
 20
1.94166
 30
0.0
 11
199.787
 21
1.66329
 31
0.0
  0
LINE
  8
0
 62
     0
 10
199.787
 20
1.66329
 30
0.0
 11
200.008
 21
1.44143
 31
0.0
  0
LINE
  8
0
 62
     0
 10
200.008
 20
1.44143
 30
0.0
 11
200.287
 21
1.29949
 31
0.0
  0
LINE
  8
0
 62
     0
 10
200.287
 20
1.29949
 30
0.0
 11
200.597
 21
1.25126
 31
0.0
  0
LINE
  8
0
 62
     0
 10
200.597
 20
1.25126
 30
0.0
 11
200.906
 21
1.29949
 31
0.0
  0
LINE
  8
0
 62
     0
 10
200.906
 20
1.29949
 30
0.0
 11
201.184
 21
1.44143
 31
0.0
  0
LINE
  8
0
 62
     0
 10
201.184
 20
1.44143
 30
0.0
 11
201.406
 21
1.66329
 31
0.0
  0
LINE
  8
0
 62
     0
 10
201.406
 20
1.66329
 30
0.0
 11
201.548
 21
1.94166
 31
0.0
  0
LINE
  8
0
 62
     0
 10
201.548
 20
1.94166
 30
0.0
 11
201.596
 21
2.25034
 31
0.0
  0
LINE
  8
0
 62
     0
 10
201.596
 20
2.25034
 30
0.0
 11
201.548
 21
2.56039
 31
0.0
  0
LINE
  8
0
 62
     0
 10
201.548
 20
2.56039
 30
0.0
 11
201.406
 21
2.83876
 31
0.0
  0
LINE
  8
0
 62
     0
 10
201.406
 20
2.83876
 30
0.0
 11
201.184
 21
3.06062
 31
0.0
  0
LINE
  8
0
 62
     0
 10
201.184
 20
3.06062
 30
0.0
 11
200.906
 21
3.20256
 31
0.0
  0
LINE
  8
0
 62
     0
 10
200.906
 20
3.20256
 30
0.0
 11
200.597
 21
3.25079
 31
0.0
  0
LINE
  8
0
 62
     0
 10
200.597
 20
3.25079
 30
0.0
 11
200.287
 21
3.20256
 31
0.0
  0
LINE
  8
0
 62
     0
 10
89.5823
 20
22.7762
 30
0.0
 11
89.5823
 21
18.0771
 31
0.0
  0
LINE
  8
0
 62
     0
 10
89.5823
 20
18.0771
 30
0.0
 11
88.0579
 21
18.0771
 31
0.0
  0
LINE
  8
0
 62
     0
 10
88.0579
 20
18.0771
 30
0.0
 11
88.0579
 21
21.3072
 31
0.0
  0
LINE
  8
0
 62
     0
 10
88.0579
 20
21.3072
 30
0.0
 11
81.3072
 21
21.3072
 31
0.0
  0
LINE
  8
0
 62
     0
 10
81.3072
 20
21.3072
 30
0.0
 11
81.3072
 21
18.0771
 31
0.0
  0
LINE
  8
0
 62
     0
 10
81.3072
 20
18.0771
 30
0.0
 11
80.4831
 21
18.0771
 31
0.0
  0
LINE
  8
0
 62
     0
 10
80.4831
 20
18.0771
 30
0.0
 11
80.4831
 21
15.2769
 31
0.0
  0
LINE
  8
0
 62
     0
 10
80.4831
 20
15.2769
 30
0.0
 11
81.3072
 21
15.2769
 31
0.0
  0
LINE
  8
0
 62
     0
 10
81.3072
 20
15.2769
 30
0.0
 11
81.3072
 21
9.00688
 31
0.0
  0
LINE
  8
0
 62
     0
 10
81.3072
 20
9.00688
 30
0.0
 11
83.0322
 21
9.00688
 31
0.0
  0
LINE
  8
0
 62
     0
 10
83.0322
 20
9.00688
 30
0.0
 11
83.0322
 21
7.80658
 31
0.0
  0
LINE
  8
0
 62
     0
 10
83.0322
 20
7.80658
 30
0.0
 11
86.3328
 21
7.80658
 31
0.0
  0
LINE
  8
0
 62
     0
 10
86.3328
 20
7.80658
 30
0.0
 11
86.3328
 21
9.00688
 31
0.0
  0
LINE
  8
0
 62
     0
 10
86.3328
 20
9.00688
 30
0.0
 11
88.0579
 21
9.00688
 31
0.0
  0
LINE
  8
0
 62
     0
 10
88.0579
 20
9.00688
 30
0.0
 11
88.0579
 21
13.4772
 31
0.0
  0
LINE
  8
0
 62
     0
 10
88.0579
 20
13.4772
 30
0.0
 11
89.5823
 21
13.4772
 31
0.0
  0
LINE
  8
0
 62
     0
 10
89.5823
 20
13.4772
 30
0.0
 11
89.5823
 21
8.77672
 31
0.0
  0
LINE
  8
0
 62
     0
 10
89.5823
 20
8.77672
 30
0.0
 11
103.583
 21
8.77672
 31
0.0
  0
LINE
  8
0
 62
     0
 10
103.583
 20
8.77672
 30
0.0
 11
103.583
 21
13.4772
 31
0.0
  0
LINE
  8
0
 62
     0
 10
103.583
 20
13.4772
 30
0.0
 11
105.107
 21
13.4772
 31
0.0
  0
LINE
  8
0
 62
     0
 10
105.107
 20
13.4772
 30
0.0
 11
105.107
 21
9.00688
 31
0.0
  0
LINE
  8
0
 62
     0
 10
105.107
 20
9.00688
 30
0.0
 11
106.832
 21
9.00688
 31
0.0
  0
LINE
  8
0
 62
     0
 10
106.832
 20
9.00688
 30
0.0
 11
106.832
 21
7.80658
 31
0.0
  0
LINE
  8
0
 62
     0
 10
106.832
 20
7.80658
 30
0.0
 11
110.133
 21
7.80658
 31
0.0
  0
LINE
  8
0
 62
     0
 10
110.133
 20
7.80658
 30
0.0
 11
110.133
 21
9.00688
 31
0.0
  0
LINE
  8
0
 62
     0
 10
110.133
 20
9.00688
 30
0.0
 11
111.858
 21
9.00688
 31
0.0
  0
LINE
  8
0
 62
     0
 10
111.858
 20
9.00688
 30
0.0
 11
111.858
 21
15.2769
 31
0.0
  0
LINE
  8
0
 62
     0
 10
111.858
 20
15.2769
 30
0.0
 11
112.682
 21
15.2769
 31
0.0
  0
LINE
  8
0
 62
     0
 10
112.682
 20
15.2769
 30
0.0
 11
112.682
 21
18.0771
 31
0.0
  0
LINE
  8
0
 62
     0
 10
112.682
 20
18.0771
 30
0.0
 11
111.858
 21
18.0771
 31
0.0
  0
LINE
  8
0
 62
     0
 10
111.858
 20
18.0771
 30
0.0
 11
111.858
 21
21.3072
 31
0.0
  0
LINE
  8
0
 62
     0
 10
111.858
 20
21.3072
 30
0.0
 11
105.107
 21
21.3072
 31
0.0
  0
LINE
  8
0
 62
     0
 10
105.107
 20
21.3072
 30
0.0
 11
105.107
 21
18.0771
 31
0.0
  0
LINE
  8
0
 62
     0
 10
105.107
 20
18.0771
 30
0.0
 11
103.583
 21
18.0771
 31
0.0
  0
LINE
  8
0
 62
     0
 10
103.583
 20
18.0771
 30
0.0
 11
103.583
 21
22.7762
 31
0.0
  0
LINE
  8
0
 62
     0
 10
103.583
 20
22.7762
 30
0.0
 11
89.5823
 21
22.7762
 31
0.0
  0
LINE
  8
0
 62
     0
 10
137.207
 20
22.7762
 30
0.0
 11
151.208
 21
22.7762
 31
0.0
  0
LINE
  8
0
 62
     0
 10
151.208
 20
22.7762
 30
0.0
 11
151.208
 21
8.77672
 31
0.0
  0
LINE
  8
0
 62
     0
 10
151.208
 20
8.77672
 30
0.0
 11
137.207
 21
8.77672
 31
0.0
  0
LINE
  8
0
 62
     0
 10
137.207
 20
8.77672
 30
0.0
 11
137.207
 21
22.7762
 31
0.0
  0
LINE
  8
0
 62
     0
 10
118.157
 20
22.7762
 30
0.0
 11
132.158
 21
22.7762
 31
0.0
  0
LINE
  8
0
 62
     0
 10
132.158
 20
22.7762
 30
0.0
 11
132.158
 21
8.77672
 31
0.0
  0
LINE
  8
0
 62
     0
 10
132.158
 20
8.77672
 30
0.0
 11
118.157
 21
8.77672
 31
0.0
  0
LINE
  8
0
 62
     0
 10
118.157
 20
8.77672
 30
0.0
 11
118.157
 21
22.7762
 31
0.0
  0
LINE
  8
0
 62
     0
 10
61.0073
 20
22.7762
 30
0.0
 11
75.008
 21
22.7762
 31
0.0
  0
LINE
  8
0
 62
     0
 10
75.008
 20
22.7762
 30
0.0
 11
75.008
 21
8.77672
 31
0.0
  0
LINE
  8
0
 62
     0
 10
75.008
 20
8.77672
 30
0.0
 11
61.0073
 21
8.77672
 31
0.0
  0
LINE
  8
0
 62
     0
 10
61.0073
 20
8.77672
 30
0.0
 11
61.0073
 21
22.7762
 31
0.0
  0
LINE
  8
0
 62
     0
 10
41.9573
 20
22.7762
 30
0.0
 11
55.958
 21
22.7762
 31
0.0
  0
LINE
  8
0
 62
     0
 10
55.958
 20
22.7762
 30
0.0
 11
55.958
 21
8.77672
 31
0.0
  0
LINE
  8
0
 62
     0
 10
55.958
 20
8.77672
 30
0.0
 11
41.9573
 21
8.77672
 31
0.0
  0
LINE
  8
0
 62
     0
 10
41.9573
 20
8.77672
 30
0.0
 11
41.9573
 21
22.7762
 31
0.0
  0
LINE
  8
0
 62
     0
 10
156.257
 20
41.8264
 30
0.0
 11
170.258
 21
41.8264
 31
0.0
  0
LINE
  8
0
 62
     0
 10
170.258
 20
41.8264
 30
0.0
 11
170.258
 21
27.8267
 31
0.0
  0
LINE
  8
0
 62
     0
 10
170.258
 20
27.8267
 30
0.0
 11
156.257
 21
27.8267
 31
0.0
  0
LINE
  8
0
 62
     0
 10
156.257
 20
27.8267
 30
0.0
 11
156.257
 21
41.8264
 31
0.0
  0
LINE
  8
0
 62
     0
 10
137.207
 20
41.8264
 30
0.0
 11
151.208
 21
41.8264
 31
0.0
  0
LINE
  8
0
 62
     0
 10
151.208
 20
41.8264
 30
0.0
 11
151.208
 21
27.8267
 31
0.0
  0
LINE
  8
0
 62
     0
 10
151.208
 20
27.8267
 30
0.0
 11
137.207
 21
27.8267
 31
0.0
  0
LINE
  8
0
 62
     0
 10
137.207
 20
27.8267
 30
0.0
 11
137.207
 21
41.8264
 31
0.0
  0
LINE
  8
0
 62
     0
 10
118.157
 20
41.8264
 30
0.0
 11
132.158
 21
41.8264
 31
0.0
  0
LINE
  8
0
 62
     0
 10
132.158
 20
41.8264
 30
0.0
 11
132.158
 21
27.8267
 31
0.0
  0
LINE
  8
0
 62
     0
 10
132.158
 20
27.8267
 30
0.0
 11
118.157
 21
27.8267
 31
0.0
  0
LINE
  8
0
 62
     0
 10
118.157
 20
27.8267
 30
0.0
 11
118.157
 21
41.8264
 31
0.0
  0
LINE
  8
0
 62
     0
 10
99.1073
 20
41.8264
 30
0.0
 11
113.108
 21
41.8264
 31
0.0
  0
LINE
  8
0
 62
     0
 10
113.108
 20
41.8264
 30
0.0
 11
113.108
 21
27.8267
 31
0.0
  0
LINE
  8
0
 62
     0
 10
113.108
 20
27.8267
 30
0.0
 11
99.1073
 21
27.8267
 31
0.0
  0
LINE
  8
0
 62
     0
 10
99.1073
 20
27.8267
 30
0.0
 11
99.1073
 21
41.8264
 31
0.0
  0
LINE
  8
0
 62
     0
 10
80.0573
 20
41.8264
 30
0.0
 11
94.058
 21
41.8264
 31
0.0
  0
LINE
  8
0
 62
     0
 10
94.058
 20
41.8264
 30
0.0
 11
94.058
 21
27.8267
 31
0.0
  0
LINE
  8
0
 62
     0
 10
94.058
 20
27.8267
 30
0.0
 11
80.0573
 21
27.8267
 31
0.0
  0
LINE
  8
0
 62
     0
 10
80.0573
 20
27.8267
 30
0.0
 11
80.0573
 21
41.8264
 31
0.0
  0
LINE
  8
0
 62
     0
 10
61.0073
 20
41.8264
 30
0.0
 11
75.008
 21
41.8264
 31
0.0
  0
LINE
  8
0
 62
     0
 10
75.008
 20
41.8264
 30
0.0
 11
75.008
 21
27.8267
 31
0.0
  0
LINE
  8
0
 62
     0
 10
75.008
 20
27.8267
 30
0.0
 11
61.0073
 21
27.8267
 31
0.0
  0
LINE
  8
0
 62
     0
 10
61.0073
 20
27.8267
 30
0.0
 11
61.0073
 21
41.8264
 31
0.0
  0
LINE
  8
0
 62
     0
 10
41.9573
 20
41.8264
 30
0.0
 11
55.958
 21
41.8264
 31
0.0
  0
LINE
  8
0
 62
     0
 10
55.958
 20
41.8264
 30
0.0
 11
55.958
 21
27.8267
 31
0.0
  0
LINE
  8
0
 62
     0
 10
55.958
 20
27.8267
 30
0.0
 11
41.9573
 21
27.8267
 31
0.0
  0
LINE
  8
0
 62
     0
 10
41.9573
 20
27.8267
 30
0.0
 11
41.9573
 21
41.8264
 31
0.0
  0
LINE
  8
0
 62
     0
 10
22.9071
 20
41.8264
 30
0.0
 11
36.908
 21
41.8264
 31
0.0
  0
LINE
  8
0
 62
     0
 10
36.908
 20
41.8264
 30
0.0
 11
36.908
 21
27.8267
 31
0.0
  0
LINE
  8
0
 62
     0
 10
36.908
 20
27.8267
 30
0.0
 11
22.9071
 21
27.8267
 31
0.0
  0
LINE
  8
0
 62
     0
 10
22.9071
 20
27.8267
 30
0.0
 11
22.9071
 21
41.8264
 31
0.0
  0
LINE
  8
0
 62
     0
 10
165.782
 20
60.8764
 30
0.0
 11
179.783
 21
60.8764
 31
0.0
  0
LINE
  8
0
 62
     0
 10
179.783
 20
60.8764
 30
0.0
 11
179.783
 21
46.8768
 31
0.0
  0
LINE
  8
0
 62
     0
 10
179.783
 20
46.8768
 30
0.0
 11
165.782
 21
46.8768
 31
0.0
  0
LINE
  8
0
 62
     0
 10
165.782
 20
46.8768
 30
0.0
 11
165.782
 21
60.8764
 31
0.0
  0
LINE
  8
0
 62
     0
 10
146.732
 20
60.8764
 30
0.0
 11
160.733
 21
60.8764
 31
0.0
  0
LINE
  8
0
 62
     0
 10
160.733
 20
60.8764
 30
0.0
 11
160.733
 21
46.8768
 31
0.0
  0
LINE
  8
0
 62
     0
 10
160.733
 20
46.8768
 30
0.0
 11
146.732
 21
46.8768
 31
0.0
  0
LINE
  8
0
 62
     0
 10
146.732
 20
46.8768
 30
0.0
 11
146.732
 21
60.8764
 31
0.0
  0
LINE
  8
0
 62
     0
 10
127.682
 20
60.8764
 30
0.0
 11
141.683
 21
60.8764
 31
0.0
  0
LINE
  8
0
 62
     0
 10
141.683
 20
60.8764
 30
0.0
 11
141.683
 21
46.8768
 31
0.0
  0
LINE
  8
0
 62
     0
 10
141.683
 20
46.8768
 30
0.0
 11
127.682
 21
46.8768
 31
0.0
  0
LINE
  8
0
 62
     0
 10
127.682
 20
46.8768
 30
0.0
 11
127.682
 21
60.8764
 31
0.0
  0
LINE
  8
0
 62
     0
 10
108.632
 20
60.8764
 30
0.0
 11
122.633
 21
60.8764
 31
0.0
  0
LINE
  8
0
 62
     0
 10
122.633
 20
60.8764
 30
0.0
 11
122.633
 21
46.8768
 31
0.0
  0
LINE
  8
0
 62
     0
 10
122.633
 20
46.8768
 30
0.0
 11
108.632
 21
46.8768
 31
0.0
  0
LINE
  8
0
 62
     0
 10
108.632
 20
46.8768
 30
0.0
 11
108.632
 21
60.8764
 31
0.0
  0
LINE
  8
0
 62
     0
 10
89.5823
 20
60.8764
 30
0.0
 11
103.583
 21
60.8764
 31
0.0
  0
LINE
  8
0
 62
     0
 10
103.583
 20
60.8764
 30
0.0
 11
103.583
 21
46.8768
 31
0.0
  0
LINE
  8
0
 62
     0
 10
103.583
 20
46.8768
 30
0.0
 11
89.5823
 21
46.8768
 31
0.0
  0
LINE
  8
0
 62
     0
 10
89.5823
 20
46.8768
 30
0.0
 11
89.5823
 21
60.8764
 31
0.0
  0
LINE
  8
0
 62
     0
 10
70.5323
 20
60.8764
 30
0.0
 11
84.533
 21
60.8764
 31
0.0
  0
LINE
  8
0
 62
     0
 10
84.533
 20
60.8764
 30
0.0
 11
84.533
 21
46.8768
 31
0.0
  0
LINE
  8
0
 62
     0
 10
84.533
 20
46.8768
 30
0.0
 11
70.5323
 21
46.8768
 31
0.0
  0
LINE
  8
0
 62
     0
 10
70.5323
 20
46.8768
 30
0.0
 11
70.5323
 21
60.8764
 31
0.0
  0
LINE
  8
0
 62
     0
 10
51.4823
 20
60.8764
 30
0.0
 11
65.483
 21
60.8764
 31
0.0
  0
LINE
  8
0
 62
     0
 10
65.483
 20
60.8764
 30
0.0
 11
65.483
 21
46.8768
 31
0.0
  0
LINE
  8
0
 62
     0
 10
65.483
 20
46.8768
 30
0.0
 11
51.4823
 21
46.8768
 31
0.0
  0
LINE
  8
0
 62
     0
 10
51.4823
 20
46.8768
 30
0.0
 11
51.4823
 21
60.8764
 31
0.0
  0
LINE
  8
0
 62
     0
 10
32.4321
 20
60.8764
 30
0.0
 11
46.433
 21
60.8764
 31
0.0
  0
LINE
  8
0
 62
     0
 10
46.433
 20
60.8764
 30
0.0
 11
46.433
 21
46.8768
 31
0.0
  0
LINE
  8
0
 62
     0
 10
46.433
 20
46.8768
 30
0.0
 11
32.4321
 21
46.8768
 31
0.0
  0
LINE
  8
0
 62
     0
 10
32.4321
 20
46.8768
 30
0.0
 11
32.4321
 21
60.8764
 31
0.0
  0
LINE
  8
0
 62
     0
 10
13.3821
 20
60.8764
 30
0.0
 11
27.383
 21
60.8764
 31
0.0
  0
LINE
  8
0
 62
     0
 10
27.383
 20
60.8764
 30
0.0
 11
27.383
 21
46.8768
 31
0.0
  0
LINE
  8
0
 62
     0
 10
27.383
 20
46.8768
 30
0.0
 11
13.3821
 21
46.8768
 31
0.0
  0
LINE
  8
0
 62
     0
 10
13.3821
 20
46.8768
 30
0.0
 11
13.3821
 21
60.8764
 31
0.0
  0
LINE
  8
0
 62
     0
 10
180.071
 20
79.9274
 30
0.0
 11
194.07
 21
79.9274
 31
0.0
  0
LINE
  8
0
 62
     0
 10
194.07
 20
79.9274
 30
0.0
 11
194.07
 21
65.9268
 31
0.0
  0
LINE
  8
0
 62
     0
 10
194.07
 20
65.9268
 30
0.0
 11
180.071
 21
65.9268
 31
0.0
  0
LINE
  8
0
 62
     0
 10
180.071
 20
65.9268
 30
0.0
 11
180.071
 21
79.9274
 31
0.0
  0
LINE
  8
0
 62
     0
 10
161.021
 20
79.9274
 30
0.0
 11
175.02
 21
79.9274
 31
0.0
  0
LINE
  8
0
 62
     0
 10
175.02
 20
79.9274
 30
0.0
 11
175.02
 21
65.9268
 31
0.0
  0
LINE
  8
0
 62
     0
 10
175.02
 20
65.9268
 30
0.0
 11
161.021
 21
65.9268
 31
0.0
  0
LINE
  8
0
 62
     0
 10
161.021
 20
65.9268
 30
0.0
 11
161.021
 21
79.9274
 31
0.0
  0
LINE
  8
0
 62
     0
 10
141.971
 20
79.9274
 30
0.0
 11
155.97
 21
79.9274
 31
0.0
  0
LINE
  8
0
 62
     0
 10
155.97
 20
79.9274
 30
0.0
 11
155.97
 21
65.9268
 31
0.0
  0
LINE
  8
0
 62
     0
 10
155.97
 20
65.9268
 30
0.0
 11
141.971
 21
65.9268
 31
0.0
  0
LINE
  8
0
 62
     0
 10
141.971
 20
65.9268
 30
0.0
 11
141.971
 21
79.9274
 31
0.0
  0
LINE
  8
0
 62
     0
 10
122.92
 20
79.9274
 30
0.0
 11
136.92
 21
79.9274
 31
0.0
  0
LINE
  8
0
 62
     0
 10
136.92
 20
79.9274
 30
0.0
 11
136.92
 21
65.9268
 31
0.0
  0
LINE
  8
0
 62
     0
 10
136.92
 20
65.9268
 30
0.0
 11
122.92
 21
65.9268
 31
0.0
  0
LINE
  8
0
 62
     0
 10
122.92
 20
65.9268
 30
0.0
 11
122.92
 21
79.9274
 31
0.0
  0
LINE
  8
0
 62
     0
 10
103.87
 20
79.9274
 30
0.0
 11
117.869
 21
79.9274
 31
0.0
  0
LINE
  8
0
 62
     0
 10
117.869
 20
79.9274
 30
0.0
 11
117.869
 21
65.9268
 31
0.0
  0
LINE
  8
0
 62
     0
 10
117.869
 20
65.9268
 30
0.0
 11
103.87
 21
65.9268
 31
0.0
  0
LINE
  8
0
 62
     0
 10
103.87
 20
65.9268
 30
0.0
 11
103.87
 21
79.9274
 31
0.0
  0
LINE
  8
0
 62
     0
 10
84.8212
 20
79.9274
 30
0.0
 11
98.8205
 21
79.9274
 31
0.0
  0
LINE
  8
0
 62
     0
 10
98.8205
 20
79.9274
 30
0.0
 11
98.8205
 21
65.9268
 31
0.0
  0
LINE
  8
0
 62
     0
 10
98.8205
 20
65.9268
 30
0.0
 11
84.8212
 21
65.9268
 31
0.0
  0
LINE
  8
0
 62
     0
 10
84.8212
 20
65.9268
 30
0.0
 11
84.8212
 21
79.9274
 31
0.0
  0
LINE
  8
0
 62
     0
 10
65.7712
 20
79.9274
 30
0.0
 11
79.7705
 21
79.9274
 31
0.0
  0
LINE
  8
0
 62
     0
 10
79.7705
 20
79.9274
 30
0.0
 11
79.7705
 21
65.9268
 31
0.0
  0
LINE
  8
0
 62
     0
 10
79.7705
 20
65.9268
 30
0.0
 11
65.7712
 21
65.9268
 31
0.0
  0
LINE
  8
0
 62
     0
 10
65.7712
 20
65.9268
 30
0.0
 11
65.7712
 21
79.9274
 31
0.0
  0
LINE
  8
0
 62
     0
 10
46.7212
 20
79.9274
 30
0.0
 11
60.7205
 21
79.9274
 31
0.0
  0
LINE
  8
0
 62
     0
 10
60.7205
 20
79.9274
 30
0.0
 11
60.7205
 21
65.9268
 31
0.0
  0
LINE
  8
0
 62
     0
 10
60.7205
 20
65.9268
 30
0.0
 11
46.7212
 21
65.9268
 31
0.0
  0
LINE
  8
0
 62
     0
 10
46.7212
 20
65.9268
 30
0.0
 11
46.7212
 21
79.9274
 31
0.0
  0
LINE
  8
0
 62
     0
 10
27.671
 20
79.9274
 30
0.0
 11
41.6705
 21
79.9274
 31
0.0
  0
LINE
  8
0
 62
     0
 10
41.6705
 20
79.9274
 30
0.0
 11
41.6705
 21
65.9268
 31
0.0
  0
LINE
  8
0
 62
     0
 10
41.6705
 20
65.9268
 30
0.0
 11
27.671
 21
65.9268
 31
0.0
  0
LINE
  8
0
 62
     0
 10
27.671
 20
65.9268
 30
0.0
 11
27.671
 21
79.9274
 31
0.0
  0
LINE
  8
0
 62
     0
 10
8.61963
 20
79.9274
 30
0.0
 11
22.6205
 21
79.9274
 31
0.0
  0
LINE
  8
0
 62
     0
 10
22.6205
 20
79.9274
 30
0.0
 11
22.6205
 21
65.9268
 31
0.0
  0
LINE
  8
0
 62
     0
 10
22.6205
 20
65.9268
 30
0.0
 11
8.61963
 21
65.9268
 31
0.0
  0
LINE
  8
0
 62
     0
 10
8.61963
 20
65.9268
 30
0.0
 11
8.61963
 21
79.9274
 31
0.0
  0
LINE
  8
0
 62
     0
 10
1.78594
 20
87.4035
 30
0.0
 11
1.50757
 21
87.2613
 31
0.0
  0
LINE
  8
0
 62
     0
 10
1.50757
 20
87.2613
 30
0.0
 11
1.28571
 21
87.0398
 31
0.0
  0
LINE
  8
0
 62
     0
 10
1.28571
 20
87.0398
 30
0.0
 11
1.14377
 21
86.7615
 31
0.0
  0
LINE
  8
0
 62
     0
 10
1.14377
 20
86.7615
 30
0.0
 11
1.09554
 21
86.4514
 31
0.0
  0
LINE
  8
0
 62
     0
 10
1.09554
 20
86.4514
 30
0.0
 11
1.14377
 21
86.1427
 31
0.0
  0
LINE
  8
0
 62
     0
 10
1.14377
 20
86.1427
 30
0.0
 11
1.28571
 21
85.8643
 31
0.0
  0
LINE
  8
0
 62
     0
 10
1.28571
 20
85.8643
 30
0.0
 11
1.50757
 21
85.6425
 31
0.0
  0
LINE
  8
0
 62
     0
 10
1.50757
 20
85.6425
 30
0.0
 11
1.78594
 21
85.5003
 31
0.0
  0
LINE
  8
0
 62
     0
 10
1.78594
 20
85.5003
 30
0.0
 11
2.096
 21
85.4523
 31
0.0
  0
LINE
  8
0
 62
     0
 10
2.096
 20
85.4523
 30
0.0
 11
2.40468
 21
85.5003
 31
0.0
  0
LINE
  8
0
 62
     0
 10
2.40468
 20
85.5003
 30
0.0
 11
2.68304
 21
85.6425
 31
0.0
  0
LINE
  8
0
 62
     0
 10
2.68304
 20
85.6425
 30
0.0
 11
2.90491
 21
85.8643
 31
0.0
  0
LINE
  8
0
 62
     0
 10
2.90491
 20
85.8643
 30
0.0
 11
3.04684
 21
86.1427
 31
0.0
  0
LINE
  8
0
 62
     0
 10
3.04684
 20
86.1427
 30
0.0
 11
3.09507
 21
86.4514
 31
0.0
  0
LINE
  8
0
 62
     0
 10
3.09507
 20
86.4514
 30
0.0
 11
3.04684
 21
86.7615
 31
0.0
  0
LINE
  8
0
 62
     0
 10
3.04684
 20
86.7615
 30
0.0
 11
2.90491
 21
87.0398
 31
0.0
  0
LINE
  8
0
 62
     0
 10
2.90491
 20
87.0398
 30
0.0
 11
2.68304
 21
87.2613
 31
0.0
  0
LINE
  8
0
 62
     0
 10
2.68304
 20
87.2613
 30
0.0
 11
2.40468
 21
87.4035
 31
0.0
  0
LINE
  8
0
 62
     0
 10
2.40468
 20
87.4035
 30
0.0
 11
2.096
 21
87.4518
 31
0.0
  0
LINE
  8
0
 62
     0
 10
2.096
 20
87.4518
 30
0.0
 11
1.78594
 21
87.4035
 31
0.0
  0
LINE
  8
0
 62
     0
 10
200.287
 20
87.4035
 30
0.0
 11
200.008
 21
87.2613
 31
0.0
  0
LINE
  8
0
 62
     0
 10
200.008
 20
87.2613
 30
0.0
 11
199.787
 21
87.0398
 31
0.0
  0
LINE
  8
0
 62
     0
 10
199.787
 20
87.0398
 30
0.0
 11
199.645
 21
86.7615
 31
0.0
  0
LINE
  8
0
 62
     0
 10
199.645
 20
86.7615
 30
0.0
 11
199.596
 21
86.4514
 31
0.0
  0
LINE
  8
0
 62
     0
 10
199.596
 20
86.4514
 30
0.0
 11
199.645
 21
86.1427
 31
0.0
  0
LINE
  8
0
 62
     0
 10
199.645
 20
86.1427
 30
0.0
 11
199.787
 21
85.8643
 31
0.0
  0
LINE
  8
0
 62
     0
 10
199.787
 20
85.8643
 30
0.0
 11
200.008
 21
85.6425
 31
0.0
  0
LINE
  8
0
 62
     0
 10
200.008
 20
85.6425
 30
0.0
 11
200.287
 21
85.5003
 31
0.0
  0
LINE
  8
0
 62
     0
 10
200.287
 20
85.5003
 30
0.0
 11
200.597
 21
85.4523
 31
0.0
  0
LINE
  8
0
 62
     0
 10
200.597
 20
85.4523
 30
0.0
 11
200.906
 21
85.5003
 31
0.0
  0
LINE
  8
0
 62
     0
 10
200.906
 20
85.5003
 30
0.0
 11
201.184
 21
85.6425
 31
0.0
  0
LINE
  8
0
 62
     0
 10
201.184
 20
85.6425
 30
0.0
 11
201.406
 21
85.8643
 31
0.0
  0
LINE
  8
0
 62
     0
 10
201.406
 20
85.8643
 30
0.0
 11
201.548
 21
86.1427
 31
0.0
  0
LINE
  8
0
 62
     0
 10
201.548
 20
86.1427
 30
0.0
 11
201.596
 21
86.4514
 31
0.0
  0
LINE
  8
0
 62
     0
 10
201.596
 20
86.4514
 30
0.0
 11
201.548
 21
86.7615
 31
0.0
  0
LINE
  8
0
 62
     0
 10
201.548
 20
86.7615
 30
0.0
 11
201.406
 21
87.0398
 31
0.0
  0
LINE
  8
0
 62
     0
 10
201.406
 20
87.0398
 30
0.0
 11
201.184
 21
87.2613
 31
0.0
  0
LINE
  8
0
 62
     0
 10
201.184
 20
87.2613
 30
0.0
 11
200.906
 21
87.4035
 31
0.0
  0
LINE
  8
0
 62
     0
 10
200.906
 20
87.4035
 30
0.0
 11
200.597
 21
87.4518
 31
0.0
  0
LINE
  8
0
 62
     0
 10
200.597
 20
87.4518
 30
0.0
 11
200.287
 21
87.4035
 31
0.0
  0
ENDSEC
  0
EOF
