  0
SECTION
  2
HEADER
  9
$ACADVER
  1
AC1009
  9
$EXTMIN
 10
0.0
 20
0.0
 30
0.0
  9
$EXTMAX
 10
1000.0
 20
1000.0
 30
0.0
  9
$FILLMODE
 70
 0
  9
$SPLFRAME
 70
 1
  0
ENDSEC
  0
SECTION
  2
TABLES
  0
TABLE
  2
LAYER
 70
1
  0
LAYER
  2
0
 70
     0
 62
     7
  6
CONTINUOUS
  0
ENDTAB
  0
ENDSEC
  0
SECTION
  2
ENTITIES
  0
LINE
  8
0
 62
     0
 10
201.097
 20
88.452
 30
0.0
 11
201.213
 21
88.4481
 31
0.0
  0
LINE
  8
0
 62
     0
 10
201.213
 20
88.4481
 30
0.0
 11
201.33
 21
88.4343
 31
0.0
  0
LINE
  8
0
 62
     0
 10
201.33
 20
88.4343
 30
0.0
 11
201.447
 21
88.4107
 31
0.0
  0
LINE
  8
0
 62
     0
 10
201.447
 20
88.4107
 30
0.0
 11
201.56
 21
88.3789
 31
0.0
  0
LINE
  8
0
 62
     0
 10
201.56
 20
88.3789
 30
0.0
 11
201.67
 21
88.3377
 31
0.0
  0
LINE
  8
0
 62
     0
 10
201.67
 20
88.3377
 30
0.0
 11
201.777
 21
88.2883
 31
0.0
  0
LINE
  8
0
 62
     0
 10
201.777
 20
88.2883
 30
0.0
 11
201.88
 21
88.2304
 31
0.0
  0
LINE
  8
0
 62
     0
 10
201.88
 20
88.2304
 30
0.0
 11
201.978
 21
88.1655
 31
0.0
  0
LINE
  8
0
 62
     0
 10
201.978
 20
88.1655
 30
0.0
 11
202.07
 21
88.0925
 31
0.0
  0
LINE
  8
0
 62
     0
 10
202.07
 20
88.0925
 30
0.0
 11
202.157
 21
88.0124
 31
0.0
  0
LINE
  8
0
 62
     0
 10
202.157
 20
88.0124
 30
0.0
 11
202.237
 21
87.927
 31
0.0
  0
LINE
  8
0
 62
     0
 10
202.237
 20
87.927
 30
0.0
 11
202.31
 21
87.8336
 31
0.0
  0
LINE
  8
0
 62
     0
 10
202.31
 20
87.8336
 30
0.0
 11
202.374
 21
87.7355
 31
0.0
  0
LINE
  8
0
 62
     0
 10
202.374
 20
87.7355
 30
0.0
 11
202.432
 21
87.6321
 31
0.0
  0
LINE
  8
0
 62
     0
 10
202.432
 20
87.6321
 30
0.0
 11
202.482
 21
87.5259
 31
0.0
  0
LINE
  8
0
 62
     0
 10
202.482
 20
87.5259
 30
0.0
 11
202.522
 21
87.4159
 31
0.0
  0
LINE
  8
0
 62
     0
 10
202.522
 20
87.4159
 30
0.0
 11
202.555
 21
87.303
 31
0.0
  0
LINE
  8
0
 62
     0
 10
202.555
 20
87.303
 30
0.0
 11
202.577
 21
87.1873
 31
0.0
  0
LINE
  8
0
 62
     0
 10
202.577
 20
87.1873
 30
0.0
 11
202.591
 21
87.0701
 31
0.0
  0
LINE
  8
0
 62
     0
 10
202.591
 20
87.0701
 30
0.0
 11
202.596
 21
86.9516
 31
0.0
  0
LINE
  8
0
 62
     0
 10
202.596
 20
86.9516
 30
0.0
 11
202.596
 21
1.75011
 31
0.0
  0
LINE
  8
0
 62
     0
 10
202.596
 20
1.75011
 30
0.0
 11
202.591
 21
1.63435
 31
0.0
  0
LINE
  8
0
 62
     0
 10
202.591
 20
1.63435
 30
0.0
 11
202.577
 21
1.51722
 31
0.0
  0
LINE
  8
0
 62
     0
 10
202.577
 20
1.51722
 30
0.0
 11
202.555
 21
1.40009
 31
0.0
  0
LINE
  8
0
 62
     0
 10
202.555
 20
1.40009
 30
0.0
 11
202.522
 21
1.28709
 31
0.0
  0
LINE
  8
0
 62
     0
 10
202.522
 20
1.28709
 30
0.0
 11
202.482
 21
1.17685
 31
0.0
  0
LINE
  8
0
 62
     0
 10
202.482
 20
1.17685
 30
0.0
 11
202.432
 21
1.07074
 31
0.0
  0
LINE
  8
0
 62
     0
 10
202.432
 20
1.07074
 30
0.0
 11
202.374
 21
0.967384
 31
0.0
  0
LINE
  8
0
 62
     0
 10
202.374
 20
0.967384
 30
0.0
 11
202.31
 21
0.869541
 31
0.0
  0
LINE
  8
0
 62
     0
 10
202.31
 20
0.869541
 30
0.0
 11
202.237
 21
0.777215
 31
0.0
  0
LINE
  8
0
 62
     0
 10
202.237
 20
0.777215
 30
0.0
 11
202.157
 21
0.690397
 31
0.0
  0
LINE
  8
0
 62
     0
 10
202.157
 20
0.690397
 30
0.0
 11
202.07
 21
0.610471
 31
0.0
  0
LINE
  8
0
 62
     0
 10
202.07
 20
0.610471
 30
0.0
 11
201.978
 21
0.537436
 31
0.0
  0
LINE
  8
0
 62
     0
 10
201.978
 20
0.537436
 30
0.0
 11
201.88
 21
0.472666
 31
0.0
  0
LINE
  8
0
 62
     0
 10
201.88
 20
0.472666
 30
0.0
 11
201.777
 21
0.414789
 31
0.0
  0
LINE
  8
0
 62
     0
 10
201.777
 20
0.414789
 30
0.0
 11
201.67
 21
0.365181
 31
0.0
  0
LINE
  8
0
 62
     0
 10
201.67
 20
0.365181
 30
0.0
 11
201.56
 21
0.325217
 31
0.0
  0
LINE
  8
0
 62
     0
 10
201.56
 20
0.325217
 30
0.0
 11
201.447
 21
0.292144
 31
0.0
  0
LINE
  8
0
 62
     0
 10
201.447
 20
0.292144
 30
0.0
 11
201.33
 21
0.270095
 31
0.0
  0
LINE
  8
0
 62
     0
 10
201.33
 20
0.270095
 30
0.0
 11
201.213
 21
0.256315
 31
0.0
  0
LINE
  8
0
 62
     0
 10
201.213
 20
0.256315
 30
0.0
 11
201.097
 21
0.250803
 31
0.0
  0
LINE
  8
0
 62
     0
 10
201.097
 20
0.250803
 30
0.0
 11
1.59577
 21
0.250803
 31
0.0
  0
LINE
  8
0
 62
     0
 10
1.59577
 20
0.250803
 30
0.0
 11
1.47726
 21
0.256315
 31
0.0
  0
LINE
  8
0
 62
     0
 10
1.47726
 20
0.256315
 30
0.0
 11
1.36012
 21
0.270095
 31
0.0
  0
LINE
  8
0
 62
     0
 10
1.36012
 20
0.270095
 30
0.0
 11
1.24437
 21
0.292144
 31
0.0
  0
LINE
  8
0
 62
     0
 10
1.24437
 20
0.292144
 30
0.0
 11
1.13137
 21
0.325217
 31
0.0
  0
LINE
  8
0
 62
     0
 10
1.13137
 20
0.325217
 30
0.0
 11
1.02113
 21
0.365181
 31
0.0
  0
LINE
  8
0
 62
     0
 10
1.02113
 20
0.365181
 30
0.0
 11
0.915017
 21
0.414789
 31
0.0
  0
LINE
  8
0
 62
     0
 10
0.915017
 20
0.414789
 30
0.0
 11
0.811664
 21
0.472666
 31
0.0
  0
LINE
  8
0
 62
     0
 10
0.811664
 20
0.472666
 30
0.0
 11
0.713825
 21
0.537436
 31
0.0
  0
LINE
  8
0
 62
     0
 10
0.713825
 20
0.537436
 30
0.0
 11
0.620116
 21
0.610471
 31
0.0
  0
LINE
  8
0
 62
     0
 10
0.620116
 20
0.610471
 30
0.0
 11
0.534681
 21
0.690397
 31
0.0
  0
LINE
  8
0
 62
     0
 10
0.534681
 20
0.690397
 30
0.0
 11
0.454752
 21
0.777215
 31
0.0
  0
LINE
  8
0
 62
     0
 10
0.454752
 20
0.777215
 30
0.0
 11
0.381716
 21
0.869541
 31
0.0
  0
LINE
  8
0
 62
     0
 10
0.381716
 20
0.869541
 30
0.0
 11
0.316949
 21
0.967384
 31
0.0
  0
LINE
  8
0
 62
     0
 10
0.316949
 20
0.967384
 30
0.0
 11
0.259071
 21
1.07074
 31
0.0
  0
LINE
  8
0
 62
     0
 10
0.259071
 20
1.07074
 30
0.0
 11
0.209462
 21
1.17685
 31
0.0
  0
LINE
  8
0
 62
     0
 10
0.209462
 20
1.17685
 30
0.0
 11
0.168121
 21
1.28709
 31
0.0
  0
LINE
  8
0
 62
     0
 10
0.168121
 20
1.28709
 30
0.0
 11
0.136426
 21
1.40009
 31
0.0
  0
LINE
  8
0
 62
     0
 10
0.136426
 20
1.40009
 30
0.0
 11
0.112999
 21
1.51722
 31
0.0
  0
LINE
  8
0
 62
     0
 10
0.112999
 20
1.51722
 30
0.0
 11
0.0992188
 21
1.63435
 31
0.0
  0
LINE
  8
0
 62
     0
 10
0.0992188
 20
1.63435
 30
0.0
 11
0.0950846
 21
1.75149
 31
0.0
  0
LINE
  8
0
 62
     0
 10
0.0950846
 20
1.75149
 30
0.0
 11
0.0950846
 21
86.9516
 31
0.0
  0
LINE
  8
0
 62
     0
 10
0.0950846
 20
86.9516
 30
0.0
 11
0.0992188
 21
87.0701
 31
0.0
  0
LINE
  8
0
 62
     0
 10
0.0992188
 20
87.0701
 30
0.0
 11
0.112999
 21
87.1873
 31
0.0
  0
LINE
  8
0
 62
     0
 10
0.112999
 20
87.1873
 30
0.0
 11
0.136426
 21
87.303
 31
0.0
  0
LINE
  8
0
 62
     0
 10
0.136426
 20
87.303
 30
0.0
 11
0.168121
 21
87.4159
 31
0.0
  0
LINE
  8
0
 62
     0
 10
0.168121
 20
87.4159
 30
0.0
 11
0.209462
 21
87.5259
 31
0.0
  0
LINE
  8
0
 62
     0
 10
0.209462
 20
87.5259
 30
0.0
 11
0.259071
 21
87.6321
 31
0.0
  0
LINE
  8
0
 62
     0
 10
0.259071
 20
87.6321
 30
0.0
 11
0.316949
 21
87.7355
 31
0.0
  0
LINE
  8
0
 62
     0
 10
0.316949
 20
87.7355
 30
0.0
 11
0.381716
 21
87.8336
 31
0.0
  0
LINE
  8
0
 62
     0
 10
0.381716
 20
87.8336
 30
0.0
 11
0.454752
 21
87.927
 31
0.0
  0
LINE
  8
0
 62
     0
 10
0.454752
 20
87.927
 30
0.0
 11
0.534681
 21
88.0124
 31
0.0
  0
LINE
  8
0
 62
     0
 10
0.534681
 20
88.0124
 30
0.0
 11
0.620116
 21
88.0925
 31
0.0
  0
LINE
  8
0
 62
     0
 10
0.620116
 20
88.0925
 30
0.0
 11
0.713825
 21
88.1655
 31
0.0
  0
LINE
  8
0
 62
     0
 10
0.713825
 20
88.1655
 30
0.0
 11
0.811664
 21
88.2304
 31
0.0
  0
LINE
  8
0
 62
     0
 10
0.811664
 20
88.2304
 30
0.0
 11
0.915017
 21
88.2883
 31
0.0
  0
LINE
  8
0
 62
     0
 10
0.915017
 20
88.2883
 30
0.0
 11
1.02113
 21
88.3377
 31
0.0
  0
LINE
  8
0
 62
     0
 10
1.02113
 20
88.3377
 30
0.0
 11
1.13137
 21
88.3789
 31
0.0
  0
LINE
  8
0
 62
     0
 10
1.13137
 20
88.3789
 30
0.0
 11
1.24437
 21
88.4107
 31
0.0
  0
LINE
  8
0
 62
     0
 10
1.24437
 20
88.4107
 30
0.0
 11
1.36012
 21
88.4343
 31
0.0
  0
LINE
  8
0
 62
     0
 10
1.36012
 20
88.4343
 30
0.0
 11
1.47726
 21
88.4481
 31
0.0
  0
LINE
  8
0
 62
     0
 10
1.47726
 20
88.4481
 30
0.0
 11
1.59577
 21
88.452
 31
0.0
  0
LINE
  8
0
 62
     0
 10
1.59577
 20
88.452
 30
0.0
 11
201.097
 21
88.452
 31
0.0
  0
LINE
  8
0
 62
     0
 10
1.78594
 20
3.20256
 30
0.0
 11
1.50757
 21
3.06062
 31
0.0
  0
LINE
  8
0
 62
     0
 10
1.50757
 20
3.06062
 30
0.0
 11
1.28571
 21
2.83876
 31
0.0
  0
LINE
  8
0
 62
     0
 10
1.28571
 20
2.83876
 30
0.0
 11
1.14377
 21
2.56039
 31
0.0
  0
LINE
  8
0
 62
     0
 10
1.14377
 20
2.56039
 30
0.0
 11
1.09554
 21
2.25034
 31
0.0
  0
LINE
  8
0
 62
     0
 10
1.09554
 20
2.25034
 30
0.0
 11
1.14377
 21
1.94166
 31
0.0
  0
LINE
  8
0
 62
     0
 10
1.14377
 20
1.94166
 30
0.0
 11
1.28571
 21
1.66329
 31
0.0
  0
LINE
  8
0
 62
     0
 10
1.28571
 20
1.66329
 30
0.0
 11
1.50757
 21
1.44143
 31
0.0
  0
LINE
  8
0
 62
     0
 10
1.50757
 20
1.44143
 30
0.0
 11
1.78594
 21
1.29949
 31
0.0
  0
LINE
  8
0
 62
     0
 10
1.78594
 20
1.29949
 30
0.0
 11
2.096
 21
1.25126
 31
0.0
  0
LINE
  8
0
 62
     0
 10
2.096
 20
1.25126
 30
0.0
 11
2.40468
 21
1.29949
 31
0.0
  0
LINE
  8
0
 62
     0
 10
2.40468
 20
1.29949
 30
0.0
 11
2.68304
 21
1.44143
 31
0.0
  0
LINE
  8
0
 62
     0
 10
2.68304
 20
1.44143
 30
0.0
 11
2.90491
 21
1.66329
 31
0.0
  0
LINE
  8
0
 62
     0
 10
2.90491
 20
1.66329
 30
0.0
 11
3.04684
 21
1.94166
 31
0.0
  0
LINE
  8
0
 62
     0
 10
3.04684
 20
1.94166
 30
0.0
 11
3.09507
 21
2.25034
 31
0.0
  0
LINE
  8
0
 62
     0
 10
3.09507
 20
2.25034
 30
0.0
 11
3.04684
 21
2.56039
 31
0.0
  0
LINE
  8
0
 62
     0
 10
3.04684
 20
2.56039
 30
0.0
 11
2.90491
 21
2.83876
 31
0.0
  0
LINE
  8
0
 62
     0
 10
2.90491
 20
2.83876
 30
0.0
 11
2.68304
 21
3.06062
 31
0.0
  0
LINE
  8
0
 62
     0
 10
2.68304
 20
3.06062
 30
0.0
 11
2.40468
 21
3.20256
 31
0.0
  0
LINE
  8
0
 62
     0
 10
2.40468
 20
3.20256
 30
0.0
 11
2.096
 21
3.25079
 31
0.0
  0
LINE
  8
0
 62
     0
 10
2.096
 20
3.25079
 30
0.0
 11
1.78594
 21
3.20256
 31
0.0
  0
LINE
  8
0
 62
     0
 10
200.287
 20
3.20256
 30
0.0
 11
200.008
 21
3.06062
 31
0.0
  0
LINE
  8
0
 62
     0
 10
200.008
 20
3.06062
 30
0.0
 11
199.787
 21
2.83876
 31
0.0
  0
LINE
  8
0
 62
     0
 10
199.787
 20
2.83876
 30
0.0
 11
199.645
 21
2.56039
 31
0.0
  0
LINE
  8
0
 62
     0
 10
199.645
 20
2.56039
 30
0.0
 11
199.596
 21
2.25034
 31
0.0
  0
LINE
  8
0
 62
     0
 10
199.596
 20
2.25034
 30
0.0
 11
199.645
 21
1.94166
 31
0.0
  0
LINE
  8
0
 62
     0
 10
199.645
 20
1.94166
 30
0.0
 11
199.787
 21
1.66329
 31
0.0
  0
LINE
  8
0
 62
     0
 10
199.787
 20
1.66329
 30
0.0
 11
200.008
 21
1.44143
 31
0.0
  0
LINE
  8
0
 62
     0
 10
200.008
 20
1.44143
 30
0.0
 11
200.287
 21
1.29949
 31
0.0
  0
LINE
  8
0
 62
     0
 10
200.287
 20
1.29949
 30
0.0
 11
200.597
 21
1.25126
 31
0.0
  0
LINE
  8
0
 62
     0
 10
200.597
 20
1.25126
 30
0.0
 11
200.906
 21
1.29949
 31
0.0
  0
LINE
  8
0
 62
     0
 10
200.906
 20
1.29949
 30
0.0
 11
201.184
 21
1.44143
 31
0.0
  0
LINE
  8
0
 62
     0
 10
201.184
 20
1.44143
 30
0.0
 11
201.406
 21
1.66329
 31
0.0
  0
LINE
  8
0
 62
     0
 10
201.406
 20
1.66329
 30
0.0
 11
201.548
 21
1.94166
 31
0.0
  0
LINE
  8
0
 62
     0
 10
201.548
 20
1.94166
 30
0.0
 11
201.596
 21
2.25034
 31
0.0
  0
LINE
  8
0
 62
     0
 10
201.596
 20
2.25034
 30
0.0
 11
201.548
 21
2.56039
 31
0.0
  0
LINE
  8
0
 62
     0
 10
201.548
 20
2.56039
 30
0.0
 11
201.406
 21
2.83876
 31
0.0
  0
LINE
  8
0
 62
     0
 10
201.406
 20
2.83876
 30
0.0
 11
201.184
 21
3.06062
 31
0.0
  0
LINE
  8
0
 62
     0
 10
201.184
 20
3.06062
 30
0.0
 11
200.906
 21
3.20256
 31
0.0
  0
LINE
  8
0
 62
     0
 10
200.906
 20
3.20256
 30
0.0
 11
200.597
 21
3.25079
 31
0.0
  0
LINE
  8
0
 62
     0
 10
200.597
 20
3.25079
 30
0.0
 11
200.287
 21
3.20256
 31
0.0
  0
LINE
  8
0
 62
     0
 10
4.09554
 20
84.4518
 30
0.0
 11
198.596
 21
84.4518
 31
0.0
  0
LINE
  8
0
 62
     0
 10
198.596
 20
84.4518
 30
0.0
 11
198.596
 21
4.25125
 31
0.0
  0
LINE
  8
0
 62
     0
 10
198.596
 20
4.25125
 30
0.0
 11
4.09554
 21
4.25125
 31
0.0
  0
LINE
  8
0
 62
     0
 10
4.09554
 20
4.25125
 30
0.0
 11
4.09554
 21
84.4518
 31
0.0
  0
LINE
  8
0
 62
     0
 10
1.78594
 20
87.4035
 30
0.0
 11
1.50757
 21
87.2613
 31
0.0
  0
LINE
  8
0
 62
     0
 10
1.50757
 20
87.2613
 30
0.0
 11
1.28571
 21
87.0398
 31
0.0
  0
LINE
  8
0
 62
     0
 10
1.28571
 20
87.0398
 30
0.0
 11
1.14377
 21
86.7615
 31
0.0
  0
LINE
  8
0
 62
     0
 10
1.14377
 20
86.7615
 30
0.0
 11
1.09554
 21
86.4514
 31
0.0
  0
LINE
  8
0
 62
     0
 10
1.09554
 20
86.4514
 30
0.0
 11
1.14377
 21
86.1427
 31
0.0
  0
LINE
  8
0
 62
     0
 10
1.14377
 20
86.1427
 30
0.0
 11
1.28571
 21
85.8643
 31
0.0
  0
LINE
  8
0
 62
     0
 10
1.28571
 20
85.8643
 30
0.0
 11
1.50757
 21
85.6425
 31
0.0
  0
LINE
  8
0
 62
     0
 10
1.50757
 20
85.6425
 30
0.0
 11
1.78594
 21
85.5003
 31
0.0
  0
LINE
  8
0
 62
     0
 10
1.78594
 20
85.5003
 30
0.0
 11
2.096
 21
85.4523
 31
0.0
  0
LINE
  8
0
 62
     0
 10
2.096
 20
85.4523
 30
0.0
 11
2.40468
 21
85.5003
 31
0.0
  0
LINE
  8
0
 62
     0
 10
2.40468
 20
85.5003
 30
0.0
 11
2.68304
 21
85.6425
 31
0.0
  0
LINE
  8
0
 62
     0
 10
2.68304
 20
85.6425
 30
0.0
 11
2.90491
 21
85.8643
 31
0.0
  0
LINE
  8
0
 62
     0
 10
2.90491
 20
85.8643
 30
0.0
 11
3.04684
 21
86.1427
 31
0.0
  0
LINE
  8
0
 62
     0
 10
3.04684
 20
86.1427
 30
0.0
 11
3.09507
 21
86.4514
 31
0.0
  0
LINE
  8
0
 62
     0
 10
3.09507
 20
86.4514
 30
0.0
 11
3.04684
 21
86.7615
 31
0.0
  0
LINE
  8
0
 62
     0
 10
3.04684
 20
86.7615
 30
0.0
 11
2.90491
 21
87.0398
 31
0.0
  0
LINE
  8
0
 62
     0
 10
2.90491
 20
87.0398
 30
0.0
 11
2.68304
 21
87.2613
 31
0.0
  0
LINE
  8
0
 62
     0
 10
2.68304
 20
87.2613
 30
0.0
 11
2.40468
 21
87.4035
 31
0.0
  0
LINE
  8
0
 62
     0
 10
2.40468
 20
87.4035
 30
0.0
 11
2.096
 21
87.4518
 31
0.0
  0
LINE
  8
0
 62
     0
 10
2.096
 20
87.4518
 30
0.0
 11
1.78594
 21
87.4035
 31
0.0
  0
LINE
  8
0
 62
     0
 10
200.287
 20
87.4035
 30
0.0
 11
200.008
 21
87.2613
 31
0.0
  0
LINE
  8
0
 62
     0
 10
200.008
 20
87.2613
 30
0.0
 11
199.787
 21
87.0398
 31
0.0
  0
LINE
  8
0
 62
     0
 10
199.787
 20
87.0398
 30
0.0
 11
199.645
 21
86.7615
 31
0.0
  0
LINE
  8
0
 62
     0
 10
199.645
 20
86.7615
 30
0.0
 11
199.596
 21
86.4514
 31
0.0
  0
LINE
  8
0
 62
     0
 10
199.596
 20
86.4514
 30
0.0
 11
199.645
 21
86.1427
 31
0.0
  0
LINE
  8
0
 62
     0
 10
199.645
 20
86.1427
 30
0.0
 11
199.787
 21
85.8643
 31
0.0
  0
LINE
  8
0
 62
     0
 10
199.787
 20
85.8643
 30
0.0
 11
200.008
 21
85.6425
 31
0.0
  0
LINE
  8
0
 62
     0
 10
200.008
 20
85.6425
 30
0.0
 11
200.287
 21
85.5003
 31
0.0
  0
LINE
  8
0
 62
     0
 10
200.287
 20
85.5003
 30
0.0
 11
200.597
 21
85.4523
 31
0.0
  0
LINE
  8
0
 62
     0
 10
200.597
 20
85.4523
 30
0.0
 11
200.906
 21
85.5003
 31
0.0
  0
LINE
  8
0
 62
     0
 10
200.906
 20
85.5003
 30
0.0
 11
201.184
 21
85.6425
 31
0.0
  0
LINE
  8
0
 62
     0
 10
201.184
 20
85.6425
 30
0.0
 11
201.406
 21
85.8643
 31
0.0
  0
LINE
  8
0
 62
     0
 10
201.406
 20
85.8643
 30
0.0
 11
201.548
 21
86.1427
 31
0.0
  0
LINE
  8
0
 62
     0
 10
201.548
 20
86.1427
 30
0.0
 11
201.596
 21
86.4514
 31
0.0
  0
LINE
  8
0
 62
     0
 10
201.596
 20
86.4514
 30
0.0
 11
201.548
 21
86.7615
 31
0.0
  0
LINE
  8
0
 62
     0
 10
201.548
 20
86.7615
 30
0.0
 11
201.406
 21
87.0398
 31
0.0
  0
LINE
  8
0
 62
     0
 10
201.406
 20
87.0398
 30
0.0
 11
201.184
 21
87.2613
 31
0.0
  0
LINE
  8
0
 62
     0
 10
201.184
 20
87.2613
 30
0.0
 11
200.906
 21
87.4035
 31
0.0
  0
LINE
  8
0
 62
     0
 10
200.906
 20
87.4035
 30
0.0
 11
200.597
 21
87.4518
 31
0.0
  0
LINE
  8
0
 62
     0
 10
200.597
 20
87.4518
 30
0.0
 11
200.287
 21
87.4035
 31
0.0
  0
ENDSEC
  0
EOF
