G04 #@! TF.GenerationSoftware,KiCad,Pcbnew,(6.0.0-rc1-306-g01eebd0b9d)*
G04 #@! TF.CreationDate,2022-03-14T13:07:56+00:00*
G04 #@! TF.ProjectId,keyboard,6b657962-6f61-4726-942e-6b696361645f,rev?*
G04 #@! TF.SameCoordinates,Original*
G04 #@! TF.FileFunction,Soldermask,Top*
G04 #@! TF.FilePolarity,Negative*
%FSLAX46Y46*%
G04 Gerber Fmt 4.6, Leading zero omitted, Abs format (unit mm)*
G04 Created by KiCad (PCBNEW (6.0.0-rc1-306-g01eebd0b9d)) date 2022-03-14 13:07:56*
%MOMM*%
%LPD*%
G01*
G04 APERTURE LIST*
%ADD10C,2.000000*%
%ADD11C,1.701800*%
%ADD12C,3.987800*%
%ADD13C,2.032000*%
%ADD14C,2.540000*%
%ADD15C,2.286000*%
%ADD16C,2.200000*%
%ADD17R,1.600000X1.600000*%
%ADD18R,1.600000X1.200000*%
%ADD19C,1.600000*%
%ADD20C,4.000000*%
%ADD21C,1.752600*%
%ADD22C,3.048000*%
%ADD23O,3.500000X2.200000*%
%ADD24R,2.500000X1.500000*%
%ADD25O,2.500000X1.500000*%
G04 APERTURE END LIST*
D10*
X194310000Y-107950000D03*
X194310000Y-110490000D03*
D11*
X81787500Y-70040000D03*
X91947500Y-70040000D03*
X92367500Y-70040000D03*
D12*
X86867500Y-70040000D03*
D11*
X81367500Y-70040000D03*
D13*
X86867500Y-75940000D03*
D14*
X90677500Y-72580000D03*
D15*
X84327500Y-75120000D03*
D16*
X81767500Y-73940000D03*
D17*
X209640000Y-91440000D03*
D18*
X207140000Y-91440000D03*
D19*
X201840000Y-91440000D03*
D18*
X204340000Y-91440000D03*
D11*
X62317500Y-70040000D03*
D12*
X67817500Y-70040000D03*
D11*
X62737500Y-70040000D03*
X73317500Y-70040000D03*
X72897500Y-70040000D03*
D14*
X71627500Y-72580000D03*
D13*
X67817500Y-75940000D03*
D16*
X62717500Y-73940000D03*
D15*
X65277500Y-75120000D03*
D11*
X68555000Y-50990000D03*
X57975000Y-50990000D03*
X57555000Y-50990000D03*
D12*
X63055000Y-50990000D03*
D11*
X68135000Y-50990000D03*
D14*
X66865000Y-53530000D03*
D13*
X63055000Y-56890000D03*
D15*
X60515000Y-56070000D03*
D16*
X57955000Y-54890000D03*
D11*
X72262500Y-108140000D03*
D12*
X77342500Y-108140000D03*
D11*
X82842500Y-108140000D03*
X71842500Y-108140000D03*
X82422500Y-108140000D03*
D14*
X81152500Y-110680000D03*
D13*
X77342500Y-114040000D03*
D16*
X72242500Y-112040000D03*
D15*
X74802500Y-113220000D03*
D17*
X221705000Y-76200000D03*
D18*
X219205000Y-76200000D03*
X216405000Y-76200000D03*
D19*
X213905000Y-76200000D03*
D20*
X228413132Y-122945067D03*
D11*
X191325000Y-50990000D03*
X201485000Y-50990000D03*
D12*
X196405000Y-50990000D03*
D11*
X190905000Y-50990000D03*
X201905000Y-50990000D03*
D14*
X200215000Y-53530000D03*
D13*
X196405000Y-56890000D03*
D16*
X191305000Y-54890000D03*
D15*
X193865000Y-56070000D03*
D20*
X228410000Y-95540000D03*
D12*
X172592500Y-89090000D03*
D11*
X178092500Y-89090000D03*
X167092500Y-89090000D03*
X177672500Y-89090000D03*
X167512500Y-89090000D03*
D14*
X176402500Y-91630000D03*
D13*
X172592500Y-94990000D03*
D15*
X170052500Y-94170000D03*
D16*
X167492500Y-92990000D03*
D11*
X178092500Y-108140000D03*
X167512500Y-108140000D03*
D12*
X172592500Y-108140000D03*
D11*
X167092500Y-108140000D03*
X177672500Y-108140000D03*
D14*
X176402500Y-110680000D03*
D13*
X172592500Y-114040000D03*
D15*
X170052500Y-113220000D03*
D16*
X167492500Y-112040000D03*
D18*
X43174000Y-91694000D03*
D17*
X40674000Y-91694000D03*
D18*
X45974000Y-91694000D03*
D19*
X48474000Y-91694000D03*
D12*
X134492500Y-89090000D03*
D11*
X128992500Y-89090000D03*
X139992500Y-89090000D03*
X139572500Y-89090000D03*
X129412500Y-89090000D03*
D13*
X134492500Y-94990000D03*
D14*
X138302500Y-91630000D03*
D15*
X131952500Y-94170000D03*
D16*
X129392500Y-92990000D03*
D11*
X43687500Y-70040000D03*
X43267500Y-70040000D03*
X53847500Y-70040000D03*
X54267500Y-70040000D03*
D12*
X48767500Y-70040000D03*
D13*
X48767500Y-75940000D03*
D14*
X52577500Y-72580000D03*
D16*
X43667500Y-73940000D03*
D15*
X46227500Y-75120000D03*
D11*
X148462500Y-89090000D03*
X148042500Y-89090000D03*
X158622500Y-89090000D03*
X159042500Y-89090000D03*
D12*
X153542500Y-89090000D03*
D13*
X153542500Y-94990000D03*
D14*
X157352500Y-91630000D03*
D16*
X148442500Y-92990000D03*
D15*
X151002500Y-94170000D03*
D12*
X215455000Y-50990000D03*
D11*
X220535000Y-50990000D03*
X220955000Y-50990000D03*
X210375000Y-50990000D03*
X209955000Y-50990000D03*
D13*
X215455000Y-56890000D03*
D14*
X219265000Y-53530000D03*
D15*
X212915000Y-56070000D03*
D16*
X210355000Y-54890000D03*
D11*
X172275000Y-50990000D03*
X182435000Y-50990000D03*
X182855000Y-50990000D03*
X171855000Y-50990000D03*
D12*
X177355000Y-50990000D03*
D14*
X181165000Y-53530000D03*
D13*
X177355000Y-56890000D03*
D15*
X174815000Y-56070000D03*
D16*
X172255000Y-54890000D03*
D18*
X43174000Y-94234000D03*
D17*
X40674000Y-94234000D03*
D18*
X45974000Y-94234000D03*
D19*
X48474000Y-94234000D03*
D11*
X130467500Y-70040000D03*
X119887500Y-70040000D03*
X130047500Y-70040000D03*
D12*
X124967500Y-70040000D03*
D11*
X119467500Y-70040000D03*
D14*
X128777500Y-72580000D03*
D13*
X124967500Y-75940000D03*
D15*
X122427500Y-75120000D03*
D16*
X119867500Y-73940000D03*
D11*
X71842500Y-89090000D03*
D12*
X77342500Y-89090000D03*
D11*
X82422500Y-89090000D03*
X82842500Y-89090000D03*
X72262500Y-89090000D03*
D13*
X77342500Y-94990000D03*
D14*
X81152500Y-91630000D03*
D15*
X74802500Y-94170000D03*
D16*
X72242500Y-92990000D03*
D17*
X60616000Y-107188000D03*
D18*
X63116000Y-107188000D03*
D19*
X68416000Y-107188000D03*
D18*
X65916000Y-107188000D03*
D11*
X125285000Y-50990000D03*
D12*
X120205000Y-50990000D03*
D11*
X125705000Y-50990000D03*
X115125000Y-50990000D03*
X114705000Y-50990000D03*
D13*
X120205000Y-56890000D03*
D14*
X124015000Y-53530000D03*
D15*
X117665000Y-56070000D03*
D16*
X115105000Y-54890000D03*
D20*
X31910000Y-100110000D03*
X54750000Y-122950000D03*
D17*
X40674000Y-78994000D03*
D18*
X43174000Y-78994000D03*
X45974000Y-78994000D03*
D19*
X48474000Y-78994000D03*
D18*
X219205000Y-73660000D03*
D17*
X221705000Y-73660000D03*
D18*
X216405000Y-73660000D03*
D19*
X213905000Y-73660000D03*
D18*
X43174000Y-96774000D03*
D17*
X40674000Y-96774000D03*
D19*
X48474000Y-96774000D03*
D18*
X45974000Y-96774000D03*
X49440000Y-107188000D03*
D17*
X46940000Y-107188000D03*
D18*
X52240000Y-107188000D03*
D19*
X54740000Y-107188000D03*
D17*
X221705000Y-86360000D03*
D18*
X219205000Y-86360000D03*
X216405000Y-86360000D03*
D19*
X213905000Y-86360000D03*
D21*
X226060000Y-101600000D03*
X223520000Y-101600000D03*
X220980000Y-101600000D03*
X218440000Y-101600000D03*
X215900000Y-101600000D03*
X213360000Y-101600000D03*
X210820000Y-101600000D03*
X208280000Y-101600000D03*
X205740000Y-101600000D03*
X203200000Y-101600000D03*
X200660000Y-101600000D03*
X198120000Y-101600000D03*
X198120000Y-116840000D03*
X200660000Y-116840000D03*
X203200000Y-116840000D03*
X205740000Y-116840000D03*
X208280000Y-116840000D03*
X210820000Y-116840000D03*
X213360000Y-116840000D03*
X215900000Y-116840000D03*
X218440000Y-116840000D03*
X220980000Y-116840000D03*
X223520000Y-116840000D03*
X226060000Y-116840000D03*
D11*
X168567500Y-70040000D03*
D12*
X163067500Y-70040000D03*
D11*
X168147500Y-70040000D03*
X157987500Y-70040000D03*
X157567500Y-70040000D03*
D14*
X166877500Y-72580000D03*
D13*
X163067500Y-75940000D03*
D15*
X160527500Y-75120000D03*
D16*
X157967500Y-73940000D03*
D18*
X207140000Y-88900000D03*
D17*
X209640000Y-88900000D03*
D19*
X201840000Y-88900000D03*
D18*
X204340000Y-88900000D03*
D17*
X46940000Y-102108000D03*
D18*
X49440000Y-102108000D03*
D19*
X54740000Y-102108000D03*
D18*
X52240000Y-102108000D03*
D11*
X53212500Y-89090000D03*
X52792500Y-89090000D03*
X63372500Y-89090000D03*
D12*
X58292500Y-89090000D03*
D11*
X63792500Y-89090000D03*
D14*
X62102500Y-91630000D03*
D13*
X58292500Y-94990000D03*
D15*
X55752500Y-94170000D03*
D16*
X53192500Y-92990000D03*
D17*
X46940000Y-109728000D03*
D18*
X49440000Y-109728000D03*
X52240000Y-109728000D03*
D19*
X54740000Y-109728000D03*
D12*
X144017500Y-70040000D03*
D11*
X149517500Y-70040000D03*
X138517500Y-70040000D03*
X149097500Y-70040000D03*
X138937500Y-70040000D03*
D13*
X144017500Y-75940000D03*
D14*
X147827500Y-72580000D03*
D15*
X141477500Y-75120000D03*
D16*
X138917500Y-73940000D03*
D12*
X124976300Y-108140000D03*
D11*
X130476300Y-108140000D03*
X130056300Y-108140000D03*
D12*
X136905500Y-116395000D03*
D22*
X113029500Y-101155000D03*
D12*
X113029500Y-116395000D03*
D11*
X119896300Y-108140000D03*
D22*
X136905500Y-101155000D03*
D11*
X119476300Y-108140000D03*
D13*
X124976300Y-114040000D03*
D14*
X128786300Y-110680000D03*
D15*
X122436300Y-113220000D03*
D16*
X119876300Y-112040000D03*
D11*
X91312500Y-89090000D03*
X101472500Y-89090000D03*
D12*
X96392500Y-89090000D03*
D11*
X101892500Y-89090000D03*
X90892500Y-89090000D03*
D14*
X100202500Y-91630000D03*
D13*
X96392500Y-94990000D03*
D16*
X91292500Y-92990000D03*
D15*
X93852500Y-94170000D03*
D17*
X221705000Y-81280000D03*
D18*
X219205000Y-81280000D03*
X216405000Y-81280000D03*
D19*
X213905000Y-81280000D03*
D18*
X219205000Y-71120000D03*
D17*
X221705000Y-71120000D03*
D18*
X216405000Y-71120000D03*
D19*
X213905000Y-71120000D03*
D11*
X120522500Y-89090000D03*
X120942500Y-89090000D03*
X110362500Y-89090000D03*
X109942500Y-89090000D03*
D12*
X115442500Y-89090000D03*
D14*
X119252500Y-91630000D03*
D13*
X115442500Y-94990000D03*
D15*
X112902500Y-94170000D03*
D16*
X110342500Y-92990000D03*
D20*
X228410000Y-38750000D03*
D11*
X49505000Y-50990000D03*
X38925000Y-50990000D03*
D12*
X44005000Y-50990000D03*
D11*
X38505000Y-50990000D03*
X49085000Y-50990000D03*
D13*
X44005000Y-56890000D03*
D14*
X47815000Y-53530000D03*
D15*
X41465000Y-56070000D03*
D16*
X38905000Y-54890000D03*
D10*
X186690000Y-100965000D03*
D11*
X177037500Y-70040000D03*
X176617500Y-70040000D03*
X187197500Y-70040000D03*
D12*
X182117500Y-70040000D03*
D11*
X187617500Y-70040000D03*
D13*
X182117500Y-75940000D03*
D14*
X185927500Y-72580000D03*
D15*
X179577500Y-75120000D03*
D16*
X177017500Y-73940000D03*
D17*
X40674000Y-86614000D03*
D18*
X43174000Y-86614000D03*
X45974000Y-86614000D03*
D19*
X48474000Y-86614000D03*
D17*
X60616000Y-104648000D03*
D18*
X63116000Y-104648000D03*
D19*
X68416000Y-104648000D03*
D18*
X65916000Y-104648000D03*
D23*
X189865000Y-105120000D03*
X189865000Y-113320000D03*
D24*
X189865000Y-111220000D03*
D25*
X189865000Y-109220000D03*
X189865000Y-107220000D03*
D18*
X43174000Y-81534000D03*
D17*
X40674000Y-81534000D03*
D19*
X48474000Y-81534000D03*
D18*
X45974000Y-81534000D03*
X219205000Y-88900000D03*
D17*
X221705000Y-88900000D03*
D18*
X216405000Y-88900000D03*
D19*
X213905000Y-88900000D03*
D11*
X144335000Y-50990000D03*
X144755000Y-50990000D03*
X134175000Y-50990000D03*
X133755000Y-50990000D03*
D12*
X139255000Y-50990000D03*
D14*
X143065000Y-53530000D03*
D13*
X139255000Y-56890000D03*
D16*
X134155000Y-54890000D03*
D15*
X136715000Y-56070000D03*
D18*
X207140000Y-83820000D03*
D17*
X209640000Y-83820000D03*
D19*
X201840000Y-83820000D03*
D18*
X204340000Y-83820000D03*
D17*
X40674000Y-84074000D03*
D18*
X43174000Y-84074000D03*
X45974000Y-84074000D03*
D19*
X48474000Y-84074000D03*
D11*
X196087500Y-70040000D03*
X206667500Y-70040000D03*
X195667500Y-70040000D03*
D12*
X201167500Y-70040000D03*
D11*
X206247500Y-70040000D03*
D14*
X204977500Y-72580000D03*
D13*
X201167500Y-75940000D03*
D16*
X196067500Y-73940000D03*
D15*
X198627500Y-75120000D03*
D10*
X193675000Y-100965000D03*
D17*
X60616000Y-102108000D03*
D18*
X63116000Y-102108000D03*
X65916000Y-102108000D03*
D19*
X68416000Y-102108000D03*
D18*
X219205000Y-93980000D03*
D17*
X221705000Y-93980000D03*
D18*
X216405000Y-93980000D03*
D19*
X213905000Y-93980000D03*
D11*
X110997500Y-70040000D03*
X100837500Y-70040000D03*
X100417500Y-70040000D03*
X111417500Y-70040000D03*
D12*
X105917500Y-70040000D03*
D13*
X105917500Y-75940000D03*
D14*
X109727500Y-72580000D03*
D15*
X103377500Y-75120000D03*
D16*
X100817500Y-73940000D03*
D11*
X153225000Y-50990000D03*
X163385000Y-50990000D03*
X152805000Y-50990000D03*
D12*
X158305000Y-50990000D03*
D11*
X163805000Y-50990000D03*
D14*
X162115000Y-53530000D03*
D13*
X158305000Y-56890000D03*
D15*
X155765000Y-56070000D03*
D16*
X153205000Y-54890000D03*
D11*
X186562500Y-89090000D03*
X197142500Y-89090000D03*
D12*
X191642500Y-89090000D03*
D11*
X196722500Y-89090000D03*
X186142500Y-89090000D03*
D14*
X195452500Y-91630000D03*
D13*
X191642500Y-94990000D03*
D15*
X189102500Y-94170000D03*
D16*
X186542500Y-92990000D03*
D20*
X31920000Y-38750000D03*
D17*
X40674000Y-89154000D03*
D18*
X43174000Y-89154000D03*
X45974000Y-89154000D03*
D19*
X48474000Y-89154000D03*
D17*
X209640000Y-86360000D03*
D18*
X207140000Y-86360000D03*
D19*
X201840000Y-86360000D03*
D18*
X204340000Y-86360000D03*
X219205000Y-78740000D03*
D17*
X221705000Y-78740000D03*
D19*
X213905000Y-78740000D03*
D18*
X216405000Y-78740000D03*
D17*
X46940000Y-104648000D03*
D18*
X49440000Y-104648000D03*
D19*
X54740000Y-104648000D03*
D18*
X52240000Y-104648000D03*
D11*
X90892500Y-108140000D03*
D12*
X96392500Y-108140000D03*
D11*
X101892500Y-108140000D03*
X101472500Y-108140000D03*
X91312500Y-108140000D03*
D14*
X100202500Y-110680000D03*
D13*
X96392500Y-114040000D03*
D15*
X93852500Y-113220000D03*
D16*
X91292500Y-112040000D03*
D18*
X207140000Y-93980000D03*
D17*
X209640000Y-93980000D03*
D18*
X204340000Y-93980000D03*
D19*
X201840000Y-93980000D03*
D11*
X148462500Y-108140000D03*
X159042500Y-108140000D03*
X148042500Y-108140000D03*
X158622500Y-108140000D03*
D12*
X153542500Y-108140000D03*
D13*
X153542500Y-114040000D03*
D14*
X157352500Y-110680000D03*
D15*
X151002500Y-113220000D03*
D16*
X148442500Y-112040000D03*
D18*
X63116000Y-109728000D03*
D17*
X60616000Y-109728000D03*
D18*
X65916000Y-109728000D03*
D19*
X68416000Y-109728000D03*
D11*
X95655000Y-50990000D03*
D12*
X101155000Y-50990000D03*
D11*
X96075000Y-50990000D03*
X106655000Y-50990000D03*
X106235000Y-50990000D03*
D14*
X104965000Y-53530000D03*
D13*
X101155000Y-56890000D03*
D15*
X98615000Y-56070000D03*
D16*
X96055000Y-54890000D03*
D18*
X43174749Y-99234346D03*
D17*
X40674749Y-99234346D03*
D19*
X48474749Y-99234346D03*
D18*
X45974749Y-99234346D03*
D11*
X76605000Y-50990000D03*
D12*
X82105000Y-50990000D03*
D11*
X87185000Y-50990000D03*
X87605000Y-50990000D03*
X77025000Y-50990000D03*
D14*
X85915000Y-53530000D03*
D13*
X82105000Y-56890000D03*
D16*
X77005000Y-54890000D03*
D15*
X79565000Y-56070000D03*
D18*
X219205000Y-83820000D03*
D17*
X221705000Y-83820000D03*
D18*
X216405000Y-83820000D03*
D19*
X213905000Y-83820000D03*
D18*
X219205000Y-91440000D03*
D17*
X221705000Y-91440000D03*
D19*
X213905000Y-91440000D03*
D18*
X216405000Y-91440000D03*
M02*
