M48
; DRILL file {KiCad (6.0.0-rc1-306-g01eebd0b9d)} date Mon Mar 14 13:09:13 2022
; FORMAT={-:-/ absolute / metric / decimal}
; #@! TF.CreationDate,2022-03-14T13:09:13+00:00
; #@! TF.GenerationSoftware,Kicad,Pcbnew,(6.0.0-rc1-306-g01eebd0b9d)
; #@! TF.FileFunction,Plated,1,2,PTH
FMAT,2
METRIC
; #@! TA.AperFunction,Plated,PTH,ViaDrill
T1C0.400
; #@! TA.AperFunction,Plated,PTH,ComponentDrill
T2C0.800
; #@! TA.AperFunction,Plated,PTH,ComponentDrill
T3C1.000
; #@! TA.AperFunction,Plated,PTH,ComponentDrill
T4C1.092
; #@! TA.AperFunction,Plated,PTH,ComponentDrill
T5C1.200
; #@! TA.AperFunction,Plated,PTH,ComponentDrill
T6C1.270
; #@! TA.AperFunction,Plated,PTH,ComponentDrill
T7C1.500
; #@! TA.AperFunction,Plated,PTH,ComponentDrill
T8C2.000
%
G90
G05
T1
X65.532Y-99.568
X86.868Y-104.14
X109.22Y-104.14
X141.986Y-104.14
X167.64Y-104.14
X178.054Y-103.886
X205.105Y-80.645
X205.105Y-96.52
T2
X189.865Y-107.22
X189.865Y-109.22
X189.865Y-111.22
T3
X40.674Y-78.994
X40.674Y-81.534
X40.674Y-84.074
X40.674Y-86.614
X40.674Y-89.154
X40.674Y-91.694
X40.674Y-94.234
X40.674Y-96.774
X40.675Y-99.234
X46.94Y-102.108
X46.94Y-104.648
X46.94Y-107.188
X46.94Y-109.728
X48.474Y-78.994
X48.474Y-81.534
X48.474Y-84.074
X48.474Y-86.614
X48.474Y-89.154
X48.474Y-91.694
X48.474Y-94.234
X48.474Y-96.774
X48.475Y-99.234
X54.74Y-102.108
X54.74Y-104.648
X54.74Y-107.188
X54.74Y-109.728
X60.616Y-102.108
X60.616Y-104.648
X60.616Y-107.188
X60.616Y-109.728
X68.416Y-102.108
X68.416Y-104.648
X68.416Y-107.188
X68.416Y-109.728
X186.69Y-100.965
X193.675Y-100.965
X194.31Y-107.95
X194.31Y-110.49
X201.84Y-83.82
X201.84Y-86.36
X201.84Y-88.9
X201.84Y-91.44
X201.84Y-93.98
X209.64Y-83.82
X209.64Y-86.36
X209.64Y-88.9
X209.64Y-91.44
X209.64Y-93.98
X213.905Y-71.12
X213.905Y-73.66
X213.905Y-76.2
X213.905Y-78.74
X213.905Y-81.28
X213.905Y-83.82
X213.905Y-86.36
X213.905Y-88.9
X213.905Y-91.44
X213.905Y-93.98
X221.705Y-71.12
X221.705Y-73.66
X221.705Y-76.2
X221.705Y-78.74
X221.705Y-81.28
X221.705Y-83.82
X221.705Y-86.36
X221.705Y-88.9
X221.705Y-91.44
X221.705Y-93.98
T4
X198.12Y-101.6
X198.12Y-116.84
X200.66Y-101.6
X200.66Y-116.84
X203.2Y-101.6
X203.2Y-116.84
X205.74Y-101.6
X205.74Y-116.84
X208.28Y-101.6
X208.28Y-116.84
X210.82Y-101.6
X210.82Y-116.84
X213.36Y-101.6
X213.36Y-116.84
X215.9Y-101.6
X215.9Y-116.84
X218.44Y-101.6
X218.44Y-116.84
X220.98Y-101.6
X220.98Y-116.84
X223.52Y-101.6
X223.52Y-116.84
X226.06Y-101.6
X226.06Y-116.84
T5
X38.905Y-54.89
X43.667Y-73.94
X53.192Y-92.99
X57.955Y-54.89
X62.717Y-73.94
X72.242Y-92.99
X72.242Y-112.04
X77.005Y-54.89
X81.767Y-73.94
X91.292Y-92.99
X91.292Y-112.04
X96.055Y-54.89
X100.817Y-73.94
X110.343Y-92.99
X115.105Y-54.89
X119.867Y-73.94
X119.876Y-112.04
X129.392Y-92.99
X134.155Y-54.89
X138.917Y-73.94
X148.442Y-92.99
X148.442Y-112.04
X153.205Y-54.89
X157.968Y-73.94
X167.492Y-92.99
X167.492Y-112.04
X172.255Y-54.89
X177.017Y-73.94
X186.542Y-92.99
X191.305Y-54.89
X196.067Y-73.94
X210.355Y-54.89
T6
X44.005Y-56.89
X48.767Y-75.94
X58.292Y-94.99
X63.055Y-56.89
X67.817Y-75.94
X77.343Y-94.99
X77.343Y-114.04
X82.105Y-56.89
X86.867Y-75.94
X96.392Y-94.99
X96.392Y-114.04
X101.155Y-56.89
X105.917Y-75.94
X115.442Y-94.99
X120.205Y-56.89
X124.968Y-75.94
X124.976Y-114.04
X134.493Y-94.99
X139.255Y-56.89
X144.017Y-75.94
X153.542Y-94.99
X153.542Y-114.04
X158.305Y-56.89
X163.067Y-75.94
X172.593Y-94.99
X172.593Y-114.04
X177.355Y-56.89
X182.117Y-75.94
X191.642Y-94.99
X196.405Y-56.89
X201.167Y-75.94
X215.455Y-56.89
T7
X41.465Y-56.07
X46.227Y-75.12
X47.815Y-53.53
X52.578Y-72.58
X55.752Y-94.17
X60.515Y-56.07
X62.102Y-91.63
X65.278Y-75.12
X66.865Y-53.53
X71.627Y-72.58
X74.802Y-94.17
X74.802Y-113.22
X79.565Y-56.07
X81.153Y-91.63
X81.153Y-110.68
X84.328Y-75.12
X85.915Y-53.53
X90.677Y-72.58
X93.852Y-94.17
X93.852Y-113.22
X98.615Y-56.07
X100.203Y-91.63
X100.203Y-110.68
X103.377Y-75.12
X104.965Y-53.53
X109.727Y-72.58
X112.902Y-94.17
X117.665Y-56.07
X119.252Y-91.63
X122.427Y-75.12
X122.436Y-113.22
X124.015Y-53.53
X128.778Y-72.58
X128.786Y-110.68
X131.952Y-94.17
X136.715Y-56.07
X138.302Y-91.63
X141.477Y-75.12
X143.065Y-53.53
X147.827Y-72.58
X151.002Y-94.17
X151.002Y-113.22
X155.765Y-56.07
X157.352Y-91.63
X157.352Y-110.68
X160.528Y-75.12
X162.115Y-53.53
X166.877Y-72.58
X170.052Y-94.17
X170.052Y-113.22
X174.815Y-56.07
X176.403Y-91.63
X176.403Y-110.68
X179.577Y-75.12
X181.165Y-53.53
X185.927Y-72.58
X189.102Y-94.17
X189.865Y-105.12
X189.865Y-113.32
X193.865Y-56.07
X195.452Y-91.63
X198.627Y-75.12
X200.215Y-53.53
X204.977Y-72.58
X212.915Y-56.07
X219.265Y-53.53
T8
X31.91Y-100.11
X31.92Y-38.75
X54.75Y-122.95
X228.41Y-38.75
X228.41Y-95.54
X228.413Y-122.945
T0
M30
