G04 #@! TF.GenerationSoftware,KiCad,Pcbnew,(6.0.0-rc1-306-g01eebd0b9d)*
G04 #@! TF.CreationDate,2022-03-14T13:07:56+00:00*
G04 #@! TF.ProjectId,keyboard,6b657962-6f61-4726-942e-6b696361645f,rev?*
G04 #@! TF.SameCoordinates,Original*
G04 #@! TF.FileFunction,Paste,Bot*
G04 #@! TF.FilePolarity,Positive*
%FSLAX46Y46*%
G04 Gerber Fmt 4.6, Leading zero omitted, Abs format (unit mm)*
G04 Created by KiCad (PCBNEW (6.0.0-rc1-306-g01eebd0b9d)) date 2022-03-14 13:07:56*
%MOMM*%
%LPD*%
G01*
G04 APERTURE LIST*
%ADD10R,1.600000X1.200000*%
G04 APERTURE END LIST*
D10*
X207140000Y-91440000D03*
X204340000Y-91440000D03*
X219205000Y-76200000D03*
X216405000Y-76200000D03*
X43174000Y-91694000D03*
X45974000Y-91694000D03*
X43174000Y-94234000D03*
X45974000Y-94234000D03*
X63116000Y-107188000D03*
X65916000Y-107188000D03*
X43174000Y-78994000D03*
X45974000Y-78994000D03*
X219205000Y-73660000D03*
X216405000Y-73660000D03*
X43174000Y-96774000D03*
X45974000Y-96774000D03*
X49440000Y-107188000D03*
X52240000Y-107188000D03*
X219205000Y-86360000D03*
X216405000Y-86360000D03*
X207140000Y-88900000D03*
X204340000Y-88900000D03*
X49440000Y-102108000D03*
X52240000Y-102108000D03*
X49440000Y-109728000D03*
X52240000Y-109728000D03*
X219205000Y-81280000D03*
X216405000Y-81280000D03*
X219205000Y-71120000D03*
X216405000Y-71120000D03*
X43174000Y-86614000D03*
X45974000Y-86614000D03*
X63116000Y-104648000D03*
X65916000Y-104648000D03*
X43174000Y-81534000D03*
X45974000Y-81534000D03*
X219205000Y-88900000D03*
X216405000Y-88900000D03*
X207140000Y-83820000D03*
X204340000Y-83820000D03*
X43174000Y-84074000D03*
X45974000Y-84074000D03*
X63116000Y-102108000D03*
X65916000Y-102108000D03*
X219205000Y-93980000D03*
X216405000Y-93980000D03*
X43174000Y-89154000D03*
X45974000Y-89154000D03*
X207140000Y-86360000D03*
X204340000Y-86360000D03*
X219205000Y-78740000D03*
X216405000Y-78740000D03*
X49440000Y-104648000D03*
X52240000Y-104648000D03*
X207140000Y-93980000D03*
X204340000Y-93980000D03*
X63116000Y-109728000D03*
X65916000Y-109728000D03*
X43174749Y-99234346D03*
X45974749Y-99234346D03*
X219205000Y-83820000D03*
X216405000Y-83820000D03*
X219205000Y-91440000D03*
X216405000Y-91440000D03*
M02*
