%FSLAX45Y45*%
G04 Gerber Fmt 4.5, Leading zero omitted, Abs format (unit mm)*
G04 Created by KiCad (PCBNEW (6.0.0-rc1-306-g01eebd0b9d)) date 2022-03-14 13:09:21*
%MOMM*%
%LPD*%
G01*
G04 APERTURE LIST*
%TA.AperFunction,Profile*%
%ADD10C,0.200000*%
%TD*%
%ADD11C,0.200000*%
%ADD12C,0.040000*%
%ADD13C,0.080000*%
%ADD14C,0.100000*%
%ADD15C,0.109220*%
%ADD16C,0.120000*%
%ADD17C,0.127000*%
%ADD18C,0.150000*%
G04 APERTURE END LIST*
D10*
X23140999Y-12444563D02*
X23140999Y-11707845D01*
X3125261Y-10368305D02*
X5102333Y-12345574D01*
X22990999Y-11557845D02*
X19863930Y-11557845D01*
X5102333Y-12345574D02*
G75*
G03*
X5703403Y-12594563I601071J601011D01*
G01*
X2890975Y-9802594D02*
G75*
G03*
X3125261Y-10368305I800000J-55D01*
G01*
X23140999Y-11707845D02*
G75*
G03*
X22990999Y-11557845I-150000J0D01*
G01*
X22990999Y-12594563D02*
X5703403Y-12594563D01*
X22990999Y-12594563D02*
G75*
G03*
X23140999Y-12444563I0J150000D01*
G01*
X3041390Y-3574442D02*
X22990999Y-3574442D01*
X22990999Y-10289337D02*
G75*
G03*
X23140999Y-10139337I0J150000D01*
G01*
X19713930Y-11407845D02*
X19713930Y-10439337D01*
X19863930Y-10289337D02*
X22990999Y-10289337D01*
X19713930Y-11407845D02*
G75*
G03*
X19863930Y-11557845I150000J0D01*
G01*
X19863930Y-10289337D02*
G75*
G03*
X19713930Y-10439337I0J-150000D01*
G01*
X2890975Y-9802594D02*
X2891390Y-3724432D01*
X3041390Y-3574442D02*
G75*
G03*
X2891390Y-3724432I0J-150000D01*
G01*
X23140999Y-3724442D02*
G75*
G03*
X22990999Y-3574442I-150000J0D01*
G01*
X23140999Y-10139337D02*
X23140999Y-3724442D01*
D11*
D12*
X6533200Y-9936800D02*
X6573200Y-9976800D01*
X6573200Y-9936800D02*
X6533200Y-9976800D01*
X8666800Y-10394000D02*
X8706800Y-10434000D01*
X8706800Y-10394000D02*
X8666800Y-10434000D01*
X10902000Y-10394000D02*
X10942000Y-10434000D01*
X10942000Y-10394000D02*
X10902000Y-10434000D01*
X14178600Y-10394000D02*
X14218600Y-10434000D01*
X14218600Y-10394000D02*
X14178600Y-10434000D01*
X16744000Y-10394000D02*
X16784000Y-10434000D01*
X16784000Y-10394000D02*
X16744000Y-10434000D01*
X17785400Y-10368600D02*
X17825400Y-10408600D01*
X17825400Y-10368600D02*
X17785400Y-10408600D01*
X20490500Y-8044500D02*
X20530500Y-8084500D01*
X20530500Y-8044500D02*
X20490500Y-8084500D01*
X20490500Y-9632000D02*
X20530500Y-9672000D01*
X20530500Y-9632000D02*
X20490500Y-9672000D01*
D13*
X19026500Y-10722000D02*
G75*
G03*
X19026500Y-10722000I-40000J0D01*
G01*
X19026500Y-10922000D02*
G75*
G03*
X19026500Y-10922000I-40000J0D01*
G01*
X19026500Y-11122000D02*
G75*
G03*
X19026500Y-11122000I-40000J0D01*
G01*
D14*
X4067400Y-7849400D02*
X4067400Y-7949400D01*
X4017400Y-7899400D02*
X4117400Y-7899400D01*
X4067400Y-8103400D02*
X4067400Y-8203400D01*
X4017400Y-8153400D02*
X4117400Y-8153400D01*
X4067400Y-8357400D02*
X4067400Y-8457400D01*
X4017400Y-8407400D02*
X4117400Y-8407400D01*
X4067400Y-8611400D02*
X4067400Y-8711400D01*
X4017400Y-8661400D02*
X4117400Y-8661400D01*
X4067400Y-8865400D02*
X4067400Y-8965400D01*
X4017400Y-8915400D02*
X4117400Y-8915400D01*
X4067400Y-9119400D02*
X4067400Y-9219400D01*
X4017400Y-9169400D02*
X4117400Y-9169400D01*
X4067400Y-9373400D02*
X4067400Y-9473400D01*
X4017400Y-9423400D02*
X4117400Y-9423400D01*
X4067400Y-9627400D02*
X4067400Y-9727400D01*
X4017400Y-9677400D02*
X4117400Y-9677400D01*
X4067475Y-9873435D02*
X4067475Y-9973435D01*
X4017475Y-9923435D02*
X4117475Y-9923435D01*
X4694000Y-10160800D02*
X4694000Y-10260800D01*
X4644000Y-10210800D02*
X4744000Y-10210800D01*
X4694000Y-10414800D02*
X4694000Y-10514800D01*
X4644000Y-10464800D02*
X4744000Y-10464800D01*
X4694000Y-10668800D02*
X4694000Y-10768800D01*
X4644000Y-10718800D02*
X4744000Y-10718800D01*
X4694000Y-10922800D02*
X4694000Y-11022800D01*
X4644000Y-10972800D02*
X4744000Y-10972800D01*
X4847400Y-7849400D02*
X4847400Y-7949400D01*
X4797400Y-7899400D02*
X4897400Y-7899400D01*
X4847400Y-8103400D02*
X4847400Y-8203400D01*
X4797400Y-8153400D02*
X4897400Y-8153400D01*
X4847400Y-8357400D02*
X4847400Y-8457400D01*
X4797400Y-8407400D02*
X4897400Y-8407400D01*
X4847400Y-8611400D02*
X4847400Y-8711400D01*
X4797400Y-8661400D02*
X4897400Y-8661400D01*
X4847400Y-8865400D02*
X4847400Y-8965400D01*
X4797400Y-8915400D02*
X4897400Y-8915400D01*
X4847400Y-9119400D02*
X4847400Y-9219400D01*
X4797400Y-9169400D02*
X4897400Y-9169400D01*
X4847400Y-9373400D02*
X4847400Y-9473400D01*
X4797400Y-9423400D02*
X4897400Y-9423400D01*
X4847400Y-9627400D02*
X4847400Y-9727400D01*
X4797400Y-9677400D02*
X4897400Y-9677400D01*
X4847475Y-9873435D02*
X4847475Y-9973435D01*
X4797475Y-9923435D02*
X4897475Y-9923435D01*
X5474000Y-10160800D02*
X5474000Y-10260800D01*
X5424000Y-10210800D02*
X5524000Y-10210800D01*
X5474000Y-10414800D02*
X5474000Y-10514800D01*
X5424000Y-10464800D02*
X5524000Y-10464800D01*
X5474000Y-10668800D02*
X5474000Y-10768800D01*
X5424000Y-10718800D02*
X5524000Y-10718800D01*
X5474000Y-10922800D02*
X5474000Y-11022800D01*
X5424000Y-10972800D02*
X5524000Y-10972800D01*
X6061600Y-10160800D02*
X6061600Y-10260800D01*
X6011600Y-10210800D02*
X6111600Y-10210800D01*
X6061600Y-10414800D02*
X6061600Y-10514800D01*
X6011600Y-10464800D02*
X6111600Y-10464800D01*
X6061600Y-10668800D02*
X6061600Y-10768800D01*
X6011600Y-10718800D02*
X6111600Y-10718800D01*
X6061600Y-10922800D02*
X6061600Y-11022800D01*
X6011600Y-10972800D02*
X6111600Y-10972800D01*
X6841600Y-10160800D02*
X6841600Y-10260800D01*
X6791600Y-10210800D02*
X6891600Y-10210800D01*
X6841600Y-10414800D02*
X6841600Y-10514800D01*
X6791600Y-10464800D02*
X6891600Y-10464800D01*
X6841600Y-10668800D02*
X6841600Y-10768800D01*
X6791600Y-10718800D02*
X6891600Y-10718800D01*
X6841600Y-10922800D02*
X6841600Y-11022800D01*
X6791600Y-10972800D02*
X6891600Y-10972800D01*
X18669000Y-10046500D02*
X18669000Y-10146500D01*
X18619000Y-10096500D02*
X18719000Y-10096500D01*
X19367500Y-10046500D02*
X19367500Y-10146500D01*
X19317500Y-10096500D02*
X19417500Y-10096500D01*
X19431000Y-10745000D02*
X19431000Y-10845000D01*
X19381000Y-10795000D02*
X19481000Y-10795000D01*
X19431000Y-10999000D02*
X19431000Y-11099000D01*
X19381000Y-11049000D02*
X19481000Y-11049000D01*
X20184000Y-8332000D02*
X20184000Y-8432000D01*
X20134000Y-8382000D02*
X20234000Y-8382000D01*
X20184000Y-8586000D02*
X20184000Y-8686000D01*
X20134000Y-8636000D02*
X20234000Y-8636000D01*
X20184000Y-8840000D02*
X20184000Y-8940000D01*
X20134000Y-8890000D02*
X20234000Y-8890000D01*
X20184000Y-9094000D02*
X20184000Y-9194000D01*
X20134000Y-9144000D02*
X20234000Y-9144000D01*
X20184000Y-9348000D02*
X20184000Y-9448000D01*
X20134000Y-9398000D02*
X20234000Y-9398000D01*
X20964000Y-8332000D02*
X20964000Y-8432000D01*
X20914000Y-8382000D02*
X21014000Y-8382000D01*
X20964000Y-8586000D02*
X20964000Y-8686000D01*
X20914000Y-8636000D02*
X21014000Y-8636000D01*
X20964000Y-8840000D02*
X20964000Y-8940000D01*
X20914000Y-8890000D02*
X21014000Y-8890000D01*
X20964000Y-9094000D02*
X20964000Y-9194000D01*
X20914000Y-9144000D02*
X21014000Y-9144000D01*
X20964000Y-9348000D02*
X20964000Y-9448000D01*
X20914000Y-9398000D02*
X21014000Y-9398000D01*
X21390500Y-7062000D02*
X21390500Y-7162000D01*
X21340500Y-7112000D02*
X21440500Y-7112000D01*
X21390500Y-7316000D02*
X21390500Y-7416000D01*
X21340500Y-7366000D02*
X21440500Y-7366000D01*
X21390500Y-7570000D02*
X21390500Y-7670000D01*
X21340500Y-7620000D02*
X21440500Y-7620000D01*
X21390500Y-7824000D02*
X21390500Y-7924000D01*
X21340500Y-7874000D02*
X21440500Y-7874000D01*
X21390500Y-8078000D02*
X21390500Y-8178000D01*
X21340500Y-8128000D02*
X21440500Y-8128000D01*
X21390500Y-8332000D02*
X21390500Y-8432000D01*
X21340500Y-8382000D02*
X21440500Y-8382000D01*
X21390500Y-8586000D02*
X21390500Y-8686000D01*
X21340500Y-8636000D02*
X21440500Y-8636000D01*
X21390500Y-8840000D02*
X21390500Y-8940000D01*
X21340500Y-8890000D02*
X21440500Y-8890000D01*
X21390500Y-9094000D02*
X21390500Y-9194000D01*
X21340500Y-9144000D02*
X21440500Y-9144000D01*
X21390500Y-9348000D02*
X21390500Y-9448000D01*
X21340500Y-9398000D02*
X21440500Y-9398000D01*
X22170500Y-7062000D02*
X22170500Y-7162000D01*
X22120500Y-7112000D02*
X22220500Y-7112000D01*
X22170500Y-7316000D02*
X22170500Y-7416000D01*
X22120500Y-7366000D02*
X22220500Y-7366000D01*
X22170500Y-7570000D02*
X22170500Y-7670000D01*
X22120500Y-7620000D02*
X22220500Y-7620000D01*
X22170500Y-7824000D02*
X22170500Y-7924000D01*
X22120500Y-7874000D02*
X22220500Y-7874000D01*
X22170500Y-8078000D02*
X22170500Y-8178000D01*
X22120500Y-8128000D02*
X22220500Y-8128000D01*
X22170500Y-8332000D02*
X22170500Y-8432000D01*
X22120500Y-8382000D02*
X22220500Y-8382000D01*
X22170500Y-8586000D02*
X22170500Y-8686000D01*
X22120500Y-8636000D02*
X22220500Y-8636000D01*
X22170500Y-8840000D02*
X22170500Y-8940000D01*
X22120500Y-8890000D02*
X22220500Y-8890000D01*
X22170500Y-9094000D02*
X22170500Y-9194000D01*
X22120500Y-9144000D02*
X22220500Y-9144000D01*
X22170500Y-9348000D02*
X22170500Y-9448000D01*
X22120500Y-9398000D02*
X22220500Y-9398000D01*
D15*
X19850616Y-10198616D02*
X19850616Y-10121385D01*
X19773385Y-10121385D01*
X19773385Y-10198616D01*
X19850616Y-10198616D01*
X19850616Y-11722615D02*
X19850616Y-11645384D01*
X19773385Y-11645384D01*
X19773385Y-11722615D01*
X19850616Y-11722615D01*
X20104616Y-10198616D02*
X20104616Y-10121385D01*
X20027385Y-10121385D01*
X20027385Y-10198616D01*
X20104616Y-10198616D01*
X20104616Y-11722615D02*
X20104616Y-11645384D01*
X20027385Y-11645384D01*
X20027385Y-11722615D01*
X20104616Y-11722615D01*
X20358616Y-10198616D02*
X20358616Y-10121385D01*
X20281385Y-10121385D01*
X20281385Y-10198616D01*
X20358616Y-10198616D01*
X20358616Y-11722615D02*
X20358616Y-11645384D01*
X20281385Y-11645384D01*
X20281385Y-11722615D01*
X20358616Y-11722615D01*
X20612616Y-10198616D02*
X20612616Y-10121385D01*
X20535385Y-10121385D01*
X20535385Y-10198616D01*
X20612616Y-10198616D01*
X20612616Y-11722615D02*
X20612616Y-11645384D01*
X20535385Y-11645384D01*
X20535385Y-11722615D01*
X20612616Y-11722615D01*
X20866616Y-10198616D02*
X20866616Y-10121385D01*
X20789385Y-10121385D01*
X20789385Y-10198616D01*
X20866616Y-10198616D01*
X20866616Y-11722615D02*
X20866616Y-11645384D01*
X20789385Y-11645384D01*
X20789385Y-11722615D01*
X20866616Y-11722615D01*
X21120616Y-10198616D02*
X21120616Y-10121385D01*
X21043385Y-10121385D01*
X21043385Y-10198616D01*
X21120616Y-10198616D01*
X21120616Y-11722615D02*
X21120616Y-11645384D01*
X21043385Y-11645384D01*
X21043385Y-11722615D01*
X21120616Y-11722615D01*
X21374616Y-10198616D02*
X21374616Y-10121385D01*
X21297385Y-10121385D01*
X21297385Y-10198616D01*
X21374616Y-10198616D01*
X21374616Y-11722615D02*
X21374616Y-11645384D01*
X21297385Y-11645384D01*
X21297385Y-11722615D01*
X21374616Y-11722615D01*
X21628616Y-10198616D02*
X21628616Y-10121385D01*
X21551385Y-10121385D01*
X21551385Y-10198616D01*
X21628616Y-10198616D01*
X21628616Y-11722615D02*
X21628616Y-11645384D01*
X21551385Y-11645384D01*
X21551385Y-11722615D01*
X21628616Y-11722615D01*
X21882616Y-10198616D02*
X21882616Y-10121385D01*
X21805385Y-10121385D01*
X21805385Y-10198616D01*
X21882616Y-10198616D01*
X21882616Y-11722615D02*
X21882616Y-11645384D01*
X21805385Y-11645384D01*
X21805385Y-11722615D01*
X21882616Y-11722615D01*
X22136616Y-10198616D02*
X22136616Y-10121385D01*
X22059385Y-10121385D01*
X22059385Y-10198616D01*
X22136616Y-10198616D01*
X22136616Y-11722615D02*
X22136616Y-11645384D01*
X22059385Y-11645384D01*
X22059385Y-11722615D01*
X22136616Y-11722615D01*
X22390615Y-10198616D02*
X22390615Y-10121385D01*
X22313385Y-10121385D01*
X22313385Y-10198616D01*
X22390615Y-10198616D01*
X22390615Y-11722615D02*
X22390615Y-11645384D01*
X22313385Y-11645384D01*
X22313385Y-11722615D01*
X22390615Y-11722615D01*
X22644615Y-10198616D02*
X22644615Y-10121385D01*
X22567384Y-10121385D01*
X22567384Y-10198616D01*
X22644615Y-10198616D01*
X22644615Y-11722615D02*
X22644615Y-11645384D01*
X22567384Y-11645384D01*
X22567384Y-11722615D01*
X22644615Y-11722615D01*
D16*
X3890500Y-5549000D02*
X3950500Y-5489000D01*
X3890500Y-5429000D01*
X3830500Y-5489000D01*
X3890500Y-5549000D01*
X4366750Y-7454000D02*
X4426750Y-7394000D01*
X4366750Y-7334000D01*
X4306750Y-7394000D01*
X4366750Y-7454000D01*
X5319250Y-9359000D02*
X5379250Y-9299000D01*
X5319250Y-9239000D01*
X5259250Y-9299000D01*
X5319250Y-9359000D01*
X5795500Y-5549000D02*
X5855500Y-5489000D01*
X5795500Y-5429000D01*
X5735500Y-5489000D01*
X5795500Y-5549000D01*
X6271750Y-7454000D02*
X6331750Y-7394000D01*
X6271750Y-7334000D01*
X6211750Y-7394000D01*
X6271750Y-7454000D01*
X7224250Y-9359000D02*
X7284250Y-9299000D01*
X7224250Y-9239000D01*
X7164250Y-9299000D01*
X7224250Y-9359000D01*
X7224250Y-11264000D02*
X7284250Y-11204000D01*
X7224250Y-11144000D01*
X7164250Y-11204000D01*
X7224250Y-11264000D01*
X7700500Y-5549000D02*
X7760500Y-5489000D01*
X7700500Y-5429000D01*
X7640500Y-5489000D01*
X7700500Y-5549000D01*
X8176750Y-7454000D02*
X8236750Y-7394000D01*
X8176750Y-7334000D01*
X8116750Y-7394000D01*
X8176750Y-7454000D01*
X9129250Y-9359000D02*
X9189250Y-9299000D01*
X9129250Y-9239000D01*
X9069250Y-9299000D01*
X9129250Y-9359000D01*
X9129250Y-11264000D02*
X9189250Y-11204000D01*
X9129250Y-11144000D01*
X9069250Y-11204000D01*
X9129250Y-11264000D01*
X9605500Y-5549000D02*
X9665500Y-5489000D01*
X9605500Y-5429000D01*
X9545500Y-5489000D01*
X9605500Y-5549000D01*
X10081750Y-7454000D02*
X10141750Y-7394000D01*
X10081750Y-7334000D01*
X10021750Y-7394000D01*
X10081750Y-7454000D01*
X11034250Y-9359000D02*
X11094250Y-9299000D01*
X11034250Y-9239000D01*
X10974250Y-9299000D01*
X11034250Y-9359000D01*
X11510500Y-5549000D02*
X11570500Y-5489000D01*
X11510500Y-5429000D01*
X11450500Y-5489000D01*
X11510500Y-5549000D01*
X11986750Y-7454000D02*
X12046750Y-7394000D01*
X11986750Y-7334000D01*
X11926750Y-7394000D01*
X11986750Y-7454000D01*
X11987630Y-11264000D02*
X12047630Y-11204000D01*
X11987630Y-11144000D01*
X11927630Y-11204000D01*
X11987630Y-11264000D01*
X12939250Y-9359000D02*
X12999250Y-9299000D01*
X12939250Y-9239000D01*
X12879250Y-9299000D01*
X12939250Y-9359000D01*
X13415500Y-5549000D02*
X13475500Y-5489000D01*
X13415500Y-5429000D01*
X13355500Y-5489000D01*
X13415500Y-5549000D01*
X13891750Y-7454000D02*
X13951750Y-7394000D01*
X13891750Y-7334000D01*
X13831750Y-7394000D01*
X13891750Y-7454000D01*
X14844250Y-9359000D02*
X14904250Y-9299000D01*
X14844250Y-9239000D01*
X14784250Y-9299000D01*
X14844250Y-9359000D01*
X14844250Y-11264000D02*
X14904250Y-11204000D01*
X14844250Y-11144000D01*
X14784250Y-11204000D01*
X14844250Y-11264000D01*
X15320500Y-5549000D02*
X15380500Y-5489000D01*
X15320500Y-5429000D01*
X15260500Y-5489000D01*
X15320500Y-5549000D01*
X15796750Y-7454000D02*
X15856750Y-7394000D01*
X15796750Y-7334000D01*
X15736750Y-7394000D01*
X15796750Y-7454000D01*
X16749250Y-9359000D02*
X16809250Y-9299000D01*
X16749250Y-9239000D01*
X16689250Y-9299000D01*
X16749250Y-9359000D01*
X16749250Y-11264000D02*
X16809250Y-11204000D01*
X16749250Y-11144000D01*
X16689250Y-11204000D01*
X16749250Y-11264000D01*
X17225500Y-5549000D02*
X17285500Y-5489000D01*
X17225500Y-5429000D01*
X17165500Y-5489000D01*
X17225500Y-5549000D01*
X17701750Y-7454000D02*
X17761750Y-7394000D01*
X17701750Y-7334000D01*
X17641750Y-7394000D01*
X17701750Y-7454000D01*
X18654250Y-9359000D02*
X18714250Y-9299000D01*
X18654250Y-9239000D01*
X18594250Y-9299000D01*
X18654250Y-9359000D01*
X19130500Y-5549000D02*
X19190500Y-5489000D01*
X19130500Y-5429000D01*
X19070500Y-5489000D01*
X19130500Y-5549000D01*
X19606750Y-7454000D02*
X19666750Y-7394000D01*
X19606750Y-7334000D01*
X19546750Y-7394000D01*
X19606750Y-7454000D01*
X21035500Y-5549000D02*
X21095500Y-5489000D01*
X21035500Y-5429000D01*
X20975500Y-5489000D01*
X21035500Y-5549000D01*
D17*
X4337000Y-5625500D02*
X4464000Y-5752500D01*
X4464000Y-5625500D02*
X4337000Y-5752500D01*
X4464000Y-5689000D02*
G75*
G03*
X4464000Y-5689000I-63500J0D01*
G01*
X4813250Y-7530500D02*
X4940250Y-7657500D01*
X4940250Y-7530500D02*
X4813250Y-7657500D01*
X4940250Y-7594000D02*
G75*
G03*
X4940250Y-7594000I-63500J0D01*
G01*
X5765750Y-9435500D02*
X5892750Y-9562500D01*
X5892750Y-9435500D02*
X5765750Y-9562500D01*
X5892750Y-9499000D02*
G75*
G03*
X5892750Y-9499000I-63500J0D01*
G01*
X6242000Y-5625500D02*
X6369000Y-5752500D01*
X6369000Y-5625500D02*
X6242000Y-5752500D01*
X6369000Y-5689000D02*
G75*
G03*
X6369000Y-5689000I-63500J0D01*
G01*
X6718250Y-7530500D02*
X6845250Y-7657500D01*
X6845250Y-7530500D02*
X6718250Y-7657500D01*
X6845250Y-7594000D02*
G75*
G03*
X6845250Y-7594000I-63500J0D01*
G01*
X7670750Y-9435500D02*
X7797750Y-9562500D01*
X7797750Y-9435500D02*
X7670750Y-9562500D01*
X7797750Y-9499000D02*
G75*
G03*
X7797750Y-9499000I-63500J0D01*
G01*
X7670750Y-11340500D02*
X7797750Y-11467500D01*
X7797750Y-11340500D02*
X7670750Y-11467500D01*
X7797750Y-11404000D02*
G75*
G03*
X7797750Y-11404000I-63500J0D01*
G01*
X8147000Y-5625500D02*
X8274000Y-5752500D01*
X8274000Y-5625500D02*
X8147000Y-5752500D01*
X8274000Y-5689000D02*
G75*
G03*
X8274000Y-5689000I-63500J0D01*
G01*
X8623250Y-7530500D02*
X8750250Y-7657500D01*
X8750250Y-7530500D02*
X8623250Y-7657500D01*
X8750250Y-7594000D02*
G75*
G03*
X8750250Y-7594000I-63500J0D01*
G01*
X9575750Y-9435500D02*
X9702750Y-9562500D01*
X9702750Y-9435500D02*
X9575750Y-9562500D01*
X9702750Y-9499000D02*
G75*
G03*
X9702750Y-9499000I-63500J0D01*
G01*
X9575750Y-11340500D02*
X9702750Y-11467500D01*
X9702750Y-11340500D02*
X9575750Y-11467500D01*
X9702750Y-11404000D02*
G75*
G03*
X9702750Y-11404000I-63500J0D01*
G01*
X10052000Y-5625500D02*
X10179000Y-5752500D01*
X10179000Y-5625500D02*
X10052000Y-5752500D01*
X10179000Y-5689000D02*
G75*
G03*
X10179000Y-5689000I-63500J0D01*
G01*
X10528250Y-7530500D02*
X10655250Y-7657500D01*
X10655250Y-7530500D02*
X10528250Y-7657500D01*
X10655250Y-7594000D02*
G75*
G03*
X10655250Y-7594000I-63500J0D01*
G01*
X11480750Y-9435500D02*
X11607750Y-9562500D01*
X11607750Y-9435500D02*
X11480750Y-9562500D01*
X11607750Y-9499000D02*
G75*
G03*
X11607750Y-9499000I-63500J0D01*
G01*
X11957000Y-5625500D02*
X12084000Y-5752500D01*
X12084000Y-5625500D02*
X11957000Y-5752500D01*
X12084000Y-5689000D02*
G75*
G03*
X12084000Y-5689000I-63500J0D01*
G01*
X12433250Y-7530500D02*
X12560250Y-7657500D01*
X12560250Y-7530500D02*
X12433250Y-7657500D01*
X12560250Y-7594000D02*
G75*
G03*
X12560250Y-7594000I-63500J0D01*
G01*
X12434130Y-11340500D02*
X12561130Y-11467500D01*
X12561130Y-11340500D02*
X12434130Y-11467500D01*
X12561130Y-11404000D02*
G75*
G03*
X12561130Y-11404000I-63500J0D01*
G01*
X13385750Y-9435500D02*
X13512750Y-9562500D01*
X13512750Y-9435500D02*
X13385750Y-9562500D01*
X13512750Y-9499000D02*
G75*
G03*
X13512750Y-9499000I-63500J0D01*
G01*
X13862000Y-5625500D02*
X13989000Y-5752500D01*
X13989000Y-5625500D02*
X13862000Y-5752500D01*
X13989000Y-5689000D02*
G75*
G03*
X13989000Y-5689000I-63500J0D01*
G01*
X14338250Y-7530500D02*
X14465250Y-7657500D01*
X14465250Y-7530500D02*
X14338250Y-7657500D01*
X14465250Y-7594000D02*
G75*
G03*
X14465250Y-7594000I-63500J0D01*
G01*
X15290750Y-9435500D02*
X15417750Y-9562500D01*
X15417750Y-9435500D02*
X15290750Y-9562500D01*
X15417750Y-9499000D02*
G75*
G03*
X15417750Y-9499000I-63500J0D01*
G01*
X15290750Y-11340500D02*
X15417750Y-11467500D01*
X15417750Y-11340500D02*
X15290750Y-11467500D01*
X15417750Y-11404000D02*
G75*
G03*
X15417750Y-11404000I-63500J0D01*
G01*
X15767000Y-5625500D02*
X15894000Y-5752500D01*
X15894000Y-5625500D02*
X15767000Y-5752500D01*
X15894000Y-5689000D02*
G75*
G03*
X15894000Y-5689000I-63500J0D01*
G01*
X16243250Y-7530500D02*
X16370250Y-7657500D01*
X16370250Y-7530500D02*
X16243250Y-7657500D01*
X16370250Y-7594000D02*
G75*
G03*
X16370250Y-7594000I-63500J0D01*
G01*
X17195750Y-9435500D02*
X17322750Y-9562500D01*
X17322750Y-9435500D02*
X17195750Y-9562500D01*
X17322750Y-9499000D02*
G75*
G03*
X17322750Y-9499000I-63500J0D01*
G01*
X17195750Y-11340500D02*
X17322750Y-11467500D01*
X17322750Y-11340500D02*
X17195750Y-11467500D01*
X17322750Y-11404000D02*
G75*
G03*
X17322750Y-11404000I-63500J0D01*
G01*
X17672000Y-5625500D02*
X17799000Y-5752500D01*
X17799000Y-5625500D02*
X17672000Y-5752500D01*
X17799000Y-5689000D02*
G75*
G03*
X17799000Y-5689000I-63500J0D01*
G01*
X18148250Y-7530500D02*
X18275250Y-7657500D01*
X18275250Y-7530500D02*
X18148250Y-7657500D01*
X18275250Y-7594000D02*
G75*
G03*
X18275250Y-7594000I-63500J0D01*
G01*
X19100750Y-9435500D02*
X19227750Y-9562500D01*
X19227750Y-9435500D02*
X19100750Y-9562500D01*
X19227750Y-9499000D02*
G75*
G03*
X19227750Y-9499000I-63500J0D01*
G01*
X19577000Y-5625500D02*
X19704000Y-5752500D01*
X19704000Y-5625500D02*
X19577000Y-5752500D01*
X19704000Y-5689000D02*
G75*
G03*
X19704000Y-5689000I-63500J0D01*
G01*
X20053250Y-7530500D02*
X20180250Y-7657500D01*
X20180250Y-7530500D02*
X20053250Y-7657500D01*
X20180250Y-7594000D02*
G75*
G03*
X20180250Y-7594000I-63500J0D01*
G01*
X21482000Y-5625500D02*
X21609000Y-5752500D01*
X21609000Y-5625500D02*
X21482000Y-5752500D01*
X21609000Y-5689000D02*
G75*
G03*
X21609000Y-5689000I-63500J0D01*
G01*
D18*
X4071500Y-5532000D02*
X4221500Y-5682000D01*
X4221500Y-5532000D02*
X4071500Y-5682000D01*
X4146500Y-5532000D02*
X4146500Y-5682000D01*
X4071500Y-5607000D02*
X4221500Y-5607000D01*
X4547750Y-7437000D02*
X4697750Y-7587000D01*
X4697750Y-7437000D02*
X4547750Y-7587000D01*
X4622750Y-7437000D02*
X4622750Y-7587000D01*
X4547750Y-7512000D02*
X4697750Y-7512000D01*
X4706500Y-5278000D02*
X4856500Y-5428000D01*
X4856500Y-5278000D02*
X4706500Y-5428000D01*
X4781500Y-5278000D02*
X4781500Y-5428000D01*
X4706500Y-5353000D02*
X4856500Y-5353000D01*
X5182750Y-7183000D02*
X5332750Y-7333000D01*
X5332750Y-7183000D02*
X5182750Y-7333000D01*
X5257750Y-7183000D02*
X5257750Y-7333000D01*
X5182750Y-7258000D02*
X5332750Y-7258000D01*
X5500250Y-9342000D02*
X5650250Y-9492000D01*
X5650250Y-9342000D02*
X5500250Y-9492000D01*
X5575250Y-9342000D02*
X5575250Y-9492000D01*
X5500250Y-9417000D02*
X5650250Y-9417000D01*
X5976500Y-5532000D02*
X6126500Y-5682000D01*
X6126500Y-5532000D02*
X5976500Y-5682000D01*
X6051500Y-5532000D02*
X6051500Y-5682000D01*
X5976500Y-5607000D02*
X6126500Y-5607000D01*
X6135250Y-9088000D02*
X6285250Y-9238000D01*
X6285250Y-9088000D02*
X6135250Y-9238000D01*
X6210250Y-9088000D02*
X6210250Y-9238000D01*
X6135250Y-9163000D02*
X6285250Y-9163000D01*
X6452750Y-7437000D02*
X6602750Y-7587000D01*
X6602750Y-7437000D02*
X6452750Y-7587000D01*
X6527750Y-7437000D02*
X6527750Y-7587000D01*
X6452750Y-7512000D02*
X6602750Y-7512000D01*
X6611500Y-5278000D02*
X6761500Y-5428000D01*
X6761500Y-5278000D02*
X6611500Y-5428000D01*
X6686500Y-5278000D02*
X6686500Y-5428000D01*
X6611500Y-5353000D02*
X6761500Y-5353000D01*
X7087750Y-7183000D02*
X7237750Y-7333000D01*
X7237750Y-7183000D02*
X7087750Y-7333000D01*
X7162750Y-7183000D02*
X7162750Y-7333000D01*
X7087750Y-7258000D02*
X7237750Y-7258000D01*
X7405250Y-9342000D02*
X7555250Y-9492000D01*
X7555250Y-9342000D02*
X7405250Y-9492000D01*
X7480250Y-9342000D02*
X7480250Y-9492000D01*
X7405250Y-9417000D02*
X7555250Y-9417000D01*
X7405250Y-11247000D02*
X7555250Y-11397000D01*
X7555250Y-11247000D02*
X7405250Y-11397000D01*
X7480250Y-11247000D02*
X7480250Y-11397000D01*
X7405250Y-11322000D02*
X7555250Y-11322000D01*
X7881500Y-5532000D02*
X8031500Y-5682000D01*
X8031500Y-5532000D02*
X7881500Y-5682000D01*
X7956500Y-5532000D02*
X7956500Y-5682000D01*
X7881500Y-5607000D02*
X8031500Y-5607000D01*
X8040250Y-9088000D02*
X8190250Y-9238000D01*
X8190250Y-9088000D02*
X8040250Y-9238000D01*
X8115250Y-9088000D02*
X8115250Y-9238000D01*
X8040250Y-9163000D02*
X8190250Y-9163000D01*
X8040250Y-10993000D02*
X8190250Y-11143000D01*
X8190250Y-10993000D02*
X8040250Y-11143000D01*
X8115250Y-10993000D02*
X8115250Y-11143000D01*
X8040250Y-11068000D02*
X8190250Y-11068000D01*
X8357750Y-7437000D02*
X8507750Y-7587000D01*
X8507750Y-7437000D02*
X8357750Y-7587000D01*
X8432750Y-7437000D02*
X8432750Y-7587000D01*
X8357750Y-7512000D02*
X8507750Y-7512000D01*
X8516500Y-5278000D02*
X8666500Y-5428000D01*
X8666500Y-5278000D02*
X8516500Y-5428000D01*
X8591500Y-5278000D02*
X8591500Y-5428000D01*
X8516500Y-5353000D02*
X8666500Y-5353000D01*
X8992750Y-7183000D02*
X9142750Y-7333000D01*
X9142750Y-7183000D02*
X8992750Y-7333000D01*
X9067750Y-7183000D02*
X9067750Y-7333000D01*
X8992750Y-7258000D02*
X9142750Y-7258000D01*
X9310250Y-9342000D02*
X9460250Y-9492000D01*
X9460250Y-9342000D02*
X9310250Y-9492000D01*
X9385250Y-9342000D02*
X9385250Y-9492000D01*
X9310250Y-9417000D02*
X9460250Y-9417000D01*
X9310250Y-11247000D02*
X9460250Y-11397000D01*
X9460250Y-11247000D02*
X9310250Y-11397000D01*
X9385250Y-11247000D02*
X9385250Y-11397000D01*
X9310250Y-11322000D02*
X9460250Y-11322000D01*
X9786500Y-5532000D02*
X9936500Y-5682000D01*
X9936500Y-5532000D02*
X9786500Y-5682000D01*
X9861500Y-5532000D02*
X9861500Y-5682000D01*
X9786500Y-5607000D02*
X9936500Y-5607000D01*
X9945250Y-9088000D02*
X10095250Y-9238000D01*
X10095250Y-9088000D02*
X9945250Y-9238000D01*
X10020250Y-9088000D02*
X10020250Y-9238000D01*
X9945250Y-9163000D02*
X10095250Y-9163000D01*
X9945250Y-10993000D02*
X10095250Y-11143000D01*
X10095250Y-10993000D02*
X9945250Y-11143000D01*
X10020250Y-10993000D02*
X10020250Y-11143000D01*
X9945250Y-11068000D02*
X10095250Y-11068000D01*
X10262750Y-7437000D02*
X10412750Y-7587000D01*
X10412750Y-7437000D02*
X10262750Y-7587000D01*
X10337750Y-7437000D02*
X10337750Y-7587000D01*
X10262750Y-7512000D02*
X10412750Y-7512000D01*
X10421500Y-5278000D02*
X10571500Y-5428000D01*
X10571500Y-5278000D02*
X10421500Y-5428000D01*
X10496500Y-5278000D02*
X10496500Y-5428000D01*
X10421500Y-5353000D02*
X10571500Y-5353000D01*
X10897750Y-7183000D02*
X11047750Y-7333000D01*
X11047750Y-7183000D02*
X10897750Y-7333000D01*
X10972750Y-7183000D02*
X10972750Y-7333000D01*
X10897750Y-7258000D02*
X11047750Y-7258000D01*
X11215250Y-9342000D02*
X11365250Y-9492000D01*
X11365250Y-9342000D02*
X11215250Y-9492000D01*
X11290250Y-9342000D02*
X11290250Y-9492000D01*
X11215250Y-9417000D02*
X11365250Y-9417000D01*
X11691500Y-5532000D02*
X11841500Y-5682000D01*
X11841500Y-5532000D02*
X11691500Y-5682000D01*
X11766500Y-5532000D02*
X11766500Y-5682000D01*
X11691500Y-5607000D02*
X11841500Y-5607000D01*
X11850250Y-9088000D02*
X12000250Y-9238000D01*
X12000250Y-9088000D02*
X11850250Y-9238000D01*
X11925250Y-9088000D02*
X11925250Y-9238000D01*
X11850250Y-9163000D02*
X12000250Y-9163000D01*
X12167750Y-7437000D02*
X12317750Y-7587000D01*
X12317750Y-7437000D02*
X12167750Y-7587000D01*
X12242750Y-7437000D02*
X12242750Y-7587000D01*
X12167750Y-7512000D02*
X12317750Y-7512000D01*
X12168630Y-11247000D02*
X12318630Y-11397000D01*
X12318630Y-11247000D02*
X12168630Y-11397000D01*
X12243630Y-11247000D02*
X12243630Y-11397000D01*
X12168630Y-11322000D02*
X12318630Y-11322000D01*
X12326500Y-5278000D02*
X12476500Y-5428000D01*
X12476500Y-5278000D02*
X12326500Y-5428000D01*
X12401500Y-5278000D02*
X12401500Y-5428000D01*
X12326500Y-5353000D02*
X12476500Y-5353000D01*
X12802750Y-7183000D02*
X12952750Y-7333000D01*
X12952750Y-7183000D02*
X12802750Y-7333000D01*
X12877750Y-7183000D02*
X12877750Y-7333000D01*
X12802750Y-7258000D02*
X12952750Y-7258000D01*
X12803630Y-10993000D02*
X12953630Y-11143000D01*
X12953630Y-10993000D02*
X12803630Y-11143000D01*
X12878630Y-10993000D02*
X12878630Y-11143000D01*
X12803630Y-11068000D02*
X12953630Y-11068000D01*
X13120250Y-9342000D02*
X13270250Y-9492000D01*
X13270250Y-9342000D02*
X13120250Y-9492000D01*
X13195250Y-9342000D02*
X13195250Y-9492000D01*
X13120250Y-9417000D02*
X13270250Y-9417000D01*
X13596500Y-5532000D02*
X13746500Y-5682000D01*
X13746500Y-5532000D02*
X13596500Y-5682000D01*
X13671500Y-5532000D02*
X13671500Y-5682000D01*
X13596500Y-5607000D02*
X13746500Y-5607000D01*
X13755250Y-9088000D02*
X13905250Y-9238000D01*
X13905250Y-9088000D02*
X13755250Y-9238000D01*
X13830250Y-9088000D02*
X13830250Y-9238000D01*
X13755250Y-9163000D02*
X13905250Y-9163000D01*
X14072750Y-7437000D02*
X14222750Y-7587000D01*
X14222750Y-7437000D02*
X14072750Y-7587000D01*
X14147750Y-7437000D02*
X14147750Y-7587000D01*
X14072750Y-7512000D02*
X14222750Y-7512000D01*
X14231500Y-5278000D02*
X14381500Y-5428000D01*
X14381500Y-5278000D02*
X14231500Y-5428000D01*
X14306500Y-5278000D02*
X14306500Y-5428000D01*
X14231500Y-5353000D02*
X14381500Y-5353000D01*
X14707750Y-7183000D02*
X14857750Y-7333000D01*
X14857750Y-7183000D02*
X14707750Y-7333000D01*
X14782750Y-7183000D02*
X14782750Y-7333000D01*
X14707750Y-7258000D02*
X14857750Y-7258000D01*
X15025250Y-9342000D02*
X15175250Y-9492000D01*
X15175250Y-9342000D02*
X15025250Y-9492000D01*
X15100250Y-9342000D02*
X15100250Y-9492000D01*
X15025250Y-9417000D02*
X15175250Y-9417000D01*
X15025250Y-11247000D02*
X15175250Y-11397000D01*
X15175250Y-11247000D02*
X15025250Y-11397000D01*
X15100250Y-11247000D02*
X15100250Y-11397000D01*
X15025250Y-11322000D02*
X15175250Y-11322000D01*
X15501500Y-5532000D02*
X15651500Y-5682000D01*
X15651500Y-5532000D02*
X15501500Y-5682000D01*
X15576500Y-5532000D02*
X15576500Y-5682000D01*
X15501500Y-5607000D02*
X15651500Y-5607000D01*
X15660250Y-9088000D02*
X15810250Y-9238000D01*
X15810250Y-9088000D02*
X15660250Y-9238000D01*
X15735250Y-9088000D02*
X15735250Y-9238000D01*
X15660250Y-9163000D02*
X15810250Y-9163000D01*
X15660250Y-10993000D02*
X15810250Y-11143000D01*
X15810250Y-10993000D02*
X15660250Y-11143000D01*
X15735250Y-10993000D02*
X15735250Y-11143000D01*
X15660250Y-11068000D02*
X15810250Y-11068000D01*
X15977750Y-7437000D02*
X16127750Y-7587000D01*
X16127750Y-7437000D02*
X15977750Y-7587000D01*
X16052750Y-7437000D02*
X16052750Y-7587000D01*
X15977750Y-7512000D02*
X16127750Y-7512000D01*
X16136500Y-5278000D02*
X16286500Y-5428000D01*
X16286500Y-5278000D02*
X16136500Y-5428000D01*
X16211500Y-5278000D02*
X16211500Y-5428000D01*
X16136500Y-5353000D02*
X16286500Y-5353000D01*
X16612750Y-7183000D02*
X16762750Y-7333000D01*
X16762750Y-7183000D02*
X16612750Y-7333000D01*
X16687750Y-7183000D02*
X16687750Y-7333000D01*
X16612750Y-7258000D02*
X16762750Y-7258000D01*
X16930250Y-9342000D02*
X17080250Y-9492000D01*
X17080250Y-9342000D02*
X16930250Y-9492000D01*
X17005250Y-9342000D02*
X17005250Y-9492000D01*
X16930250Y-9417000D02*
X17080250Y-9417000D01*
X16930250Y-11247000D02*
X17080250Y-11397000D01*
X17080250Y-11247000D02*
X16930250Y-11397000D01*
X17005250Y-11247000D02*
X17005250Y-11397000D01*
X16930250Y-11322000D02*
X17080250Y-11322000D01*
X17406500Y-5532000D02*
X17556500Y-5682000D01*
X17556500Y-5532000D02*
X17406500Y-5682000D01*
X17481500Y-5532000D02*
X17481500Y-5682000D01*
X17406500Y-5607000D02*
X17556500Y-5607000D01*
X17565250Y-9088000D02*
X17715250Y-9238000D01*
X17715250Y-9088000D02*
X17565250Y-9238000D01*
X17640250Y-9088000D02*
X17640250Y-9238000D01*
X17565250Y-9163000D02*
X17715250Y-9163000D01*
X17565250Y-10993000D02*
X17715250Y-11143000D01*
X17715250Y-10993000D02*
X17565250Y-11143000D01*
X17640250Y-10993000D02*
X17640250Y-11143000D01*
X17565250Y-11068000D02*
X17715250Y-11068000D01*
X17882750Y-7437000D02*
X18032750Y-7587000D01*
X18032750Y-7437000D02*
X17882750Y-7587000D01*
X17957750Y-7437000D02*
X17957750Y-7587000D01*
X17882750Y-7512000D02*
X18032750Y-7512000D01*
X18041500Y-5278000D02*
X18191500Y-5428000D01*
X18191500Y-5278000D02*
X18041500Y-5428000D01*
X18116500Y-5278000D02*
X18116500Y-5428000D01*
X18041500Y-5353000D02*
X18191500Y-5353000D01*
X18517750Y-7183000D02*
X18667750Y-7333000D01*
X18667750Y-7183000D02*
X18517750Y-7333000D01*
X18592750Y-7183000D02*
X18592750Y-7333000D01*
X18517750Y-7258000D02*
X18667750Y-7258000D01*
X18835250Y-9342000D02*
X18985250Y-9492000D01*
X18985250Y-9342000D02*
X18835250Y-9492000D01*
X18910250Y-9342000D02*
X18910250Y-9492000D01*
X18835250Y-9417000D02*
X18985250Y-9417000D01*
X18911500Y-10437000D02*
X19061500Y-10587000D01*
X19061500Y-10437000D02*
X18911500Y-10587000D01*
X18986500Y-10437000D02*
X18986500Y-10587000D01*
X18911500Y-10512000D02*
X19061500Y-10512000D01*
X18911500Y-11257000D02*
X19061500Y-11407000D01*
X19061500Y-11257000D02*
X18911500Y-11407000D01*
X18986500Y-11257000D02*
X18986500Y-11407000D01*
X18911500Y-11332000D02*
X19061500Y-11332000D01*
X19311500Y-5532000D02*
X19461500Y-5682000D01*
X19461500Y-5532000D02*
X19311500Y-5682000D01*
X19386500Y-5532000D02*
X19386500Y-5682000D01*
X19311500Y-5607000D02*
X19461500Y-5607000D01*
X19470250Y-9088000D02*
X19620250Y-9238000D01*
X19620250Y-9088000D02*
X19470250Y-9238000D01*
X19545250Y-9088000D02*
X19545250Y-9238000D01*
X19470250Y-9163000D02*
X19620250Y-9163000D01*
X19787750Y-7437000D02*
X19937750Y-7587000D01*
X19937750Y-7437000D02*
X19787750Y-7587000D01*
X19862750Y-7437000D02*
X19862750Y-7587000D01*
X19787750Y-7512000D02*
X19937750Y-7512000D01*
X19946500Y-5278000D02*
X20096500Y-5428000D01*
X20096500Y-5278000D02*
X19946500Y-5428000D01*
X20021500Y-5278000D02*
X20021500Y-5428000D01*
X19946500Y-5353000D02*
X20096500Y-5353000D01*
X20422750Y-7183000D02*
X20572750Y-7333000D01*
X20572750Y-7183000D02*
X20422750Y-7333000D01*
X20497750Y-7183000D02*
X20497750Y-7333000D01*
X20422750Y-7258000D02*
X20572750Y-7258000D01*
X21216500Y-5532000D02*
X21366500Y-5682000D01*
X21366500Y-5532000D02*
X21216500Y-5682000D01*
X21291500Y-5532000D02*
X21291500Y-5682000D01*
X21216500Y-5607000D02*
X21366500Y-5607000D01*
X21851500Y-5278000D02*
X22001500Y-5428000D01*
X22001500Y-5278000D02*
X21851500Y-5428000D01*
X21926500Y-5278000D02*
X21926500Y-5428000D01*
X21851500Y-5353000D02*
X22001500Y-5353000D01*
D11*
X3091000Y-9911000D02*
X3291000Y-10111000D01*
X3291000Y-9911000D02*
X3091000Y-10111000D01*
X3261711Y-10081711D02*
X3261711Y-9940289D01*
X3120289Y-9940289D01*
X3120289Y-10081711D01*
X3261711Y-10081711D01*
X3092000Y-3775000D02*
X3292000Y-3975000D01*
X3292000Y-3775000D02*
X3092000Y-3975000D01*
X3262711Y-3945711D02*
X3262711Y-3804289D01*
X3121289Y-3804289D01*
X3121289Y-3945711D01*
X3262711Y-3945711D01*
X5375000Y-12195000D02*
X5575000Y-12395000D01*
X5575000Y-12195000D02*
X5375000Y-12395000D01*
X5545711Y-12365711D02*
X5545711Y-12224289D01*
X5404289Y-12224289D01*
X5404289Y-12365711D01*
X5545711Y-12365711D01*
X22741000Y-3775000D02*
X22941000Y-3975000D01*
X22941000Y-3775000D02*
X22741000Y-3975000D01*
X22911711Y-3945711D02*
X22911711Y-3804289D01*
X22770289Y-3804289D01*
X22770289Y-3945711D01*
X22911711Y-3945711D01*
X22741000Y-9454000D02*
X22941000Y-9654000D01*
X22941000Y-9454000D02*
X22741000Y-9654000D01*
X22911711Y-9624711D02*
X22911711Y-9483289D01*
X22770289Y-9483289D01*
X22770289Y-9624711D01*
X22911711Y-9624711D01*
X22741313Y-12194507D02*
X22941313Y-12394507D01*
X22941313Y-12194507D02*
X22741313Y-12394507D01*
X22912025Y-12365218D02*
X22912025Y-12223795D01*
X22770602Y-12223795D01*
X22770602Y-12365218D01*
X22912025Y-12365218D01*
X3138594Y-12915039D02*
X3138594Y-12715039D01*
X3186213Y-12715039D01*
X3214784Y-12724563D01*
X3233832Y-12743610D01*
X3243356Y-12762658D01*
X3252880Y-12800753D01*
X3252880Y-12829325D01*
X3243356Y-12867420D01*
X3233832Y-12886467D01*
X3214784Y-12905515D01*
X3186213Y-12915039D01*
X3138594Y-12915039D01*
X3338594Y-12915039D02*
X3338594Y-12781706D01*
X3338594Y-12819801D02*
X3348118Y-12800753D01*
X3357641Y-12791229D01*
X3376689Y-12781706D01*
X3395737Y-12781706D01*
X3462403Y-12915039D02*
X3462403Y-12781706D01*
X3462403Y-12715039D02*
X3452880Y-12724563D01*
X3462403Y-12734087D01*
X3471927Y-12724563D01*
X3462403Y-12715039D01*
X3462403Y-12734087D01*
X3586213Y-12915039D02*
X3567165Y-12905515D01*
X3557641Y-12886467D01*
X3557641Y-12715039D01*
X3690975Y-12915039D02*
X3671927Y-12905515D01*
X3662403Y-12886467D01*
X3662403Y-12715039D01*
X3919546Y-12915039D02*
X3919546Y-12715039D01*
X3986213Y-12857896D01*
X4052880Y-12715039D01*
X4052880Y-12915039D01*
X4233832Y-12915039D02*
X4233832Y-12810277D01*
X4224308Y-12791229D01*
X4205261Y-12781706D01*
X4167165Y-12781706D01*
X4148118Y-12791229D01*
X4233832Y-12905515D02*
X4214784Y-12915039D01*
X4167165Y-12915039D01*
X4148118Y-12905515D01*
X4138594Y-12886467D01*
X4138594Y-12867420D01*
X4148118Y-12848372D01*
X4167165Y-12838848D01*
X4214784Y-12838848D01*
X4233832Y-12829325D01*
X4329070Y-12781706D02*
X4329070Y-12981706D01*
X4329070Y-12791229D02*
X4348118Y-12781706D01*
X4386213Y-12781706D01*
X4405261Y-12791229D01*
X4414784Y-12800753D01*
X4424308Y-12819801D01*
X4424308Y-12876944D01*
X4414784Y-12895991D01*
X4405261Y-12905515D01*
X4386213Y-12915039D01*
X4348118Y-12915039D01*
X4329070Y-12905515D01*
X4510023Y-12895991D02*
X4519546Y-12905515D01*
X4510023Y-12915039D01*
X4500499Y-12905515D01*
X4510023Y-12895991D01*
X4510023Y-12915039D01*
X4510023Y-12791229D02*
X4519546Y-12800753D01*
X4510023Y-12810277D01*
X4500499Y-12800753D01*
X4510023Y-12791229D01*
X4510023Y-12810277D01*
D12*
X2840975Y-13224563D02*
X2880975Y-13264563D01*
X2880975Y-13224563D02*
X2840975Y-13264563D01*
D11*
X3176689Y-13135039D02*
X3195737Y-13135039D01*
X3214784Y-13144563D01*
X3224308Y-13154087D01*
X3233832Y-13173134D01*
X3243356Y-13211229D01*
X3243356Y-13258848D01*
X3233832Y-13296944D01*
X3224308Y-13315991D01*
X3214784Y-13325515D01*
X3195737Y-13335039D01*
X3176689Y-13335039D01*
X3157641Y-13325515D01*
X3148118Y-13315991D01*
X3138594Y-13296944D01*
X3129070Y-13258848D01*
X3129070Y-13211229D01*
X3138594Y-13173134D01*
X3148118Y-13154087D01*
X3157641Y-13144563D01*
X3176689Y-13135039D01*
X3329070Y-13315991D02*
X3338594Y-13325515D01*
X3329070Y-13335039D01*
X3319546Y-13325515D01*
X3329070Y-13315991D01*
X3329070Y-13335039D01*
X3510022Y-13201706D02*
X3510022Y-13335039D01*
X3462403Y-13125515D02*
X3414784Y-13268372D01*
X3538594Y-13268372D01*
X3652880Y-13135039D02*
X3671927Y-13135039D01*
X3690975Y-13144563D01*
X3700499Y-13154087D01*
X3710022Y-13173134D01*
X3719546Y-13211229D01*
X3719546Y-13258848D01*
X3710022Y-13296944D01*
X3700499Y-13315991D01*
X3690975Y-13325515D01*
X3671927Y-13335039D01*
X3652880Y-13335039D01*
X3633832Y-13325515D01*
X3624308Y-13315991D01*
X3614784Y-13296944D01*
X3605261Y-13258848D01*
X3605261Y-13211229D01*
X3614784Y-13173134D01*
X3624308Y-13154087D01*
X3633832Y-13144563D01*
X3652880Y-13135039D01*
X3843356Y-13135039D02*
X3862403Y-13135039D01*
X3881451Y-13144563D01*
X3890975Y-13154087D01*
X3900499Y-13173134D01*
X3910022Y-13211229D01*
X3910022Y-13258848D01*
X3900499Y-13296944D01*
X3890975Y-13315991D01*
X3881451Y-13325515D01*
X3862403Y-13335039D01*
X3843356Y-13335039D01*
X3824308Y-13325515D01*
X3814784Y-13315991D01*
X3805261Y-13296944D01*
X3795737Y-13258848D01*
X3795737Y-13211229D01*
X3805261Y-13173134D01*
X3814784Y-13154087D01*
X3824308Y-13144563D01*
X3843356Y-13135039D01*
X3995737Y-13335039D02*
X3995737Y-13201706D01*
X3995737Y-13220753D02*
X4005261Y-13211229D01*
X4024308Y-13201706D01*
X4052880Y-13201706D01*
X4071927Y-13211229D01*
X4081451Y-13230277D01*
X4081451Y-13335039D01*
X4081451Y-13230277D02*
X4090975Y-13211229D01*
X4110022Y-13201706D01*
X4138594Y-13201706D01*
X4157641Y-13211229D01*
X4167165Y-13230277D01*
X4167165Y-13335039D01*
X4262403Y-13335039D02*
X4262403Y-13201706D01*
X4262403Y-13220753D02*
X4271927Y-13211229D01*
X4290975Y-13201706D01*
X4319546Y-13201706D01*
X4338594Y-13211229D01*
X4348118Y-13230277D01*
X4348118Y-13335039D01*
X4348118Y-13230277D02*
X4357642Y-13211229D01*
X4376689Y-13201706D01*
X4405261Y-13201706D01*
X4424308Y-13211229D01*
X4433832Y-13230277D01*
X4433832Y-13335039D01*
X4824308Y-13125515D02*
X4652880Y-13382658D01*
X5081451Y-13135039D02*
X5100499Y-13135039D01*
X5119546Y-13144563D01*
X5129070Y-13154087D01*
X5138594Y-13173134D01*
X5148118Y-13211229D01*
X5148118Y-13258848D01*
X5138594Y-13296944D01*
X5129070Y-13315991D01*
X5119546Y-13325515D01*
X5100499Y-13335039D01*
X5081451Y-13335039D01*
X5062403Y-13325515D01*
X5052880Y-13315991D01*
X5043356Y-13296944D01*
X5033832Y-13258848D01*
X5033832Y-13211229D01*
X5043356Y-13173134D01*
X5052880Y-13154087D01*
X5062403Y-13144563D01*
X5081451Y-13135039D01*
X5233832Y-13315991D02*
X5243356Y-13325515D01*
X5233832Y-13335039D01*
X5224308Y-13325515D01*
X5233832Y-13315991D01*
X5233832Y-13335039D01*
X5367165Y-13135039D02*
X5386213Y-13135039D01*
X5405261Y-13144563D01*
X5414784Y-13154087D01*
X5424308Y-13173134D01*
X5433832Y-13211229D01*
X5433832Y-13258848D01*
X5424308Y-13296944D01*
X5414784Y-13315991D01*
X5405261Y-13325515D01*
X5386213Y-13335039D01*
X5367165Y-13335039D01*
X5348118Y-13325515D01*
X5338594Y-13315991D01*
X5329070Y-13296944D01*
X5319546Y-13258848D01*
X5319546Y-13211229D01*
X5329070Y-13173134D01*
X5338594Y-13154087D01*
X5348118Y-13144563D01*
X5367165Y-13135039D01*
X5624308Y-13335039D02*
X5510023Y-13335039D01*
X5567165Y-13335039D02*
X5567165Y-13135039D01*
X5548118Y-13163610D01*
X5529070Y-13182658D01*
X5510023Y-13192182D01*
X5805261Y-13135039D02*
X5710022Y-13135039D01*
X5700499Y-13230277D01*
X5710022Y-13220753D01*
X5729070Y-13211229D01*
X5776689Y-13211229D01*
X5795737Y-13220753D01*
X5805261Y-13230277D01*
X5814784Y-13249325D01*
X5814784Y-13296944D01*
X5805261Y-13315991D01*
X5795737Y-13325515D01*
X5776689Y-13335039D01*
X5729070Y-13335039D01*
X5710022Y-13325515D01*
X5700499Y-13315991D01*
X5881451Y-13135039D02*
X6014784Y-13135039D01*
X5929070Y-13335039D01*
X6081451Y-13135039D02*
X6081451Y-13173134D01*
X6157641Y-13135039D02*
X6157641Y-13173134D01*
X6452880Y-13411229D02*
X6443356Y-13401706D01*
X6424308Y-13373134D01*
X6414784Y-13354087D01*
X6405261Y-13325515D01*
X6395737Y-13277896D01*
X6395737Y-13239801D01*
X6405261Y-13192182D01*
X6414784Y-13163610D01*
X6424308Y-13144563D01*
X6443356Y-13115991D01*
X6452880Y-13106467D01*
X6557641Y-13220753D02*
X6538594Y-13211229D01*
X6529070Y-13201706D01*
X6519546Y-13182658D01*
X6519546Y-13173134D01*
X6529070Y-13154087D01*
X6538594Y-13144563D01*
X6557641Y-13135039D01*
X6595737Y-13135039D01*
X6614784Y-13144563D01*
X6624308Y-13154087D01*
X6633832Y-13173134D01*
X6633832Y-13182658D01*
X6624308Y-13201706D01*
X6614784Y-13211229D01*
X6595737Y-13220753D01*
X6557641Y-13220753D01*
X6538594Y-13230277D01*
X6529070Y-13239801D01*
X6519546Y-13258848D01*
X6519546Y-13296944D01*
X6529070Y-13315991D01*
X6538594Y-13325515D01*
X6557641Y-13335039D01*
X6595737Y-13335039D01*
X6614784Y-13325515D01*
X6624308Y-13315991D01*
X6633832Y-13296944D01*
X6633832Y-13258848D01*
X6624308Y-13239801D01*
X6614784Y-13230277D01*
X6595737Y-13220753D01*
X6871927Y-13335039D02*
X6871927Y-13135039D01*
X6957641Y-13335039D02*
X6957641Y-13230277D01*
X6948118Y-13211229D01*
X6929070Y-13201706D01*
X6900499Y-13201706D01*
X6881451Y-13211229D01*
X6871927Y-13220753D01*
X7081451Y-13335039D02*
X7062403Y-13325515D01*
X7052880Y-13315991D01*
X7043356Y-13296944D01*
X7043356Y-13239801D01*
X7052880Y-13220753D01*
X7062403Y-13211229D01*
X7081451Y-13201706D01*
X7110022Y-13201706D01*
X7129070Y-13211229D01*
X7138594Y-13220753D01*
X7148118Y-13239801D01*
X7148118Y-13296944D01*
X7138594Y-13315991D01*
X7129070Y-13325515D01*
X7110022Y-13335039D01*
X7081451Y-13335039D01*
X7262403Y-13335039D02*
X7243356Y-13325515D01*
X7233832Y-13306467D01*
X7233832Y-13135039D01*
X7414784Y-13325515D02*
X7395737Y-13335039D01*
X7357641Y-13335039D01*
X7338594Y-13325515D01*
X7329070Y-13306467D01*
X7329070Y-13230277D01*
X7338594Y-13211229D01*
X7357641Y-13201706D01*
X7395737Y-13201706D01*
X7414784Y-13211229D01*
X7424308Y-13230277D01*
X7424308Y-13249325D01*
X7329070Y-13268372D01*
X7500499Y-13325515D02*
X7519546Y-13335039D01*
X7557641Y-13335039D01*
X7576689Y-13325515D01*
X7586213Y-13306467D01*
X7586213Y-13296944D01*
X7576689Y-13277896D01*
X7557641Y-13268372D01*
X7529070Y-13268372D01*
X7510022Y-13258848D01*
X7500499Y-13239801D01*
X7500499Y-13230277D01*
X7510022Y-13211229D01*
X7529070Y-13201706D01*
X7557641Y-13201706D01*
X7576689Y-13211229D01*
X7652880Y-13411229D02*
X7662403Y-13401706D01*
X7681451Y-13373134D01*
X7690975Y-13354087D01*
X7700499Y-13325515D01*
X7710022Y-13277896D01*
X7710022Y-13239801D01*
X7700499Y-13192182D01*
X7690975Y-13163610D01*
X7681451Y-13144563D01*
X7662403Y-13115991D01*
X7652880Y-13106467D01*
D13*
X2880975Y-13508563D02*
G75*
G03*
X2880975Y-13508563I-40000J0D01*
G01*
D11*
X3176689Y-13399039D02*
X3195737Y-13399039D01*
X3214784Y-13408563D01*
X3224308Y-13418087D01*
X3233832Y-13437134D01*
X3243356Y-13475229D01*
X3243356Y-13522848D01*
X3233832Y-13560944D01*
X3224308Y-13579991D01*
X3214784Y-13589515D01*
X3195737Y-13599039D01*
X3176689Y-13599039D01*
X3157641Y-13589515D01*
X3148118Y-13579991D01*
X3138594Y-13560944D01*
X3129070Y-13522848D01*
X3129070Y-13475229D01*
X3138594Y-13437134D01*
X3148118Y-13418087D01*
X3157641Y-13408563D01*
X3176689Y-13399039D01*
X3329070Y-13579991D02*
X3338594Y-13589515D01*
X3329070Y-13599039D01*
X3319546Y-13589515D01*
X3329070Y-13579991D01*
X3329070Y-13599039D01*
X3452880Y-13484753D02*
X3433832Y-13475229D01*
X3424308Y-13465706D01*
X3414784Y-13446658D01*
X3414784Y-13437134D01*
X3424308Y-13418087D01*
X3433832Y-13408563D01*
X3452880Y-13399039D01*
X3490975Y-13399039D01*
X3510022Y-13408563D01*
X3519546Y-13418087D01*
X3529070Y-13437134D01*
X3529070Y-13446658D01*
X3519546Y-13465706D01*
X3510022Y-13475229D01*
X3490975Y-13484753D01*
X3452880Y-13484753D01*
X3433832Y-13494277D01*
X3424308Y-13503801D01*
X3414784Y-13522848D01*
X3414784Y-13560944D01*
X3424308Y-13579991D01*
X3433832Y-13589515D01*
X3452880Y-13599039D01*
X3490975Y-13599039D01*
X3510022Y-13589515D01*
X3519546Y-13579991D01*
X3529070Y-13560944D01*
X3529070Y-13522848D01*
X3519546Y-13503801D01*
X3510022Y-13494277D01*
X3490975Y-13484753D01*
X3652880Y-13399039D02*
X3671927Y-13399039D01*
X3690975Y-13408563D01*
X3700499Y-13418087D01*
X3710022Y-13437134D01*
X3719546Y-13475229D01*
X3719546Y-13522848D01*
X3710022Y-13560944D01*
X3700499Y-13579991D01*
X3690975Y-13589515D01*
X3671927Y-13599039D01*
X3652880Y-13599039D01*
X3633832Y-13589515D01*
X3624308Y-13579991D01*
X3614784Y-13560944D01*
X3605261Y-13522848D01*
X3605261Y-13475229D01*
X3614784Y-13437134D01*
X3624308Y-13418087D01*
X3633832Y-13408563D01*
X3652880Y-13399039D01*
X3843356Y-13399039D02*
X3862403Y-13399039D01*
X3881451Y-13408563D01*
X3890975Y-13418087D01*
X3900499Y-13437134D01*
X3910022Y-13475229D01*
X3910022Y-13522848D01*
X3900499Y-13560944D01*
X3890975Y-13579991D01*
X3881451Y-13589515D01*
X3862403Y-13599039D01*
X3843356Y-13599039D01*
X3824308Y-13589515D01*
X3814784Y-13579991D01*
X3805261Y-13560944D01*
X3795737Y-13522848D01*
X3795737Y-13475229D01*
X3805261Y-13437134D01*
X3814784Y-13418087D01*
X3824308Y-13408563D01*
X3843356Y-13399039D01*
X3995737Y-13599039D02*
X3995737Y-13465706D01*
X3995737Y-13484753D02*
X4005261Y-13475229D01*
X4024308Y-13465706D01*
X4052880Y-13465706D01*
X4071927Y-13475229D01*
X4081451Y-13494277D01*
X4081451Y-13599039D01*
X4081451Y-13494277D02*
X4090975Y-13475229D01*
X4110022Y-13465706D01*
X4138594Y-13465706D01*
X4157641Y-13475229D01*
X4167165Y-13494277D01*
X4167165Y-13599039D01*
X4262403Y-13599039D02*
X4262403Y-13465706D01*
X4262403Y-13484753D02*
X4271927Y-13475229D01*
X4290975Y-13465706D01*
X4319546Y-13465706D01*
X4338594Y-13475229D01*
X4348118Y-13494277D01*
X4348118Y-13599039D01*
X4348118Y-13494277D02*
X4357642Y-13475229D01*
X4376689Y-13465706D01*
X4405261Y-13465706D01*
X4424308Y-13475229D01*
X4433832Y-13494277D01*
X4433832Y-13599039D01*
X4824308Y-13389515D02*
X4652880Y-13646658D01*
X5081451Y-13399039D02*
X5100499Y-13399039D01*
X5119546Y-13408563D01*
X5129070Y-13418087D01*
X5138594Y-13437134D01*
X5148118Y-13475229D01*
X5148118Y-13522848D01*
X5138594Y-13560944D01*
X5129070Y-13579991D01*
X5119546Y-13589515D01*
X5100499Y-13599039D01*
X5081451Y-13599039D01*
X5062403Y-13589515D01*
X5052880Y-13579991D01*
X5043356Y-13560944D01*
X5033832Y-13522848D01*
X5033832Y-13475229D01*
X5043356Y-13437134D01*
X5052880Y-13418087D01*
X5062403Y-13408563D01*
X5081451Y-13399039D01*
X5233832Y-13579991D02*
X5243356Y-13589515D01*
X5233832Y-13599039D01*
X5224308Y-13589515D01*
X5233832Y-13579991D01*
X5233832Y-13599039D01*
X5367165Y-13399039D02*
X5386213Y-13399039D01*
X5405261Y-13408563D01*
X5414784Y-13418087D01*
X5424308Y-13437134D01*
X5433832Y-13475229D01*
X5433832Y-13522848D01*
X5424308Y-13560944D01*
X5414784Y-13579991D01*
X5405261Y-13589515D01*
X5386213Y-13599039D01*
X5367165Y-13599039D01*
X5348118Y-13589515D01*
X5338594Y-13579991D01*
X5329070Y-13560944D01*
X5319546Y-13522848D01*
X5319546Y-13475229D01*
X5329070Y-13437134D01*
X5338594Y-13418087D01*
X5348118Y-13408563D01*
X5367165Y-13399039D01*
X5500499Y-13399039D02*
X5624308Y-13399039D01*
X5557642Y-13475229D01*
X5586213Y-13475229D01*
X5605261Y-13484753D01*
X5614784Y-13494277D01*
X5624308Y-13513325D01*
X5624308Y-13560944D01*
X5614784Y-13579991D01*
X5605261Y-13589515D01*
X5586213Y-13599039D01*
X5529070Y-13599039D01*
X5510023Y-13589515D01*
X5500499Y-13579991D01*
X5814784Y-13599039D02*
X5700499Y-13599039D01*
X5757641Y-13599039D02*
X5757641Y-13399039D01*
X5738594Y-13427610D01*
X5719546Y-13446658D01*
X5700499Y-13456182D01*
X5995737Y-13399039D02*
X5900499Y-13399039D01*
X5890975Y-13494277D01*
X5900499Y-13484753D01*
X5919546Y-13475229D01*
X5967165Y-13475229D01*
X5986213Y-13484753D01*
X5995737Y-13494277D01*
X6005261Y-13513325D01*
X6005261Y-13560944D01*
X5995737Y-13579991D01*
X5986213Y-13589515D01*
X5967165Y-13599039D01*
X5919546Y-13599039D01*
X5900499Y-13589515D01*
X5890975Y-13579991D01*
X6081451Y-13399039D02*
X6081451Y-13437134D01*
X6157641Y-13399039D02*
X6157641Y-13437134D01*
X6452880Y-13675229D02*
X6443356Y-13665706D01*
X6424308Y-13637134D01*
X6414784Y-13618087D01*
X6405261Y-13589515D01*
X6395737Y-13541896D01*
X6395737Y-13503801D01*
X6405261Y-13456182D01*
X6414784Y-13427610D01*
X6424308Y-13408563D01*
X6443356Y-13379991D01*
X6452880Y-13370467D01*
X6510022Y-13399039D02*
X6633832Y-13399039D01*
X6567165Y-13475229D01*
X6595737Y-13475229D01*
X6614784Y-13484753D01*
X6624308Y-13494277D01*
X6633832Y-13513325D01*
X6633832Y-13560944D01*
X6624308Y-13579991D01*
X6614784Y-13589515D01*
X6595737Y-13599039D01*
X6538594Y-13599039D01*
X6519546Y-13589515D01*
X6510022Y-13579991D01*
X6871927Y-13599039D02*
X6871927Y-13399039D01*
X6957641Y-13599039D02*
X6957641Y-13494277D01*
X6948118Y-13475229D01*
X6929070Y-13465706D01*
X6900499Y-13465706D01*
X6881451Y-13475229D01*
X6871927Y-13484753D01*
X7081451Y-13599039D02*
X7062403Y-13589515D01*
X7052880Y-13579991D01*
X7043356Y-13560944D01*
X7043356Y-13503801D01*
X7052880Y-13484753D01*
X7062403Y-13475229D01*
X7081451Y-13465706D01*
X7110022Y-13465706D01*
X7129070Y-13475229D01*
X7138594Y-13484753D01*
X7148118Y-13503801D01*
X7148118Y-13560944D01*
X7138594Y-13579991D01*
X7129070Y-13589515D01*
X7110022Y-13599039D01*
X7081451Y-13599039D01*
X7262403Y-13599039D02*
X7243356Y-13589515D01*
X7233832Y-13570467D01*
X7233832Y-13399039D01*
X7414784Y-13589515D02*
X7395737Y-13599039D01*
X7357641Y-13599039D01*
X7338594Y-13589515D01*
X7329070Y-13570467D01*
X7329070Y-13494277D01*
X7338594Y-13475229D01*
X7357641Y-13465706D01*
X7395737Y-13465706D01*
X7414784Y-13475229D01*
X7424308Y-13494277D01*
X7424308Y-13513325D01*
X7329070Y-13532372D01*
X7500499Y-13589515D02*
X7519546Y-13599039D01*
X7557641Y-13599039D01*
X7576689Y-13589515D01*
X7586213Y-13570467D01*
X7586213Y-13560944D01*
X7576689Y-13541896D01*
X7557641Y-13532372D01*
X7529070Y-13532372D01*
X7510022Y-13522848D01*
X7500499Y-13503801D01*
X7500499Y-13494277D01*
X7510022Y-13475229D01*
X7529070Y-13465706D01*
X7557641Y-13465706D01*
X7576689Y-13475229D01*
X7652880Y-13675229D02*
X7662403Y-13665706D01*
X7681451Y-13637134D01*
X7690975Y-13618087D01*
X7700499Y-13589515D01*
X7710022Y-13541896D01*
X7710022Y-13503801D01*
X7700499Y-13456182D01*
X7690975Y-13427610D01*
X7681451Y-13408563D01*
X7662403Y-13379991D01*
X7652880Y-13370467D01*
D14*
X2830975Y-13722563D02*
X2830975Y-13822563D01*
X2780975Y-13772563D02*
X2880975Y-13772563D01*
D11*
X3243356Y-13863039D02*
X3129070Y-13863039D01*
X3186213Y-13863039D02*
X3186213Y-13663039D01*
X3167165Y-13691610D01*
X3148118Y-13710658D01*
X3129070Y-13720182D01*
X3329070Y-13843991D02*
X3338594Y-13853515D01*
X3329070Y-13863039D01*
X3319546Y-13853515D01*
X3329070Y-13843991D01*
X3329070Y-13863039D01*
X3462403Y-13663039D02*
X3481451Y-13663039D01*
X3500499Y-13672563D01*
X3510022Y-13682087D01*
X3519546Y-13701134D01*
X3529070Y-13739229D01*
X3529070Y-13786848D01*
X3519546Y-13824944D01*
X3510022Y-13843991D01*
X3500499Y-13853515D01*
X3481451Y-13863039D01*
X3462403Y-13863039D01*
X3443356Y-13853515D01*
X3433832Y-13843991D01*
X3424308Y-13824944D01*
X3414784Y-13786848D01*
X3414784Y-13739229D01*
X3424308Y-13701134D01*
X3433832Y-13682087D01*
X3443356Y-13672563D01*
X3462403Y-13663039D01*
X3652880Y-13663039D02*
X3671927Y-13663039D01*
X3690975Y-13672563D01*
X3700499Y-13682087D01*
X3710022Y-13701134D01*
X3719546Y-13739229D01*
X3719546Y-13786848D01*
X3710022Y-13824944D01*
X3700499Y-13843991D01*
X3690975Y-13853515D01*
X3671927Y-13863039D01*
X3652880Y-13863039D01*
X3633832Y-13853515D01*
X3624308Y-13843991D01*
X3614784Y-13824944D01*
X3605261Y-13786848D01*
X3605261Y-13739229D01*
X3614784Y-13701134D01*
X3624308Y-13682087D01*
X3633832Y-13672563D01*
X3652880Y-13663039D01*
X3843356Y-13663039D02*
X3862403Y-13663039D01*
X3881451Y-13672563D01*
X3890975Y-13682087D01*
X3900499Y-13701134D01*
X3910022Y-13739229D01*
X3910022Y-13786848D01*
X3900499Y-13824944D01*
X3890975Y-13843991D01*
X3881451Y-13853515D01*
X3862403Y-13863039D01*
X3843356Y-13863039D01*
X3824308Y-13853515D01*
X3814784Y-13843991D01*
X3805261Y-13824944D01*
X3795737Y-13786848D01*
X3795737Y-13739229D01*
X3805261Y-13701134D01*
X3814784Y-13682087D01*
X3824308Y-13672563D01*
X3843356Y-13663039D01*
X3995737Y-13863039D02*
X3995737Y-13729706D01*
X3995737Y-13748753D02*
X4005261Y-13739229D01*
X4024308Y-13729706D01*
X4052880Y-13729706D01*
X4071927Y-13739229D01*
X4081451Y-13758277D01*
X4081451Y-13863039D01*
X4081451Y-13758277D02*
X4090975Y-13739229D01*
X4110022Y-13729706D01*
X4138594Y-13729706D01*
X4157641Y-13739229D01*
X4167165Y-13758277D01*
X4167165Y-13863039D01*
X4262403Y-13863039D02*
X4262403Y-13729706D01*
X4262403Y-13748753D02*
X4271927Y-13739229D01*
X4290975Y-13729706D01*
X4319546Y-13729706D01*
X4338594Y-13739229D01*
X4348118Y-13758277D01*
X4348118Y-13863039D01*
X4348118Y-13758277D02*
X4357642Y-13739229D01*
X4376689Y-13729706D01*
X4405261Y-13729706D01*
X4424308Y-13739229D01*
X4433832Y-13758277D01*
X4433832Y-13863039D01*
X4824308Y-13653515D02*
X4652880Y-13910658D01*
X5081451Y-13663039D02*
X5100499Y-13663039D01*
X5119546Y-13672563D01*
X5129070Y-13682087D01*
X5138594Y-13701134D01*
X5148118Y-13739229D01*
X5148118Y-13786848D01*
X5138594Y-13824944D01*
X5129070Y-13843991D01*
X5119546Y-13853515D01*
X5100499Y-13863039D01*
X5081451Y-13863039D01*
X5062403Y-13853515D01*
X5052880Y-13843991D01*
X5043356Y-13824944D01*
X5033832Y-13786848D01*
X5033832Y-13739229D01*
X5043356Y-13701134D01*
X5052880Y-13682087D01*
X5062403Y-13672563D01*
X5081451Y-13663039D01*
X5233832Y-13843991D02*
X5243356Y-13853515D01*
X5233832Y-13863039D01*
X5224308Y-13853515D01*
X5233832Y-13843991D01*
X5233832Y-13863039D01*
X5367165Y-13663039D02*
X5386213Y-13663039D01*
X5405261Y-13672563D01*
X5414784Y-13682087D01*
X5424308Y-13701134D01*
X5433832Y-13739229D01*
X5433832Y-13786848D01*
X5424308Y-13824944D01*
X5414784Y-13843991D01*
X5405261Y-13853515D01*
X5386213Y-13863039D01*
X5367165Y-13863039D01*
X5348118Y-13853515D01*
X5338594Y-13843991D01*
X5329070Y-13824944D01*
X5319546Y-13786848D01*
X5319546Y-13739229D01*
X5329070Y-13701134D01*
X5338594Y-13682087D01*
X5348118Y-13672563D01*
X5367165Y-13663039D01*
X5500499Y-13663039D02*
X5624308Y-13663039D01*
X5557642Y-13739229D01*
X5586213Y-13739229D01*
X5605261Y-13748753D01*
X5614784Y-13758277D01*
X5624308Y-13777325D01*
X5624308Y-13824944D01*
X5614784Y-13843991D01*
X5605261Y-13853515D01*
X5586213Y-13863039D01*
X5529070Y-13863039D01*
X5510023Y-13853515D01*
X5500499Y-13843991D01*
X5719546Y-13863039D02*
X5757641Y-13863039D01*
X5776689Y-13853515D01*
X5786213Y-13843991D01*
X5805261Y-13815420D01*
X5814784Y-13777325D01*
X5814784Y-13701134D01*
X5805261Y-13682087D01*
X5795737Y-13672563D01*
X5776689Y-13663039D01*
X5738594Y-13663039D01*
X5719546Y-13672563D01*
X5710022Y-13682087D01*
X5700499Y-13701134D01*
X5700499Y-13748753D01*
X5710022Y-13767801D01*
X5719546Y-13777325D01*
X5738594Y-13786848D01*
X5776689Y-13786848D01*
X5795737Y-13777325D01*
X5805261Y-13767801D01*
X5814784Y-13748753D01*
X5986213Y-13729706D02*
X5986213Y-13863039D01*
X5938594Y-13653515D02*
X5890975Y-13796372D01*
X6014784Y-13796372D01*
X6081451Y-13663039D02*
X6081451Y-13701134D01*
X6157641Y-13663039D02*
X6157641Y-13701134D01*
X6452880Y-13939229D02*
X6443356Y-13929706D01*
X6424308Y-13901134D01*
X6414784Y-13882087D01*
X6405261Y-13853515D01*
X6395737Y-13805896D01*
X6395737Y-13767801D01*
X6405261Y-13720182D01*
X6414784Y-13691610D01*
X6424308Y-13672563D01*
X6443356Y-13643991D01*
X6452880Y-13634467D01*
X6614784Y-13663039D02*
X6576689Y-13663039D01*
X6557641Y-13672563D01*
X6548118Y-13682087D01*
X6529070Y-13710658D01*
X6519546Y-13748753D01*
X6519546Y-13824944D01*
X6529070Y-13843991D01*
X6538594Y-13853515D01*
X6557641Y-13863039D01*
X6595737Y-13863039D01*
X6614784Y-13853515D01*
X6624308Y-13843991D01*
X6633832Y-13824944D01*
X6633832Y-13777325D01*
X6624308Y-13758277D01*
X6614784Y-13748753D01*
X6595737Y-13739229D01*
X6557641Y-13739229D01*
X6538594Y-13748753D01*
X6529070Y-13758277D01*
X6519546Y-13777325D01*
X6748118Y-13748753D02*
X6729070Y-13739229D01*
X6719546Y-13729706D01*
X6710022Y-13710658D01*
X6710022Y-13701134D01*
X6719546Y-13682087D01*
X6729070Y-13672563D01*
X6748118Y-13663039D01*
X6786213Y-13663039D01*
X6805261Y-13672563D01*
X6814784Y-13682087D01*
X6824308Y-13701134D01*
X6824308Y-13710658D01*
X6814784Y-13729706D01*
X6805261Y-13739229D01*
X6786213Y-13748753D01*
X6748118Y-13748753D01*
X6729070Y-13758277D01*
X6719546Y-13767801D01*
X6710022Y-13786848D01*
X6710022Y-13824944D01*
X6719546Y-13843991D01*
X6729070Y-13853515D01*
X6748118Y-13863039D01*
X6786213Y-13863039D01*
X6805261Y-13853515D01*
X6814784Y-13843991D01*
X6824308Y-13824944D01*
X6824308Y-13786848D01*
X6814784Y-13767801D01*
X6805261Y-13758277D01*
X6786213Y-13748753D01*
X7062403Y-13863039D02*
X7062403Y-13663039D01*
X7148118Y-13863039D02*
X7148118Y-13758277D01*
X7138594Y-13739229D01*
X7119546Y-13729706D01*
X7090975Y-13729706D01*
X7071927Y-13739229D01*
X7062403Y-13748753D01*
X7271927Y-13863039D02*
X7252880Y-13853515D01*
X7243356Y-13843991D01*
X7233832Y-13824944D01*
X7233832Y-13767801D01*
X7243356Y-13748753D01*
X7252880Y-13739229D01*
X7271927Y-13729706D01*
X7300499Y-13729706D01*
X7319546Y-13739229D01*
X7329070Y-13748753D01*
X7338594Y-13767801D01*
X7338594Y-13824944D01*
X7329070Y-13843991D01*
X7319546Y-13853515D01*
X7300499Y-13863039D01*
X7271927Y-13863039D01*
X7452880Y-13863039D02*
X7433832Y-13853515D01*
X7424308Y-13834467D01*
X7424308Y-13663039D01*
X7605261Y-13853515D02*
X7586213Y-13863039D01*
X7548118Y-13863039D01*
X7529070Y-13853515D01*
X7519546Y-13834467D01*
X7519546Y-13758277D01*
X7529070Y-13739229D01*
X7548118Y-13729706D01*
X7586213Y-13729706D01*
X7605261Y-13739229D01*
X7614784Y-13758277D01*
X7614784Y-13777325D01*
X7519546Y-13796372D01*
X7690975Y-13853515D02*
X7710022Y-13863039D01*
X7748118Y-13863039D01*
X7767165Y-13853515D01*
X7776689Y-13834467D01*
X7776689Y-13824944D01*
X7767165Y-13805896D01*
X7748118Y-13796372D01*
X7719546Y-13796372D01*
X7700499Y-13786848D01*
X7690975Y-13767801D01*
X7690975Y-13758277D01*
X7700499Y-13739229D01*
X7719546Y-13729706D01*
X7748118Y-13729706D01*
X7767165Y-13739229D01*
X7843356Y-13939229D02*
X7852880Y-13929706D01*
X7871927Y-13901134D01*
X7881451Y-13882087D01*
X7890975Y-13853515D01*
X7900499Y-13805896D01*
X7900499Y-13767801D01*
X7890975Y-13720182D01*
X7881451Y-13691610D01*
X7871927Y-13672563D01*
X7852880Y-13643991D01*
X7843356Y-13634467D01*
D15*
X2864980Y-14075178D02*
X2864980Y-13997947D01*
X2787749Y-13997947D01*
X2787749Y-14075178D01*
X2864980Y-14075178D01*
D11*
X3243356Y-14127039D02*
X3129070Y-14127039D01*
X3186213Y-14127039D02*
X3186213Y-13927039D01*
X3167165Y-13955610D01*
X3148118Y-13974658D01*
X3129070Y-13984182D01*
X3329070Y-14107991D02*
X3338594Y-14117515D01*
X3329070Y-14127039D01*
X3319546Y-14117515D01*
X3329070Y-14107991D01*
X3329070Y-14127039D01*
X3462403Y-13927039D02*
X3481451Y-13927039D01*
X3500499Y-13936563D01*
X3510022Y-13946087D01*
X3519546Y-13965134D01*
X3529070Y-14003229D01*
X3529070Y-14050848D01*
X3519546Y-14088944D01*
X3510022Y-14107991D01*
X3500499Y-14117515D01*
X3481451Y-14127039D01*
X3462403Y-14127039D01*
X3443356Y-14117515D01*
X3433832Y-14107991D01*
X3424308Y-14088944D01*
X3414784Y-14050848D01*
X3414784Y-14003229D01*
X3424308Y-13965134D01*
X3433832Y-13946087D01*
X3443356Y-13936563D01*
X3462403Y-13927039D01*
X3624308Y-14127039D02*
X3662403Y-14127039D01*
X3681451Y-14117515D01*
X3690975Y-14107991D01*
X3710022Y-14079420D01*
X3719546Y-14041325D01*
X3719546Y-13965134D01*
X3710022Y-13946087D01*
X3700499Y-13936563D01*
X3681451Y-13927039D01*
X3643356Y-13927039D01*
X3624308Y-13936563D01*
X3614784Y-13946087D01*
X3605261Y-13965134D01*
X3605261Y-14012753D01*
X3614784Y-14031801D01*
X3624308Y-14041325D01*
X3643356Y-14050848D01*
X3681451Y-14050848D01*
X3700499Y-14041325D01*
X3710022Y-14031801D01*
X3719546Y-14012753D01*
X3795737Y-13946087D02*
X3805261Y-13936563D01*
X3824308Y-13927039D01*
X3871927Y-13927039D01*
X3890975Y-13936563D01*
X3900499Y-13946087D01*
X3910022Y-13965134D01*
X3910022Y-13984182D01*
X3900499Y-14012753D01*
X3786213Y-14127039D01*
X3910022Y-14127039D01*
X3995737Y-14127039D02*
X3995737Y-13993706D01*
X3995737Y-14012753D02*
X4005261Y-14003229D01*
X4024308Y-13993706D01*
X4052880Y-13993706D01*
X4071927Y-14003229D01*
X4081451Y-14022277D01*
X4081451Y-14127039D01*
X4081451Y-14022277D02*
X4090975Y-14003229D01*
X4110022Y-13993706D01*
X4138594Y-13993706D01*
X4157641Y-14003229D01*
X4167165Y-14022277D01*
X4167165Y-14127039D01*
X4262403Y-14127039D02*
X4262403Y-13993706D01*
X4262403Y-14012753D02*
X4271927Y-14003229D01*
X4290975Y-13993706D01*
X4319546Y-13993706D01*
X4338594Y-14003229D01*
X4348118Y-14022277D01*
X4348118Y-14127039D01*
X4348118Y-14022277D02*
X4357642Y-14003229D01*
X4376689Y-13993706D01*
X4405261Y-13993706D01*
X4424308Y-14003229D01*
X4433832Y-14022277D01*
X4433832Y-14127039D01*
X4824308Y-13917515D02*
X4652880Y-14174658D01*
X5081451Y-13927039D02*
X5100499Y-13927039D01*
X5119546Y-13936563D01*
X5129070Y-13946087D01*
X5138594Y-13965134D01*
X5148118Y-14003229D01*
X5148118Y-14050848D01*
X5138594Y-14088944D01*
X5129070Y-14107991D01*
X5119546Y-14117515D01*
X5100499Y-14127039D01*
X5081451Y-14127039D01*
X5062403Y-14117515D01*
X5052880Y-14107991D01*
X5043356Y-14088944D01*
X5033832Y-14050848D01*
X5033832Y-14003229D01*
X5043356Y-13965134D01*
X5052880Y-13946087D01*
X5062403Y-13936563D01*
X5081451Y-13927039D01*
X5233832Y-14107991D02*
X5243356Y-14117515D01*
X5233832Y-14127039D01*
X5224308Y-14117515D01*
X5233832Y-14107991D01*
X5233832Y-14127039D01*
X5367165Y-13927039D02*
X5386213Y-13927039D01*
X5405261Y-13936563D01*
X5414784Y-13946087D01*
X5424308Y-13965134D01*
X5433832Y-14003229D01*
X5433832Y-14050848D01*
X5424308Y-14088944D01*
X5414784Y-14107991D01*
X5405261Y-14117515D01*
X5386213Y-14127039D01*
X5367165Y-14127039D01*
X5348118Y-14117515D01*
X5338594Y-14107991D01*
X5329070Y-14088944D01*
X5319546Y-14050848D01*
X5319546Y-14003229D01*
X5329070Y-13965134D01*
X5338594Y-13946087D01*
X5348118Y-13936563D01*
X5367165Y-13927039D01*
X5605261Y-13993706D02*
X5605261Y-14127039D01*
X5557642Y-13917515D02*
X5510023Y-14060372D01*
X5633832Y-14060372D01*
X5690975Y-13927039D02*
X5814784Y-13927039D01*
X5748118Y-14003229D01*
X5776689Y-14003229D01*
X5795737Y-14012753D01*
X5805261Y-14022277D01*
X5814784Y-14041325D01*
X5814784Y-14088944D01*
X5805261Y-14107991D01*
X5795737Y-14117515D01*
X5776689Y-14127039D01*
X5719546Y-14127039D01*
X5700499Y-14117515D01*
X5690975Y-14107991D01*
X5938594Y-13927039D02*
X5957641Y-13927039D01*
X5976689Y-13936563D01*
X5986213Y-13946087D01*
X5995737Y-13965134D01*
X6005261Y-14003229D01*
X6005261Y-14050848D01*
X5995737Y-14088944D01*
X5986213Y-14107991D01*
X5976689Y-14117515D01*
X5957641Y-14127039D01*
X5938594Y-14127039D01*
X5919546Y-14117515D01*
X5910022Y-14107991D01*
X5900499Y-14088944D01*
X5890975Y-14050848D01*
X5890975Y-14003229D01*
X5900499Y-13965134D01*
X5910022Y-13946087D01*
X5919546Y-13936563D01*
X5938594Y-13927039D01*
X6081451Y-13927039D02*
X6081451Y-13965134D01*
X6157641Y-13927039D02*
X6157641Y-13965134D01*
X6452880Y-14203229D02*
X6443356Y-14193706D01*
X6424308Y-14165134D01*
X6414784Y-14146087D01*
X6405261Y-14117515D01*
X6395737Y-14069896D01*
X6395737Y-14031801D01*
X6405261Y-13984182D01*
X6414784Y-13955610D01*
X6424308Y-13936563D01*
X6443356Y-13907991D01*
X6452880Y-13898467D01*
X6519546Y-13946087D02*
X6529070Y-13936563D01*
X6548118Y-13927039D01*
X6595737Y-13927039D01*
X6614784Y-13936563D01*
X6624308Y-13946087D01*
X6633832Y-13965134D01*
X6633832Y-13984182D01*
X6624308Y-14012753D01*
X6510022Y-14127039D01*
X6633832Y-14127039D01*
X6805261Y-13993706D02*
X6805261Y-14127039D01*
X6757641Y-13917515D02*
X6710022Y-14060372D01*
X6833832Y-14060372D01*
X7062403Y-14127039D02*
X7062403Y-13927039D01*
X7148118Y-14127039D02*
X7148118Y-14022277D01*
X7138594Y-14003229D01*
X7119546Y-13993706D01*
X7090975Y-13993706D01*
X7071927Y-14003229D01*
X7062403Y-14012753D01*
X7271927Y-14127039D02*
X7252880Y-14117515D01*
X7243356Y-14107991D01*
X7233832Y-14088944D01*
X7233832Y-14031801D01*
X7243356Y-14012753D01*
X7252880Y-14003229D01*
X7271927Y-13993706D01*
X7300499Y-13993706D01*
X7319546Y-14003229D01*
X7329070Y-14012753D01*
X7338594Y-14031801D01*
X7338594Y-14088944D01*
X7329070Y-14107991D01*
X7319546Y-14117515D01*
X7300499Y-14127039D01*
X7271927Y-14127039D01*
X7452880Y-14127039D02*
X7433832Y-14117515D01*
X7424308Y-14098467D01*
X7424308Y-13927039D01*
X7605261Y-14117515D02*
X7586213Y-14127039D01*
X7548118Y-14127039D01*
X7529070Y-14117515D01*
X7519546Y-14098467D01*
X7519546Y-14022277D01*
X7529070Y-14003229D01*
X7548118Y-13993706D01*
X7586213Y-13993706D01*
X7605261Y-14003229D01*
X7614784Y-14022277D01*
X7614784Y-14041325D01*
X7519546Y-14060372D01*
X7690975Y-14117515D02*
X7710022Y-14127039D01*
X7748118Y-14127039D01*
X7767165Y-14117515D01*
X7776689Y-14098467D01*
X7776689Y-14088944D01*
X7767165Y-14069896D01*
X7748118Y-14060372D01*
X7719546Y-14060372D01*
X7700499Y-14050848D01*
X7690975Y-14031801D01*
X7690975Y-14022277D01*
X7700499Y-14003229D01*
X7719546Y-13993706D01*
X7748118Y-13993706D01*
X7767165Y-14003229D01*
X7843356Y-14203229D02*
X7852880Y-14193706D01*
X7871927Y-14165134D01*
X7881451Y-14146087D01*
X7890975Y-14117515D01*
X7900499Y-14069896D01*
X7900499Y-14031801D01*
X7890975Y-13984182D01*
X7881451Y-13955610D01*
X7871927Y-13936563D01*
X7852880Y-13907991D01*
X7843356Y-13898467D01*
D16*
X2820975Y-14360563D02*
X2880975Y-14300563D01*
X2820975Y-14240563D01*
X2760975Y-14300563D01*
X2820975Y-14360563D01*
D11*
X3243356Y-14391039D02*
X3129070Y-14391039D01*
X3186213Y-14391039D02*
X3186213Y-14191039D01*
X3167165Y-14219610D01*
X3148118Y-14238658D01*
X3129070Y-14248182D01*
X3329070Y-14371991D02*
X3338594Y-14381515D01*
X3329070Y-14391039D01*
X3319546Y-14381515D01*
X3329070Y-14371991D01*
X3329070Y-14391039D01*
X3414784Y-14210087D02*
X3424308Y-14200563D01*
X3443356Y-14191039D01*
X3490975Y-14191039D01*
X3510022Y-14200563D01*
X3519546Y-14210087D01*
X3529070Y-14229134D01*
X3529070Y-14248182D01*
X3519546Y-14276753D01*
X3405261Y-14391039D01*
X3529070Y-14391039D01*
X3652880Y-14191039D02*
X3671927Y-14191039D01*
X3690975Y-14200563D01*
X3700499Y-14210087D01*
X3710022Y-14229134D01*
X3719546Y-14267229D01*
X3719546Y-14314848D01*
X3710022Y-14352944D01*
X3700499Y-14371991D01*
X3690975Y-14381515D01*
X3671927Y-14391039D01*
X3652880Y-14391039D01*
X3633832Y-14381515D01*
X3624308Y-14371991D01*
X3614784Y-14352944D01*
X3605261Y-14314848D01*
X3605261Y-14267229D01*
X3614784Y-14229134D01*
X3624308Y-14210087D01*
X3633832Y-14200563D01*
X3652880Y-14191039D01*
X3843356Y-14191039D02*
X3862403Y-14191039D01*
X3881451Y-14200563D01*
X3890975Y-14210087D01*
X3900499Y-14229134D01*
X3910022Y-14267229D01*
X3910022Y-14314848D01*
X3900499Y-14352944D01*
X3890975Y-14371991D01*
X3881451Y-14381515D01*
X3862403Y-14391039D01*
X3843356Y-14391039D01*
X3824308Y-14381515D01*
X3814784Y-14371991D01*
X3805261Y-14352944D01*
X3795737Y-14314848D01*
X3795737Y-14267229D01*
X3805261Y-14229134D01*
X3814784Y-14210087D01*
X3824308Y-14200563D01*
X3843356Y-14191039D01*
X3995737Y-14391039D02*
X3995737Y-14257706D01*
X3995737Y-14276753D02*
X4005261Y-14267229D01*
X4024308Y-14257706D01*
X4052880Y-14257706D01*
X4071927Y-14267229D01*
X4081451Y-14286277D01*
X4081451Y-14391039D01*
X4081451Y-14286277D02*
X4090975Y-14267229D01*
X4110022Y-14257706D01*
X4138594Y-14257706D01*
X4157641Y-14267229D01*
X4167165Y-14286277D01*
X4167165Y-14391039D01*
X4262403Y-14391039D02*
X4262403Y-14257706D01*
X4262403Y-14276753D02*
X4271927Y-14267229D01*
X4290975Y-14257706D01*
X4319546Y-14257706D01*
X4338594Y-14267229D01*
X4348118Y-14286277D01*
X4348118Y-14391039D01*
X4348118Y-14286277D02*
X4357642Y-14267229D01*
X4376689Y-14257706D01*
X4405261Y-14257706D01*
X4424308Y-14267229D01*
X4433832Y-14286277D01*
X4433832Y-14391039D01*
X4824308Y-14181515D02*
X4652880Y-14438658D01*
X5081451Y-14191039D02*
X5100499Y-14191039D01*
X5119546Y-14200563D01*
X5129070Y-14210087D01*
X5138594Y-14229134D01*
X5148118Y-14267229D01*
X5148118Y-14314848D01*
X5138594Y-14352944D01*
X5129070Y-14371991D01*
X5119546Y-14381515D01*
X5100499Y-14391039D01*
X5081451Y-14391039D01*
X5062403Y-14381515D01*
X5052880Y-14371991D01*
X5043356Y-14352944D01*
X5033832Y-14314848D01*
X5033832Y-14267229D01*
X5043356Y-14229134D01*
X5052880Y-14210087D01*
X5062403Y-14200563D01*
X5081451Y-14191039D01*
X5233832Y-14371991D02*
X5243356Y-14381515D01*
X5233832Y-14391039D01*
X5224308Y-14381515D01*
X5233832Y-14371991D01*
X5233832Y-14391039D01*
X5367165Y-14191039D02*
X5386213Y-14191039D01*
X5405261Y-14200563D01*
X5414784Y-14210087D01*
X5424308Y-14229134D01*
X5433832Y-14267229D01*
X5433832Y-14314848D01*
X5424308Y-14352944D01*
X5414784Y-14371991D01*
X5405261Y-14381515D01*
X5386213Y-14391039D01*
X5367165Y-14391039D01*
X5348118Y-14381515D01*
X5338594Y-14371991D01*
X5329070Y-14352944D01*
X5319546Y-14314848D01*
X5319546Y-14267229D01*
X5329070Y-14229134D01*
X5338594Y-14210087D01*
X5348118Y-14200563D01*
X5367165Y-14191039D01*
X5605261Y-14257706D02*
X5605261Y-14391039D01*
X5557642Y-14181515D02*
X5510023Y-14324372D01*
X5633832Y-14324372D01*
X5690975Y-14191039D02*
X5824308Y-14191039D01*
X5738594Y-14391039D01*
X5890975Y-14210087D02*
X5900499Y-14200563D01*
X5919546Y-14191039D01*
X5967165Y-14191039D01*
X5986213Y-14200563D01*
X5995737Y-14210087D01*
X6005261Y-14229134D01*
X6005261Y-14248182D01*
X5995737Y-14276753D01*
X5881451Y-14391039D01*
X6005261Y-14391039D01*
X6081451Y-14191039D02*
X6081451Y-14229134D01*
X6157641Y-14191039D02*
X6157641Y-14229134D01*
X6452880Y-14467229D02*
X6443356Y-14457706D01*
X6424308Y-14429134D01*
X6414784Y-14410087D01*
X6405261Y-14381515D01*
X6395737Y-14333896D01*
X6395737Y-14295801D01*
X6405261Y-14248182D01*
X6414784Y-14219610D01*
X6424308Y-14200563D01*
X6443356Y-14171991D01*
X6452880Y-14162467D01*
X6510022Y-14191039D02*
X6633832Y-14191039D01*
X6567165Y-14267229D01*
X6595737Y-14267229D01*
X6614784Y-14276753D01*
X6624308Y-14286277D01*
X6633832Y-14305325D01*
X6633832Y-14352944D01*
X6624308Y-14371991D01*
X6614784Y-14381515D01*
X6595737Y-14391039D01*
X6538594Y-14391039D01*
X6519546Y-14381515D01*
X6510022Y-14371991D01*
X6710022Y-14210087D02*
X6719546Y-14200563D01*
X6738594Y-14191039D01*
X6786213Y-14191039D01*
X6805261Y-14200563D01*
X6814784Y-14210087D01*
X6824308Y-14229134D01*
X6824308Y-14248182D01*
X6814784Y-14276753D01*
X6700499Y-14391039D01*
X6824308Y-14391039D01*
X7062403Y-14391039D02*
X7062403Y-14191039D01*
X7148118Y-14391039D02*
X7148118Y-14286277D01*
X7138594Y-14267229D01*
X7119546Y-14257706D01*
X7090975Y-14257706D01*
X7071927Y-14267229D01*
X7062403Y-14276753D01*
X7271927Y-14391039D02*
X7252880Y-14381515D01*
X7243356Y-14371991D01*
X7233832Y-14352944D01*
X7233832Y-14295801D01*
X7243356Y-14276753D01*
X7252880Y-14267229D01*
X7271927Y-14257706D01*
X7300499Y-14257706D01*
X7319546Y-14267229D01*
X7329070Y-14276753D01*
X7338594Y-14295801D01*
X7338594Y-14352944D01*
X7329070Y-14371991D01*
X7319546Y-14381515D01*
X7300499Y-14391039D01*
X7271927Y-14391039D01*
X7452880Y-14391039D02*
X7433832Y-14381515D01*
X7424308Y-14362467D01*
X7424308Y-14191039D01*
X7605261Y-14381515D02*
X7586213Y-14391039D01*
X7548118Y-14391039D01*
X7529070Y-14381515D01*
X7519546Y-14362467D01*
X7519546Y-14286277D01*
X7529070Y-14267229D01*
X7548118Y-14257706D01*
X7586213Y-14257706D01*
X7605261Y-14267229D01*
X7614784Y-14286277D01*
X7614784Y-14305325D01*
X7519546Y-14324372D01*
X7690975Y-14381515D02*
X7710022Y-14391039D01*
X7748118Y-14391039D01*
X7767165Y-14381515D01*
X7776689Y-14362467D01*
X7776689Y-14352944D01*
X7767165Y-14333896D01*
X7748118Y-14324372D01*
X7719546Y-14324372D01*
X7700499Y-14314848D01*
X7690975Y-14295801D01*
X7690975Y-14286277D01*
X7700499Y-14267229D01*
X7719546Y-14257706D01*
X7748118Y-14257706D01*
X7767165Y-14267229D01*
X7843356Y-14467229D02*
X7852880Y-14457706D01*
X7871927Y-14429134D01*
X7881451Y-14410087D01*
X7890975Y-14381515D01*
X7900499Y-14333896D01*
X7900499Y-14295801D01*
X7890975Y-14248182D01*
X7881451Y-14219610D01*
X7871927Y-14200563D01*
X7852880Y-14171991D01*
X7843356Y-14162467D01*
D17*
X2753975Y-14501063D02*
X2880975Y-14628063D01*
X2880975Y-14501063D02*
X2753975Y-14628063D01*
X2880975Y-14564563D02*
G75*
G03*
X2880975Y-14564563I-63500J0D01*
G01*
D11*
X3243356Y-14655039D02*
X3129070Y-14655039D01*
X3186213Y-14655039D02*
X3186213Y-14455039D01*
X3167165Y-14483610D01*
X3148118Y-14502658D01*
X3129070Y-14512182D01*
X3329070Y-14635991D02*
X3338594Y-14645515D01*
X3329070Y-14655039D01*
X3319546Y-14645515D01*
X3329070Y-14635991D01*
X3329070Y-14655039D01*
X3414784Y-14474087D02*
X3424308Y-14464563D01*
X3443356Y-14455039D01*
X3490975Y-14455039D01*
X3510022Y-14464563D01*
X3519546Y-14474087D01*
X3529070Y-14493134D01*
X3529070Y-14512182D01*
X3519546Y-14540753D01*
X3405261Y-14655039D01*
X3529070Y-14655039D01*
X3595737Y-14455039D02*
X3729070Y-14455039D01*
X3643356Y-14655039D01*
X3843356Y-14455039D02*
X3862403Y-14455039D01*
X3881451Y-14464563D01*
X3890975Y-14474087D01*
X3900499Y-14493134D01*
X3910022Y-14531229D01*
X3910022Y-14578848D01*
X3900499Y-14616944D01*
X3890975Y-14635991D01*
X3881451Y-14645515D01*
X3862403Y-14655039D01*
X3843356Y-14655039D01*
X3824308Y-14645515D01*
X3814784Y-14635991D01*
X3805261Y-14616944D01*
X3795737Y-14578848D01*
X3795737Y-14531229D01*
X3805261Y-14493134D01*
X3814784Y-14474087D01*
X3824308Y-14464563D01*
X3843356Y-14455039D01*
X3995737Y-14655039D02*
X3995737Y-14521706D01*
X3995737Y-14540753D02*
X4005261Y-14531229D01*
X4024308Y-14521706D01*
X4052880Y-14521706D01*
X4071927Y-14531229D01*
X4081451Y-14550277D01*
X4081451Y-14655039D01*
X4081451Y-14550277D02*
X4090975Y-14531229D01*
X4110022Y-14521706D01*
X4138594Y-14521706D01*
X4157641Y-14531229D01*
X4167165Y-14550277D01*
X4167165Y-14655039D01*
X4262403Y-14655039D02*
X4262403Y-14521706D01*
X4262403Y-14540753D02*
X4271927Y-14531229D01*
X4290975Y-14521706D01*
X4319546Y-14521706D01*
X4338594Y-14531229D01*
X4348118Y-14550277D01*
X4348118Y-14655039D01*
X4348118Y-14550277D02*
X4357642Y-14531229D01*
X4376689Y-14521706D01*
X4405261Y-14521706D01*
X4424308Y-14531229D01*
X4433832Y-14550277D01*
X4433832Y-14655039D01*
X4824308Y-14445515D02*
X4652880Y-14702658D01*
X5081451Y-14455039D02*
X5100499Y-14455039D01*
X5119546Y-14464563D01*
X5129070Y-14474087D01*
X5138594Y-14493134D01*
X5148118Y-14531229D01*
X5148118Y-14578848D01*
X5138594Y-14616944D01*
X5129070Y-14635991D01*
X5119546Y-14645515D01*
X5100499Y-14655039D01*
X5081451Y-14655039D01*
X5062403Y-14645515D01*
X5052880Y-14635991D01*
X5043356Y-14616944D01*
X5033832Y-14578848D01*
X5033832Y-14531229D01*
X5043356Y-14493134D01*
X5052880Y-14474087D01*
X5062403Y-14464563D01*
X5081451Y-14455039D01*
X5233832Y-14635991D02*
X5243356Y-14645515D01*
X5233832Y-14655039D01*
X5224308Y-14645515D01*
X5233832Y-14635991D01*
X5233832Y-14655039D01*
X5367165Y-14455039D02*
X5386213Y-14455039D01*
X5405261Y-14464563D01*
X5414784Y-14474087D01*
X5424308Y-14493134D01*
X5433832Y-14531229D01*
X5433832Y-14578848D01*
X5424308Y-14616944D01*
X5414784Y-14635991D01*
X5405261Y-14645515D01*
X5386213Y-14655039D01*
X5367165Y-14655039D01*
X5348118Y-14645515D01*
X5338594Y-14635991D01*
X5329070Y-14616944D01*
X5319546Y-14578848D01*
X5319546Y-14531229D01*
X5329070Y-14493134D01*
X5338594Y-14474087D01*
X5348118Y-14464563D01*
X5367165Y-14455039D01*
X5614784Y-14455039D02*
X5519546Y-14455039D01*
X5510023Y-14550277D01*
X5519546Y-14540753D01*
X5538594Y-14531229D01*
X5586213Y-14531229D01*
X5605261Y-14540753D01*
X5614784Y-14550277D01*
X5624308Y-14569325D01*
X5624308Y-14616944D01*
X5614784Y-14635991D01*
X5605261Y-14645515D01*
X5586213Y-14655039D01*
X5538594Y-14655039D01*
X5519546Y-14645515D01*
X5510023Y-14635991D01*
X5748118Y-14455039D02*
X5767165Y-14455039D01*
X5786213Y-14464563D01*
X5795737Y-14474087D01*
X5805261Y-14493134D01*
X5814784Y-14531229D01*
X5814784Y-14578848D01*
X5805261Y-14616944D01*
X5795737Y-14635991D01*
X5786213Y-14645515D01*
X5767165Y-14655039D01*
X5748118Y-14655039D01*
X5729070Y-14645515D01*
X5719546Y-14635991D01*
X5710022Y-14616944D01*
X5700499Y-14578848D01*
X5700499Y-14531229D01*
X5710022Y-14493134D01*
X5719546Y-14474087D01*
X5729070Y-14464563D01*
X5748118Y-14455039D01*
X5938594Y-14455039D02*
X5957641Y-14455039D01*
X5976689Y-14464563D01*
X5986213Y-14474087D01*
X5995737Y-14493134D01*
X6005261Y-14531229D01*
X6005261Y-14578848D01*
X5995737Y-14616944D01*
X5986213Y-14635991D01*
X5976689Y-14645515D01*
X5957641Y-14655039D01*
X5938594Y-14655039D01*
X5919546Y-14645515D01*
X5910022Y-14635991D01*
X5900499Y-14616944D01*
X5890975Y-14578848D01*
X5890975Y-14531229D01*
X5900499Y-14493134D01*
X5910022Y-14474087D01*
X5919546Y-14464563D01*
X5938594Y-14455039D01*
X6081451Y-14455039D02*
X6081451Y-14493134D01*
X6157641Y-14455039D02*
X6157641Y-14493134D01*
X6452880Y-14731229D02*
X6443356Y-14721706D01*
X6424308Y-14693134D01*
X6414784Y-14674087D01*
X6405261Y-14645515D01*
X6395737Y-14597896D01*
X6395737Y-14559801D01*
X6405261Y-14512182D01*
X6414784Y-14483610D01*
X6424308Y-14464563D01*
X6443356Y-14435991D01*
X6452880Y-14426467D01*
X6510022Y-14455039D02*
X6633832Y-14455039D01*
X6567165Y-14531229D01*
X6595737Y-14531229D01*
X6614784Y-14540753D01*
X6624308Y-14550277D01*
X6633832Y-14569325D01*
X6633832Y-14616944D01*
X6624308Y-14635991D01*
X6614784Y-14645515D01*
X6595737Y-14655039D01*
X6538594Y-14655039D01*
X6519546Y-14645515D01*
X6510022Y-14635991D01*
X6710022Y-14474087D02*
X6719546Y-14464563D01*
X6738594Y-14455039D01*
X6786213Y-14455039D01*
X6805261Y-14464563D01*
X6814784Y-14474087D01*
X6824308Y-14493134D01*
X6824308Y-14512182D01*
X6814784Y-14540753D01*
X6700499Y-14655039D01*
X6824308Y-14655039D01*
X7062403Y-14655039D02*
X7062403Y-14455039D01*
X7148118Y-14655039D02*
X7148118Y-14550277D01*
X7138594Y-14531229D01*
X7119546Y-14521706D01*
X7090975Y-14521706D01*
X7071927Y-14531229D01*
X7062403Y-14540753D01*
X7271927Y-14655039D02*
X7252880Y-14645515D01*
X7243356Y-14635991D01*
X7233832Y-14616944D01*
X7233832Y-14559801D01*
X7243356Y-14540753D01*
X7252880Y-14531229D01*
X7271927Y-14521706D01*
X7300499Y-14521706D01*
X7319546Y-14531229D01*
X7329070Y-14540753D01*
X7338594Y-14559801D01*
X7338594Y-14616944D01*
X7329070Y-14635991D01*
X7319546Y-14645515D01*
X7300499Y-14655039D01*
X7271927Y-14655039D01*
X7452880Y-14655039D02*
X7433832Y-14645515D01*
X7424308Y-14626467D01*
X7424308Y-14455039D01*
X7605261Y-14645515D02*
X7586213Y-14655039D01*
X7548118Y-14655039D01*
X7529070Y-14645515D01*
X7519546Y-14626467D01*
X7519546Y-14550277D01*
X7529070Y-14531229D01*
X7548118Y-14521706D01*
X7586213Y-14521706D01*
X7605261Y-14531229D01*
X7614784Y-14550277D01*
X7614784Y-14569325D01*
X7519546Y-14588372D01*
X7690975Y-14645515D02*
X7710022Y-14655039D01*
X7748118Y-14655039D01*
X7767165Y-14645515D01*
X7776689Y-14626467D01*
X7776689Y-14616944D01*
X7767165Y-14597896D01*
X7748118Y-14588372D01*
X7719546Y-14588372D01*
X7700499Y-14578848D01*
X7690975Y-14559801D01*
X7690975Y-14550277D01*
X7700499Y-14531229D01*
X7719546Y-14521706D01*
X7748118Y-14521706D01*
X7767165Y-14531229D01*
X7843356Y-14731229D02*
X7852880Y-14721706D01*
X7871927Y-14693134D01*
X7881451Y-14674087D01*
X7890975Y-14645515D01*
X7900499Y-14597896D01*
X7900499Y-14559801D01*
X7890975Y-14512182D01*
X7881451Y-14483610D01*
X7871927Y-14464563D01*
X7852880Y-14435991D01*
X7843356Y-14426467D01*
D18*
X2730975Y-14753563D02*
X2880975Y-14903563D01*
X2880975Y-14753563D02*
X2730975Y-14903563D01*
X2805975Y-14753563D02*
X2805975Y-14903563D01*
X2730975Y-14828563D02*
X2880975Y-14828563D01*
D11*
X3243356Y-14919039D02*
X3129070Y-14919039D01*
X3186213Y-14919039D02*
X3186213Y-14719039D01*
X3167165Y-14747610D01*
X3148118Y-14766658D01*
X3129070Y-14776182D01*
X3329070Y-14899991D02*
X3338594Y-14909515D01*
X3329070Y-14919039D01*
X3319546Y-14909515D01*
X3329070Y-14899991D01*
X3329070Y-14919039D01*
X3519546Y-14719039D02*
X3424308Y-14719039D01*
X3414784Y-14814277D01*
X3424308Y-14804753D01*
X3443356Y-14795229D01*
X3490975Y-14795229D01*
X3510022Y-14804753D01*
X3519546Y-14814277D01*
X3529070Y-14833325D01*
X3529070Y-14880944D01*
X3519546Y-14899991D01*
X3510022Y-14909515D01*
X3490975Y-14919039D01*
X3443356Y-14919039D01*
X3424308Y-14909515D01*
X3414784Y-14899991D01*
X3652880Y-14719039D02*
X3671927Y-14719039D01*
X3690975Y-14728563D01*
X3700499Y-14738087D01*
X3710022Y-14757134D01*
X3719546Y-14795229D01*
X3719546Y-14842848D01*
X3710022Y-14880944D01*
X3700499Y-14899991D01*
X3690975Y-14909515D01*
X3671927Y-14919039D01*
X3652880Y-14919039D01*
X3633832Y-14909515D01*
X3624308Y-14899991D01*
X3614784Y-14880944D01*
X3605261Y-14842848D01*
X3605261Y-14795229D01*
X3614784Y-14757134D01*
X3624308Y-14738087D01*
X3633832Y-14728563D01*
X3652880Y-14719039D01*
X3843356Y-14719039D02*
X3862403Y-14719039D01*
X3881451Y-14728563D01*
X3890975Y-14738087D01*
X3900499Y-14757134D01*
X3910022Y-14795229D01*
X3910022Y-14842848D01*
X3900499Y-14880944D01*
X3890975Y-14899991D01*
X3881451Y-14909515D01*
X3862403Y-14919039D01*
X3843356Y-14919039D01*
X3824308Y-14909515D01*
X3814784Y-14899991D01*
X3805261Y-14880944D01*
X3795737Y-14842848D01*
X3795737Y-14795229D01*
X3805261Y-14757134D01*
X3814784Y-14738087D01*
X3824308Y-14728563D01*
X3843356Y-14719039D01*
X3995737Y-14919039D02*
X3995737Y-14785706D01*
X3995737Y-14804753D02*
X4005261Y-14795229D01*
X4024308Y-14785706D01*
X4052880Y-14785706D01*
X4071927Y-14795229D01*
X4081451Y-14814277D01*
X4081451Y-14919039D01*
X4081451Y-14814277D02*
X4090975Y-14795229D01*
X4110022Y-14785706D01*
X4138594Y-14785706D01*
X4157641Y-14795229D01*
X4167165Y-14814277D01*
X4167165Y-14919039D01*
X4262403Y-14919039D02*
X4262403Y-14785706D01*
X4262403Y-14804753D02*
X4271927Y-14795229D01*
X4290975Y-14785706D01*
X4319546Y-14785706D01*
X4338594Y-14795229D01*
X4348118Y-14814277D01*
X4348118Y-14919039D01*
X4348118Y-14814277D02*
X4357642Y-14795229D01*
X4376689Y-14785706D01*
X4405261Y-14785706D01*
X4424308Y-14795229D01*
X4433832Y-14814277D01*
X4433832Y-14919039D01*
X4824308Y-14709515D02*
X4652880Y-14966658D01*
X5081451Y-14719039D02*
X5100499Y-14719039D01*
X5119546Y-14728563D01*
X5129070Y-14738087D01*
X5138594Y-14757134D01*
X5148118Y-14795229D01*
X5148118Y-14842848D01*
X5138594Y-14880944D01*
X5129070Y-14899991D01*
X5119546Y-14909515D01*
X5100499Y-14919039D01*
X5081451Y-14919039D01*
X5062403Y-14909515D01*
X5052880Y-14899991D01*
X5043356Y-14880944D01*
X5033832Y-14842848D01*
X5033832Y-14795229D01*
X5043356Y-14757134D01*
X5052880Y-14738087D01*
X5062403Y-14728563D01*
X5081451Y-14719039D01*
X5233832Y-14899991D02*
X5243356Y-14909515D01*
X5233832Y-14919039D01*
X5224308Y-14909515D01*
X5233832Y-14899991D01*
X5233832Y-14919039D01*
X5367165Y-14719039D02*
X5386213Y-14719039D01*
X5405261Y-14728563D01*
X5414784Y-14738087D01*
X5424308Y-14757134D01*
X5433832Y-14795229D01*
X5433832Y-14842848D01*
X5424308Y-14880944D01*
X5414784Y-14899991D01*
X5405261Y-14909515D01*
X5386213Y-14919039D01*
X5367165Y-14919039D01*
X5348118Y-14909515D01*
X5338594Y-14899991D01*
X5329070Y-14880944D01*
X5319546Y-14842848D01*
X5319546Y-14795229D01*
X5329070Y-14757134D01*
X5338594Y-14738087D01*
X5348118Y-14728563D01*
X5367165Y-14719039D01*
X5614784Y-14719039D02*
X5519546Y-14719039D01*
X5510023Y-14814277D01*
X5519546Y-14804753D01*
X5538594Y-14795229D01*
X5586213Y-14795229D01*
X5605261Y-14804753D01*
X5614784Y-14814277D01*
X5624308Y-14833325D01*
X5624308Y-14880944D01*
X5614784Y-14899991D01*
X5605261Y-14909515D01*
X5586213Y-14919039D01*
X5538594Y-14919039D01*
X5519546Y-14909515D01*
X5510023Y-14899991D01*
X5719546Y-14919039D02*
X5757641Y-14919039D01*
X5776689Y-14909515D01*
X5786213Y-14899991D01*
X5805261Y-14871420D01*
X5814784Y-14833325D01*
X5814784Y-14757134D01*
X5805261Y-14738087D01*
X5795737Y-14728563D01*
X5776689Y-14719039D01*
X5738594Y-14719039D01*
X5719546Y-14728563D01*
X5710022Y-14738087D01*
X5700499Y-14757134D01*
X5700499Y-14804753D01*
X5710022Y-14823801D01*
X5719546Y-14833325D01*
X5738594Y-14842848D01*
X5776689Y-14842848D01*
X5795737Y-14833325D01*
X5805261Y-14823801D01*
X5814784Y-14804753D01*
X6005261Y-14919039D02*
X5890975Y-14919039D01*
X5948118Y-14919039D02*
X5948118Y-14719039D01*
X5929070Y-14747610D01*
X5910022Y-14766658D01*
X5890975Y-14776182D01*
X6081451Y-14719039D02*
X6081451Y-14757134D01*
X6157641Y-14719039D02*
X6157641Y-14757134D01*
X6452880Y-14995229D02*
X6443356Y-14985706D01*
X6424308Y-14957134D01*
X6414784Y-14938087D01*
X6405261Y-14909515D01*
X6395737Y-14861896D01*
X6395737Y-14823801D01*
X6405261Y-14776182D01*
X6414784Y-14747610D01*
X6424308Y-14728563D01*
X6443356Y-14699991D01*
X6452880Y-14690467D01*
X6614784Y-14719039D02*
X6576689Y-14719039D01*
X6557641Y-14728563D01*
X6548118Y-14738087D01*
X6529070Y-14766658D01*
X6519546Y-14804753D01*
X6519546Y-14880944D01*
X6529070Y-14899991D01*
X6538594Y-14909515D01*
X6557641Y-14919039D01*
X6595737Y-14919039D01*
X6614784Y-14909515D01*
X6624308Y-14899991D01*
X6633832Y-14880944D01*
X6633832Y-14833325D01*
X6624308Y-14814277D01*
X6614784Y-14804753D01*
X6595737Y-14795229D01*
X6557641Y-14795229D01*
X6538594Y-14804753D01*
X6529070Y-14814277D01*
X6519546Y-14833325D01*
X6805261Y-14719039D02*
X6767165Y-14719039D01*
X6748118Y-14728563D01*
X6738594Y-14738087D01*
X6719546Y-14766658D01*
X6710022Y-14804753D01*
X6710022Y-14880944D01*
X6719546Y-14899991D01*
X6729070Y-14909515D01*
X6748118Y-14919039D01*
X6786213Y-14919039D01*
X6805261Y-14909515D01*
X6814784Y-14899991D01*
X6824308Y-14880944D01*
X6824308Y-14833325D01*
X6814784Y-14814277D01*
X6805261Y-14804753D01*
X6786213Y-14795229D01*
X6748118Y-14795229D01*
X6729070Y-14804753D01*
X6719546Y-14814277D01*
X6710022Y-14833325D01*
X7062403Y-14919039D02*
X7062403Y-14719039D01*
X7148118Y-14919039D02*
X7148118Y-14814277D01*
X7138594Y-14795229D01*
X7119546Y-14785706D01*
X7090975Y-14785706D01*
X7071927Y-14795229D01*
X7062403Y-14804753D01*
X7271927Y-14919039D02*
X7252880Y-14909515D01*
X7243356Y-14899991D01*
X7233832Y-14880944D01*
X7233832Y-14823801D01*
X7243356Y-14804753D01*
X7252880Y-14795229D01*
X7271927Y-14785706D01*
X7300499Y-14785706D01*
X7319546Y-14795229D01*
X7329070Y-14804753D01*
X7338594Y-14823801D01*
X7338594Y-14880944D01*
X7329070Y-14899991D01*
X7319546Y-14909515D01*
X7300499Y-14919039D01*
X7271927Y-14919039D01*
X7452880Y-14919039D02*
X7433832Y-14909515D01*
X7424308Y-14890467D01*
X7424308Y-14719039D01*
X7605261Y-14909515D02*
X7586213Y-14919039D01*
X7548118Y-14919039D01*
X7529070Y-14909515D01*
X7519546Y-14890467D01*
X7519546Y-14814277D01*
X7529070Y-14795229D01*
X7548118Y-14785706D01*
X7586213Y-14785706D01*
X7605261Y-14795229D01*
X7614784Y-14814277D01*
X7614784Y-14833325D01*
X7519546Y-14852372D01*
X7690975Y-14909515D02*
X7710022Y-14919039D01*
X7748118Y-14919039D01*
X7767165Y-14909515D01*
X7776689Y-14890467D01*
X7776689Y-14880944D01*
X7767165Y-14861896D01*
X7748118Y-14852372D01*
X7719546Y-14852372D01*
X7700499Y-14842848D01*
X7690975Y-14823801D01*
X7690975Y-14814277D01*
X7700499Y-14795229D01*
X7719546Y-14785706D01*
X7748118Y-14785706D01*
X7767165Y-14795229D01*
X7843356Y-14995229D02*
X7852880Y-14985706D01*
X7871927Y-14957134D01*
X7881451Y-14938087D01*
X7890975Y-14909515D01*
X7900499Y-14861896D01*
X7900499Y-14823801D01*
X7890975Y-14776182D01*
X7881451Y-14747610D01*
X7871927Y-14728563D01*
X7852880Y-14699991D01*
X7843356Y-14690467D01*
X2680975Y-14998563D02*
X2880975Y-15198563D01*
X2880975Y-14998563D02*
X2680975Y-15198563D01*
X2851686Y-15169274D02*
X2851686Y-15027851D01*
X2710264Y-15027851D01*
X2710264Y-15169274D01*
X2851686Y-15169274D01*
X3129070Y-15008087D02*
X3138594Y-14998563D01*
X3157641Y-14989039D01*
X3205261Y-14989039D01*
X3224308Y-14998563D01*
X3233832Y-15008087D01*
X3243356Y-15027134D01*
X3243356Y-15046182D01*
X3233832Y-15074753D01*
X3119546Y-15189039D01*
X3243356Y-15189039D01*
X3329070Y-15169991D02*
X3338594Y-15179515D01*
X3329070Y-15189039D01*
X3319546Y-15179515D01*
X3329070Y-15169991D01*
X3329070Y-15189039D01*
X3462403Y-14989039D02*
X3481451Y-14989039D01*
X3500499Y-14998563D01*
X3510022Y-15008087D01*
X3519546Y-15027134D01*
X3529070Y-15065229D01*
X3529070Y-15112848D01*
X3519546Y-15150944D01*
X3510022Y-15169991D01*
X3500499Y-15179515D01*
X3481451Y-15189039D01*
X3462403Y-15189039D01*
X3443356Y-15179515D01*
X3433832Y-15169991D01*
X3424308Y-15150944D01*
X3414784Y-15112848D01*
X3414784Y-15065229D01*
X3424308Y-15027134D01*
X3433832Y-15008087D01*
X3443356Y-14998563D01*
X3462403Y-14989039D01*
X3652880Y-14989039D02*
X3671927Y-14989039D01*
X3690975Y-14998563D01*
X3700499Y-15008087D01*
X3710022Y-15027134D01*
X3719546Y-15065229D01*
X3719546Y-15112848D01*
X3710022Y-15150944D01*
X3700499Y-15169991D01*
X3690975Y-15179515D01*
X3671927Y-15189039D01*
X3652880Y-15189039D01*
X3633832Y-15179515D01*
X3624308Y-15169991D01*
X3614784Y-15150944D01*
X3605261Y-15112848D01*
X3605261Y-15065229D01*
X3614784Y-15027134D01*
X3624308Y-15008087D01*
X3633832Y-14998563D01*
X3652880Y-14989039D01*
X3843356Y-14989039D02*
X3862403Y-14989039D01*
X3881451Y-14998563D01*
X3890975Y-15008087D01*
X3900499Y-15027134D01*
X3910022Y-15065229D01*
X3910022Y-15112848D01*
X3900499Y-15150944D01*
X3890975Y-15169991D01*
X3881451Y-15179515D01*
X3862403Y-15189039D01*
X3843356Y-15189039D01*
X3824308Y-15179515D01*
X3814784Y-15169991D01*
X3805261Y-15150944D01*
X3795737Y-15112848D01*
X3795737Y-15065229D01*
X3805261Y-15027134D01*
X3814784Y-15008087D01*
X3824308Y-14998563D01*
X3843356Y-14989039D01*
X3995737Y-15189039D02*
X3995737Y-15055706D01*
X3995737Y-15074753D02*
X4005261Y-15065229D01*
X4024308Y-15055706D01*
X4052880Y-15055706D01*
X4071927Y-15065229D01*
X4081451Y-15084277D01*
X4081451Y-15189039D01*
X4081451Y-15084277D02*
X4090975Y-15065229D01*
X4110022Y-15055706D01*
X4138594Y-15055706D01*
X4157641Y-15065229D01*
X4167165Y-15084277D01*
X4167165Y-15189039D01*
X4262403Y-15189039D02*
X4262403Y-15055706D01*
X4262403Y-15074753D02*
X4271927Y-15065229D01*
X4290975Y-15055706D01*
X4319546Y-15055706D01*
X4338594Y-15065229D01*
X4348118Y-15084277D01*
X4348118Y-15189039D01*
X4348118Y-15084277D02*
X4357642Y-15065229D01*
X4376689Y-15055706D01*
X4405261Y-15055706D01*
X4424308Y-15065229D01*
X4433832Y-15084277D01*
X4433832Y-15189039D01*
X4824308Y-14979515D02*
X4652880Y-15236658D01*
X5081451Y-14989039D02*
X5100499Y-14989039D01*
X5119546Y-14998563D01*
X5129070Y-15008087D01*
X5138594Y-15027134D01*
X5148118Y-15065229D01*
X5148118Y-15112848D01*
X5138594Y-15150944D01*
X5129070Y-15169991D01*
X5119546Y-15179515D01*
X5100499Y-15189039D01*
X5081451Y-15189039D01*
X5062403Y-15179515D01*
X5052880Y-15169991D01*
X5043356Y-15150944D01*
X5033832Y-15112848D01*
X5033832Y-15065229D01*
X5043356Y-15027134D01*
X5052880Y-15008087D01*
X5062403Y-14998563D01*
X5081451Y-14989039D01*
X5233832Y-15169991D02*
X5243356Y-15179515D01*
X5233832Y-15189039D01*
X5224308Y-15179515D01*
X5233832Y-15169991D01*
X5233832Y-15189039D01*
X5367165Y-14989039D02*
X5386213Y-14989039D01*
X5405261Y-14998563D01*
X5414784Y-15008087D01*
X5424308Y-15027134D01*
X5433832Y-15065229D01*
X5433832Y-15112848D01*
X5424308Y-15150944D01*
X5414784Y-15169991D01*
X5405261Y-15179515D01*
X5386213Y-15189039D01*
X5367165Y-15189039D01*
X5348118Y-15179515D01*
X5338594Y-15169991D01*
X5329070Y-15150944D01*
X5319546Y-15112848D01*
X5319546Y-15065229D01*
X5329070Y-15027134D01*
X5338594Y-15008087D01*
X5348118Y-14998563D01*
X5367165Y-14989039D01*
X5500499Y-14989039D02*
X5633832Y-14989039D01*
X5548118Y-15189039D01*
X5738594Y-15074753D02*
X5719546Y-15065229D01*
X5710022Y-15055706D01*
X5700499Y-15036658D01*
X5700499Y-15027134D01*
X5710022Y-15008087D01*
X5719546Y-14998563D01*
X5738594Y-14989039D01*
X5776689Y-14989039D01*
X5795737Y-14998563D01*
X5805261Y-15008087D01*
X5814784Y-15027134D01*
X5814784Y-15036658D01*
X5805261Y-15055706D01*
X5795737Y-15065229D01*
X5776689Y-15074753D01*
X5738594Y-15074753D01*
X5719546Y-15084277D01*
X5710022Y-15093801D01*
X5700499Y-15112848D01*
X5700499Y-15150944D01*
X5710022Y-15169991D01*
X5719546Y-15179515D01*
X5738594Y-15189039D01*
X5776689Y-15189039D01*
X5795737Y-15179515D01*
X5805261Y-15169991D01*
X5814784Y-15150944D01*
X5814784Y-15112848D01*
X5805261Y-15093801D01*
X5795737Y-15084277D01*
X5776689Y-15074753D01*
X5881451Y-14989039D02*
X6014784Y-14989039D01*
X5929070Y-15189039D01*
X6081451Y-14989039D02*
X6081451Y-15027134D01*
X6157641Y-14989039D02*
X6157641Y-15027134D01*
X6452880Y-15265229D02*
X6443356Y-15255706D01*
X6424308Y-15227134D01*
X6414784Y-15208087D01*
X6405261Y-15179515D01*
X6395737Y-15131896D01*
X6395737Y-15093801D01*
X6405261Y-15046182D01*
X6414784Y-15017610D01*
X6424308Y-14998563D01*
X6443356Y-14969991D01*
X6452880Y-14960467D01*
X6614784Y-14989039D02*
X6576689Y-14989039D01*
X6557641Y-14998563D01*
X6548118Y-15008087D01*
X6529070Y-15036658D01*
X6519546Y-15074753D01*
X6519546Y-15150944D01*
X6529070Y-15169991D01*
X6538594Y-15179515D01*
X6557641Y-15189039D01*
X6595737Y-15189039D01*
X6614784Y-15179515D01*
X6624308Y-15169991D01*
X6633832Y-15150944D01*
X6633832Y-15103325D01*
X6624308Y-15084277D01*
X6614784Y-15074753D01*
X6595737Y-15065229D01*
X6557641Y-15065229D01*
X6538594Y-15074753D01*
X6529070Y-15084277D01*
X6519546Y-15103325D01*
X6871927Y-15189039D02*
X6871927Y-14989039D01*
X6957641Y-15189039D02*
X6957641Y-15084277D01*
X6948118Y-15065229D01*
X6929070Y-15055706D01*
X6900499Y-15055706D01*
X6881451Y-15065229D01*
X6871927Y-15074753D01*
X7081451Y-15189039D02*
X7062403Y-15179515D01*
X7052880Y-15169991D01*
X7043356Y-15150944D01*
X7043356Y-15093801D01*
X7052880Y-15074753D01*
X7062403Y-15065229D01*
X7081451Y-15055706D01*
X7110022Y-15055706D01*
X7129070Y-15065229D01*
X7138594Y-15074753D01*
X7148118Y-15093801D01*
X7148118Y-15150944D01*
X7138594Y-15169991D01*
X7129070Y-15179515D01*
X7110022Y-15189039D01*
X7081451Y-15189039D01*
X7262403Y-15189039D02*
X7243356Y-15179515D01*
X7233832Y-15160467D01*
X7233832Y-14989039D01*
X7414784Y-15179515D02*
X7395737Y-15189039D01*
X7357641Y-15189039D01*
X7338594Y-15179515D01*
X7329070Y-15160467D01*
X7329070Y-15084277D01*
X7338594Y-15065229D01*
X7357641Y-15055706D01*
X7395737Y-15055706D01*
X7414784Y-15065229D01*
X7424308Y-15084277D01*
X7424308Y-15103325D01*
X7329070Y-15122372D01*
X7500499Y-15179515D02*
X7519546Y-15189039D01*
X7557641Y-15189039D01*
X7576689Y-15179515D01*
X7586213Y-15160467D01*
X7586213Y-15150944D01*
X7576689Y-15131896D01*
X7557641Y-15122372D01*
X7529070Y-15122372D01*
X7510022Y-15112848D01*
X7500499Y-15093801D01*
X7500499Y-15084277D01*
X7510022Y-15065229D01*
X7529070Y-15055706D01*
X7557641Y-15055706D01*
X7576689Y-15065229D01*
X7652880Y-15265229D02*
X7662403Y-15255706D01*
X7681451Y-15227134D01*
X7690975Y-15208087D01*
X7700499Y-15179515D01*
X7710022Y-15131896D01*
X7710022Y-15093801D01*
X7700499Y-15046182D01*
X7690975Y-15017610D01*
X7681451Y-14998563D01*
X7662403Y-14969991D01*
X7652880Y-14960467D01*
M02*
