M48
; DRILL file {KiCad (6.0.0-rc1-306-g01eebd0b9d)} date Thu Apr  7 08:08:28 2022
; FORMAT={-:-/ absolute / inch / decimal}
; #@! TF.CreationDate,2022-04-07T08:08:28+01:00
; #@! TF.GenerationSoftware,Kicad,Pcbnew,(6.0.0-rc1-306-g01eebd0b9d)
; #@! TF.FileFunction,NonPlated,1,2,NPTH
FMAT,2
INCH
; #@! TA.AperFunction,NonPlated,NPTH,ComponentDrill
T1C0.0670
; #@! TA.AperFunction,NonPlated,NPTH,ComponentDrill
T2C0.1200
; #@! TA.AperFunction,NonPlated,NPTH,ComponentDrill
T3C0.1570
%
G90
G05
T1
X1.5159Y-2.0075
X1.5325Y-2.0075
X1.7034Y-2.7575
X1.72Y-2.7575
X1.9325Y-2.0075
X1.949Y-2.0075
X2.0784Y-3.5075
X2.095Y-3.5075
X2.12Y-2.7575
X2.1365Y-2.7575
X2.2659Y-2.0075
X2.2825Y-2.0075
X2.4534Y-2.7575
X2.47Y-2.7575
X2.495Y-3.5075
X2.5115Y-3.5075
X2.6825Y-2.0075
X2.699Y-2.0075
X2.8284Y-3.5075
X2.8284Y-4.2575
X2.845Y-3.5075
X2.845Y-4.2575
X2.87Y-2.7575
X2.8865Y-2.7575
X3.0159Y-2.0075
X3.0325Y-2.0075
X3.2034Y-2.7575
X3.22Y-2.7575
X3.245Y-3.5075
X3.245Y-4.2575
X3.2615Y-3.5075
X3.2615Y-4.2575
X3.4325Y-2.0075
X3.449Y-2.0075
X3.5784Y-3.5075
X3.5784Y-4.2575
X3.595Y-3.5075
X3.595Y-4.2575
X3.62Y-2.7575
X3.6365Y-2.7575
X3.7659Y-2.0075
X3.7825Y-2.0075
X3.9534Y-2.7575
X3.97Y-2.7575
X3.995Y-3.5075
X3.995Y-4.2575
X4.0115Y-3.5075
X4.0115Y-4.2575
X4.1825Y-2.0075
X4.199Y-2.0075
X4.3284Y-3.5075
X4.345Y-3.5075
X4.37Y-2.7575
X4.3865Y-2.7575
X4.5159Y-2.0075
X4.5325Y-2.0075
X4.7034Y-2.7575
X4.7038Y-4.2575
X4.72Y-2.7575
X4.7203Y-4.2575
X4.745Y-3.5075
X4.7615Y-3.5075
X4.9325Y-2.0075
X4.949Y-2.0075
X5.0784Y-3.5075
X5.095Y-3.5075
X5.12Y-2.7575
X5.1203Y-4.2575
X5.1365Y-2.7575
X5.1369Y-4.2575
X5.2659Y-2.0075
X5.2825Y-2.0075
X5.4534Y-2.7575
X5.47Y-2.7575
X5.495Y-3.5075
X5.5115Y-3.5075
X5.6825Y-2.0075
X5.699Y-2.0075
X5.8284Y-3.5075
X5.8284Y-4.2575
X5.845Y-3.5075
X5.845Y-4.2575
X5.87Y-2.7575
X5.8865Y-2.7575
X6.0159Y-2.0075
X6.0325Y-2.0075
X6.2034Y-2.7575
X6.22Y-2.7575
X6.245Y-3.5075
X6.245Y-4.2575
X6.2615Y-3.5075
X6.2615Y-4.2575
X6.4325Y-2.0075
X6.449Y-2.0075
X6.5784Y-3.5075
X6.5784Y-4.2575
X6.595Y-3.5075
X6.595Y-4.2575
X6.62Y-2.7575
X6.6365Y-2.7575
X6.7659Y-2.0075
X6.7825Y-2.0075
X6.9534Y-2.7575
X6.97Y-2.7575
X6.995Y-3.5075
X6.995Y-4.2575
X7.0115Y-3.5075
X7.0115Y-4.2575
X7.1825Y-2.0075
X7.199Y-2.0075
X7.3284Y-3.5075
X7.345Y-3.5075
X7.37Y-2.7575
X7.3865Y-2.7575
X7.5159Y-2.0075
X7.5325Y-2.0075
X7.7034Y-2.7575
X7.72Y-2.7575
X7.745Y-3.5075
X7.7615Y-3.5075
X7.9325Y-2.0075
X7.949Y-2.0075
X8.12Y-2.7575
X8.1365Y-2.7575
X8.2659Y-2.0075
X8.2825Y-2.0075
X8.6825Y-2.0075
X8.699Y-2.0075
T2
X4.45Y-3.9825
X5.39Y-3.9825
T3
X1.7325Y-2.0075
X1.92Y-2.7575
X2.295Y-3.5075
X2.4825Y-2.0075
X2.67Y-2.7575
X3.045Y-3.5075
X3.045Y-4.2575
X3.2325Y-2.0075
X3.42Y-2.7575
X3.795Y-3.5075
X3.795Y-4.2575
X3.9825Y-2.0075
X4.17Y-2.7575
X4.45Y-4.5825
X4.545Y-3.5075
X4.7325Y-2.0075
X4.92Y-2.7575
X4.9203Y-4.2575
X5.295Y-3.5075
X5.39Y-4.5825
X5.4825Y-2.0075
X5.67Y-2.7575
X6.045Y-3.5075
X6.045Y-4.2575
X6.2325Y-2.0075
X6.42Y-2.7575
X6.795Y-3.5075
X6.795Y-4.2575
X6.9825Y-2.0075
X7.17Y-2.7575
X7.545Y-3.5075
X7.7325Y-2.0075
X7.92Y-2.7575
X8.4825Y-2.0075
T0
M30
