%TF.GenerationSoftware,KiCad,Pcbnew,(6.0.0-rc1-306-g01eebd0b9d)*%
%TF.CreationDate,2022-03-11T08:49:04+00:00*%
%TF.ProjectId,keyboard,6b657962-6f61-4726-942e-6b696361645f,rev?*%
%TF.SameCoordinates,Original*%
%TF.FileFunction,Legend,Top*%
%TF.FilePolarity,Positive*%
%FSLAX46Y46*%
G04 Gerber Fmt 4.6, Leading zero omitted, Abs format (unit mm)*
G04 Created by KiCad (PCBNEW (6.0.0-rc1-306-g01eebd0b9d)) date 2022-03-11 08:49:04*
%MOMM*%
%LPD*%
G01*
G04 APERTURE LIST*
%ADD10C,0.150000*%
%ADD11C,0.500000*%
%ADD12C,0.300000*%
%ADD13C,0.200000*%
%ADD14C,0.120000*%
%ADD15R,1.600000X1.600000*%
%ADD16C,1.600000*%
%ADD17C,1.752600*%
G04 APERTURE END LIST*
D10*
X71488761Y-61029904D02*
X71488761Y-61601333D01*
X71450666Y-61715619D01*
X71374476Y-61791809D01*
X71260190Y-61829904D01*
X71184000Y-61829904D01*
X72250666Y-61829904D02*
X71869714Y-61829904D01*
X71869714Y-61029904D01*
X72974476Y-61753714D02*
X72936380Y-61791809D01*
X72822095Y-61829904D01*
X72745904Y-61829904D01*
X72631619Y-61791809D01*
X72555428Y-61715619D01*
X72517333Y-61639428D01*
X72479238Y-61487047D01*
X72479238Y-61372761D01*
X72517333Y-61220380D01*
X72555428Y-61144190D01*
X72631619Y-61068000D01*
X72745904Y-61029904D01*
X72822095Y-61029904D01*
X72936380Y-61068000D01*
X72974476Y-61106095D01*
X73545904Y-61029904D02*
X73545904Y-61601333D01*
X73507809Y-61715619D01*
X73431619Y-61791809D01*
X73317333Y-61829904D01*
X73241142Y-61829904D01*
X74307809Y-61829904D02*
X73926857Y-61829904D01*
X73926857Y-61029904D01*
X75031619Y-61753714D02*
X74993523Y-61791809D01*
X74879238Y-61829904D01*
X74803047Y-61829904D01*
X74688761Y-61791809D01*
X74612571Y-61715619D01*
X74574476Y-61639428D01*
X74536380Y-61487047D01*
X74536380Y-61372761D01*
X74574476Y-61220380D01*
X74612571Y-61144190D01*
X74688761Y-61068000D01*
X74803047Y-61029904D01*
X74879238Y-61029904D01*
X74993523Y-61068000D01*
X75031619Y-61106095D01*
X75603047Y-61029904D02*
X75603047Y-61601333D01*
X75564952Y-61715619D01*
X75488761Y-61791809D01*
X75374476Y-61829904D01*
X75298285Y-61829904D01*
X76364952Y-61829904D02*
X75984000Y-61829904D01*
X75984000Y-61029904D01*
X77088761Y-61753714D02*
X77050666Y-61791809D01*
X76936380Y-61829904D01*
X76860190Y-61829904D01*
X76745904Y-61791809D01*
X76669714Y-61715619D01*
X76631619Y-61639428D01*
X76593523Y-61487047D01*
X76593523Y-61372761D01*
X76631619Y-61220380D01*
X76669714Y-61144190D01*
X76745904Y-61068000D01*
X76860190Y-61029904D01*
X76936380Y-61029904D01*
X77050666Y-61068000D01*
X77088761Y-61106095D01*
X77660190Y-61029904D02*
X77660190Y-61601333D01*
X77622095Y-61715619D01*
X77545904Y-61791809D01*
X77431619Y-61829904D01*
X77355428Y-61829904D01*
X78422095Y-61829904D02*
X78041142Y-61829904D01*
X78041142Y-61029904D01*
X79145904Y-61753714D02*
X79107809Y-61791809D01*
X78993523Y-61829904D01*
X78917333Y-61829904D01*
X78803047Y-61791809D01*
X78726857Y-61715619D01*
X78688761Y-61639428D01*
X78650666Y-61487047D01*
X78650666Y-61372761D01*
X78688761Y-61220380D01*
X78726857Y-61144190D01*
X78803047Y-61068000D01*
X78917333Y-61029904D01*
X78993523Y-61029904D01*
X79107809Y-61068000D01*
X79145904Y-61106095D01*
D11*
X33742142Y-76039285D02*
X30742142Y-76039285D01*
X32885000Y-74705952D01*
X30742142Y-73372619D01*
X33742142Y-73372619D01*
X33742142Y-71467857D02*
X31742142Y-71467857D01*
X30742142Y-71467857D02*
X30885000Y-71658333D01*
X31027857Y-71467857D01*
X30885000Y-71277380D01*
X30742142Y-71467857D01*
X31027857Y-71467857D01*
X31742142Y-69563095D02*
X33742142Y-69563095D01*
X32027857Y-69563095D02*
X31885000Y-69372619D01*
X31742142Y-68991666D01*
X31742142Y-68420238D01*
X31885000Y-68039285D01*
X32170714Y-67848809D01*
X33742142Y-67848809D01*
X33742142Y-65944047D02*
X31742142Y-65944047D01*
X30742142Y-65944047D02*
X30885000Y-66134523D01*
X31027857Y-65944047D01*
X30885000Y-65753571D01*
X30742142Y-65944047D01*
X31027857Y-65944047D01*
X33742142Y-64039285D02*
X30742142Y-64039285D01*
X33742142Y-61753571D01*
X30742142Y-61753571D01*
X33742142Y-59277380D02*
X33599285Y-59658333D01*
X33456428Y-59848809D01*
X33170714Y-60039285D01*
X32313571Y-60039285D01*
X32027857Y-59848809D01*
X31885000Y-59658333D01*
X31742142Y-59277380D01*
X31742142Y-58705952D01*
X31885000Y-58325000D01*
X32027857Y-58134523D01*
X32313571Y-57944047D01*
X33170714Y-57944047D01*
X33456428Y-58134523D01*
X33599285Y-58325000D01*
X33742142Y-58705952D01*
X33742142Y-59277380D01*
X31742142Y-56610714D02*
X33742142Y-55658333D01*
X31742142Y-54705952D01*
X33742142Y-51467857D02*
X32170714Y-51467857D01*
X31885000Y-51658333D01*
X31742142Y-52039285D01*
X31742142Y-52801190D01*
X31885000Y-53182142D01*
X33599285Y-51467857D02*
X33742142Y-51848809D01*
X33742142Y-52801190D01*
X33599285Y-53182142D01*
X33313571Y-53372619D01*
X33027857Y-53372619D01*
X32742142Y-53182142D01*
X32599285Y-52801190D01*
X32599285Y-51848809D01*
X32456428Y-51467857D01*
X33742142Y-46515476D02*
X30742142Y-46515476D01*
X33742142Y-44610714D02*
X30742142Y-44610714D01*
D12*
X39276000Y-37524571D02*
X39276000Y-38738857D01*
X39204571Y-38881714D01*
X39133142Y-38953142D01*
X38990285Y-39024571D01*
X38776000Y-39024571D01*
X38633142Y-38953142D01*
X39276000Y-38453142D02*
X39133142Y-38524571D01*
X38847428Y-38524571D01*
X38704571Y-38453142D01*
X38633142Y-38381714D01*
X38561714Y-38238857D01*
X38561714Y-37810285D01*
X38633142Y-37667428D01*
X38704571Y-37596000D01*
X38847428Y-37524571D01*
X39133142Y-37524571D01*
X39276000Y-37596000D01*
X39990285Y-38524571D02*
X39990285Y-37524571D01*
X39990285Y-37024571D02*
X39918857Y-37096000D01*
X39990285Y-37167428D01*
X40061714Y-37096000D01*
X39990285Y-37024571D01*
X39990285Y-37167428D01*
X40490285Y-37524571D02*
X41061714Y-37524571D01*
X40704571Y-37024571D02*
X40704571Y-38310285D01*
X40776000Y-38453142D01*
X40918857Y-38524571D01*
X41061714Y-38524571D01*
X41561714Y-38524571D02*
X41561714Y-37024571D01*
X42204571Y-38524571D02*
X42204571Y-37738857D01*
X42133142Y-37596000D01*
X41990285Y-37524571D01*
X41776000Y-37524571D01*
X41633142Y-37596000D01*
X41561714Y-37667428D01*
X43561714Y-37524571D02*
X43561714Y-38524571D01*
X42918857Y-37524571D02*
X42918857Y-38310285D01*
X42990285Y-38453142D01*
X43133142Y-38524571D01*
X43347428Y-38524571D01*
X43490285Y-38453142D01*
X43561714Y-38381714D01*
X44276000Y-38524571D02*
X44276000Y-37024571D01*
X44276000Y-37596000D02*
X44418857Y-37524571D01*
X44704571Y-37524571D01*
X44847428Y-37596000D01*
X44918857Y-37667428D01*
X44990285Y-37810285D01*
X44990285Y-38238857D01*
X44918857Y-38381714D01*
X44847428Y-38453142D01*
X44704571Y-38524571D01*
X44418857Y-38524571D01*
X44276000Y-38453142D01*
X45633142Y-38381714D02*
X45704571Y-38453142D01*
X45633142Y-38524571D01*
X45561714Y-38453142D01*
X45633142Y-38381714D01*
X45633142Y-38524571D01*
X46990285Y-38453142D02*
X46847428Y-38524571D01*
X46561714Y-38524571D01*
X46418857Y-38453142D01*
X46347428Y-38381714D01*
X46276000Y-38238857D01*
X46276000Y-37810285D01*
X46347428Y-37667428D01*
X46418857Y-37596000D01*
X46561714Y-37524571D01*
X46847428Y-37524571D01*
X46990285Y-37596000D01*
X47847428Y-38524571D02*
X47704571Y-38453142D01*
X47633142Y-38381714D01*
X47561714Y-38238857D01*
X47561714Y-37810285D01*
X47633142Y-37667428D01*
X47704571Y-37596000D01*
X47847428Y-37524571D01*
X48061714Y-37524571D01*
X48204571Y-37596000D01*
X48276000Y-37667428D01*
X48347428Y-37810285D01*
X48347428Y-38238857D01*
X48276000Y-38381714D01*
X48204571Y-38453142D01*
X48061714Y-38524571D01*
X47847428Y-38524571D01*
X48990285Y-38524571D02*
X48990285Y-37524571D01*
X48990285Y-37667428D02*
X49061714Y-37596000D01*
X49204571Y-37524571D01*
X49418857Y-37524571D01*
X49561714Y-37596000D01*
X49633142Y-37738857D01*
X49633142Y-38524571D01*
X49633142Y-37738857D02*
X49704571Y-37596000D01*
X49847428Y-37524571D01*
X50061714Y-37524571D01*
X50204571Y-37596000D01*
X50276000Y-37738857D01*
X50276000Y-38524571D01*
X52061714Y-36953142D02*
X50776000Y-38881714D01*
X52347428Y-37524571D02*
X52918857Y-37524571D01*
X52561714Y-37024571D02*
X52561714Y-38310285D01*
X52633142Y-38453142D01*
X52776000Y-38524571D01*
X52918857Y-38524571D01*
X53418857Y-37524571D02*
X53418857Y-38810285D01*
X53347428Y-38953142D01*
X53204571Y-39024571D01*
X53133142Y-39024571D01*
X53418857Y-37024571D02*
X53347428Y-37096000D01*
X53418857Y-37167428D01*
X53490285Y-37096000D01*
X53418857Y-37024571D01*
X53418857Y-37167428D01*
X54704571Y-38453142D02*
X54561714Y-38524571D01*
X54276000Y-38524571D01*
X54133142Y-38453142D01*
X54061714Y-38310285D01*
X54061714Y-37738857D01*
X54133142Y-37596000D01*
X54276000Y-37524571D01*
X54561714Y-37524571D01*
X54704571Y-37596000D01*
X54776000Y-37738857D01*
X54776000Y-37881714D01*
X54061714Y-38024571D01*
X55204571Y-37524571D02*
X55776000Y-37524571D01*
X55418857Y-38524571D02*
X55418857Y-37238857D01*
X55490285Y-37096000D01*
X55633142Y-37024571D01*
X55776000Y-37024571D01*
X56061714Y-37524571D02*
X56633142Y-37524571D01*
X56276000Y-38524571D02*
X56276000Y-37238857D01*
X56347428Y-37096000D01*
X56490285Y-37024571D01*
X56633142Y-37024571D01*
X57133142Y-38524571D02*
X57133142Y-37524571D01*
X57133142Y-37810285D02*
X57204571Y-37667428D01*
X57276000Y-37596000D01*
X57418857Y-37524571D01*
X57561714Y-37524571D01*
X58633142Y-38453142D02*
X58490285Y-38524571D01*
X58204571Y-38524571D01*
X58061714Y-38453142D01*
X57990285Y-38310285D01*
X57990285Y-37738857D01*
X58061714Y-37596000D01*
X58204571Y-37524571D01*
X58490285Y-37524571D01*
X58633142Y-37596000D01*
X58704571Y-37738857D01*
X58704571Y-37881714D01*
X57990285Y-38024571D01*
X59918857Y-38453142D02*
X59776000Y-38524571D01*
X59490285Y-38524571D01*
X59347428Y-38453142D01*
X59276000Y-38310285D01*
X59276000Y-37738857D01*
X59347428Y-37596000D01*
X59490285Y-37524571D01*
X59776000Y-37524571D01*
X59918857Y-37596000D01*
X59990285Y-37738857D01*
X59990285Y-37881714D01*
X59276000Y-38024571D01*
D10*
X123499761Y-100782380D02*
X123499761Y-99782380D01*
X124071190Y-100782380D02*
X123642619Y-100210952D01*
X124071190Y-99782380D02*
X123499761Y-100353809D01*
X124261666Y-100877619D02*
X125023571Y-100877619D01*
X125214047Y-99877619D02*
X125261666Y-99830000D01*
X125356904Y-99782380D01*
X125595000Y-99782380D01*
X125690238Y-99830000D01*
X125737857Y-99877619D01*
X125785476Y-99972857D01*
X125785476Y-100068095D01*
X125737857Y-100210952D01*
X125166428Y-100782380D01*
X125785476Y-100782380D01*
X126261666Y-100782380D02*
X126452142Y-100782380D01*
X126547380Y-100734761D01*
X126595000Y-100687142D01*
X126690238Y-100544285D01*
X126737857Y-100353809D01*
X126737857Y-99972857D01*
X126690238Y-99877619D01*
X126642619Y-99830000D01*
X126547380Y-99782380D01*
X126356904Y-99782380D01*
X126261666Y-99830000D01*
X126214047Y-99877619D01*
X126166428Y-99972857D01*
X126166428Y-100210952D01*
X126214047Y-100306190D01*
X126261666Y-100353809D01*
X126356904Y-100401428D01*
X126547380Y-100401428D01*
X126642619Y-100353809D01*
X126690238Y-100306190D01*
X126737857Y-100210952D01*
D13*
X55676952Y-100691904D02*
X55676952Y-100158571D01*
X55676952Y-100310952D02*
X55715047Y-100234761D01*
X55753142Y-100196666D01*
X55829333Y-100158571D01*
X55905523Y-100158571D01*
X56286476Y-100691904D02*
X56210285Y-100653809D01*
X56172190Y-100615714D01*
X56134095Y-100539523D01*
X56134095Y-100310952D01*
X56172190Y-100234761D01*
X56210285Y-100196666D01*
X56286476Y-100158571D01*
X56400761Y-100158571D01*
X56476952Y-100196666D01*
X56515047Y-100234761D01*
X56553142Y-100310952D01*
X56553142Y-100539523D01*
X56515047Y-100615714D01*
X56476952Y-100653809D01*
X56400761Y-100691904D01*
X56286476Y-100691904D01*
X56819809Y-100158571D02*
X56972190Y-100691904D01*
X57124571Y-100310952D01*
X57276952Y-100691904D01*
X57429333Y-100158571D01*
X57696000Y-99968095D02*
X57734095Y-99930000D01*
X57810285Y-99891904D01*
X58000761Y-99891904D01*
X58076952Y-99930000D01*
X58115047Y-99968095D01*
X58153142Y-100044285D01*
X58153142Y-100120476D01*
X58115047Y-100234761D01*
X57657904Y-100691904D01*
X58153142Y-100691904D01*
X37642952Y-77577904D02*
X37642952Y-77044571D01*
X37642952Y-77196952D02*
X37681047Y-77120761D01*
X37719142Y-77082666D01*
X37795333Y-77044571D01*
X37871523Y-77044571D01*
X38252476Y-77577904D02*
X38176285Y-77539809D01*
X38138190Y-77501714D01*
X38100095Y-77425523D01*
X38100095Y-77196952D01*
X38138190Y-77120761D01*
X38176285Y-77082666D01*
X38252476Y-77044571D01*
X38366761Y-77044571D01*
X38442952Y-77082666D01*
X38481047Y-77120761D01*
X38519142Y-77196952D01*
X38519142Y-77425523D01*
X38481047Y-77501714D01*
X38442952Y-77539809D01*
X38366761Y-77577904D01*
X38252476Y-77577904D01*
X38785809Y-77044571D02*
X38938190Y-77577904D01*
X39090571Y-77196952D01*
X39242952Y-77577904D01*
X39395333Y-77044571D01*
X40119142Y-77577904D02*
X39662000Y-77577904D01*
X39890571Y-77577904D02*
X39890571Y-76777904D01*
X39814380Y-76892190D01*
X39738190Y-76968380D01*
X39662000Y-77006476D01*
X216966952Y-69703904D02*
X216966952Y-69170571D01*
X216966952Y-69322952D02*
X217005047Y-69246761D01*
X217043142Y-69208666D01*
X217119333Y-69170571D01*
X217195523Y-69170571D01*
X217576476Y-69703904D02*
X217500285Y-69665809D01*
X217462190Y-69627714D01*
X217424095Y-69551523D01*
X217424095Y-69322952D01*
X217462190Y-69246761D01*
X217500285Y-69208666D01*
X217576476Y-69170571D01*
X217690761Y-69170571D01*
X217766952Y-69208666D01*
X217805047Y-69246761D01*
X217843142Y-69322952D01*
X217843142Y-69551523D01*
X217805047Y-69627714D01*
X217766952Y-69665809D01*
X217690761Y-69703904D01*
X217576476Y-69703904D01*
X218109809Y-69170571D02*
X218262190Y-69703904D01*
X218414571Y-69322952D01*
X218566952Y-69703904D01*
X218719333Y-69170571D01*
X219176476Y-68903904D02*
X219252666Y-68903904D01*
X219328857Y-68942000D01*
X219366952Y-68980095D01*
X219405047Y-69056285D01*
X219443142Y-69208666D01*
X219443142Y-69399142D01*
X219405047Y-69551523D01*
X219366952Y-69627714D01*
X219328857Y-69665809D01*
X219252666Y-69703904D01*
X219176476Y-69703904D01*
X219100285Y-69665809D01*
X219062190Y-69627714D01*
X219024095Y-69551523D01*
X218986000Y-69399142D01*
X218986000Y-69208666D01*
X219024095Y-69056285D01*
X219062190Y-68980095D01*
X219100285Y-68942000D01*
X219176476Y-68903904D01*
X199379461Y-82276480D02*
X199379461Y-81476480D01*
X199569937Y-81476480D01*
X199684223Y-81514576D01*
X199760413Y-81590766D01*
X199798508Y-81666956D01*
X199836604Y-81819337D01*
X199836604Y-81933623D01*
X199798508Y-82086004D01*
X199760413Y-82162195D01*
X199684223Y-82238385D01*
X199569937Y-82276480D01*
X199379461Y-82276480D01*
X199988985Y-82352671D02*
X200598508Y-82352671D01*
X204520952Y-82403904D02*
X204520952Y-81870571D01*
X204520952Y-82022952D02*
X204559047Y-81946761D01*
X204597142Y-81908666D01*
X204673333Y-81870571D01*
X204749523Y-81870571D01*
X205130476Y-82403904D02*
X205054285Y-82365809D01*
X205016190Y-82327714D01*
X204978095Y-82251523D01*
X204978095Y-82022952D01*
X205016190Y-81946761D01*
X205054285Y-81908666D01*
X205130476Y-81870571D01*
X205244761Y-81870571D01*
X205320952Y-81908666D01*
X205359047Y-81946761D01*
X205397142Y-82022952D01*
X205397142Y-82251523D01*
X205359047Y-82327714D01*
X205320952Y-82365809D01*
X205244761Y-82403904D01*
X205130476Y-82403904D01*
X205663809Y-81870571D02*
X205816190Y-82403904D01*
X205968571Y-82022952D01*
X206120952Y-82403904D01*
X206273333Y-81870571D01*
X206501904Y-81603904D02*
X206997142Y-81603904D01*
X206730476Y-81908666D01*
X206844761Y-81908666D01*
X206920952Y-81946761D01*
X206959047Y-81984857D01*
X206997142Y-82061047D01*
X206997142Y-82251523D01*
X206959047Y-82327714D01*
X206920952Y-82365809D01*
X206844761Y-82403904D01*
X206616190Y-82403904D01*
X206540000Y-82365809D01*
X206501904Y-82327714D01*
D10*
%TO.C,D_31*%
X198102187Y-84255253D02*
X198102187Y-83455253D01*
X198292663Y-83455253D01*
X198406949Y-83493349D01*
X198483139Y-83569539D01*
X198521235Y-83645729D01*
X198559330Y-83798110D01*
X198559330Y-83912396D01*
X198521235Y-84064777D01*
X198483139Y-84140968D01*
X198406949Y-84217158D01*
X198292663Y-84255253D01*
X198102187Y-84255253D01*
X198711711Y-84331444D02*
X199321235Y-84331444D01*
X199435520Y-83455253D02*
X199930758Y-83455253D01*
X199664092Y-83760015D01*
X199778378Y-83760015D01*
X199854568Y-83798110D01*
X199892663Y-83836206D01*
X199930758Y-83912396D01*
X199930758Y-84102872D01*
X199892663Y-84179063D01*
X199854568Y-84217158D01*
X199778378Y-84255253D01*
X199549806Y-84255253D01*
X199473616Y-84217158D01*
X199435520Y-84179063D01*
X200692663Y-84255253D02*
X200235520Y-84255253D01*
X200464092Y-84255253D02*
X200464092Y-83455253D01*
X200387901Y-83569539D01*
X200311711Y-83645729D01*
X200235520Y-83683825D01*
%TO.C,D_30*%
X198102187Y-86795253D02*
X198102187Y-85995253D01*
X198292663Y-85995253D01*
X198406949Y-86033349D01*
X198483139Y-86109539D01*
X198521235Y-86185729D01*
X198559330Y-86338110D01*
X198559330Y-86452396D01*
X198521235Y-86604777D01*
X198483139Y-86680968D01*
X198406949Y-86757158D01*
X198292663Y-86795253D01*
X198102187Y-86795253D01*
X198711711Y-86871444D02*
X199321235Y-86871444D01*
X199435520Y-85995253D02*
X199930758Y-85995253D01*
X199664092Y-86300015D01*
X199778378Y-86300015D01*
X199854568Y-86338110D01*
X199892663Y-86376206D01*
X199930758Y-86452396D01*
X199930758Y-86642872D01*
X199892663Y-86719063D01*
X199854568Y-86757158D01*
X199778378Y-86795253D01*
X199549806Y-86795253D01*
X199473616Y-86757158D01*
X199435520Y-86719063D01*
X200425997Y-85995253D02*
X200502187Y-85995253D01*
X200578378Y-86033349D01*
X200616473Y-86071444D01*
X200654568Y-86147634D01*
X200692663Y-86300015D01*
X200692663Y-86490491D01*
X200654568Y-86642872D01*
X200616473Y-86719063D01*
X200578378Y-86757158D01*
X200502187Y-86795253D01*
X200425997Y-86795253D01*
X200349806Y-86757158D01*
X200311711Y-86719063D01*
X200273616Y-86642872D01*
X200235520Y-86490491D01*
X200235520Y-86300015D01*
X200273616Y-86147634D01*
X200311711Y-86071444D01*
X200349806Y-86033349D01*
X200425997Y-85995253D01*
%TO.C,D_29*%
X198102187Y-89333718D02*
X198102187Y-88533718D01*
X198292663Y-88533718D01*
X198406949Y-88571814D01*
X198483139Y-88648004D01*
X198521235Y-88724194D01*
X198559330Y-88876575D01*
X198559330Y-88990861D01*
X198521235Y-89143242D01*
X198483139Y-89219433D01*
X198406949Y-89295623D01*
X198292663Y-89333718D01*
X198102187Y-89333718D01*
X198711711Y-89409909D02*
X199321235Y-89409909D01*
X199473616Y-88609909D02*
X199511711Y-88571814D01*
X199587901Y-88533718D01*
X199778378Y-88533718D01*
X199854568Y-88571814D01*
X199892663Y-88609909D01*
X199930758Y-88686099D01*
X199930758Y-88762290D01*
X199892663Y-88876575D01*
X199435520Y-89333718D01*
X199930758Y-89333718D01*
X200311711Y-89333718D02*
X200464092Y-89333718D01*
X200540282Y-89295623D01*
X200578378Y-89257528D01*
X200654568Y-89143242D01*
X200692663Y-88990861D01*
X200692663Y-88686099D01*
X200654568Y-88609909D01*
X200616473Y-88571814D01*
X200540282Y-88533718D01*
X200387901Y-88533718D01*
X200311711Y-88571814D01*
X200273616Y-88609909D01*
X200235520Y-88686099D01*
X200235520Y-88876575D01*
X200273616Y-88952766D01*
X200311711Y-88990861D01*
X200387901Y-89028956D01*
X200540282Y-89028956D01*
X200616473Y-88990861D01*
X200654568Y-88952766D01*
X200692663Y-88876575D01*
%TO.C,D_28*%
X198102187Y-91873718D02*
X198102187Y-91073718D01*
X198292663Y-91073718D01*
X198406949Y-91111814D01*
X198483139Y-91188004D01*
X198521235Y-91264194D01*
X198559330Y-91416575D01*
X198559330Y-91530861D01*
X198521235Y-91683242D01*
X198483139Y-91759433D01*
X198406949Y-91835623D01*
X198292663Y-91873718D01*
X198102187Y-91873718D01*
X198711711Y-91949909D02*
X199321235Y-91949909D01*
X199473616Y-91149909D02*
X199511711Y-91111814D01*
X199587901Y-91073718D01*
X199778378Y-91073718D01*
X199854568Y-91111814D01*
X199892663Y-91149909D01*
X199930758Y-91226099D01*
X199930758Y-91302290D01*
X199892663Y-91416575D01*
X199435520Y-91873718D01*
X199930758Y-91873718D01*
X200387901Y-91416575D02*
X200311711Y-91378480D01*
X200273616Y-91340385D01*
X200235520Y-91264194D01*
X200235520Y-91226099D01*
X200273616Y-91149909D01*
X200311711Y-91111814D01*
X200387901Y-91073718D01*
X200540282Y-91073718D01*
X200616473Y-91111814D01*
X200654568Y-91149909D01*
X200692663Y-91226099D01*
X200692663Y-91264194D01*
X200654568Y-91340385D01*
X200616473Y-91378480D01*
X200540282Y-91416575D01*
X200387901Y-91416575D01*
X200311711Y-91454671D01*
X200273616Y-91492766D01*
X200235520Y-91568956D01*
X200235520Y-91721337D01*
X200273616Y-91797528D01*
X200311711Y-91835623D01*
X200387901Y-91873718D01*
X200540282Y-91873718D01*
X200616473Y-91835623D01*
X200654568Y-91797528D01*
X200692663Y-91721337D01*
X200692663Y-91568956D01*
X200654568Y-91492766D01*
X200616473Y-91454671D01*
X200540282Y-91416575D01*
%TO.C,D_27*%
X198102187Y-94415253D02*
X198102187Y-93615253D01*
X198292663Y-93615253D01*
X198406949Y-93653349D01*
X198483139Y-93729539D01*
X198521235Y-93805729D01*
X198559330Y-93958110D01*
X198559330Y-94072396D01*
X198521235Y-94224777D01*
X198483139Y-94300968D01*
X198406949Y-94377158D01*
X198292663Y-94415253D01*
X198102187Y-94415253D01*
X198711711Y-94491444D02*
X199321235Y-94491444D01*
X199473616Y-93691444D02*
X199511711Y-93653349D01*
X199587901Y-93615253D01*
X199778378Y-93615253D01*
X199854568Y-93653349D01*
X199892663Y-93691444D01*
X199930758Y-93767634D01*
X199930758Y-93843825D01*
X199892663Y-93958110D01*
X199435520Y-94415253D01*
X199930758Y-94415253D01*
X200197425Y-93615253D02*
X200730758Y-93615253D01*
X200387901Y-94415253D01*
%TO.C,D_26*%
X56635809Y-110089904D02*
X56635809Y-109289904D01*
X56826285Y-109289904D01*
X56940571Y-109328000D01*
X57016761Y-109404190D01*
X57054857Y-109480380D01*
X57092952Y-109632761D01*
X57092952Y-109747047D01*
X57054857Y-109899428D01*
X57016761Y-109975619D01*
X56940571Y-110051809D01*
X56826285Y-110089904D01*
X56635809Y-110089904D01*
X57245333Y-110166095D02*
X57854857Y-110166095D01*
X58007238Y-109366095D02*
X58045333Y-109328000D01*
X58121523Y-109289904D01*
X58312000Y-109289904D01*
X58388190Y-109328000D01*
X58426285Y-109366095D01*
X58464380Y-109442285D01*
X58464380Y-109518476D01*
X58426285Y-109632761D01*
X57969142Y-110089904D01*
X58464380Y-110089904D01*
X59150095Y-109289904D02*
X58997714Y-109289904D01*
X58921523Y-109328000D01*
X58883428Y-109366095D01*
X58807238Y-109480380D01*
X58769142Y-109632761D01*
X58769142Y-109937523D01*
X58807238Y-110013714D01*
X58845333Y-110051809D01*
X58921523Y-110089904D01*
X59073904Y-110089904D01*
X59150095Y-110051809D01*
X59188190Y-110013714D01*
X59226285Y-109937523D01*
X59226285Y-109747047D01*
X59188190Y-109670857D01*
X59150095Y-109632761D01*
X59073904Y-109594666D01*
X58921523Y-109594666D01*
X58845333Y-109632761D01*
X58807238Y-109670857D01*
X58769142Y-109747047D01*
%TO.C,D_25*%
X56635809Y-107549904D02*
X56635809Y-106749904D01*
X56826285Y-106749904D01*
X56940571Y-106788000D01*
X57016761Y-106864190D01*
X57054857Y-106940380D01*
X57092952Y-107092761D01*
X57092952Y-107207047D01*
X57054857Y-107359428D01*
X57016761Y-107435619D01*
X56940571Y-107511809D01*
X56826285Y-107549904D01*
X56635809Y-107549904D01*
X57245333Y-107626095D02*
X57854857Y-107626095D01*
X58007238Y-106826095D02*
X58045333Y-106788000D01*
X58121523Y-106749904D01*
X58312000Y-106749904D01*
X58388190Y-106788000D01*
X58426285Y-106826095D01*
X58464380Y-106902285D01*
X58464380Y-106978476D01*
X58426285Y-107092761D01*
X57969142Y-107549904D01*
X58464380Y-107549904D01*
X59188190Y-106749904D02*
X58807238Y-106749904D01*
X58769142Y-107130857D01*
X58807238Y-107092761D01*
X58883428Y-107054666D01*
X59073904Y-107054666D01*
X59150095Y-107092761D01*
X59188190Y-107130857D01*
X59226285Y-107207047D01*
X59226285Y-107397523D01*
X59188190Y-107473714D01*
X59150095Y-107511809D01*
X59073904Y-107549904D01*
X58883428Y-107549904D01*
X58807238Y-107511809D01*
X58769142Y-107473714D01*
%TO.C,D_24*%
X56635809Y-105009904D02*
X56635809Y-104209904D01*
X56826285Y-104209904D01*
X56940571Y-104248000D01*
X57016761Y-104324190D01*
X57054857Y-104400380D01*
X57092952Y-104552761D01*
X57092952Y-104667047D01*
X57054857Y-104819428D01*
X57016761Y-104895619D01*
X56940571Y-104971809D01*
X56826285Y-105009904D01*
X56635809Y-105009904D01*
X57245333Y-105086095D02*
X57854857Y-105086095D01*
X58007238Y-104286095D02*
X58045333Y-104248000D01*
X58121523Y-104209904D01*
X58312000Y-104209904D01*
X58388190Y-104248000D01*
X58426285Y-104286095D01*
X58464380Y-104362285D01*
X58464380Y-104438476D01*
X58426285Y-104552761D01*
X57969142Y-105009904D01*
X58464380Y-105009904D01*
X59150095Y-104476571D02*
X59150095Y-105009904D01*
X58959619Y-104171809D02*
X58769142Y-104743238D01*
X59264380Y-104743238D01*
%TO.C,D_23*%
X56635809Y-102469904D02*
X56635809Y-101669904D01*
X56826285Y-101669904D01*
X56940571Y-101708000D01*
X57016761Y-101784190D01*
X57054857Y-101860380D01*
X57092952Y-102012761D01*
X57092952Y-102127047D01*
X57054857Y-102279428D01*
X57016761Y-102355619D01*
X56940571Y-102431809D01*
X56826285Y-102469904D01*
X56635809Y-102469904D01*
X57245333Y-102546095D02*
X57854857Y-102546095D01*
X58007238Y-101746095D02*
X58045333Y-101708000D01*
X58121523Y-101669904D01*
X58312000Y-101669904D01*
X58388190Y-101708000D01*
X58426285Y-101746095D01*
X58464380Y-101822285D01*
X58464380Y-101898476D01*
X58426285Y-102012761D01*
X57969142Y-102469904D01*
X58464380Y-102469904D01*
X58731047Y-101669904D02*
X59226285Y-101669904D01*
X58959619Y-101974666D01*
X59073904Y-101974666D01*
X59150095Y-102012761D01*
X59188190Y-102050857D01*
X59226285Y-102127047D01*
X59226285Y-102317523D01*
X59188190Y-102393714D01*
X59150095Y-102431809D01*
X59073904Y-102469904D01*
X58845333Y-102469904D01*
X58769142Y-102431809D01*
X58731047Y-102393714D01*
%TO.C,D_22*%
X42919809Y-110089904D02*
X42919809Y-109289904D01*
X43110285Y-109289904D01*
X43224571Y-109328000D01*
X43300761Y-109404190D01*
X43338857Y-109480380D01*
X43376952Y-109632761D01*
X43376952Y-109747047D01*
X43338857Y-109899428D01*
X43300761Y-109975619D01*
X43224571Y-110051809D01*
X43110285Y-110089904D01*
X42919809Y-110089904D01*
X43529333Y-110166095D02*
X44138857Y-110166095D01*
X44291238Y-109366095D02*
X44329333Y-109328000D01*
X44405523Y-109289904D01*
X44596000Y-109289904D01*
X44672190Y-109328000D01*
X44710285Y-109366095D01*
X44748380Y-109442285D01*
X44748380Y-109518476D01*
X44710285Y-109632761D01*
X44253142Y-110089904D01*
X44748380Y-110089904D01*
X45053142Y-109366095D02*
X45091238Y-109328000D01*
X45167428Y-109289904D01*
X45357904Y-109289904D01*
X45434095Y-109328000D01*
X45472190Y-109366095D01*
X45510285Y-109442285D01*
X45510285Y-109518476D01*
X45472190Y-109632761D01*
X45015047Y-110089904D01*
X45510285Y-110089904D01*
%TO.C,D_21*%
X42919809Y-107549904D02*
X42919809Y-106749904D01*
X43110285Y-106749904D01*
X43224571Y-106788000D01*
X43300761Y-106864190D01*
X43338857Y-106940380D01*
X43376952Y-107092761D01*
X43376952Y-107207047D01*
X43338857Y-107359428D01*
X43300761Y-107435619D01*
X43224571Y-107511809D01*
X43110285Y-107549904D01*
X42919809Y-107549904D01*
X43529333Y-107626095D02*
X44138857Y-107626095D01*
X44291238Y-106826095D02*
X44329333Y-106788000D01*
X44405523Y-106749904D01*
X44596000Y-106749904D01*
X44672190Y-106788000D01*
X44710285Y-106826095D01*
X44748380Y-106902285D01*
X44748380Y-106978476D01*
X44710285Y-107092761D01*
X44253142Y-107549904D01*
X44748380Y-107549904D01*
X45510285Y-107549904D02*
X45053142Y-107549904D01*
X45281714Y-107549904D02*
X45281714Y-106749904D01*
X45205523Y-106864190D01*
X45129333Y-106940380D01*
X45053142Y-106978476D01*
%TO.C,D_20*%
X42919809Y-105009904D02*
X42919809Y-104209904D01*
X43110285Y-104209904D01*
X43224571Y-104248000D01*
X43300761Y-104324190D01*
X43338857Y-104400380D01*
X43376952Y-104552761D01*
X43376952Y-104667047D01*
X43338857Y-104819428D01*
X43300761Y-104895619D01*
X43224571Y-104971809D01*
X43110285Y-105009904D01*
X42919809Y-105009904D01*
X43529333Y-105086095D02*
X44138857Y-105086095D01*
X44291238Y-104286095D02*
X44329333Y-104248000D01*
X44405523Y-104209904D01*
X44596000Y-104209904D01*
X44672190Y-104248000D01*
X44710285Y-104286095D01*
X44748380Y-104362285D01*
X44748380Y-104438476D01*
X44710285Y-104552761D01*
X44253142Y-105009904D01*
X44748380Y-105009904D01*
X45243619Y-104209904D02*
X45319809Y-104209904D01*
X45396000Y-104248000D01*
X45434095Y-104286095D01*
X45472190Y-104362285D01*
X45510285Y-104514666D01*
X45510285Y-104705142D01*
X45472190Y-104857523D01*
X45434095Y-104933714D01*
X45396000Y-104971809D01*
X45319809Y-105009904D01*
X45243619Y-105009904D01*
X45167428Y-104971809D01*
X45129333Y-104933714D01*
X45091238Y-104857523D01*
X45053142Y-104705142D01*
X45053142Y-104514666D01*
X45091238Y-104362285D01*
X45129333Y-104286095D01*
X45167428Y-104248000D01*
X45243619Y-104209904D01*
%TO.C,D_19*%
X42919809Y-102469904D02*
X42919809Y-101669904D01*
X43110285Y-101669904D01*
X43224571Y-101708000D01*
X43300761Y-101784190D01*
X43338857Y-101860380D01*
X43376952Y-102012761D01*
X43376952Y-102127047D01*
X43338857Y-102279428D01*
X43300761Y-102355619D01*
X43224571Y-102431809D01*
X43110285Y-102469904D01*
X42919809Y-102469904D01*
X43529333Y-102546095D02*
X44138857Y-102546095D01*
X44748380Y-102469904D02*
X44291238Y-102469904D01*
X44519809Y-102469904D02*
X44519809Y-101669904D01*
X44443619Y-101784190D01*
X44367428Y-101860380D01*
X44291238Y-101898476D01*
X45129333Y-102469904D02*
X45281714Y-102469904D01*
X45357904Y-102431809D01*
X45396000Y-102393714D01*
X45472190Y-102279428D01*
X45510285Y-102127047D01*
X45510285Y-101822285D01*
X45472190Y-101746095D01*
X45434095Y-101708000D01*
X45357904Y-101669904D01*
X45205523Y-101669904D01*
X45129333Y-101708000D01*
X45091238Y-101746095D01*
X45053142Y-101822285D01*
X45053142Y-102012761D01*
X45091238Y-102088952D01*
X45129333Y-102127047D01*
X45205523Y-102165142D01*
X45357904Y-102165142D01*
X45434095Y-102127047D01*
X45472190Y-102088952D01*
X45510285Y-102012761D01*
%TO.C,D_18*%
X36861498Y-99704327D02*
X36861498Y-98904327D01*
X37051974Y-98904327D01*
X37166260Y-98942423D01*
X37242450Y-99018613D01*
X37280546Y-99094803D01*
X37318641Y-99247184D01*
X37318641Y-99361470D01*
X37280546Y-99513851D01*
X37242450Y-99590042D01*
X37166260Y-99666232D01*
X37051974Y-99704327D01*
X36861498Y-99704327D01*
X37471022Y-99780518D02*
X38080546Y-99780518D01*
X38690069Y-99704327D02*
X38232927Y-99704327D01*
X38461498Y-99704327D02*
X38461498Y-98904327D01*
X38385308Y-99018613D01*
X38309117Y-99094803D01*
X38232927Y-99132899D01*
X39147212Y-99247184D02*
X39071022Y-99209089D01*
X39032927Y-99170994D01*
X38994831Y-99094803D01*
X38994831Y-99056708D01*
X39032927Y-98980518D01*
X39071022Y-98942423D01*
X39147212Y-98904327D01*
X39299593Y-98904327D01*
X39375784Y-98942423D01*
X39413879Y-98980518D01*
X39451974Y-99056708D01*
X39451974Y-99094803D01*
X39413879Y-99170994D01*
X39375784Y-99209089D01*
X39299593Y-99247184D01*
X39147212Y-99247184D01*
X39071022Y-99285280D01*
X39032927Y-99323375D01*
X38994831Y-99399565D01*
X38994831Y-99551946D01*
X39032927Y-99628137D01*
X39071022Y-99666232D01*
X39147212Y-99704327D01*
X39299593Y-99704327D01*
X39375784Y-99666232D01*
X39413879Y-99628137D01*
X39451974Y-99551946D01*
X39451974Y-99399565D01*
X39413879Y-99323375D01*
X39375784Y-99285280D01*
X39299593Y-99247184D01*
%TO.C,D_17*%
X36860749Y-97243981D02*
X36860749Y-96443981D01*
X37051225Y-96443981D01*
X37165511Y-96482077D01*
X37241701Y-96558267D01*
X37279797Y-96634457D01*
X37317892Y-96786838D01*
X37317892Y-96901124D01*
X37279797Y-97053505D01*
X37241701Y-97129696D01*
X37165511Y-97205886D01*
X37051225Y-97243981D01*
X36860749Y-97243981D01*
X37470273Y-97320172D02*
X38079797Y-97320172D01*
X38689320Y-97243981D02*
X38232178Y-97243981D01*
X38460749Y-97243981D02*
X38460749Y-96443981D01*
X38384559Y-96558267D01*
X38308368Y-96634457D01*
X38232178Y-96672553D01*
X38955987Y-96443981D02*
X39489320Y-96443981D01*
X39146463Y-97243981D01*
%TO.C,D_16*%
X36860749Y-94703981D02*
X36860749Y-93903981D01*
X37051225Y-93903981D01*
X37165511Y-93942077D01*
X37241701Y-94018267D01*
X37279797Y-94094457D01*
X37317892Y-94246838D01*
X37317892Y-94361124D01*
X37279797Y-94513505D01*
X37241701Y-94589696D01*
X37165511Y-94665886D01*
X37051225Y-94703981D01*
X36860749Y-94703981D01*
X37470273Y-94780172D02*
X38079797Y-94780172D01*
X38689320Y-94703981D02*
X38232178Y-94703981D01*
X38460749Y-94703981D02*
X38460749Y-93903981D01*
X38384559Y-94018267D01*
X38308368Y-94094457D01*
X38232178Y-94132553D01*
X39375035Y-93903981D02*
X39222654Y-93903981D01*
X39146463Y-93942077D01*
X39108368Y-93980172D01*
X39032178Y-94094457D01*
X38994082Y-94246838D01*
X38994082Y-94551600D01*
X39032178Y-94627791D01*
X39070273Y-94665886D01*
X39146463Y-94703981D01*
X39298844Y-94703981D01*
X39375035Y-94665886D01*
X39413130Y-94627791D01*
X39451225Y-94551600D01*
X39451225Y-94361124D01*
X39413130Y-94284934D01*
X39375035Y-94246838D01*
X39298844Y-94208743D01*
X39146463Y-94208743D01*
X39070273Y-94246838D01*
X39032178Y-94284934D01*
X38994082Y-94361124D01*
%TO.C,D_15*%
X36860749Y-92163981D02*
X36860749Y-91363981D01*
X37051225Y-91363981D01*
X37165511Y-91402077D01*
X37241701Y-91478267D01*
X37279797Y-91554457D01*
X37317892Y-91706838D01*
X37317892Y-91821124D01*
X37279797Y-91973505D01*
X37241701Y-92049696D01*
X37165511Y-92125886D01*
X37051225Y-92163981D01*
X36860749Y-92163981D01*
X37470273Y-92240172D02*
X38079797Y-92240172D01*
X38689320Y-92163981D02*
X38232178Y-92163981D01*
X38460749Y-92163981D02*
X38460749Y-91363981D01*
X38384559Y-91478267D01*
X38308368Y-91554457D01*
X38232178Y-91592553D01*
X39413130Y-91363981D02*
X39032178Y-91363981D01*
X38994082Y-91744934D01*
X39032178Y-91706838D01*
X39108368Y-91668743D01*
X39298844Y-91668743D01*
X39375035Y-91706838D01*
X39413130Y-91744934D01*
X39451225Y-91821124D01*
X39451225Y-92011600D01*
X39413130Y-92087791D01*
X39375035Y-92125886D01*
X39298844Y-92163981D01*
X39108368Y-92163981D01*
X39032178Y-92125886D01*
X38994082Y-92087791D01*
%TO.C,D_14*%
X36860749Y-89623981D02*
X36860749Y-88823981D01*
X37051225Y-88823981D01*
X37165511Y-88862077D01*
X37241701Y-88938267D01*
X37279797Y-89014457D01*
X37317892Y-89166838D01*
X37317892Y-89281124D01*
X37279797Y-89433505D01*
X37241701Y-89509696D01*
X37165511Y-89585886D01*
X37051225Y-89623981D01*
X36860749Y-89623981D01*
X37470273Y-89700172D02*
X38079797Y-89700172D01*
X38689320Y-89623981D02*
X38232178Y-89623981D01*
X38460749Y-89623981D02*
X38460749Y-88823981D01*
X38384559Y-88938267D01*
X38308368Y-89014457D01*
X38232178Y-89052553D01*
X39375035Y-89090648D02*
X39375035Y-89623981D01*
X39184559Y-88785886D02*
X38994082Y-89357315D01*
X39489320Y-89357315D01*
%TO.C,D_13*%
X36860749Y-87083981D02*
X36860749Y-86283981D01*
X37051225Y-86283981D01*
X37165511Y-86322077D01*
X37241701Y-86398267D01*
X37279797Y-86474457D01*
X37317892Y-86626838D01*
X37317892Y-86741124D01*
X37279797Y-86893505D01*
X37241701Y-86969696D01*
X37165511Y-87045886D01*
X37051225Y-87083981D01*
X36860749Y-87083981D01*
X37470273Y-87160172D02*
X38079797Y-87160172D01*
X38689320Y-87083981D02*
X38232178Y-87083981D01*
X38460749Y-87083981D02*
X38460749Y-86283981D01*
X38384559Y-86398267D01*
X38308368Y-86474457D01*
X38232178Y-86512553D01*
X38955987Y-86283981D02*
X39451225Y-86283981D01*
X39184559Y-86588743D01*
X39298844Y-86588743D01*
X39375035Y-86626838D01*
X39413130Y-86664934D01*
X39451225Y-86741124D01*
X39451225Y-86931600D01*
X39413130Y-87007791D01*
X39375035Y-87045886D01*
X39298844Y-87083981D01*
X39070273Y-87083981D01*
X38994082Y-87045886D01*
X38955987Y-87007791D01*
%TO.C,D_12*%
X36860749Y-84543981D02*
X36860749Y-83743981D01*
X37051225Y-83743981D01*
X37165511Y-83782077D01*
X37241701Y-83858267D01*
X37279797Y-83934457D01*
X37317892Y-84086838D01*
X37317892Y-84201124D01*
X37279797Y-84353505D01*
X37241701Y-84429696D01*
X37165511Y-84505886D01*
X37051225Y-84543981D01*
X36860749Y-84543981D01*
X37470273Y-84620172D02*
X38079797Y-84620172D01*
X38689320Y-84543981D02*
X38232178Y-84543981D01*
X38460749Y-84543981D02*
X38460749Y-83743981D01*
X38384559Y-83858267D01*
X38308368Y-83934457D01*
X38232178Y-83972553D01*
X38994082Y-83820172D02*
X39032178Y-83782077D01*
X39108368Y-83743981D01*
X39298844Y-83743981D01*
X39375035Y-83782077D01*
X39413130Y-83820172D01*
X39451225Y-83896362D01*
X39451225Y-83972553D01*
X39413130Y-84086838D01*
X38955987Y-84543981D01*
X39451225Y-84543981D01*
%TO.C,D_11*%
X36860749Y-82003981D02*
X36860749Y-81203981D01*
X37051225Y-81203981D01*
X37165511Y-81242077D01*
X37241701Y-81318267D01*
X37279797Y-81394457D01*
X37317892Y-81546838D01*
X37317892Y-81661124D01*
X37279797Y-81813505D01*
X37241701Y-81889696D01*
X37165511Y-81965886D01*
X37051225Y-82003981D01*
X36860749Y-82003981D01*
X37470273Y-82080172D02*
X38079797Y-82080172D01*
X38689320Y-82003981D02*
X38232178Y-82003981D01*
X38460749Y-82003981D02*
X38460749Y-81203981D01*
X38384559Y-81318267D01*
X38308368Y-81394457D01*
X38232178Y-81432553D01*
X39451225Y-82003981D02*
X38994082Y-82003981D01*
X39222654Y-82003981D02*
X39222654Y-81203981D01*
X39146463Y-81318267D01*
X39070273Y-81394457D01*
X38994082Y-81432553D01*
%TO.C,D_10*%
X36860749Y-79463981D02*
X36860749Y-78663981D01*
X37051225Y-78663981D01*
X37165511Y-78702077D01*
X37241701Y-78778267D01*
X37279797Y-78854457D01*
X37317892Y-79006838D01*
X37317892Y-79121124D01*
X37279797Y-79273505D01*
X37241701Y-79349696D01*
X37165511Y-79425886D01*
X37051225Y-79463981D01*
X36860749Y-79463981D01*
X37470273Y-79540172D02*
X38079797Y-79540172D01*
X38689320Y-79463981D02*
X38232178Y-79463981D01*
X38460749Y-79463981D02*
X38460749Y-78663981D01*
X38384559Y-78778267D01*
X38308368Y-78854457D01*
X38232178Y-78892553D01*
X39184559Y-78663981D02*
X39260749Y-78663981D01*
X39336940Y-78702077D01*
X39375035Y-78740172D01*
X39413130Y-78816362D01*
X39451225Y-78968743D01*
X39451225Y-79159219D01*
X39413130Y-79311600D01*
X39375035Y-79387791D01*
X39336940Y-79425886D01*
X39260749Y-79463981D01*
X39184559Y-79463981D01*
X39108368Y-79425886D01*
X39070273Y-79387791D01*
X39032178Y-79311600D01*
X38994082Y-79159219D01*
X38994082Y-78968743D01*
X39032178Y-78816362D01*
X39070273Y-78740172D01*
X39108368Y-78702077D01*
X39184559Y-78663981D01*
%TO.C,D_9*%
X210864561Y-71481904D02*
X210864561Y-70681904D01*
X211055038Y-70681904D01*
X211169323Y-70720000D01*
X211245514Y-70796190D01*
X211283609Y-70872380D01*
X211321704Y-71024761D01*
X211321704Y-71139047D01*
X211283609Y-71291428D01*
X211245514Y-71367619D01*
X211169323Y-71443809D01*
X211055038Y-71481904D01*
X210864561Y-71481904D01*
X211474085Y-71558095D02*
X212083609Y-71558095D01*
X212312180Y-71481904D02*
X212464561Y-71481904D01*
X212540752Y-71443809D01*
X212578847Y-71405714D01*
X212655038Y-71291428D01*
X212693133Y-71139047D01*
X212693133Y-70834285D01*
X212655038Y-70758095D01*
X212616942Y-70720000D01*
X212540752Y-70681904D01*
X212388371Y-70681904D01*
X212312180Y-70720000D01*
X212274085Y-70758095D01*
X212235990Y-70834285D01*
X212235990Y-71024761D01*
X212274085Y-71100952D01*
X212312180Y-71139047D01*
X212388371Y-71177142D01*
X212540752Y-71177142D01*
X212616942Y-71139047D01*
X212655038Y-71100952D01*
X212693133Y-71024761D01*
%TO.C,D_8*%
X210864561Y-74021904D02*
X210864561Y-73221904D01*
X211055038Y-73221904D01*
X211169323Y-73260000D01*
X211245514Y-73336190D01*
X211283609Y-73412380D01*
X211321704Y-73564761D01*
X211321704Y-73679047D01*
X211283609Y-73831428D01*
X211245514Y-73907619D01*
X211169323Y-73983809D01*
X211055038Y-74021904D01*
X210864561Y-74021904D01*
X211474085Y-74098095D02*
X212083609Y-74098095D01*
X212388371Y-73564761D02*
X212312180Y-73526666D01*
X212274085Y-73488571D01*
X212235990Y-73412380D01*
X212235990Y-73374285D01*
X212274085Y-73298095D01*
X212312180Y-73260000D01*
X212388371Y-73221904D01*
X212540752Y-73221904D01*
X212616942Y-73260000D01*
X212655038Y-73298095D01*
X212693133Y-73374285D01*
X212693133Y-73412380D01*
X212655038Y-73488571D01*
X212616942Y-73526666D01*
X212540752Y-73564761D01*
X212388371Y-73564761D01*
X212312180Y-73602857D01*
X212274085Y-73640952D01*
X212235990Y-73717142D01*
X212235990Y-73869523D01*
X212274085Y-73945714D01*
X212312180Y-73983809D01*
X212388371Y-74021904D01*
X212540752Y-74021904D01*
X212616942Y-73983809D01*
X212655038Y-73945714D01*
X212693133Y-73869523D01*
X212693133Y-73717142D01*
X212655038Y-73640952D01*
X212616942Y-73602857D01*
X212540752Y-73564761D01*
%TO.C,D_7*%
X210864561Y-76561904D02*
X210864561Y-75761904D01*
X211055038Y-75761904D01*
X211169323Y-75800000D01*
X211245514Y-75876190D01*
X211283609Y-75952380D01*
X211321704Y-76104761D01*
X211321704Y-76219047D01*
X211283609Y-76371428D01*
X211245514Y-76447619D01*
X211169323Y-76523809D01*
X211055038Y-76561904D01*
X210864561Y-76561904D01*
X211474085Y-76638095D02*
X212083609Y-76638095D01*
X212197895Y-75761904D02*
X212731228Y-75761904D01*
X212388371Y-76561904D01*
%TO.C,D_6*%
X210864561Y-79101904D02*
X210864561Y-78301904D01*
X211055038Y-78301904D01*
X211169323Y-78340000D01*
X211245514Y-78416190D01*
X211283609Y-78492380D01*
X211321704Y-78644761D01*
X211321704Y-78759047D01*
X211283609Y-78911428D01*
X211245514Y-78987619D01*
X211169323Y-79063809D01*
X211055038Y-79101904D01*
X210864561Y-79101904D01*
X211474085Y-79178095D02*
X212083609Y-79178095D01*
X212616942Y-78301904D02*
X212464561Y-78301904D01*
X212388371Y-78340000D01*
X212350276Y-78378095D01*
X212274085Y-78492380D01*
X212235990Y-78644761D01*
X212235990Y-78949523D01*
X212274085Y-79025714D01*
X212312180Y-79063809D01*
X212388371Y-79101904D01*
X212540752Y-79101904D01*
X212616942Y-79063809D01*
X212655038Y-79025714D01*
X212693133Y-78949523D01*
X212693133Y-78759047D01*
X212655038Y-78682857D01*
X212616942Y-78644761D01*
X212540752Y-78606666D01*
X212388371Y-78606666D01*
X212312180Y-78644761D01*
X212274085Y-78682857D01*
X212235990Y-78759047D01*
%TO.C,D_5*%
X210864561Y-81641904D02*
X210864561Y-80841904D01*
X211055038Y-80841904D01*
X211169323Y-80880000D01*
X211245514Y-80956190D01*
X211283609Y-81032380D01*
X211321704Y-81184761D01*
X211321704Y-81299047D01*
X211283609Y-81451428D01*
X211245514Y-81527619D01*
X211169323Y-81603809D01*
X211055038Y-81641904D01*
X210864561Y-81641904D01*
X211474085Y-81718095D02*
X212083609Y-81718095D01*
X212655038Y-80841904D02*
X212274085Y-80841904D01*
X212235990Y-81222857D01*
X212274085Y-81184761D01*
X212350276Y-81146666D01*
X212540752Y-81146666D01*
X212616942Y-81184761D01*
X212655038Y-81222857D01*
X212693133Y-81299047D01*
X212693133Y-81489523D01*
X212655038Y-81565714D01*
X212616942Y-81603809D01*
X212540752Y-81641904D01*
X212350276Y-81641904D01*
X212274085Y-81603809D01*
X212235990Y-81565714D01*
%TO.C,D_4*%
X210864561Y-84181904D02*
X210864561Y-83381904D01*
X211055038Y-83381904D01*
X211169323Y-83420000D01*
X211245514Y-83496190D01*
X211283609Y-83572380D01*
X211321704Y-83724761D01*
X211321704Y-83839047D01*
X211283609Y-83991428D01*
X211245514Y-84067619D01*
X211169323Y-84143809D01*
X211055038Y-84181904D01*
X210864561Y-84181904D01*
X211474085Y-84258095D02*
X212083609Y-84258095D01*
X212616942Y-83648571D02*
X212616942Y-84181904D01*
X212426466Y-83343809D02*
X212235990Y-83915238D01*
X212731228Y-83915238D01*
%TO.C,D_3*%
X210864561Y-94341904D02*
X210864561Y-93541904D01*
X211055038Y-93541904D01*
X211169323Y-93580000D01*
X211245514Y-93656190D01*
X211283609Y-93732380D01*
X211321704Y-93884761D01*
X211321704Y-93999047D01*
X211283609Y-94151428D01*
X211245514Y-94227619D01*
X211169323Y-94303809D01*
X211055038Y-94341904D01*
X210864561Y-94341904D01*
X211474085Y-94418095D02*
X212083609Y-94418095D01*
X212197895Y-93541904D02*
X212693133Y-93541904D01*
X212426466Y-93846666D01*
X212540752Y-93846666D01*
X212616942Y-93884761D01*
X212655038Y-93922857D01*
X212693133Y-93999047D01*
X212693133Y-94189523D01*
X212655038Y-94265714D01*
X212616942Y-94303809D01*
X212540752Y-94341904D01*
X212312180Y-94341904D01*
X212235990Y-94303809D01*
X212197895Y-94265714D01*
%TO.C,D_2*%
X210864561Y-91801904D02*
X210864561Y-91001904D01*
X211055038Y-91001904D01*
X211169323Y-91040000D01*
X211245514Y-91116190D01*
X211283609Y-91192380D01*
X211321704Y-91344761D01*
X211321704Y-91459047D01*
X211283609Y-91611428D01*
X211245514Y-91687619D01*
X211169323Y-91763809D01*
X211055038Y-91801904D01*
X210864561Y-91801904D01*
X211474085Y-91878095D02*
X212083609Y-91878095D01*
X212235990Y-91078095D02*
X212274085Y-91040000D01*
X212350276Y-91001904D01*
X212540752Y-91001904D01*
X212616942Y-91040000D01*
X212655038Y-91078095D01*
X212693133Y-91154285D01*
X212693133Y-91230476D01*
X212655038Y-91344761D01*
X212197895Y-91801904D01*
X212693133Y-91801904D01*
%TO.C,D_1*%
X210864561Y-89261904D02*
X210864561Y-88461904D01*
X211055038Y-88461904D01*
X211169323Y-88500000D01*
X211245514Y-88576190D01*
X211283609Y-88652380D01*
X211321704Y-88804761D01*
X211321704Y-88919047D01*
X211283609Y-89071428D01*
X211245514Y-89147619D01*
X211169323Y-89223809D01*
X211055038Y-89261904D01*
X210864561Y-89261904D01*
X211474085Y-89338095D02*
X212083609Y-89338095D01*
X212693133Y-89261904D02*
X212235990Y-89261904D01*
X212464561Y-89261904D02*
X212464561Y-88461904D01*
X212388371Y-88576190D01*
X212312180Y-88652380D01*
X212235990Y-88690476D01*
%TO.C,D_0*%
X210864561Y-86721904D02*
X210864561Y-85921904D01*
X211055038Y-85921904D01*
X211169323Y-85960000D01*
X211245514Y-86036190D01*
X211283609Y-86112380D01*
X211321704Y-86264761D01*
X211321704Y-86379047D01*
X211283609Y-86531428D01*
X211245514Y-86607619D01*
X211169323Y-86683809D01*
X211055038Y-86721904D01*
X210864561Y-86721904D01*
X211474085Y-86798095D02*
X212083609Y-86798095D01*
X212426466Y-85921904D02*
X212502657Y-85921904D01*
X212578847Y-85960000D01*
X212616942Y-85998095D01*
X212655038Y-86074285D01*
X212693133Y-86226666D01*
X212693133Y-86417142D01*
X212655038Y-86569523D01*
X212616942Y-86645714D01*
X212578847Y-86683809D01*
X212502657Y-86721904D01*
X212426466Y-86721904D01*
X212350276Y-86683809D01*
X212312180Y-86645714D01*
X212274085Y-86569523D01*
X212235990Y-86417142D01*
X212235990Y-86226666D01*
X212274085Y-86074285D01*
X212312180Y-85998095D01*
X212350276Y-85960000D01*
X212426466Y-85921904D01*
%TO.C,K_12*%
X85272261Y-62872380D02*
X85272261Y-61872380D01*
X85843690Y-62872380D02*
X85415119Y-62300952D01*
X85843690Y-61872380D02*
X85272261Y-62443809D01*
X86034166Y-62967619D02*
X86796071Y-62967619D01*
X87557976Y-62872380D02*
X86986547Y-62872380D01*
X87272261Y-62872380D02*
X87272261Y-61872380D01*
X87177023Y-62015238D01*
X87081785Y-62110476D01*
X86986547Y-62158095D01*
X87938928Y-61967619D02*
X87986547Y-61920000D01*
X88081785Y-61872380D01*
X88319880Y-61872380D01*
X88415119Y-61920000D01*
X88462738Y-61967619D01*
X88510357Y-62062857D01*
X88510357Y-62158095D01*
X88462738Y-62300952D01*
X87891309Y-62872380D01*
X88510357Y-62872380D01*
%TO.C,K_11*%
X66222261Y-62872380D02*
X66222261Y-61872380D01*
X66793690Y-62872380D02*
X66365119Y-62300952D01*
X66793690Y-61872380D02*
X66222261Y-62443809D01*
X66984166Y-62967619D02*
X67746071Y-62967619D01*
X68507976Y-62872380D02*
X67936547Y-62872380D01*
X68222261Y-62872380D02*
X68222261Y-61872380D01*
X68127023Y-62015238D01*
X68031785Y-62110476D01*
X67936547Y-62158095D01*
X69460357Y-62872380D02*
X68888928Y-62872380D01*
X69174642Y-62872380D02*
X69174642Y-61872380D01*
X69079404Y-62015238D01*
X68984166Y-62110476D01*
X68888928Y-62158095D01*
%TO.C,K_1*%
X61935952Y-43822380D02*
X61935952Y-42822380D01*
X62507380Y-43822380D02*
X62078809Y-43250952D01*
X62507380Y-42822380D02*
X61935952Y-43393809D01*
X62697857Y-43917619D02*
X63459761Y-43917619D01*
X64221666Y-43822380D02*
X63650238Y-43822380D01*
X63935952Y-43822380D02*
X63935952Y-42822380D01*
X63840714Y-42965238D01*
X63745476Y-43060476D01*
X63650238Y-43108095D01*
%TO.C,K_27*%
X75747261Y-100972380D02*
X75747261Y-99972380D01*
X76318690Y-100972380D02*
X75890119Y-100400952D01*
X76318690Y-99972380D02*
X75747261Y-100543809D01*
X76509166Y-101067619D02*
X77271071Y-101067619D01*
X77461547Y-100067619D02*
X77509166Y-100020000D01*
X77604404Y-99972380D01*
X77842500Y-99972380D01*
X77937738Y-100020000D01*
X77985357Y-100067619D01*
X78032976Y-100162857D01*
X78032976Y-100258095D01*
X77985357Y-100400952D01*
X77413928Y-100972380D01*
X78032976Y-100972380D01*
X78366309Y-99972380D02*
X79032976Y-99972380D01*
X78604404Y-100972380D01*
%TO.C,H6*%
X227651227Y-120499447D02*
X227651227Y-119499447D01*
X227651227Y-119975638D02*
X228222655Y-119975638D01*
X228222655Y-120499447D02*
X228222655Y-119499447D01*
X229127417Y-119499447D02*
X228936941Y-119499447D01*
X228841703Y-119547067D01*
X228794084Y-119594686D01*
X228698846Y-119737543D01*
X228651227Y-119928019D01*
X228651227Y-120308971D01*
X228698846Y-120404209D01*
X228746465Y-120451828D01*
X228841703Y-120499447D01*
X229032179Y-120499447D01*
X229127417Y-120451828D01*
X229175036Y-120404209D01*
X229222655Y-120308971D01*
X229222655Y-120070876D01*
X229175036Y-119975638D01*
X229127417Y-119928019D01*
X229032179Y-119880400D01*
X228841703Y-119880400D01*
X228746465Y-119928019D01*
X228698846Y-119975638D01*
X228651227Y-120070876D01*
%TO.C,K_8*%
X195285952Y-43822380D02*
X195285952Y-42822380D01*
X195857380Y-43822380D02*
X195428809Y-43250952D01*
X195857380Y-42822380D02*
X195285952Y-43393809D01*
X196047857Y-43917619D02*
X196809761Y-43917619D01*
X197190714Y-43250952D02*
X197095476Y-43203333D01*
X197047857Y-43155714D01*
X197000238Y-43060476D01*
X197000238Y-43012857D01*
X197047857Y-42917619D01*
X197095476Y-42870000D01*
X197190714Y-42822380D01*
X197381190Y-42822380D01*
X197476428Y-42870000D01*
X197524047Y-42917619D01*
X197571666Y-43012857D01*
X197571666Y-43060476D01*
X197524047Y-43155714D01*
X197476428Y-43203333D01*
X197381190Y-43250952D01*
X197190714Y-43250952D01*
X197095476Y-43298571D01*
X197047857Y-43346190D01*
X197000238Y-43441428D01*
X197000238Y-43631904D01*
X197047857Y-43727142D01*
X197095476Y-43774761D01*
X197190714Y-43822380D01*
X197381190Y-43822380D01*
X197476428Y-43774761D01*
X197524047Y-43727142D01*
X197571666Y-43631904D01*
X197571666Y-43441428D01*
X197524047Y-43346190D01*
X197476428Y-43298571D01*
X197381190Y-43250952D01*
%TO.C,H5*%
X227648095Y-93094380D02*
X227648095Y-92094380D01*
X227648095Y-92570571D02*
X228219523Y-92570571D01*
X228219523Y-93094380D02*
X228219523Y-92094380D01*
X229171904Y-92094380D02*
X228695714Y-92094380D01*
X228648095Y-92570571D01*
X228695714Y-92522952D01*
X228790952Y-92475333D01*
X229029047Y-92475333D01*
X229124285Y-92522952D01*
X229171904Y-92570571D01*
X229219523Y-92665809D01*
X229219523Y-92903904D01*
X229171904Y-92999142D01*
X229124285Y-93046761D01*
X229029047Y-93094380D01*
X228790952Y-93094380D01*
X228695714Y-93046761D01*
X228648095Y-92999142D01*
%TO.C,K_25*%
X170997261Y-81922380D02*
X170997261Y-80922380D01*
X171568690Y-81922380D02*
X171140119Y-81350952D01*
X171568690Y-80922380D02*
X170997261Y-81493809D01*
X171759166Y-82017619D02*
X172521071Y-82017619D01*
X172711547Y-81017619D02*
X172759166Y-80970000D01*
X172854404Y-80922380D01*
X173092500Y-80922380D01*
X173187738Y-80970000D01*
X173235357Y-81017619D01*
X173282976Y-81112857D01*
X173282976Y-81208095D01*
X173235357Y-81350952D01*
X172663928Y-81922380D01*
X173282976Y-81922380D01*
X174187738Y-80922380D02*
X173711547Y-80922380D01*
X173663928Y-81398571D01*
X173711547Y-81350952D01*
X173806785Y-81303333D01*
X174044880Y-81303333D01*
X174140119Y-81350952D01*
X174187738Y-81398571D01*
X174235357Y-81493809D01*
X174235357Y-81731904D01*
X174187738Y-81827142D01*
X174140119Y-81874761D01*
X174044880Y-81922380D01*
X173806785Y-81922380D01*
X173711547Y-81874761D01*
X173663928Y-81827142D01*
%TO.C,K_31*%
X170997261Y-100972380D02*
X170997261Y-99972380D01*
X171568690Y-100972380D02*
X171140119Y-100400952D01*
X171568690Y-99972380D02*
X170997261Y-100543809D01*
X171759166Y-101067619D02*
X172521071Y-101067619D01*
X172663928Y-99972380D02*
X173282976Y-99972380D01*
X172949642Y-100353333D01*
X173092500Y-100353333D01*
X173187738Y-100400952D01*
X173235357Y-100448571D01*
X173282976Y-100543809D01*
X173282976Y-100781904D01*
X173235357Y-100877142D01*
X173187738Y-100924761D01*
X173092500Y-100972380D01*
X172806785Y-100972380D01*
X172711547Y-100924761D01*
X172663928Y-100877142D01*
X174235357Y-100972380D02*
X173663928Y-100972380D01*
X173949642Y-100972380D02*
X173949642Y-99972380D01*
X173854404Y-100115238D01*
X173759166Y-100210476D01*
X173663928Y-100258095D01*
%TO.C,K_23*%
X132897261Y-81922380D02*
X132897261Y-80922380D01*
X133468690Y-81922380D02*
X133040119Y-81350952D01*
X133468690Y-80922380D02*
X132897261Y-81493809D01*
X133659166Y-82017619D02*
X134421071Y-82017619D01*
X134611547Y-81017619D02*
X134659166Y-80970000D01*
X134754404Y-80922380D01*
X134992500Y-80922380D01*
X135087738Y-80970000D01*
X135135357Y-81017619D01*
X135182976Y-81112857D01*
X135182976Y-81208095D01*
X135135357Y-81350952D01*
X134563928Y-81922380D01*
X135182976Y-81922380D01*
X135516309Y-80922380D02*
X136135357Y-80922380D01*
X135802023Y-81303333D01*
X135944880Y-81303333D01*
X136040119Y-81350952D01*
X136087738Y-81398571D01*
X136135357Y-81493809D01*
X136135357Y-81731904D01*
X136087738Y-81827142D01*
X136040119Y-81874761D01*
X135944880Y-81922380D01*
X135659166Y-81922380D01*
X135563928Y-81874761D01*
X135516309Y-81827142D01*
%TO.C,K_10*%
X47172261Y-62872380D02*
X47172261Y-61872380D01*
X47743690Y-62872380D02*
X47315119Y-62300952D01*
X47743690Y-61872380D02*
X47172261Y-62443809D01*
X47934166Y-62967619D02*
X48696071Y-62967619D01*
X49457976Y-62872380D02*
X48886547Y-62872380D01*
X49172261Y-62872380D02*
X49172261Y-61872380D01*
X49077023Y-62015238D01*
X48981785Y-62110476D01*
X48886547Y-62158095D01*
X50077023Y-61872380D02*
X50172261Y-61872380D01*
X50267500Y-61920000D01*
X50315119Y-61967619D01*
X50362738Y-62062857D01*
X50410357Y-62253333D01*
X50410357Y-62491428D01*
X50362738Y-62681904D01*
X50315119Y-62777142D01*
X50267500Y-62824761D01*
X50172261Y-62872380D01*
X50077023Y-62872380D01*
X49981785Y-62824761D01*
X49934166Y-62777142D01*
X49886547Y-62681904D01*
X49838928Y-62491428D01*
X49838928Y-62253333D01*
X49886547Y-62062857D01*
X49934166Y-61967619D01*
X49981785Y-61920000D01*
X50077023Y-61872380D01*
%TO.C,K_24*%
X151947261Y-81922380D02*
X151947261Y-80922380D01*
X152518690Y-81922380D02*
X152090119Y-81350952D01*
X152518690Y-80922380D02*
X151947261Y-81493809D01*
X152709166Y-82017619D02*
X153471071Y-82017619D01*
X153661547Y-81017619D02*
X153709166Y-80970000D01*
X153804404Y-80922380D01*
X154042500Y-80922380D01*
X154137738Y-80970000D01*
X154185357Y-81017619D01*
X154232976Y-81112857D01*
X154232976Y-81208095D01*
X154185357Y-81350952D01*
X153613928Y-81922380D01*
X154232976Y-81922380D01*
X155090119Y-81255714D02*
X155090119Y-81922380D01*
X154852023Y-80874761D02*
X154613928Y-81589047D01*
X155232976Y-81589047D01*
%TO.C,K_9*%
X214335952Y-43822380D02*
X214335952Y-42822380D01*
X214907380Y-43822380D02*
X214478809Y-43250952D01*
X214907380Y-42822380D02*
X214335952Y-43393809D01*
X215097857Y-43917619D02*
X215859761Y-43917619D01*
X216145476Y-43822380D02*
X216335952Y-43822380D01*
X216431190Y-43774761D01*
X216478809Y-43727142D01*
X216574047Y-43584285D01*
X216621666Y-43393809D01*
X216621666Y-43012857D01*
X216574047Y-42917619D01*
X216526428Y-42870000D01*
X216431190Y-42822380D01*
X216240714Y-42822380D01*
X216145476Y-42870000D01*
X216097857Y-42917619D01*
X216050238Y-43012857D01*
X216050238Y-43250952D01*
X216097857Y-43346190D01*
X216145476Y-43393809D01*
X216240714Y-43441428D01*
X216431190Y-43441428D01*
X216526428Y-43393809D01*
X216574047Y-43346190D01*
X216621666Y-43250952D01*
%TO.C,K_7*%
X176235952Y-43822380D02*
X176235952Y-42822380D01*
X176807380Y-43822380D02*
X176378809Y-43250952D01*
X176807380Y-42822380D02*
X176235952Y-43393809D01*
X176997857Y-43917619D02*
X177759761Y-43917619D01*
X177902619Y-42822380D02*
X178569285Y-42822380D01*
X178140714Y-43822380D01*
%TO.C,K_14*%
X123372261Y-62872380D02*
X123372261Y-61872380D01*
X123943690Y-62872380D02*
X123515119Y-62300952D01*
X123943690Y-61872380D02*
X123372261Y-62443809D01*
X124134166Y-62967619D02*
X124896071Y-62967619D01*
X125657976Y-62872380D02*
X125086547Y-62872380D01*
X125372261Y-62872380D02*
X125372261Y-61872380D01*
X125277023Y-62015238D01*
X125181785Y-62110476D01*
X125086547Y-62158095D01*
X126515119Y-62205714D02*
X126515119Y-62872380D01*
X126277023Y-61824761D02*
X126038928Y-62539047D01*
X126657976Y-62539047D01*
%TO.C,K_20*%
X75747261Y-81922380D02*
X75747261Y-80922380D01*
X76318690Y-81922380D02*
X75890119Y-81350952D01*
X76318690Y-80922380D02*
X75747261Y-81493809D01*
X76509166Y-82017619D02*
X77271071Y-82017619D01*
X77461547Y-81017619D02*
X77509166Y-80970000D01*
X77604404Y-80922380D01*
X77842500Y-80922380D01*
X77937738Y-80970000D01*
X77985357Y-81017619D01*
X78032976Y-81112857D01*
X78032976Y-81208095D01*
X77985357Y-81350952D01*
X77413928Y-81922380D01*
X78032976Y-81922380D01*
X78652023Y-80922380D02*
X78747261Y-80922380D01*
X78842500Y-80970000D01*
X78890119Y-81017619D01*
X78937738Y-81112857D01*
X78985357Y-81303333D01*
X78985357Y-81541428D01*
X78937738Y-81731904D01*
X78890119Y-81827142D01*
X78842500Y-81874761D01*
X78747261Y-81922380D01*
X78652023Y-81922380D01*
X78556785Y-81874761D01*
X78509166Y-81827142D01*
X78461547Y-81731904D01*
X78413928Y-81541428D01*
X78413928Y-81303333D01*
X78461547Y-81112857D01*
X78509166Y-81017619D01*
X78556785Y-80970000D01*
X78652023Y-80922380D01*
%TO.C,K_4*%
X119085952Y-43822380D02*
X119085952Y-42822380D01*
X119657380Y-43822380D02*
X119228809Y-43250952D01*
X119657380Y-42822380D02*
X119085952Y-43393809D01*
X119847857Y-43917619D02*
X120609761Y-43917619D01*
X121276428Y-43155714D02*
X121276428Y-43822380D01*
X121038333Y-42774761D02*
X120800238Y-43489047D01*
X121419285Y-43489047D01*
%TO.C,H7*%
X31148095Y-97664380D02*
X31148095Y-96664380D01*
X31148095Y-97140571D02*
X31719523Y-97140571D01*
X31719523Y-97664380D02*
X31719523Y-96664380D01*
X32100476Y-96664380D02*
X32767142Y-96664380D01*
X32338571Y-97664380D01*
%TO.C,H8*%
X53988095Y-120504380D02*
X53988095Y-119504380D01*
X53988095Y-119980571D02*
X54559523Y-119980571D01*
X54559523Y-120504380D02*
X54559523Y-119504380D01*
X55178571Y-119932952D02*
X55083333Y-119885333D01*
X55035714Y-119837714D01*
X54988095Y-119742476D01*
X54988095Y-119694857D01*
X55035714Y-119599619D01*
X55083333Y-119552000D01*
X55178571Y-119504380D01*
X55369047Y-119504380D01*
X55464285Y-119552000D01*
X55511904Y-119599619D01*
X55559523Y-119694857D01*
X55559523Y-119742476D01*
X55511904Y-119837714D01*
X55464285Y-119885333D01*
X55369047Y-119932952D01*
X55178571Y-119932952D01*
X55083333Y-119980571D01*
X55035714Y-120028190D01*
X54988095Y-120123428D01*
X54988095Y-120313904D01*
X55035714Y-120409142D01*
X55083333Y-120456761D01*
X55178571Y-120504380D01*
X55369047Y-120504380D01*
X55464285Y-120456761D01*
X55511904Y-120409142D01*
X55559523Y-120313904D01*
X55559523Y-120123428D01*
X55511904Y-120028190D01*
X55464285Y-119980571D01*
X55369047Y-119932952D01*
%TO.C,U1*%
X198431104Y-99542533D02*
X198431104Y-99999676D01*
X198431104Y-99771104D02*
X197631104Y-99771104D01*
X197745390Y-99847295D01*
X197821580Y-99923485D01*
X197859676Y-99999676D01*
X197631104Y-99047295D02*
X197631104Y-98971104D01*
X197669200Y-98894914D01*
X197707295Y-98856819D01*
X197783485Y-98818723D01*
X197935866Y-98780628D01*
X198126342Y-98780628D01*
X198278723Y-98818723D01*
X198354914Y-98856819D01*
X198393009Y-98894914D01*
X198431104Y-98971104D01*
X198431104Y-99047295D01*
X198393009Y-99123485D01*
X198354914Y-99161580D01*
X198278723Y-99199676D01*
X198126342Y-99237771D01*
X197935866Y-99237771D01*
X197783485Y-99199676D01*
X197707295Y-99161580D01*
X197669200Y-99123485D01*
X197631104Y-99047295D01*
X197631104Y-98094914D02*
X197631104Y-98247295D01*
X197669200Y-98323485D01*
X197707295Y-98361580D01*
X197821580Y-98437771D01*
X197973961Y-98475866D01*
X198278723Y-98475866D01*
X198354914Y-98437771D01*
X198393009Y-98399676D01*
X198431104Y-98323485D01*
X198431104Y-98171104D01*
X198393009Y-98094914D01*
X198354914Y-98056819D01*
X198278723Y-98018723D01*
X198088247Y-98018723D01*
X198012057Y-98056819D01*
X197973961Y-98094914D01*
X197935866Y-98171104D01*
X197935866Y-98323485D01*
X197973961Y-98399676D01*
X198012057Y-98437771D01*
X198088247Y-98475866D01*
X210381904Y-120180000D02*
X210381904Y-120103809D01*
X210420000Y-120027619D01*
X210458095Y-119989523D01*
X210534285Y-119951428D01*
X210686666Y-119913333D01*
X210877142Y-119913333D01*
X211029523Y-119951428D01*
X211105714Y-119989523D01*
X211143809Y-120027619D01*
X211181904Y-120103809D01*
X211181904Y-120180000D01*
X211143809Y-120256190D01*
X211105714Y-120294285D01*
X211029523Y-120332380D01*
X210877142Y-120370476D01*
X210686666Y-120370476D01*
X210534285Y-120332380D01*
X210458095Y-120294285D01*
X210420000Y-120256190D01*
X210381904Y-120180000D01*
X210381904Y-119418095D02*
X210381904Y-119341904D01*
X210420000Y-119265714D01*
X210458095Y-119227619D01*
X210534285Y-119189523D01*
X210686666Y-119151428D01*
X210877142Y-119151428D01*
X211029523Y-119189523D01*
X211105714Y-119227619D01*
X211143809Y-119265714D01*
X211181904Y-119341904D01*
X211181904Y-119418095D01*
X211143809Y-119494285D01*
X211105714Y-119532380D01*
X211029523Y-119570476D01*
X210877142Y-119608571D01*
X210686666Y-119608571D01*
X210534285Y-119570476D01*
X210458095Y-119532380D01*
X210420000Y-119494285D01*
X210381904Y-119418095D01*
X210458095Y-118846666D02*
X210420000Y-118808571D01*
X210381904Y-118732380D01*
X210381904Y-118541904D01*
X210420000Y-118465714D01*
X210458095Y-118427619D01*
X210534285Y-118389523D01*
X210610476Y-118389523D01*
X210724761Y-118427619D01*
X211181904Y-118884761D01*
X211181904Y-118389523D01*
X218040000Y-99669523D02*
X218001904Y-99745714D01*
X218001904Y-99860000D01*
X218040000Y-99974285D01*
X218116190Y-100050476D01*
X218192380Y-100088571D01*
X218344761Y-100126666D01*
X218459047Y-100126666D01*
X218611428Y-100088571D01*
X218687619Y-100050476D01*
X218763809Y-99974285D01*
X218801904Y-99860000D01*
X218801904Y-99783809D01*
X218763809Y-99669523D01*
X218725714Y-99631428D01*
X218459047Y-99631428D01*
X218459047Y-99783809D01*
X218801904Y-99288571D02*
X218001904Y-99288571D01*
X218801904Y-98831428D01*
X218001904Y-98831428D01*
X218801904Y-98450476D02*
X218001904Y-98450476D01*
X218001904Y-98260000D01*
X218040000Y-98145714D01*
X218116190Y-98069523D01*
X218192380Y-98031428D01*
X218344761Y-97993333D01*
X218459047Y-97993333D01*
X218611428Y-98031428D01*
X218687619Y-98069523D01*
X218763809Y-98145714D01*
X218801904Y-98260000D01*
X218801904Y-98450476D01*
X218001904Y-120446666D02*
X218801904Y-120180000D01*
X218001904Y-119913333D01*
X218725714Y-119189523D02*
X218763809Y-119227619D01*
X218801904Y-119341904D01*
X218801904Y-119418095D01*
X218763809Y-119532380D01*
X218687619Y-119608571D01*
X218611428Y-119646666D01*
X218459047Y-119684761D01*
X218344761Y-119684761D01*
X218192380Y-119646666D01*
X218116190Y-119608571D01*
X218040000Y-119532380D01*
X218001904Y-119418095D01*
X218001904Y-119341904D01*
X218040000Y-119227619D01*
X218078095Y-119189523D01*
X218725714Y-118389523D02*
X218763809Y-118427619D01*
X218801904Y-118541904D01*
X218801904Y-118618095D01*
X218763809Y-118732380D01*
X218687619Y-118808571D01*
X218611428Y-118846666D01*
X218459047Y-118884761D01*
X218344761Y-118884761D01*
X218192380Y-118846666D01*
X218116190Y-118808571D01*
X218040000Y-118732380D01*
X218001904Y-118618095D01*
X218001904Y-118541904D01*
X218040000Y-118427619D01*
X218078095Y-118389523D01*
X215461904Y-120180000D02*
X215461904Y-120103809D01*
X215500000Y-120027619D01*
X215538095Y-119989523D01*
X215614285Y-119951428D01*
X215766666Y-119913333D01*
X215957142Y-119913333D01*
X216109523Y-119951428D01*
X216185714Y-119989523D01*
X216223809Y-120027619D01*
X216261904Y-120103809D01*
X216261904Y-120180000D01*
X216223809Y-120256190D01*
X216185714Y-120294285D01*
X216109523Y-120332380D01*
X215957142Y-120370476D01*
X215766666Y-120370476D01*
X215614285Y-120332380D01*
X215538095Y-120294285D01*
X215500000Y-120256190D01*
X215461904Y-120180000D01*
X215461904Y-119646666D02*
X215461904Y-119151428D01*
X215766666Y-119418095D01*
X215766666Y-119303809D01*
X215804761Y-119227619D01*
X215842857Y-119189523D01*
X215919047Y-119151428D01*
X216109523Y-119151428D01*
X216185714Y-119189523D01*
X216223809Y-119227619D01*
X216261904Y-119303809D01*
X216261904Y-119532380D01*
X216223809Y-119608571D01*
X216185714Y-119646666D01*
X216261904Y-118389523D02*
X216261904Y-118846666D01*
X216261904Y-118618095D02*
X215461904Y-118618095D01*
X215576190Y-118694285D01*
X215652380Y-118770476D01*
X215690476Y-118846666D01*
X197631104Y-120180000D02*
X197631104Y-120103809D01*
X197669200Y-120027619D01*
X197707295Y-119989523D01*
X197783485Y-119951428D01*
X197935866Y-119913333D01*
X198126342Y-119913333D01*
X198278723Y-119951428D01*
X198354914Y-119989523D01*
X198393009Y-120027619D01*
X198431104Y-120103809D01*
X198431104Y-120180000D01*
X198393009Y-120256190D01*
X198354914Y-120294285D01*
X198278723Y-120332380D01*
X198126342Y-120370476D01*
X197935866Y-120370476D01*
X197783485Y-120332380D01*
X197707295Y-120294285D01*
X197669200Y-120256190D01*
X197631104Y-120180000D01*
X197631104Y-119418095D02*
X197631104Y-119341904D01*
X197669200Y-119265714D01*
X197707295Y-119227619D01*
X197783485Y-119189523D01*
X197935866Y-119151428D01*
X198126342Y-119151428D01*
X198278723Y-119189523D01*
X198354914Y-119227619D01*
X198393009Y-119265714D01*
X198431104Y-119341904D01*
X198431104Y-119418095D01*
X198393009Y-119494285D01*
X198354914Y-119532380D01*
X198278723Y-119570476D01*
X198126342Y-119608571D01*
X197935866Y-119608571D01*
X197783485Y-119570476D01*
X197707295Y-119532380D01*
X197669200Y-119494285D01*
X197631104Y-119418095D01*
X198431104Y-118770476D02*
X198431104Y-118618095D01*
X198393009Y-118541904D01*
X198354914Y-118503809D01*
X198240628Y-118427619D01*
X198088247Y-118389523D01*
X197783485Y-118389523D01*
X197707295Y-118427619D01*
X197669200Y-118465714D01*
X197631104Y-118541904D01*
X197631104Y-118694285D01*
X197669200Y-118770476D01*
X197707295Y-118808571D01*
X197783485Y-118846666D01*
X197973961Y-118846666D01*
X198050152Y-118808571D01*
X198088247Y-118770476D01*
X198126342Y-118694285D01*
X198126342Y-118541904D01*
X198088247Y-118465714D01*
X198050152Y-118427619D01*
X197973961Y-118389523D01*
X223120000Y-119906999D02*
X223081904Y-119983190D01*
X223081904Y-120097476D01*
X223120000Y-120211761D01*
X223196190Y-120287952D01*
X223272380Y-120326047D01*
X223424761Y-120364142D01*
X223539047Y-120364142D01*
X223691428Y-120326047D01*
X223767619Y-120287952D01*
X223843809Y-120211761D01*
X223881904Y-120097476D01*
X223881904Y-120021285D01*
X223843809Y-119906999D01*
X223805714Y-119868904D01*
X223539047Y-119868904D01*
X223539047Y-120021285D01*
X223881904Y-119526047D02*
X223081904Y-119526047D01*
X223881904Y-119068904D01*
X223081904Y-119068904D01*
X223881904Y-118687952D02*
X223081904Y-118687952D01*
X223081904Y-118497476D01*
X223120000Y-118383190D01*
X223196190Y-118306999D01*
X223272380Y-118268904D01*
X223424761Y-118230809D01*
X223539047Y-118230809D01*
X223691428Y-118268904D01*
X223767619Y-118306999D01*
X223843809Y-118383190D01*
X223881904Y-118497476D01*
X223881904Y-118687952D01*
X212921904Y-120180000D02*
X212921904Y-120103809D01*
X212960000Y-120027619D01*
X212998095Y-119989523D01*
X213074285Y-119951428D01*
X213226666Y-119913333D01*
X213417142Y-119913333D01*
X213569523Y-119951428D01*
X213645714Y-119989523D01*
X213683809Y-120027619D01*
X213721904Y-120103809D01*
X213721904Y-120180000D01*
X213683809Y-120256190D01*
X213645714Y-120294285D01*
X213569523Y-120332380D01*
X213417142Y-120370476D01*
X213226666Y-120370476D01*
X213074285Y-120332380D01*
X212998095Y-120294285D01*
X212960000Y-120256190D01*
X212921904Y-120180000D01*
X212998095Y-119608571D02*
X212960000Y-119570476D01*
X212921904Y-119494285D01*
X212921904Y-119303809D01*
X212960000Y-119227619D01*
X212998095Y-119189523D01*
X213074285Y-119151428D01*
X213150476Y-119151428D01*
X213264761Y-119189523D01*
X213721904Y-119646666D01*
X213721904Y-119151428D01*
X213721904Y-118770476D02*
X213721904Y-118618095D01*
X213683809Y-118541904D01*
X213645714Y-118503809D01*
X213531428Y-118427619D01*
X213379047Y-118389523D01*
X213074285Y-118389523D01*
X212998095Y-118427619D01*
X212960000Y-118465714D01*
X212921904Y-118541904D01*
X212921904Y-118694285D01*
X212960000Y-118770476D01*
X212998095Y-118808571D01*
X213074285Y-118846666D01*
X213264761Y-118846666D01*
X213340952Y-118808571D01*
X213379047Y-118770476D01*
X213417142Y-118694285D01*
X213417142Y-118541904D01*
X213379047Y-118465714D01*
X213340952Y-118427619D01*
X213264761Y-118389523D01*
X203561904Y-119913333D02*
X203561904Y-120370476D01*
X203561904Y-120141904D02*
X202761904Y-120141904D01*
X202876190Y-120218095D01*
X202952380Y-120294285D01*
X202990476Y-120370476D01*
X203561904Y-119151428D02*
X203561904Y-119608571D01*
X203561904Y-119380000D02*
X202761904Y-119380000D01*
X202876190Y-119456190D01*
X202952380Y-119532380D01*
X202990476Y-119608571D01*
X203561904Y-118389523D02*
X203561904Y-118846666D01*
X203561904Y-118618095D02*
X202761904Y-118618095D01*
X202876190Y-118694285D01*
X202952380Y-118770476D01*
X202990476Y-118846666D01*
X206101904Y-99517143D02*
X206101904Y-99974286D01*
X206101904Y-99745714D02*
X205301904Y-99745714D01*
X205416190Y-99821905D01*
X205492380Y-99898095D01*
X205530476Y-99974286D01*
X205301904Y-99021905D02*
X205301904Y-98945714D01*
X205340000Y-98869524D01*
X205378095Y-98831429D01*
X205454285Y-98793333D01*
X205606666Y-98755238D01*
X205797142Y-98755238D01*
X205949523Y-98793333D01*
X206025714Y-98831429D01*
X206063809Y-98869524D01*
X206101904Y-98945714D01*
X206101904Y-99021905D01*
X206063809Y-99098095D01*
X206025714Y-99136190D01*
X205949523Y-99174286D01*
X205797142Y-99212381D01*
X205606666Y-99212381D01*
X205454285Y-99174286D01*
X205378095Y-99136190D01*
X205340000Y-99098095D01*
X205301904Y-99021905D01*
X205301904Y-98260000D02*
X205301904Y-98183810D01*
X205340000Y-98107619D01*
X205378095Y-98069524D01*
X205454285Y-98031429D01*
X205606666Y-97993333D01*
X205797142Y-97993333D01*
X205949523Y-98031429D01*
X206025714Y-98069524D01*
X206063809Y-98107619D01*
X206101904Y-98183810D01*
X206101904Y-98260000D01*
X206063809Y-98336190D01*
X206025714Y-98374286D01*
X205949523Y-98412381D01*
X205797142Y-98450476D01*
X205606666Y-98450476D01*
X205454285Y-98412381D01*
X205378095Y-98374286D01*
X205340000Y-98336190D01*
X205301904Y-98260000D01*
X226371104Y-119862380D02*
X225990152Y-120129047D01*
X226371104Y-120319523D02*
X225571104Y-120319523D01*
X225571104Y-120014761D01*
X225609200Y-119938571D01*
X225647295Y-119900476D01*
X225723485Y-119862380D01*
X225837771Y-119862380D01*
X225913961Y-119900476D01*
X225952057Y-119938571D01*
X225990152Y-120014761D01*
X225990152Y-120319523D01*
X226142533Y-119557619D02*
X226142533Y-119176666D01*
X226371104Y-119633809D02*
X225571104Y-119367142D01*
X226371104Y-119100476D01*
X225571104Y-118910000D02*
X226371104Y-118719523D01*
X225799676Y-118567142D01*
X226371104Y-118414761D01*
X225571104Y-118224285D01*
X212851904Y-99783810D02*
X212851904Y-99707619D01*
X212890000Y-99631429D01*
X212928095Y-99593333D01*
X213004285Y-99555238D01*
X213156666Y-99517143D01*
X213347142Y-99517143D01*
X213499523Y-99555238D01*
X213575714Y-99593333D01*
X213613809Y-99631429D01*
X213651904Y-99707619D01*
X213651904Y-99783810D01*
X213613809Y-99860000D01*
X213575714Y-99898095D01*
X213499523Y-99936190D01*
X213347142Y-99974286D01*
X213156666Y-99974286D01*
X213004285Y-99936190D01*
X212928095Y-99898095D01*
X212890000Y-99860000D01*
X212851904Y-99783810D01*
X212928095Y-99212381D02*
X212890000Y-99174286D01*
X212851904Y-99098095D01*
X212851904Y-98907619D01*
X212890000Y-98831429D01*
X212928095Y-98793333D01*
X213004285Y-98755238D01*
X213080476Y-98755238D01*
X213194761Y-98793333D01*
X213651904Y-99250476D01*
X213651904Y-98755238D01*
X212851904Y-98260000D02*
X212851904Y-98183810D01*
X212890000Y-98107619D01*
X212928095Y-98069524D01*
X213004285Y-98031429D01*
X213156666Y-97993333D01*
X213347142Y-97993333D01*
X213499523Y-98031429D01*
X213575714Y-98069524D01*
X213613809Y-98107619D01*
X213651904Y-98183810D01*
X213651904Y-98260000D01*
X213613809Y-98336190D01*
X213575714Y-98374286D01*
X213499523Y-98412381D01*
X213347142Y-98450476D01*
X213156666Y-98450476D01*
X213004285Y-98412381D01*
X212928095Y-98374286D01*
X212890000Y-98336190D01*
X212851904Y-98260000D01*
X208641904Y-119913333D02*
X208641904Y-120370476D01*
X208641904Y-120141904D02*
X207841904Y-120141904D01*
X207956190Y-120218095D01*
X208032380Y-120294285D01*
X208070476Y-120370476D01*
X208641904Y-119151428D02*
X208641904Y-119608571D01*
X208641904Y-119380000D02*
X207841904Y-119380000D01*
X207956190Y-119456190D01*
X208032380Y-119532380D01*
X208070476Y-119608571D01*
X207841904Y-118427619D02*
X207841904Y-118808571D01*
X208222857Y-118846666D01*
X208184761Y-118808571D01*
X208146666Y-118732380D01*
X208146666Y-118541904D01*
X208184761Y-118465714D01*
X208222857Y-118427619D01*
X208299047Y-118389523D01*
X208489523Y-118389523D01*
X208565714Y-118427619D01*
X208603809Y-118465714D01*
X208641904Y-118541904D01*
X208641904Y-118732380D01*
X208603809Y-118808571D01*
X208565714Y-118846666D01*
X220580000Y-99669523D02*
X220541904Y-99745714D01*
X220541904Y-99860000D01*
X220580000Y-99974285D01*
X220656190Y-100050476D01*
X220732380Y-100088571D01*
X220884761Y-100126666D01*
X220999047Y-100126666D01*
X221151428Y-100088571D01*
X221227619Y-100050476D01*
X221303809Y-99974285D01*
X221341904Y-99860000D01*
X221341904Y-99783809D01*
X221303809Y-99669523D01*
X221265714Y-99631428D01*
X220999047Y-99631428D01*
X220999047Y-99783809D01*
X221341904Y-99288571D02*
X220541904Y-99288571D01*
X221341904Y-98831428D01*
X220541904Y-98831428D01*
X221341904Y-98450476D02*
X220541904Y-98450476D01*
X220541904Y-98260000D01*
X220580000Y-98145714D01*
X220656190Y-98069523D01*
X220732380Y-98031428D01*
X220884761Y-97993333D01*
X220999047Y-97993333D01*
X221151428Y-98031428D01*
X221227619Y-98069523D01*
X221303809Y-98145714D01*
X221341904Y-98260000D01*
X221341904Y-98450476D01*
X201021904Y-99517143D02*
X201021904Y-99974286D01*
X201021904Y-99745714D02*
X200221904Y-99745714D01*
X200336190Y-99821905D01*
X200412380Y-99898095D01*
X200450476Y-99974286D01*
X200221904Y-99021905D02*
X200221904Y-98945714D01*
X200260000Y-98869524D01*
X200298095Y-98831429D01*
X200374285Y-98793333D01*
X200526666Y-98755238D01*
X200717142Y-98755238D01*
X200869523Y-98793333D01*
X200945714Y-98831429D01*
X200983809Y-98869524D01*
X201021904Y-98945714D01*
X201021904Y-99021905D01*
X200983809Y-99098095D01*
X200945714Y-99136190D01*
X200869523Y-99174286D01*
X200717142Y-99212381D01*
X200526666Y-99212381D01*
X200374285Y-99174286D01*
X200298095Y-99136190D01*
X200260000Y-99098095D01*
X200221904Y-99021905D01*
X200488571Y-98069524D02*
X201021904Y-98069524D01*
X200183809Y-98260000D02*
X200755238Y-98450476D01*
X200755238Y-97955238D01*
X223151904Y-99783810D02*
X223151904Y-99707619D01*
X223190000Y-99631429D01*
X223228095Y-99593333D01*
X223304285Y-99555238D01*
X223456666Y-99517143D01*
X223647142Y-99517143D01*
X223799523Y-99555238D01*
X223875714Y-99593333D01*
X223913809Y-99631429D01*
X223951904Y-99707619D01*
X223951904Y-99783810D01*
X223913809Y-99860000D01*
X223875714Y-99898095D01*
X223799523Y-99936190D01*
X223647142Y-99974286D01*
X223456666Y-99974286D01*
X223304285Y-99936190D01*
X223228095Y-99898095D01*
X223190000Y-99860000D01*
X223151904Y-99783810D01*
X223151904Y-99021905D02*
X223151904Y-98945714D01*
X223190000Y-98869524D01*
X223228095Y-98831429D01*
X223304285Y-98793333D01*
X223456666Y-98755238D01*
X223647142Y-98755238D01*
X223799523Y-98793333D01*
X223875714Y-98831429D01*
X223913809Y-98869524D01*
X223951904Y-98945714D01*
X223951904Y-99021905D01*
X223913809Y-99098095D01*
X223875714Y-99136190D01*
X223799523Y-99174286D01*
X223647142Y-99212381D01*
X223456666Y-99212381D01*
X223304285Y-99174286D01*
X223228095Y-99136190D01*
X223190000Y-99098095D01*
X223151904Y-99021905D01*
X223494761Y-98298095D02*
X223456666Y-98374286D01*
X223418571Y-98412381D01*
X223342380Y-98450476D01*
X223304285Y-98450476D01*
X223228095Y-98412381D01*
X223190000Y-98374286D01*
X223151904Y-98298095D01*
X223151904Y-98145714D01*
X223190000Y-98069524D01*
X223228095Y-98031429D01*
X223304285Y-97993333D01*
X223342380Y-97993333D01*
X223418571Y-98031429D01*
X223456666Y-98069524D01*
X223494761Y-98145714D01*
X223494761Y-98298095D01*
X223532857Y-98374286D01*
X223570952Y-98412381D01*
X223647142Y-98450476D01*
X223799523Y-98450476D01*
X223875714Y-98412381D01*
X223913809Y-98374286D01*
X223951904Y-98298095D01*
X223951904Y-98145714D01*
X223913809Y-98069524D01*
X223875714Y-98031429D01*
X223799523Y-97993333D01*
X223647142Y-97993333D01*
X223570952Y-98031429D01*
X223532857Y-98069524D01*
X223494761Y-98145714D01*
X210351904Y-99783810D02*
X210351904Y-99707619D01*
X210390000Y-99631429D01*
X210428095Y-99593333D01*
X210504285Y-99555238D01*
X210656666Y-99517143D01*
X210847142Y-99517143D01*
X210999523Y-99555238D01*
X211075714Y-99593333D01*
X211113809Y-99631429D01*
X211151904Y-99707619D01*
X211151904Y-99783810D01*
X211113809Y-99860000D01*
X211075714Y-99898095D01*
X210999523Y-99936190D01*
X210847142Y-99974286D01*
X210656666Y-99974286D01*
X210504285Y-99936190D01*
X210428095Y-99898095D01*
X210390000Y-99860000D01*
X210351904Y-99783810D01*
X210428095Y-99212381D02*
X210390000Y-99174286D01*
X210351904Y-99098095D01*
X210351904Y-98907619D01*
X210390000Y-98831429D01*
X210428095Y-98793333D01*
X210504285Y-98755238D01*
X210580476Y-98755238D01*
X210694761Y-98793333D01*
X211151904Y-99250476D01*
X211151904Y-98755238D01*
X210428095Y-98450476D02*
X210390000Y-98412381D01*
X210351904Y-98336190D01*
X210351904Y-98145714D01*
X210390000Y-98069524D01*
X210428095Y-98031429D01*
X210504285Y-97993333D01*
X210580476Y-97993333D01*
X210694761Y-98031429D01*
X211151904Y-98488571D01*
X211151904Y-97993333D01*
X224921904Y-99760000D02*
X224921904Y-99683809D01*
X224960000Y-99607619D01*
X224998095Y-99569523D01*
X225074285Y-99531428D01*
X225226666Y-99493333D01*
X225417142Y-99493333D01*
X225569523Y-99531428D01*
X225645714Y-99569523D01*
X225683809Y-99607619D01*
X225721904Y-99683809D01*
X225721904Y-99760000D01*
X225683809Y-99836190D01*
X225645714Y-99874285D01*
X225569523Y-99912380D01*
X225417142Y-99950476D01*
X225226666Y-99950476D01*
X225074285Y-99912380D01*
X224998095Y-99874285D01*
X224960000Y-99836190D01*
X224921904Y-99760000D01*
X224921904Y-98998095D02*
X224921904Y-98921904D01*
X224960000Y-98845714D01*
X224998095Y-98807619D01*
X225074285Y-98769523D01*
X225226666Y-98731428D01*
X225417142Y-98731428D01*
X225569523Y-98769523D01*
X225645714Y-98807619D01*
X225683809Y-98845714D01*
X225721904Y-98921904D01*
X225721904Y-98998095D01*
X225683809Y-99074285D01*
X225645714Y-99112380D01*
X225569523Y-99150476D01*
X225417142Y-99188571D01*
X225226666Y-99188571D01*
X225074285Y-99150476D01*
X224998095Y-99112380D01*
X224960000Y-99074285D01*
X224921904Y-98998095D01*
X224921904Y-98045714D02*
X224921904Y-98198095D01*
X224960000Y-98274285D01*
X224998095Y-98312380D01*
X225112380Y-98388571D01*
X225264761Y-98426666D01*
X225569523Y-98426666D01*
X225645714Y-98388571D01*
X225683809Y-98350476D01*
X225721904Y-98274285D01*
X225721904Y-98121904D01*
X225683809Y-98045714D01*
X225645714Y-98007619D01*
X225569523Y-97969523D01*
X225379047Y-97969523D01*
X225302857Y-98007619D01*
X225264761Y-98045714D01*
X225226666Y-98121904D01*
X225226666Y-98274285D01*
X225264761Y-98350476D01*
X225302857Y-98388571D01*
X225379047Y-98426666D01*
D12*
X195308571Y-114235714D02*
X196308571Y-114235714D01*
X195451428Y-114235714D02*
X195380000Y-114164285D01*
X195308571Y-114021428D01*
X195308571Y-113807142D01*
X195380000Y-113664285D01*
X195522857Y-113592857D01*
X196308571Y-113592857D01*
X196308571Y-112878571D02*
X195308571Y-112878571D01*
X194808571Y-112878571D02*
X194880000Y-112950000D01*
X194951428Y-112878571D01*
X194880000Y-112807142D01*
X194808571Y-112878571D01*
X194951428Y-112878571D01*
X196237142Y-111521428D02*
X196308571Y-111664285D01*
X196308571Y-111950000D01*
X196237142Y-112092857D01*
X196165714Y-112164285D01*
X196022857Y-112235714D01*
X195594285Y-112235714D01*
X195451428Y-112164285D01*
X195380000Y-112092857D01*
X195308571Y-111950000D01*
X195308571Y-111664285D01*
X195380000Y-111521428D01*
X196237142Y-110307142D02*
X196308571Y-110450000D01*
X196308571Y-110735714D01*
X196237142Y-110878571D01*
X196094285Y-110950000D01*
X195522857Y-110950000D01*
X195380000Y-110878571D01*
X195308571Y-110735714D01*
X195308571Y-110450000D01*
X195380000Y-110307142D01*
X195522857Y-110235714D01*
X195665714Y-110235714D01*
X195808571Y-110950000D01*
X196165714Y-109592857D02*
X196237142Y-109521428D01*
X196308571Y-109592857D01*
X196237142Y-109664285D01*
X196165714Y-109592857D01*
X196308571Y-109592857D01*
X195737142Y-109592857D02*
X194880000Y-109664285D01*
X194808571Y-109592857D01*
X194880000Y-109521428D01*
X195737142Y-109592857D01*
X194808571Y-109592857D01*
X195308571Y-108878571D02*
X196308571Y-108878571D01*
X195451428Y-108878571D02*
X195380000Y-108807142D01*
X195308571Y-108664285D01*
X195308571Y-108450000D01*
X195380000Y-108307142D01*
X195522857Y-108235714D01*
X196308571Y-108235714D01*
X196308571Y-106878571D02*
X195522857Y-106878571D01*
X195380000Y-106950000D01*
X195308571Y-107092857D01*
X195308571Y-107378571D01*
X195380000Y-107521428D01*
X196237142Y-106878571D02*
X196308571Y-107021428D01*
X196308571Y-107378571D01*
X196237142Y-107521428D01*
X196094285Y-107592857D01*
X195951428Y-107592857D01*
X195808571Y-107521428D01*
X195737142Y-107378571D01*
X195737142Y-107021428D01*
X195665714Y-106878571D01*
X195308571Y-106164285D02*
X196308571Y-106164285D01*
X195451428Y-106164285D02*
X195380000Y-106092857D01*
X195308571Y-105950000D01*
X195308571Y-105735714D01*
X195380000Y-105592857D01*
X195522857Y-105521428D01*
X196308571Y-105521428D01*
X196308571Y-104592857D02*
X196237142Y-104735714D01*
X196165714Y-104807142D01*
X196022857Y-104878571D01*
X195594285Y-104878571D01*
X195451428Y-104807142D01*
X195380000Y-104735714D01*
X195308571Y-104592857D01*
X195308571Y-104378571D01*
X195380000Y-104235714D01*
X195451428Y-104164285D01*
X195594285Y-104092857D01*
X196022857Y-104092857D01*
X196165714Y-104164285D01*
X196237142Y-104235714D01*
X196308571Y-104378571D01*
X196308571Y-104592857D01*
D10*
X207841904Y-99783810D02*
X207841904Y-99707619D01*
X207880000Y-99631429D01*
X207918095Y-99593333D01*
X207994285Y-99555238D01*
X208146666Y-99517143D01*
X208337142Y-99517143D01*
X208489523Y-99555238D01*
X208565714Y-99593333D01*
X208603809Y-99631429D01*
X208641904Y-99707619D01*
X208641904Y-99783810D01*
X208603809Y-99860000D01*
X208565714Y-99898095D01*
X208489523Y-99936190D01*
X208337142Y-99974286D01*
X208146666Y-99974286D01*
X207994285Y-99936190D01*
X207918095Y-99898095D01*
X207880000Y-99860000D01*
X207841904Y-99783810D01*
X207918095Y-99212381D02*
X207880000Y-99174286D01*
X207841904Y-99098095D01*
X207841904Y-98907619D01*
X207880000Y-98831429D01*
X207918095Y-98793333D01*
X207994285Y-98755238D01*
X208070476Y-98755238D01*
X208184761Y-98793333D01*
X208641904Y-99250476D01*
X208641904Y-98755238D01*
X208108571Y-98069524D02*
X208641904Y-98069524D01*
X207803809Y-98260000D02*
X208375238Y-98450476D01*
X208375238Y-97955238D01*
X206101904Y-119913333D02*
X206101904Y-120370476D01*
X206101904Y-120141904D02*
X205301904Y-120141904D01*
X205416190Y-120218095D01*
X205492380Y-120294285D01*
X205530476Y-120370476D01*
X206101904Y-119151428D02*
X206101904Y-119608571D01*
X206101904Y-119380000D02*
X205301904Y-119380000D01*
X205416190Y-119456190D01*
X205492380Y-119532380D01*
X205530476Y-119608571D01*
X205301904Y-118884761D02*
X205301904Y-118389523D01*
X205606666Y-118656190D01*
X205606666Y-118541904D01*
X205644761Y-118465714D01*
X205682857Y-118427619D01*
X205759047Y-118389523D01*
X205949523Y-118389523D01*
X206025714Y-118427619D01*
X206063809Y-118465714D01*
X206101904Y-118541904D01*
X206101904Y-118770476D01*
X206063809Y-118846666D01*
X206025714Y-118884761D01*
X202711104Y-99809200D02*
X202711104Y-99733009D01*
X202749200Y-99656819D01*
X202787295Y-99618723D01*
X202863485Y-99580628D01*
X203015866Y-99542533D01*
X203206342Y-99542533D01*
X203358723Y-99580628D01*
X203434914Y-99618723D01*
X203473009Y-99656819D01*
X203511104Y-99733009D01*
X203511104Y-99809200D01*
X203473009Y-99885390D01*
X203434914Y-99923485D01*
X203358723Y-99961580D01*
X203206342Y-99999676D01*
X203015866Y-99999676D01*
X202863485Y-99961580D01*
X202787295Y-99923485D01*
X202749200Y-99885390D01*
X202711104Y-99809200D01*
X203511104Y-98780628D02*
X203511104Y-99237771D01*
X203511104Y-99009200D02*
X202711104Y-99009200D01*
X202825390Y-99085390D01*
X202901580Y-99161580D01*
X202939676Y-99237771D01*
X203511104Y-98018723D02*
X203511104Y-98475866D01*
X203511104Y-98247295D02*
X202711104Y-98247295D01*
X202825390Y-98323485D01*
X202901580Y-98399676D01*
X202939676Y-98475866D01*
X215451904Y-99783810D02*
X215451904Y-99707619D01*
X215490000Y-99631429D01*
X215528095Y-99593333D01*
X215604285Y-99555238D01*
X215756666Y-99517143D01*
X215947142Y-99517143D01*
X216099523Y-99555238D01*
X216175714Y-99593333D01*
X216213809Y-99631429D01*
X216251904Y-99707619D01*
X216251904Y-99783810D01*
X216213809Y-99860000D01*
X216175714Y-99898095D01*
X216099523Y-99936190D01*
X215947142Y-99974286D01*
X215756666Y-99974286D01*
X215604285Y-99936190D01*
X215528095Y-99898095D01*
X215490000Y-99860000D01*
X215451904Y-99783810D01*
X216251904Y-98755238D02*
X216251904Y-99212381D01*
X216251904Y-98983810D02*
X215451904Y-98983810D01*
X215566190Y-99060000D01*
X215642380Y-99136190D01*
X215680476Y-99212381D01*
X215451904Y-98488571D02*
X215451904Y-97955238D01*
X216251904Y-98298095D01*
X200221904Y-120180000D02*
X200221904Y-120103809D01*
X200260000Y-120027619D01*
X200298095Y-119989523D01*
X200374285Y-119951428D01*
X200526666Y-119913333D01*
X200717142Y-119913333D01*
X200869523Y-119951428D01*
X200945714Y-119989523D01*
X200983809Y-120027619D01*
X201021904Y-120103809D01*
X201021904Y-120180000D01*
X200983809Y-120256190D01*
X200945714Y-120294285D01*
X200869523Y-120332380D01*
X200717142Y-120370476D01*
X200526666Y-120370476D01*
X200374285Y-120332380D01*
X200298095Y-120294285D01*
X200260000Y-120256190D01*
X200221904Y-120180000D01*
X201021904Y-119151428D02*
X201021904Y-119608571D01*
X201021904Y-119380000D02*
X200221904Y-119380000D01*
X200336190Y-119456190D01*
X200412380Y-119532380D01*
X200450476Y-119608571D01*
X200221904Y-118656190D02*
X200221904Y-118580000D01*
X200260000Y-118503809D01*
X200298095Y-118465714D01*
X200374285Y-118427619D01*
X200526666Y-118389523D01*
X200717142Y-118389523D01*
X200869523Y-118427619D01*
X200945714Y-118465714D01*
X200983809Y-118503809D01*
X201021904Y-118580000D01*
X201021904Y-118656190D01*
X200983809Y-118732380D01*
X200945714Y-118770476D01*
X200869523Y-118808571D01*
X200717142Y-118846666D01*
X200526666Y-118846666D01*
X200374285Y-118808571D01*
X200298095Y-118770476D01*
X200260000Y-118732380D01*
X200221904Y-118656190D01*
X221341904Y-119868904D02*
X220960952Y-120135570D01*
X221341904Y-120326047D02*
X220541904Y-120326047D01*
X220541904Y-120021285D01*
X220580000Y-119945094D01*
X220618095Y-119906999D01*
X220694285Y-119868904D01*
X220808571Y-119868904D01*
X220884761Y-119906999D01*
X220922857Y-119945094D01*
X220960952Y-120021285D01*
X220960952Y-120326047D01*
X221303809Y-119564142D02*
X221341904Y-119449856D01*
X221341904Y-119259380D01*
X221303809Y-119183189D01*
X221265714Y-119145094D01*
X221189523Y-119106999D01*
X221113333Y-119106999D01*
X221037142Y-119145094D01*
X220999047Y-119183189D01*
X220960952Y-119259380D01*
X220922857Y-119411761D01*
X220884761Y-119487951D01*
X220846666Y-119526047D01*
X220770476Y-119564142D01*
X220694285Y-119564142D01*
X220618095Y-119526047D01*
X220580000Y-119487951D01*
X220541904Y-119411761D01*
X220541904Y-119221285D01*
X220580000Y-119106999D01*
X220541904Y-118878428D02*
X220541904Y-118421285D01*
X221341904Y-118649856D02*
X220541904Y-118649856D01*
%TO.C,K_16*%
X161472261Y-62872380D02*
X161472261Y-61872380D01*
X162043690Y-62872380D02*
X161615119Y-62300952D01*
X162043690Y-61872380D02*
X161472261Y-62443809D01*
X162234166Y-62967619D02*
X162996071Y-62967619D01*
X163757976Y-62872380D02*
X163186547Y-62872380D01*
X163472261Y-62872380D02*
X163472261Y-61872380D01*
X163377023Y-62015238D01*
X163281785Y-62110476D01*
X163186547Y-62158095D01*
X164615119Y-61872380D02*
X164424642Y-61872380D01*
X164329404Y-61920000D01*
X164281785Y-61967619D01*
X164186547Y-62110476D01*
X164138928Y-62300952D01*
X164138928Y-62681904D01*
X164186547Y-62777142D01*
X164234166Y-62824761D01*
X164329404Y-62872380D01*
X164519880Y-62872380D01*
X164615119Y-62824761D01*
X164662738Y-62777142D01*
X164710357Y-62681904D01*
X164710357Y-62443809D01*
X164662738Y-62348571D01*
X164615119Y-62300952D01*
X164519880Y-62253333D01*
X164329404Y-62253333D01*
X164234166Y-62300952D01*
X164186547Y-62348571D01*
X164138928Y-62443809D01*
%TO.C,K_19*%
X56697261Y-81922380D02*
X56697261Y-80922380D01*
X57268690Y-81922380D02*
X56840119Y-81350952D01*
X57268690Y-80922380D02*
X56697261Y-81493809D01*
X57459166Y-82017619D02*
X58221071Y-82017619D01*
X58982976Y-81922380D02*
X58411547Y-81922380D01*
X58697261Y-81922380D02*
X58697261Y-80922380D01*
X58602023Y-81065238D01*
X58506785Y-81160476D01*
X58411547Y-81208095D01*
X59459166Y-81922380D02*
X59649642Y-81922380D01*
X59744880Y-81874761D01*
X59792500Y-81827142D01*
X59887738Y-81684285D01*
X59935357Y-81493809D01*
X59935357Y-81112857D01*
X59887738Y-81017619D01*
X59840119Y-80970000D01*
X59744880Y-80922380D01*
X59554404Y-80922380D01*
X59459166Y-80970000D01*
X59411547Y-81017619D01*
X59363928Y-81112857D01*
X59363928Y-81350952D01*
X59411547Y-81446190D01*
X59459166Y-81493809D01*
X59554404Y-81541428D01*
X59744880Y-81541428D01*
X59840119Y-81493809D01*
X59887738Y-81446190D01*
X59935357Y-81350952D01*
%TO.C,K_15*%
X142422261Y-62872380D02*
X142422261Y-61872380D01*
X142993690Y-62872380D02*
X142565119Y-62300952D01*
X142993690Y-61872380D02*
X142422261Y-62443809D01*
X143184166Y-62967619D02*
X143946071Y-62967619D01*
X144707976Y-62872380D02*
X144136547Y-62872380D01*
X144422261Y-62872380D02*
X144422261Y-61872380D01*
X144327023Y-62015238D01*
X144231785Y-62110476D01*
X144136547Y-62158095D01*
X145612738Y-61872380D02*
X145136547Y-61872380D01*
X145088928Y-62348571D01*
X145136547Y-62300952D01*
X145231785Y-62253333D01*
X145469880Y-62253333D01*
X145565119Y-62300952D01*
X145612738Y-62348571D01*
X145660357Y-62443809D01*
X145660357Y-62681904D01*
X145612738Y-62777142D01*
X145565119Y-62824761D01*
X145469880Y-62872380D01*
X145231785Y-62872380D01*
X145136547Y-62824761D01*
X145088928Y-62777142D01*
%TO.C,K_21*%
X94797261Y-81922380D02*
X94797261Y-80922380D01*
X95368690Y-81922380D02*
X94940119Y-81350952D01*
X95368690Y-80922380D02*
X94797261Y-81493809D01*
X95559166Y-82017619D02*
X96321071Y-82017619D01*
X96511547Y-81017619D02*
X96559166Y-80970000D01*
X96654404Y-80922380D01*
X96892500Y-80922380D01*
X96987738Y-80970000D01*
X97035357Y-81017619D01*
X97082976Y-81112857D01*
X97082976Y-81208095D01*
X97035357Y-81350952D01*
X96463928Y-81922380D01*
X97082976Y-81922380D01*
X98035357Y-81922380D02*
X97463928Y-81922380D01*
X97749642Y-81922380D02*
X97749642Y-80922380D01*
X97654404Y-81065238D01*
X97559166Y-81160476D01*
X97463928Y-81208095D01*
%TO.C,K_22*%
X113847261Y-81922380D02*
X113847261Y-80922380D01*
X114418690Y-81922380D02*
X113990119Y-81350952D01*
X114418690Y-80922380D02*
X113847261Y-81493809D01*
X114609166Y-82017619D02*
X115371071Y-82017619D01*
X115561547Y-81017619D02*
X115609166Y-80970000D01*
X115704404Y-80922380D01*
X115942500Y-80922380D01*
X116037738Y-80970000D01*
X116085357Y-81017619D01*
X116132976Y-81112857D01*
X116132976Y-81208095D01*
X116085357Y-81350952D01*
X115513928Y-81922380D01*
X116132976Y-81922380D01*
X116513928Y-81017619D02*
X116561547Y-80970000D01*
X116656785Y-80922380D01*
X116894880Y-80922380D01*
X116990119Y-80970000D01*
X117037738Y-81017619D01*
X117085357Y-81112857D01*
X117085357Y-81208095D01*
X117037738Y-81350952D01*
X116466309Y-81922380D01*
X117085357Y-81922380D01*
%TO.C,H4*%
X224068095Y-39212380D02*
X224068095Y-38212380D01*
X224068095Y-38688571D02*
X224639523Y-38688571D01*
X224639523Y-39212380D02*
X224639523Y-38212380D01*
X225544285Y-38545714D02*
X225544285Y-39212380D01*
X225306190Y-38164761D02*
X225068095Y-38879047D01*
X225687142Y-38879047D01*
%TO.C,K_0*%
X42885952Y-43822380D02*
X42885952Y-42822380D01*
X43457380Y-43822380D02*
X43028809Y-43250952D01*
X43457380Y-42822380D02*
X42885952Y-43393809D01*
X43647857Y-43917619D02*
X44409761Y-43917619D01*
X44838333Y-42822380D02*
X44933571Y-42822380D01*
X45028809Y-42870000D01*
X45076428Y-42917619D01*
X45124047Y-43012857D01*
X45171666Y-43203333D01*
X45171666Y-43441428D01*
X45124047Y-43631904D01*
X45076428Y-43727142D01*
X45028809Y-43774761D01*
X44933571Y-43822380D01*
X44838333Y-43822380D01*
X44743095Y-43774761D01*
X44695476Y-43727142D01*
X44647857Y-43631904D01*
X44600238Y-43441428D01*
X44600238Y-43203333D01*
X44647857Y-43012857D01*
X44695476Y-42917619D01*
X44743095Y-42870000D01*
X44838333Y-42822380D01*
%TO.C,H2*%
X192278095Y-99419380D02*
X192278095Y-98419380D01*
X192278095Y-98895571D02*
X192849523Y-98895571D01*
X192849523Y-99419380D02*
X192849523Y-98419380D01*
X193278095Y-98514619D02*
X193325714Y-98467000D01*
X193420952Y-98419380D01*
X193659047Y-98419380D01*
X193754285Y-98467000D01*
X193801904Y-98514619D01*
X193849523Y-98609857D01*
X193849523Y-98705095D01*
X193801904Y-98847952D01*
X193230476Y-99419380D01*
X193849523Y-99419380D01*
%TO.C,K_17*%
X180522261Y-62872380D02*
X180522261Y-61872380D01*
X181093690Y-62872380D02*
X180665119Y-62300952D01*
X181093690Y-61872380D02*
X180522261Y-62443809D01*
X181284166Y-62967619D02*
X182046071Y-62967619D01*
X182807976Y-62872380D02*
X182236547Y-62872380D01*
X182522261Y-62872380D02*
X182522261Y-61872380D01*
X182427023Y-62015238D01*
X182331785Y-62110476D01*
X182236547Y-62158095D01*
X183141309Y-61872380D02*
X183807976Y-61872380D01*
X183379404Y-62872380D01*
%TO.C,SW1*%
X187279761Y-108563333D02*
X187327380Y-108420476D01*
X187327380Y-108182380D01*
X187279761Y-108087142D01*
X187232142Y-108039523D01*
X187136904Y-107991904D01*
X187041666Y-107991904D01*
X186946428Y-108039523D01*
X186898809Y-108087142D01*
X186851190Y-108182380D01*
X186803571Y-108372857D01*
X186755952Y-108468095D01*
X186708333Y-108515714D01*
X186613095Y-108563333D01*
X186517857Y-108563333D01*
X186422619Y-108515714D01*
X186375000Y-108468095D01*
X186327380Y-108372857D01*
X186327380Y-108134761D01*
X186375000Y-107991904D01*
X186327380Y-107658571D02*
X187327380Y-107420476D01*
X186613095Y-107230000D01*
X187327380Y-107039523D01*
X186327380Y-106801428D01*
X187327380Y-105896666D02*
X187327380Y-106468095D01*
X187327380Y-106182380D02*
X186327380Y-106182380D01*
X186470238Y-106277619D01*
X186565476Y-106372857D01*
X186613095Y-106468095D01*
%TO.C,K_5*%
X138135952Y-43822380D02*
X138135952Y-42822380D01*
X138707380Y-43822380D02*
X138278809Y-43250952D01*
X138707380Y-42822380D02*
X138135952Y-43393809D01*
X138897857Y-43917619D02*
X139659761Y-43917619D01*
X140374047Y-42822380D02*
X139897857Y-42822380D01*
X139850238Y-43298571D01*
X139897857Y-43250952D01*
X139993095Y-43203333D01*
X140231190Y-43203333D01*
X140326428Y-43250952D01*
X140374047Y-43298571D01*
X140421666Y-43393809D01*
X140421666Y-43631904D01*
X140374047Y-43727142D01*
X140326428Y-43774761D01*
X140231190Y-43822380D01*
X139993095Y-43822380D01*
X139897857Y-43774761D01*
X139850238Y-43727142D01*
%TO.C,K_18*%
X199572261Y-62872380D02*
X199572261Y-61872380D01*
X200143690Y-62872380D02*
X199715119Y-62300952D01*
X200143690Y-61872380D02*
X199572261Y-62443809D01*
X200334166Y-62967619D02*
X201096071Y-62967619D01*
X201857976Y-62872380D02*
X201286547Y-62872380D01*
X201572261Y-62872380D02*
X201572261Y-61872380D01*
X201477023Y-62015238D01*
X201381785Y-62110476D01*
X201286547Y-62158095D01*
X202429404Y-62300952D02*
X202334166Y-62253333D01*
X202286547Y-62205714D01*
X202238928Y-62110476D01*
X202238928Y-62062857D01*
X202286547Y-61967619D01*
X202334166Y-61920000D01*
X202429404Y-61872380D01*
X202619880Y-61872380D01*
X202715119Y-61920000D01*
X202762738Y-61967619D01*
X202810357Y-62062857D01*
X202810357Y-62110476D01*
X202762738Y-62205714D01*
X202715119Y-62253333D01*
X202619880Y-62300952D01*
X202429404Y-62300952D01*
X202334166Y-62348571D01*
X202286547Y-62396190D01*
X202238928Y-62491428D01*
X202238928Y-62681904D01*
X202286547Y-62777142D01*
X202334166Y-62824761D01*
X202429404Y-62872380D01*
X202619880Y-62872380D01*
X202715119Y-62824761D01*
X202762738Y-62777142D01*
X202810357Y-62681904D01*
X202810357Y-62491428D01*
X202762738Y-62396190D01*
X202715119Y-62348571D01*
X202619880Y-62300952D01*
%TO.C,H1*%
X185928095Y-99419380D02*
X185928095Y-98419380D01*
X185928095Y-98895571D02*
X186499523Y-98895571D01*
X186499523Y-99419380D02*
X186499523Y-98419380D01*
X187499523Y-99419380D02*
X186928095Y-99419380D01*
X187213809Y-99419380D02*
X187213809Y-98419380D01*
X187118571Y-98562238D01*
X187023333Y-98657476D01*
X186928095Y-98705095D01*
%TO.C,K_13*%
X104322261Y-62872380D02*
X104322261Y-61872380D01*
X104893690Y-62872380D02*
X104465119Y-62300952D01*
X104893690Y-61872380D02*
X104322261Y-62443809D01*
X105084166Y-62967619D02*
X105846071Y-62967619D01*
X106607976Y-62872380D02*
X106036547Y-62872380D01*
X106322261Y-62872380D02*
X106322261Y-61872380D01*
X106227023Y-62015238D01*
X106131785Y-62110476D01*
X106036547Y-62158095D01*
X106941309Y-61872380D02*
X107560357Y-61872380D01*
X107227023Y-62253333D01*
X107369880Y-62253333D01*
X107465119Y-62300952D01*
X107512738Y-62348571D01*
X107560357Y-62443809D01*
X107560357Y-62681904D01*
X107512738Y-62777142D01*
X107465119Y-62824761D01*
X107369880Y-62872380D01*
X107084166Y-62872380D01*
X106988928Y-62824761D01*
X106941309Y-62777142D01*
%TO.C,K_6*%
X157185952Y-43822380D02*
X157185952Y-42822380D01*
X157757380Y-43822380D02*
X157328809Y-43250952D01*
X157757380Y-42822380D02*
X157185952Y-43393809D01*
X157947857Y-43917619D02*
X158709761Y-43917619D01*
X159376428Y-42822380D02*
X159185952Y-42822380D01*
X159090714Y-42870000D01*
X159043095Y-42917619D01*
X158947857Y-43060476D01*
X158900238Y-43250952D01*
X158900238Y-43631904D01*
X158947857Y-43727142D01*
X158995476Y-43774761D01*
X159090714Y-43822380D01*
X159281190Y-43822380D01*
X159376428Y-43774761D01*
X159424047Y-43727142D01*
X159471666Y-43631904D01*
X159471666Y-43393809D01*
X159424047Y-43298571D01*
X159376428Y-43250952D01*
X159281190Y-43203333D01*
X159090714Y-43203333D01*
X158995476Y-43250952D01*
X158947857Y-43298571D01*
X158900238Y-43393809D01*
%TO.C,K_26*%
X190047261Y-81922380D02*
X190047261Y-80922380D01*
X190618690Y-81922380D02*
X190190119Y-81350952D01*
X190618690Y-80922380D02*
X190047261Y-81493809D01*
X190809166Y-82017619D02*
X191571071Y-82017619D01*
X191761547Y-81017619D02*
X191809166Y-80970000D01*
X191904404Y-80922380D01*
X192142500Y-80922380D01*
X192237738Y-80970000D01*
X192285357Y-81017619D01*
X192332976Y-81112857D01*
X192332976Y-81208095D01*
X192285357Y-81350952D01*
X191713928Y-81922380D01*
X192332976Y-81922380D01*
X193190119Y-80922380D02*
X192999642Y-80922380D01*
X192904404Y-80970000D01*
X192856785Y-81017619D01*
X192761547Y-81160476D01*
X192713928Y-81350952D01*
X192713928Y-81731904D01*
X192761547Y-81827142D01*
X192809166Y-81874761D01*
X192904404Y-81922380D01*
X193094880Y-81922380D01*
X193190119Y-81874761D01*
X193237738Y-81827142D01*
X193285357Y-81731904D01*
X193285357Y-81493809D01*
X193237738Y-81398571D01*
X193190119Y-81350952D01*
X193094880Y-81303333D01*
X192904404Y-81303333D01*
X192809166Y-81350952D01*
X192761547Y-81398571D01*
X192713928Y-81493809D01*
%TO.C,H3*%
X34728095Y-39222380D02*
X34728095Y-38222380D01*
X34728095Y-38698571D02*
X35299523Y-38698571D01*
X35299523Y-39222380D02*
X35299523Y-38222380D01*
X35680476Y-38222380D02*
X36299523Y-38222380D01*
X35966190Y-38603333D01*
X36109047Y-38603333D01*
X36204285Y-38650952D01*
X36251904Y-38698571D01*
X36299523Y-38793809D01*
X36299523Y-39031904D01*
X36251904Y-39127142D01*
X36204285Y-39174761D01*
X36109047Y-39222380D01*
X35823333Y-39222380D01*
X35728095Y-39174761D01*
X35680476Y-39127142D01*
%TO.C,K_28*%
X94797261Y-100972380D02*
X94797261Y-99972380D01*
X95368690Y-100972380D02*
X94940119Y-100400952D01*
X95368690Y-99972380D02*
X94797261Y-100543809D01*
X95559166Y-101067619D02*
X96321071Y-101067619D01*
X96511547Y-100067619D02*
X96559166Y-100020000D01*
X96654404Y-99972380D01*
X96892500Y-99972380D01*
X96987738Y-100020000D01*
X97035357Y-100067619D01*
X97082976Y-100162857D01*
X97082976Y-100258095D01*
X97035357Y-100400952D01*
X96463928Y-100972380D01*
X97082976Y-100972380D01*
X97654404Y-100400952D02*
X97559166Y-100353333D01*
X97511547Y-100305714D01*
X97463928Y-100210476D01*
X97463928Y-100162857D01*
X97511547Y-100067619D01*
X97559166Y-100020000D01*
X97654404Y-99972380D01*
X97844880Y-99972380D01*
X97940119Y-100020000D01*
X97987738Y-100067619D01*
X98035357Y-100162857D01*
X98035357Y-100210476D01*
X97987738Y-100305714D01*
X97940119Y-100353333D01*
X97844880Y-100400952D01*
X97654404Y-100400952D01*
X97559166Y-100448571D01*
X97511547Y-100496190D01*
X97463928Y-100591428D01*
X97463928Y-100781904D01*
X97511547Y-100877142D01*
X97559166Y-100924761D01*
X97654404Y-100972380D01*
X97844880Y-100972380D01*
X97940119Y-100924761D01*
X97987738Y-100877142D01*
X98035357Y-100781904D01*
X98035357Y-100591428D01*
X97987738Y-100496190D01*
X97940119Y-100448571D01*
X97844880Y-100400952D01*
%TO.C,K_30*%
X151947261Y-100972380D02*
X151947261Y-99972380D01*
X152518690Y-100972380D02*
X152090119Y-100400952D01*
X152518690Y-99972380D02*
X151947261Y-100543809D01*
X152709166Y-101067619D02*
X153471071Y-101067619D01*
X153613928Y-99972380D02*
X154232976Y-99972380D01*
X153899642Y-100353333D01*
X154042500Y-100353333D01*
X154137738Y-100400952D01*
X154185357Y-100448571D01*
X154232976Y-100543809D01*
X154232976Y-100781904D01*
X154185357Y-100877142D01*
X154137738Y-100924761D01*
X154042500Y-100972380D01*
X153756785Y-100972380D01*
X153661547Y-100924761D01*
X153613928Y-100877142D01*
X154852023Y-99972380D02*
X154947261Y-99972380D01*
X155042500Y-100020000D01*
X155090119Y-100067619D01*
X155137738Y-100162857D01*
X155185357Y-100353333D01*
X155185357Y-100591428D01*
X155137738Y-100781904D01*
X155090119Y-100877142D01*
X155042500Y-100924761D01*
X154947261Y-100972380D01*
X154852023Y-100972380D01*
X154756785Y-100924761D01*
X154709166Y-100877142D01*
X154661547Y-100781904D01*
X154613928Y-100591428D01*
X154613928Y-100353333D01*
X154661547Y-100162857D01*
X154709166Y-100067619D01*
X154756785Y-100020000D01*
X154852023Y-99972380D01*
%TO.C,K_3*%
X100035952Y-43822380D02*
X100035952Y-42822380D01*
X100607380Y-43822380D02*
X100178809Y-43250952D01*
X100607380Y-42822380D02*
X100035952Y-43393809D01*
X100797857Y-43917619D02*
X101559761Y-43917619D01*
X101702619Y-42822380D02*
X102321666Y-42822380D01*
X101988333Y-43203333D01*
X102131190Y-43203333D01*
X102226428Y-43250952D01*
X102274047Y-43298571D01*
X102321666Y-43393809D01*
X102321666Y-43631904D01*
X102274047Y-43727142D01*
X102226428Y-43774761D01*
X102131190Y-43822380D01*
X101845476Y-43822380D01*
X101750238Y-43774761D01*
X101702619Y-43727142D01*
%TO.C,K_2*%
X80985952Y-43822380D02*
X80985952Y-42822380D01*
X81557380Y-43822380D02*
X81128809Y-43250952D01*
X81557380Y-42822380D02*
X80985952Y-43393809D01*
X81747857Y-43917619D02*
X82509761Y-43917619D01*
X82700238Y-42917619D02*
X82747857Y-42870000D01*
X82843095Y-42822380D01*
X83081190Y-42822380D01*
X83176428Y-42870000D01*
X83224047Y-42917619D01*
X83271666Y-43012857D01*
X83271666Y-43108095D01*
X83224047Y-43250952D01*
X82652619Y-43822380D01*
X83271666Y-43822380D01*
%TO.C,D_31*%
X207518000Y-84582000D02*
X207518000Y-83058000D01*
X207645000Y-84582000D02*
X207645000Y-83058000D01*
X207772000Y-83058000D02*
X207772000Y-84582000D01*
X208280000Y-84582000D02*
X208280000Y-83058000D01*
X203200000Y-84582000D02*
X203708000Y-84582000D01*
X203200000Y-84582000D02*
X208280000Y-84582000D01*
X208280000Y-83058000D02*
X203200000Y-83058000D01*
X208153000Y-84582000D02*
X208153000Y-83058000D01*
X203200000Y-83058000D02*
X203200000Y-84582000D01*
X207899000Y-84582000D02*
X207899000Y-83058000D01*
X208026000Y-83058000D02*
X208026000Y-84582000D01*
%TO.C,D_30*%
X207518000Y-87122000D02*
X207518000Y-85598000D01*
X207645000Y-87122000D02*
X207645000Y-85598000D01*
X207772000Y-85598000D02*
X207772000Y-87122000D01*
X208280000Y-87122000D02*
X208280000Y-85598000D01*
X203200000Y-87122000D02*
X203708000Y-87122000D01*
X203200000Y-87122000D02*
X208280000Y-87122000D01*
X208280000Y-85598000D02*
X203200000Y-85598000D01*
X208153000Y-87122000D02*
X208153000Y-85598000D01*
X203200000Y-85598000D02*
X203200000Y-87122000D01*
X207899000Y-87122000D02*
X207899000Y-85598000D01*
X208026000Y-85598000D02*
X208026000Y-87122000D01*
%TO.C,D_29*%
X207518000Y-89662000D02*
X207518000Y-88138000D01*
X207645000Y-89662000D02*
X207645000Y-88138000D01*
X207772000Y-88138000D02*
X207772000Y-89662000D01*
X208280000Y-89662000D02*
X208280000Y-88138000D01*
X203200000Y-89662000D02*
X203708000Y-89662000D01*
X203200000Y-89662000D02*
X208280000Y-89662000D01*
X208280000Y-88138000D02*
X203200000Y-88138000D01*
X208153000Y-89662000D02*
X208153000Y-88138000D01*
X203200000Y-88138000D02*
X203200000Y-89662000D01*
X207899000Y-89662000D02*
X207899000Y-88138000D01*
X208026000Y-88138000D02*
X208026000Y-89662000D01*
%TO.C,D_28*%
X207518000Y-92202000D02*
X207518000Y-90678000D01*
X207645000Y-92202000D02*
X207645000Y-90678000D01*
X207772000Y-90678000D02*
X207772000Y-92202000D01*
X208280000Y-92202000D02*
X208280000Y-90678000D01*
X203200000Y-92202000D02*
X203708000Y-92202000D01*
X203200000Y-92202000D02*
X208280000Y-92202000D01*
X208280000Y-90678000D02*
X203200000Y-90678000D01*
X208153000Y-92202000D02*
X208153000Y-90678000D01*
X203200000Y-90678000D02*
X203200000Y-92202000D01*
X207899000Y-92202000D02*
X207899000Y-90678000D01*
X208026000Y-90678000D02*
X208026000Y-92202000D01*
%TO.C,D_27*%
X207518000Y-94742000D02*
X207518000Y-93218000D01*
X207645000Y-94742000D02*
X207645000Y-93218000D01*
X207772000Y-93218000D02*
X207772000Y-94742000D01*
X208280000Y-94742000D02*
X208280000Y-93218000D01*
X203200000Y-94742000D02*
X203708000Y-94742000D01*
X203200000Y-94742000D02*
X208280000Y-94742000D01*
X208280000Y-93218000D02*
X203200000Y-93218000D01*
X208153000Y-94742000D02*
X208153000Y-93218000D01*
X203200000Y-93218000D02*
X203200000Y-94742000D01*
X207899000Y-94742000D02*
X207899000Y-93218000D01*
X208026000Y-93218000D02*
X208026000Y-94742000D01*
%TO.C,D_26*%
X62738000Y-108966000D02*
X62738000Y-110490000D01*
X62611000Y-108966000D02*
X62611000Y-110490000D01*
X62484000Y-110490000D02*
X62484000Y-108966000D01*
X61976000Y-108966000D02*
X61976000Y-110490000D01*
X67056000Y-108966000D02*
X66548000Y-108966000D01*
X67056000Y-108966000D02*
X61976000Y-108966000D01*
X61976000Y-110490000D02*
X67056000Y-110490000D01*
X62103000Y-108966000D02*
X62103000Y-110490000D01*
X67056000Y-110490000D02*
X67056000Y-108966000D01*
X62357000Y-108966000D02*
X62357000Y-110490000D01*
X62230000Y-110490000D02*
X62230000Y-108966000D01*
%TO.C,D_25*%
X62738000Y-106426000D02*
X62738000Y-107950000D01*
X62611000Y-106426000D02*
X62611000Y-107950000D01*
X62484000Y-107950000D02*
X62484000Y-106426000D01*
X61976000Y-106426000D02*
X61976000Y-107950000D01*
X67056000Y-106426000D02*
X66548000Y-106426000D01*
X67056000Y-106426000D02*
X61976000Y-106426000D01*
X61976000Y-107950000D02*
X67056000Y-107950000D01*
X62103000Y-106426000D02*
X62103000Y-107950000D01*
X67056000Y-107950000D02*
X67056000Y-106426000D01*
X62357000Y-106426000D02*
X62357000Y-107950000D01*
X62230000Y-107950000D02*
X62230000Y-106426000D01*
%TO.C,D_24*%
X62738000Y-103886000D02*
X62738000Y-105410000D01*
X62611000Y-103886000D02*
X62611000Y-105410000D01*
X62484000Y-105410000D02*
X62484000Y-103886000D01*
X61976000Y-103886000D02*
X61976000Y-105410000D01*
X67056000Y-103886000D02*
X66548000Y-103886000D01*
X67056000Y-103886000D02*
X61976000Y-103886000D01*
X61976000Y-105410000D02*
X67056000Y-105410000D01*
X62103000Y-103886000D02*
X62103000Y-105410000D01*
X67056000Y-105410000D02*
X67056000Y-103886000D01*
X62357000Y-103886000D02*
X62357000Y-105410000D01*
X62230000Y-105410000D02*
X62230000Y-103886000D01*
%TO.C,D_23*%
X62738000Y-101346000D02*
X62738000Y-102870000D01*
X62611000Y-101346000D02*
X62611000Y-102870000D01*
X62484000Y-102870000D02*
X62484000Y-101346000D01*
X61976000Y-101346000D02*
X61976000Y-102870000D01*
X67056000Y-101346000D02*
X66548000Y-101346000D01*
X67056000Y-101346000D02*
X61976000Y-101346000D01*
X61976000Y-102870000D02*
X67056000Y-102870000D01*
X62103000Y-101346000D02*
X62103000Y-102870000D01*
X67056000Y-102870000D02*
X67056000Y-101346000D01*
X62357000Y-101346000D02*
X62357000Y-102870000D01*
X62230000Y-102870000D02*
X62230000Y-101346000D01*
%TO.C,D_22*%
X49062000Y-108966000D02*
X49062000Y-110490000D01*
X48935000Y-108966000D02*
X48935000Y-110490000D01*
X48808000Y-110490000D02*
X48808000Y-108966000D01*
X48300000Y-108966000D02*
X48300000Y-110490000D01*
X53380000Y-108966000D02*
X52872000Y-108966000D01*
X53380000Y-108966000D02*
X48300000Y-108966000D01*
X48300000Y-110490000D02*
X53380000Y-110490000D01*
X48427000Y-108966000D02*
X48427000Y-110490000D01*
X53380000Y-110490000D02*
X53380000Y-108966000D01*
X48681000Y-108966000D02*
X48681000Y-110490000D01*
X48554000Y-110490000D02*
X48554000Y-108966000D01*
%TO.C,D_21*%
X49062000Y-106426000D02*
X49062000Y-107950000D01*
X48935000Y-106426000D02*
X48935000Y-107950000D01*
X48808000Y-107950000D02*
X48808000Y-106426000D01*
X48300000Y-106426000D02*
X48300000Y-107950000D01*
X53380000Y-106426000D02*
X52872000Y-106426000D01*
X53380000Y-106426000D02*
X48300000Y-106426000D01*
X48300000Y-107950000D02*
X53380000Y-107950000D01*
X48427000Y-106426000D02*
X48427000Y-107950000D01*
X53380000Y-107950000D02*
X53380000Y-106426000D01*
X48681000Y-106426000D02*
X48681000Y-107950000D01*
X48554000Y-107950000D02*
X48554000Y-106426000D01*
%TO.C,D_20*%
X49062000Y-103886000D02*
X49062000Y-105410000D01*
X48935000Y-103886000D02*
X48935000Y-105410000D01*
X48808000Y-105410000D02*
X48808000Y-103886000D01*
X48300000Y-103886000D02*
X48300000Y-105410000D01*
X53380000Y-103886000D02*
X52872000Y-103886000D01*
X53380000Y-103886000D02*
X48300000Y-103886000D01*
X48300000Y-105410000D02*
X53380000Y-105410000D01*
X48427000Y-103886000D02*
X48427000Y-105410000D01*
X53380000Y-105410000D02*
X53380000Y-103886000D01*
X48681000Y-103886000D02*
X48681000Y-105410000D01*
X48554000Y-105410000D02*
X48554000Y-103886000D01*
%TO.C,D_19*%
X49062000Y-101346000D02*
X49062000Y-102870000D01*
X48935000Y-101346000D02*
X48935000Y-102870000D01*
X48808000Y-102870000D02*
X48808000Y-101346000D01*
X48300000Y-101346000D02*
X48300000Y-102870000D01*
X53380000Y-101346000D02*
X52872000Y-101346000D01*
X53380000Y-101346000D02*
X48300000Y-101346000D01*
X48300000Y-102870000D02*
X53380000Y-102870000D01*
X48427000Y-101346000D02*
X48427000Y-102870000D01*
X53380000Y-102870000D02*
X53380000Y-101346000D01*
X48681000Y-101346000D02*
X48681000Y-102870000D01*
X48554000Y-102870000D02*
X48554000Y-101346000D01*
%TO.C,D_18*%
X42796749Y-98472346D02*
X42796749Y-99996346D01*
X42669749Y-98472346D02*
X42669749Y-99996346D01*
X42542749Y-99996346D02*
X42542749Y-98472346D01*
X42034749Y-98472346D02*
X42034749Y-99996346D01*
X47114749Y-98472346D02*
X46606749Y-98472346D01*
X47114749Y-98472346D02*
X42034749Y-98472346D01*
X42034749Y-99996346D02*
X47114749Y-99996346D01*
X42161749Y-98472346D02*
X42161749Y-99996346D01*
X47114749Y-99996346D02*
X47114749Y-98472346D01*
X42415749Y-98472346D02*
X42415749Y-99996346D01*
X42288749Y-99996346D02*
X42288749Y-98472346D01*
%TO.C,D_17*%
X42796000Y-96012000D02*
X42796000Y-97536000D01*
X42669000Y-96012000D02*
X42669000Y-97536000D01*
X42542000Y-97536000D02*
X42542000Y-96012000D01*
X42034000Y-96012000D02*
X42034000Y-97536000D01*
X47114000Y-96012000D02*
X46606000Y-96012000D01*
X47114000Y-96012000D02*
X42034000Y-96012000D01*
X42034000Y-97536000D02*
X47114000Y-97536000D01*
X42161000Y-96012000D02*
X42161000Y-97536000D01*
X47114000Y-97536000D02*
X47114000Y-96012000D01*
X42415000Y-96012000D02*
X42415000Y-97536000D01*
X42288000Y-97536000D02*
X42288000Y-96012000D01*
%TO.C,D_16*%
X42796000Y-93472000D02*
X42796000Y-94996000D01*
X42669000Y-93472000D02*
X42669000Y-94996000D01*
X42542000Y-94996000D02*
X42542000Y-93472000D01*
X42034000Y-93472000D02*
X42034000Y-94996000D01*
X47114000Y-93472000D02*
X46606000Y-93472000D01*
X47114000Y-93472000D02*
X42034000Y-93472000D01*
X42034000Y-94996000D02*
X47114000Y-94996000D01*
X42161000Y-93472000D02*
X42161000Y-94996000D01*
X47114000Y-94996000D02*
X47114000Y-93472000D01*
X42415000Y-93472000D02*
X42415000Y-94996000D01*
X42288000Y-94996000D02*
X42288000Y-93472000D01*
%TO.C,D_15*%
X42796000Y-90932000D02*
X42796000Y-92456000D01*
X42669000Y-90932000D02*
X42669000Y-92456000D01*
X42542000Y-92456000D02*
X42542000Y-90932000D01*
X42034000Y-90932000D02*
X42034000Y-92456000D01*
X47114000Y-90932000D02*
X46606000Y-90932000D01*
X47114000Y-90932000D02*
X42034000Y-90932000D01*
X42034000Y-92456000D02*
X47114000Y-92456000D01*
X42161000Y-90932000D02*
X42161000Y-92456000D01*
X47114000Y-92456000D02*
X47114000Y-90932000D01*
X42415000Y-90932000D02*
X42415000Y-92456000D01*
X42288000Y-92456000D02*
X42288000Y-90932000D01*
%TO.C,D_14*%
X42796000Y-88392000D02*
X42796000Y-89916000D01*
X42669000Y-88392000D02*
X42669000Y-89916000D01*
X42542000Y-89916000D02*
X42542000Y-88392000D01*
X42034000Y-88392000D02*
X42034000Y-89916000D01*
X47114000Y-88392000D02*
X46606000Y-88392000D01*
X47114000Y-88392000D02*
X42034000Y-88392000D01*
X42034000Y-89916000D02*
X47114000Y-89916000D01*
X42161000Y-88392000D02*
X42161000Y-89916000D01*
X47114000Y-89916000D02*
X47114000Y-88392000D01*
X42415000Y-88392000D02*
X42415000Y-89916000D01*
X42288000Y-89916000D02*
X42288000Y-88392000D01*
%TO.C,D_13*%
X42796000Y-85852000D02*
X42796000Y-87376000D01*
X42669000Y-85852000D02*
X42669000Y-87376000D01*
X42542000Y-87376000D02*
X42542000Y-85852000D01*
X42034000Y-85852000D02*
X42034000Y-87376000D01*
X47114000Y-85852000D02*
X46606000Y-85852000D01*
X47114000Y-85852000D02*
X42034000Y-85852000D01*
X42034000Y-87376000D02*
X47114000Y-87376000D01*
X42161000Y-85852000D02*
X42161000Y-87376000D01*
X47114000Y-87376000D02*
X47114000Y-85852000D01*
X42415000Y-85852000D02*
X42415000Y-87376000D01*
X42288000Y-87376000D02*
X42288000Y-85852000D01*
%TO.C,D_12*%
X42796000Y-83312000D02*
X42796000Y-84836000D01*
X42669000Y-83312000D02*
X42669000Y-84836000D01*
X42542000Y-84836000D02*
X42542000Y-83312000D01*
X42034000Y-83312000D02*
X42034000Y-84836000D01*
X47114000Y-83312000D02*
X46606000Y-83312000D01*
X47114000Y-83312000D02*
X42034000Y-83312000D01*
X42034000Y-84836000D02*
X47114000Y-84836000D01*
X42161000Y-83312000D02*
X42161000Y-84836000D01*
X47114000Y-84836000D02*
X47114000Y-83312000D01*
X42415000Y-83312000D02*
X42415000Y-84836000D01*
X42288000Y-84836000D02*
X42288000Y-83312000D01*
%TO.C,D_11*%
X42796000Y-80772000D02*
X42796000Y-82296000D01*
X42669000Y-80772000D02*
X42669000Y-82296000D01*
X42542000Y-82296000D02*
X42542000Y-80772000D01*
X42034000Y-80772000D02*
X42034000Y-82296000D01*
X47114000Y-80772000D02*
X46606000Y-80772000D01*
X47114000Y-80772000D02*
X42034000Y-80772000D01*
X42034000Y-82296000D02*
X47114000Y-82296000D01*
X42161000Y-80772000D02*
X42161000Y-82296000D01*
X47114000Y-82296000D02*
X47114000Y-80772000D01*
X42415000Y-80772000D02*
X42415000Y-82296000D01*
X42288000Y-82296000D02*
X42288000Y-80772000D01*
%TO.C,D_10*%
X42796000Y-78232000D02*
X42796000Y-79756000D01*
X42669000Y-78232000D02*
X42669000Y-79756000D01*
X42542000Y-79756000D02*
X42542000Y-78232000D01*
X42034000Y-78232000D02*
X42034000Y-79756000D01*
X47114000Y-78232000D02*
X46606000Y-78232000D01*
X47114000Y-78232000D02*
X42034000Y-78232000D01*
X42034000Y-79756000D02*
X47114000Y-79756000D01*
X42161000Y-78232000D02*
X42161000Y-79756000D01*
X47114000Y-79756000D02*
X47114000Y-78232000D01*
X42415000Y-78232000D02*
X42415000Y-79756000D01*
X42288000Y-79756000D02*
X42288000Y-78232000D01*
%TO.C,D_9*%
X219583000Y-71882000D02*
X219583000Y-70358000D01*
X219710000Y-71882000D02*
X219710000Y-70358000D01*
X219837000Y-70358000D02*
X219837000Y-71882000D01*
X220345000Y-71882000D02*
X220345000Y-70358000D01*
X215265000Y-71882000D02*
X215773000Y-71882000D01*
X215265000Y-71882000D02*
X220345000Y-71882000D01*
X220345000Y-70358000D02*
X215265000Y-70358000D01*
X220218000Y-71882000D02*
X220218000Y-70358000D01*
X215265000Y-70358000D02*
X215265000Y-71882000D01*
X219964000Y-71882000D02*
X219964000Y-70358000D01*
X220091000Y-70358000D02*
X220091000Y-71882000D01*
%TO.C,D_8*%
X219583000Y-74422000D02*
X219583000Y-72898000D01*
X219710000Y-74422000D02*
X219710000Y-72898000D01*
X219837000Y-72898000D02*
X219837000Y-74422000D01*
X220345000Y-74422000D02*
X220345000Y-72898000D01*
X215265000Y-74422000D02*
X215773000Y-74422000D01*
X215265000Y-74422000D02*
X220345000Y-74422000D01*
X220345000Y-72898000D02*
X215265000Y-72898000D01*
X220218000Y-74422000D02*
X220218000Y-72898000D01*
X215265000Y-72898000D02*
X215265000Y-74422000D01*
X219964000Y-74422000D02*
X219964000Y-72898000D01*
X220091000Y-72898000D02*
X220091000Y-74422000D01*
%TO.C,D_7*%
X220091000Y-75438000D02*
X220091000Y-76962000D01*
X219964000Y-76962000D02*
X219964000Y-75438000D01*
X215265000Y-75438000D02*
X215265000Y-76962000D01*
X220218000Y-76962000D02*
X220218000Y-75438000D01*
X220345000Y-75438000D02*
X215265000Y-75438000D01*
X215265000Y-76962000D02*
X220345000Y-76962000D01*
X215265000Y-76962000D02*
X215773000Y-76962000D01*
X220345000Y-76962000D02*
X220345000Y-75438000D01*
X219837000Y-75438000D02*
X219837000Y-76962000D01*
X219710000Y-76962000D02*
X219710000Y-75438000D01*
X219583000Y-76962000D02*
X219583000Y-75438000D01*
%TO.C,D_6*%
X220091000Y-77978000D02*
X220091000Y-79502000D01*
X219964000Y-79502000D02*
X219964000Y-77978000D01*
X215265000Y-77978000D02*
X215265000Y-79502000D01*
X220218000Y-79502000D02*
X220218000Y-77978000D01*
X220345000Y-77978000D02*
X215265000Y-77978000D01*
X215265000Y-79502000D02*
X220345000Y-79502000D01*
X215265000Y-79502000D02*
X215773000Y-79502000D01*
X220345000Y-79502000D02*
X220345000Y-77978000D01*
X219837000Y-77978000D02*
X219837000Y-79502000D01*
X219710000Y-79502000D02*
X219710000Y-77978000D01*
X219583000Y-79502000D02*
X219583000Y-77978000D01*
%TO.C,D_5*%
X219583000Y-82042000D02*
X219583000Y-80518000D01*
X219710000Y-82042000D02*
X219710000Y-80518000D01*
X219837000Y-80518000D02*
X219837000Y-82042000D01*
X220345000Y-82042000D02*
X220345000Y-80518000D01*
X215265000Y-82042000D02*
X215773000Y-82042000D01*
X215265000Y-82042000D02*
X220345000Y-82042000D01*
X220345000Y-80518000D02*
X215265000Y-80518000D01*
X220218000Y-82042000D02*
X220218000Y-80518000D01*
X215265000Y-80518000D02*
X215265000Y-82042000D01*
X219964000Y-82042000D02*
X219964000Y-80518000D01*
X220091000Y-80518000D02*
X220091000Y-82042000D01*
%TO.C,D_4*%
X219583000Y-84582000D02*
X219583000Y-83058000D01*
X219710000Y-84582000D02*
X219710000Y-83058000D01*
X219837000Y-83058000D02*
X219837000Y-84582000D01*
X220345000Y-84582000D02*
X220345000Y-83058000D01*
X215265000Y-84582000D02*
X215773000Y-84582000D01*
X215265000Y-84582000D02*
X220345000Y-84582000D01*
X220345000Y-83058000D02*
X215265000Y-83058000D01*
X220218000Y-84582000D02*
X220218000Y-83058000D01*
X215265000Y-83058000D02*
X215265000Y-84582000D01*
X219964000Y-84582000D02*
X219964000Y-83058000D01*
X220091000Y-83058000D02*
X220091000Y-84582000D01*
%TO.C,D_3*%
X219583000Y-94742000D02*
X219583000Y-93218000D01*
X219710000Y-94742000D02*
X219710000Y-93218000D01*
X219837000Y-93218000D02*
X219837000Y-94742000D01*
X220345000Y-94742000D02*
X220345000Y-93218000D01*
X215265000Y-94742000D02*
X215773000Y-94742000D01*
X215265000Y-94742000D02*
X220345000Y-94742000D01*
X220345000Y-93218000D02*
X215265000Y-93218000D01*
X220218000Y-94742000D02*
X220218000Y-93218000D01*
X215265000Y-93218000D02*
X215265000Y-94742000D01*
X219964000Y-94742000D02*
X219964000Y-93218000D01*
X220091000Y-93218000D02*
X220091000Y-94742000D01*
%TO.C,D_2*%
X219583000Y-92202000D02*
X219583000Y-90678000D01*
X219710000Y-92202000D02*
X219710000Y-90678000D01*
X219837000Y-90678000D02*
X219837000Y-92202000D01*
X220345000Y-92202000D02*
X220345000Y-90678000D01*
X215265000Y-92202000D02*
X215773000Y-92202000D01*
X215265000Y-92202000D02*
X220345000Y-92202000D01*
X220345000Y-90678000D02*
X215265000Y-90678000D01*
X220218000Y-92202000D02*
X220218000Y-90678000D01*
X215265000Y-90678000D02*
X215265000Y-92202000D01*
X219964000Y-92202000D02*
X219964000Y-90678000D01*
X220091000Y-90678000D02*
X220091000Y-92202000D01*
%TO.C,D_1*%
X219583000Y-89662000D02*
X219583000Y-88138000D01*
X219710000Y-89662000D02*
X219710000Y-88138000D01*
X219837000Y-88138000D02*
X219837000Y-89662000D01*
X220345000Y-89662000D02*
X220345000Y-88138000D01*
X215265000Y-89662000D02*
X215773000Y-89662000D01*
X215265000Y-89662000D02*
X220345000Y-89662000D01*
X220345000Y-88138000D02*
X215265000Y-88138000D01*
X220218000Y-89662000D02*
X220218000Y-88138000D01*
X215265000Y-88138000D02*
X215265000Y-89662000D01*
X219964000Y-89662000D02*
X219964000Y-88138000D01*
X220091000Y-88138000D02*
X220091000Y-89662000D01*
%TO.C,D_0*%
X219583000Y-87122000D02*
X219583000Y-85598000D01*
X219710000Y-87122000D02*
X219710000Y-85598000D01*
X219837000Y-85598000D02*
X219837000Y-87122000D01*
X220345000Y-87122000D02*
X220345000Y-85598000D01*
X215265000Y-87122000D02*
X215773000Y-87122000D01*
X215265000Y-87122000D02*
X220345000Y-87122000D01*
X220345000Y-85598000D02*
X215265000Y-85598000D01*
X220218000Y-87122000D02*
X220218000Y-85598000D01*
X215265000Y-85598000D02*
X215265000Y-87122000D01*
X219964000Y-87122000D02*
X219964000Y-85598000D01*
X220091000Y-85598000D02*
X220091000Y-87122000D01*
%TO.C,K_12*%
X79867500Y-77040000D02*
X79867500Y-76040000D01*
X80867500Y-77040000D02*
X79867500Y-77040000D01*
X93867500Y-76040000D02*
X93867500Y-77040000D01*
X79867500Y-63040000D02*
X80867500Y-63040000D01*
X93867500Y-63040000D02*
X93867500Y-64040000D01*
X92867500Y-63040000D02*
X93867500Y-63040000D01*
X79867500Y-64040000D02*
X79867500Y-63040000D01*
X93867500Y-77040000D02*
X92867500Y-77040000D01*
%TO.C,K_11*%
X60817500Y-64040000D02*
X60817500Y-63040000D01*
X74817500Y-76040000D02*
X74817500Y-77040000D01*
X60817500Y-77040000D02*
X60817500Y-76040000D01*
X74817500Y-77040000D02*
X73817500Y-77040000D01*
X74817500Y-63040000D02*
X74817500Y-64040000D01*
X60817500Y-63040000D02*
X61817500Y-63040000D01*
X61817500Y-77040000D02*
X60817500Y-77040000D01*
X73817500Y-63040000D02*
X74817500Y-63040000D01*
%TO.C,K_1*%
X56055000Y-44990000D02*
X56055000Y-43990000D01*
X70055000Y-43990000D02*
X70055000Y-44990000D01*
X56055000Y-57990000D02*
X56055000Y-56990000D01*
X70055000Y-56990000D02*
X70055000Y-57990000D01*
X57055000Y-57990000D02*
X56055000Y-57990000D01*
X56055000Y-43990000D02*
X57055000Y-43990000D01*
X70055000Y-57990000D02*
X69055000Y-57990000D01*
X69055000Y-43990000D02*
X70055000Y-43990000D01*
%TO.C,K_27*%
X70342500Y-101140000D02*
X71342500Y-101140000D01*
X71342500Y-115140000D02*
X70342500Y-115140000D01*
X84342500Y-114140000D02*
X84342500Y-115140000D01*
X70342500Y-115140000D02*
X70342500Y-114140000D01*
X84342500Y-115140000D02*
X83342500Y-115140000D01*
X83342500Y-101140000D02*
X84342500Y-101140000D01*
X84342500Y-101140000D02*
X84342500Y-102140000D01*
X70342500Y-102140000D02*
X70342500Y-101140000D01*
D14*
%TO.C,H6*%
X230663132Y-122945067D02*
G75*
G03*
X230663132Y-122945067I-2250000J0D01*
G01*
D10*
%TO.C,K_8*%
X189405000Y-57990000D02*
X189405000Y-56990000D01*
X203405000Y-56990000D02*
X203405000Y-57990000D01*
X203405000Y-57990000D02*
X202405000Y-57990000D01*
X189405000Y-43990000D02*
X190405000Y-43990000D01*
X202405000Y-43990000D02*
X203405000Y-43990000D01*
X190405000Y-57990000D02*
X189405000Y-57990000D01*
X203405000Y-43990000D02*
X203405000Y-44990000D01*
X189405000Y-44990000D02*
X189405000Y-43990000D01*
D14*
%TO.C,H5*%
X230660000Y-95540000D02*
G75*
G03*
X230660000Y-95540000I-2250000J0D01*
G01*
D10*
%TO.C,K_25*%
X165592500Y-83090000D02*
X165592500Y-82090000D01*
X179592500Y-96090000D02*
X178592500Y-96090000D01*
X178592500Y-82090000D02*
X179592500Y-82090000D01*
X166592500Y-96090000D02*
X165592500Y-96090000D01*
X179592500Y-95090000D02*
X179592500Y-96090000D01*
X165592500Y-96090000D02*
X165592500Y-95090000D01*
X179592500Y-82090000D02*
X179592500Y-83090000D01*
X165592500Y-82090000D02*
X166592500Y-82090000D01*
%TO.C,K_31*%
X179592500Y-101140000D02*
X179592500Y-102140000D01*
X179592500Y-115140000D02*
X178592500Y-115140000D01*
X179592500Y-114140000D02*
X179592500Y-115140000D01*
X178592500Y-101140000D02*
X179592500Y-101140000D01*
X165592500Y-115140000D02*
X165592500Y-114140000D01*
X166592500Y-115140000D02*
X165592500Y-115140000D01*
X165592500Y-102140000D02*
X165592500Y-101140000D01*
X165592500Y-101140000D02*
X166592500Y-101140000D01*
%TO.C,K_23*%
X141492500Y-95090000D02*
X141492500Y-96090000D01*
X141492500Y-96090000D02*
X140492500Y-96090000D01*
X127492500Y-96090000D02*
X127492500Y-95090000D01*
X127492500Y-83090000D02*
X127492500Y-82090000D01*
X128492500Y-96090000D02*
X127492500Y-96090000D01*
X140492500Y-82090000D02*
X141492500Y-82090000D01*
X127492500Y-82090000D02*
X128492500Y-82090000D01*
X141492500Y-82090000D02*
X141492500Y-83090000D01*
%TO.C,K_10*%
X41767500Y-64040000D02*
X41767500Y-63040000D01*
X55767500Y-77040000D02*
X54767500Y-77040000D01*
X42767500Y-77040000D02*
X41767500Y-77040000D01*
X54767500Y-63040000D02*
X55767500Y-63040000D01*
X55767500Y-63040000D02*
X55767500Y-64040000D01*
X41767500Y-77040000D02*
X41767500Y-76040000D01*
X41767500Y-63040000D02*
X42767500Y-63040000D01*
X55767500Y-76040000D02*
X55767500Y-77040000D01*
%TO.C,K_24*%
X160542500Y-96090000D02*
X159542500Y-96090000D01*
X146542500Y-83090000D02*
X146542500Y-82090000D01*
X159542500Y-82090000D02*
X160542500Y-82090000D01*
X147542500Y-96090000D02*
X146542500Y-96090000D01*
X160542500Y-82090000D02*
X160542500Y-83090000D01*
X146542500Y-96090000D02*
X146542500Y-95090000D01*
X160542500Y-95090000D02*
X160542500Y-96090000D01*
X146542500Y-82090000D02*
X147542500Y-82090000D01*
%TO.C,K_9*%
X222455000Y-43990000D02*
X222455000Y-44990000D01*
X208455000Y-57990000D02*
X208455000Y-56990000D01*
X222455000Y-56990000D02*
X222455000Y-57990000D01*
X208455000Y-43990000D02*
X209455000Y-43990000D01*
X221455000Y-43990000D02*
X222455000Y-43990000D01*
X222455000Y-57990000D02*
X221455000Y-57990000D01*
X208455000Y-44990000D02*
X208455000Y-43990000D01*
X209455000Y-57990000D02*
X208455000Y-57990000D01*
%TO.C,K_7*%
X170355000Y-44990000D02*
X170355000Y-43990000D01*
X184355000Y-57990000D02*
X183355000Y-57990000D01*
X184355000Y-56990000D02*
X184355000Y-57990000D01*
X171355000Y-57990000D02*
X170355000Y-57990000D01*
X184355000Y-43990000D02*
X184355000Y-44990000D01*
X170355000Y-57990000D02*
X170355000Y-56990000D01*
X170355000Y-43990000D02*
X171355000Y-43990000D01*
X183355000Y-43990000D02*
X184355000Y-43990000D01*
%TO.C,K_14*%
X131967500Y-76040000D02*
X131967500Y-77040000D01*
X117967500Y-77040000D02*
X117967500Y-76040000D01*
X117967500Y-64040000D02*
X117967500Y-63040000D01*
X131967500Y-63040000D02*
X131967500Y-64040000D01*
X131967500Y-77040000D02*
X130967500Y-77040000D01*
X118967500Y-77040000D02*
X117967500Y-77040000D01*
X130967500Y-63040000D02*
X131967500Y-63040000D01*
X117967500Y-63040000D02*
X118967500Y-63040000D01*
%TO.C,K_20*%
X70342500Y-96090000D02*
X70342500Y-95090000D01*
X84342500Y-82090000D02*
X84342500Y-83090000D01*
X84342500Y-96090000D02*
X83342500Y-96090000D01*
X84342500Y-95090000D02*
X84342500Y-96090000D01*
X70342500Y-83090000D02*
X70342500Y-82090000D01*
X71342500Y-96090000D02*
X70342500Y-96090000D01*
X83342500Y-82090000D02*
X84342500Y-82090000D01*
X70342500Y-82090000D02*
X71342500Y-82090000D01*
%TO.C,K_4*%
X127205000Y-43990000D02*
X127205000Y-44990000D01*
X114205000Y-57990000D02*
X113205000Y-57990000D01*
X113205000Y-57990000D02*
X113205000Y-56990000D01*
X127205000Y-56990000D02*
X127205000Y-57990000D01*
X113205000Y-43990000D02*
X114205000Y-43990000D01*
X113205000Y-44990000D02*
X113205000Y-43990000D01*
X127205000Y-57990000D02*
X126205000Y-57990000D01*
X126205000Y-43990000D02*
X127205000Y-43990000D01*
D14*
%TO.C,H7*%
X34160000Y-100110000D02*
G75*
G03*
X34160000Y-100110000I-2250000J0D01*
G01*
%TO.C,H8*%
X57000000Y-122950000D02*
G75*
G03*
X57000000Y-122950000I-2250000J0D01*
G01*
D10*
%TO.C,K_16*%
X156067500Y-77040000D02*
X156067500Y-76040000D01*
X170067500Y-77040000D02*
X169067500Y-77040000D01*
X156067500Y-64040000D02*
X156067500Y-63040000D01*
X170067500Y-63040000D02*
X170067500Y-64040000D01*
X156067500Y-63040000D02*
X157067500Y-63040000D01*
X157067500Y-77040000D02*
X156067500Y-77040000D01*
X169067500Y-63040000D02*
X170067500Y-63040000D01*
X170067500Y-76040000D02*
X170067500Y-77040000D01*
%TO.C,K_19*%
X51292500Y-83090000D02*
X51292500Y-82090000D01*
X65292500Y-82090000D02*
X65292500Y-83090000D01*
X65292500Y-95090000D02*
X65292500Y-96090000D01*
X65292500Y-96090000D02*
X64292500Y-96090000D01*
X52292500Y-96090000D02*
X51292500Y-96090000D01*
X51292500Y-96090000D02*
X51292500Y-95090000D01*
X51292500Y-82090000D02*
X52292500Y-82090000D01*
X64292500Y-82090000D02*
X65292500Y-82090000D01*
%TO.C,K_15*%
X137017500Y-64040000D02*
X137017500Y-63040000D01*
X151017500Y-77040000D02*
X150017500Y-77040000D01*
X137017500Y-77040000D02*
X137017500Y-76040000D01*
X151017500Y-63040000D02*
X151017500Y-64040000D01*
X151017500Y-76040000D02*
X151017500Y-77040000D01*
X138017500Y-77040000D02*
X137017500Y-77040000D01*
X137017500Y-63040000D02*
X138017500Y-63040000D01*
X150017500Y-63040000D02*
X151017500Y-63040000D01*
%TO.C,K_29*%
X117976300Y-102140000D02*
X117976300Y-101140000D01*
X117976300Y-115140000D02*
X117976300Y-114140000D01*
X131976300Y-115140000D02*
X130976300Y-115140000D01*
X117976300Y-101140000D02*
X118976300Y-101140000D01*
X131976300Y-101140000D02*
X131976300Y-102140000D01*
X131976300Y-114140000D02*
X131976300Y-115140000D01*
X118976300Y-115140000D02*
X117976300Y-115140000D01*
X130976300Y-101140000D02*
X131976300Y-101140000D01*
%TO.C,K_21*%
X89392500Y-83090000D02*
X89392500Y-82090000D01*
X103392500Y-82090000D02*
X103392500Y-83090000D01*
X103392500Y-96090000D02*
X102392500Y-96090000D01*
X90392500Y-96090000D02*
X89392500Y-96090000D01*
X103392500Y-95090000D02*
X103392500Y-96090000D01*
X89392500Y-96090000D02*
X89392500Y-95090000D01*
X102392500Y-82090000D02*
X103392500Y-82090000D01*
X89392500Y-82090000D02*
X90392500Y-82090000D01*
%TO.C,K_22*%
X109442500Y-96090000D02*
X108442500Y-96090000D01*
X108442500Y-83090000D02*
X108442500Y-82090000D01*
X108442500Y-82090000D02*
X109442500Y-82090000D01*
X122442500Y-95090000D02*
X122442500Y-96090000D01*
X122442500Y-82090000D02*
X122442500Y-83090000D01*
X121442500Y-82090000D02*
X122442500Y-82090000D01*
X108442500Y-96090000D02*
X108442500Y-95090000D01*
X122442500Y-96090000D02*
X121442500Y-96090000D01*
D14*
%TO.C,H4*%
X230660000Y-38750000D02*
G75*
G03*
X230660000Y-38750000I-2250000J0D01*
G01*
D10*
%TO.C,K_0*%
X37005000Y-43990000D02*
X38005000Y-43990000D01*
X37005000Y-57990000D02*
X37005000Y-56990000D01*
X51005000Y-56990000D02*
X51005000Y-57990000D01*
X38005000Y-57990000D02*
X37005000Y-57990000D01*
X37005000Y-44990000D02*
X37005000Y-43990000D01*
X51005000Y-57990000D02*
X50005000Y-57990000D01*
X51005000Y-43990000D02*
X51005000Y-44990000D01*
X50005000Y-43990000D02*
X51005000Y-43990000D01*
D14*
%TO.C,H2*%
X194240000Y-100965000D02*
G75*
G03*
X194240000Y-100965000I-1200000J0D01*
G01*
D10*
%TO.C,K_17*%
X175117500Y-77040000D02*
X175117500Y-76040000D01*
X175117500Y-64040000D02*
X175117500Y-63040000D01*
X189117500Y-76040000D02*
X189117500Y-77040000D01*
X175117500Y-63040000D02*
X176117500Y-63040000D01*
X176117500Y-77040000D02*
X175117500Y-77040000D01*
X189117500Y-77040000D02*
X188117500Y-77040000D01*
X189117500Y-63040000D02*
X189117500Y-64040000D01*
X188117500Y-63040000D02*
X189117500Y-63040000D01*
D14*
%TO.C,SW1*%
X186905000Y-111720000D02*
X187405000Y-111220000D01*
X192125000Y-113630000D02*
X191815000Y-113630000D01*
X187605000Y-104810000D02*
X187915000Y-104810000D01*
X187915000Y-113630000D02*
X187605000Y-113630000D01*
X187405000Y-111220000D02*
X186905000Y-110720000D01*
X192125000Y-104810000D02*
X191815000Y-104810000D01*
X186905000Y-110720000D02*
X186905000Y-111720000D01*
X192125000Y-104810000D02*
X192125000Y-113630000D01*
X187605000Y-113630000D02*
X187605000Y-104810000D01*
D10*
%TO.C,K_5*%
X132255000Y-57990000D02*
X132255000Y-56990000D01*
X132255000Y-43990000D02*
X133255000Y-43990000D01*
X145255000Y-43990000D02*
X146255000Y-43990000D01*
X133255000Y-57990000D02*
X132255000Y-57990000D01*
X146255000Y-56990000D02*
X146255000Y-57990000D01*
X146255000Y-43990000D02*
X146255000Y-44990000D01*
X146255000Y-57990000D02*
X145255000Y-57990000D01*
X132255000Y-44990000D02*
X132255000Y-43990000D01*
%TO.C,K_18*%
X208167500Y-76040000D02*
X208167500Y-77040000D01*
X208167500Y-63040000D02*
X208167500Y-64040000D01*
X194167500Y-77040000D02*
X194167500Y-76040000D01*
X207167500Y-63040000D02*
X208167500Y-63040000D01*
X194167500Y-64040000D02*
X194167500Y-63040000D01*
X195167500Y-77040000D02*
X194167500Y-77040000D01*
X194167500Y-63040000D02*
X195167500Y-63040000D01*
X208167500Y-77040000D02*
X207167500Y-77040000D01*
D14*
%TO.C,H1*%
X187890000Y-100965000D02*
G75*
G03*
X187890000Y-100965000I-1200000J0D01*
G01*
D10*
%TO.C,K_13*%
X112917500Y-77040000D02*
X111917500Y-77040000D01*
X98917500Y-64040000D02*
X98917500Y-63040000D01*
X111917500Y-63040000D02*
X112917500Y-63040000D01*
X99917500Y-77040000D02*
X98917500Y-77040000D01*
X112917500Y-63040000D02*
X112917500Y-64040000D01*
X112917500Y-76040000D02*
X112917500Y-77040000D01*
X98917500Y-63040000D02*
X99917500Y-63040000D01*
X98917500Y-77040000D02*
X98917500Y-76040000D01*
%TO.C,K_6*%
X151305000Y-57990000D02*
X151305000Y-56990000D01*
X165305000Y-43990000D02*
X165305000Y-44990000D01*
X151305000Y-44990000D02*
X151305000Y-43990000D01*
X151305000Y-43990000D02*
X152305000Y-43990000D01*
X165305000Y-57990000D02*
X164305000Y-57990000D01*
X165305000Y-56990000D02*
X165305000Y-57990000D01*
X152305000Y-57990000D02*
X151305000Y-57990000D01*
X164305000Y-43990000D02*
X165305000Y-43990000D01*
%TO.C,K_26*%
X198642500Y-96090000D02*
X197642500Y-96090000D01*
X184642500Y-82090000D02*
X185642500Y-82090000D01*
X184642500Y-83090000D02*
X184642500Y-82090000D01*
X198642500Y-82090000D02*
X198642500Y-83090000D01*
X197642500Y-82090000D02*
X198642500Y-82090000D01*
X184642500Y-96090000D02*
X184642500Y-95090000D01*
X198642500Y-95090000D02*
X198642500Y-96090000D01*
X185642500Y-96090000D02*
X184642500Y-96090000D01*
D14*
%TO.C,H3*%
X34170000Y-38750000D02*
G75*
G03*
X34170000Y-38750000I-2250000J0D01*
G01*
D10*
%TO.C,K_28*%
X89392500Y-102140000D02*
X89392500Y-101140000D01*
X89392500Y-115140000D02*
X89392500Y-114140000D01*
X90392500Y-115140000D02*
X89392500Y-115140000D01*
X103392500Y-115140000D02*
X102392500Y-115140000D01*
X89392500Y-101140000D02*
X90392500Y-101140000D01*
X102392500Y-101140000D02*
X103392500Y-101140000D01*
X103392500Y-114140000D02*
X103392500Y-115140000D01*
X103392500Y-101140000D02*
X103392500Y-102140000D01*
%TO.C,K_30*%
X146542500Y-101140000D02*
X147542500Y-101140000D01*
X160542500Y-101140000D02*
X160542500Y-102140000D01*
X159542500Y-101140000D02*
X160542500Y-101140000D01*
X146542500Y-115140000D02*
X146542500Y-114140000D01*
X147542500Y-115140000D02*
X146542500Y-115140000D01*
X146542500Y-102140000D02*
X146542500Y-101140000D01*
X160542500Y-114140000D02*
X160542500Y-115140000D01*
X160542500Y-115140000D02*
X159542500Y-115140000D01*
%TO.C,K_3*%
X94155000Y-57990000D02*
X94155000Y-56990000D01*
X94155000Y-44990000D02*
X94155000Y-43990000D01*
X107155000Y-43990000D02*
X108155000Y-43990000D01*
X108155000Y-43990000D02*
X108155000Y-44990000D01*
X94155000Y-43990000D02*
X95155000Y-43990000D01*
X95155000Y-57990000D02*
X94155000Y-57990000D01*
X108155000Y-56990000D02*
X108155000Y-57990000D01*
X108155000Y-57990000D02*
X107155000Y-57990000D01*
%TO.C,K_2*%
X89105000Y-57990000D02*
X88105000Y-57990000D01*
X88105000Y-43990000D02*
X89105000Y-43990000D01*
X75105000Y-43990000D02*
X76105000Y-43990000D01*
X75105000Y-44990000D02*
X75105000Y-43990000D01*
X89105000Y-43990000D02*
X89105000Y-44990000D01*
X89105000Y-56990000D02*
X89105000Y-57990000D01*
X75105000Y-57990000D02*
X75105000Y-56990000D01*
X76105000Y-57990000D02*
X75105000Y-57990000D01*
%TD*%
D15*
%TO.C,D_31*%
X209640000Y-83820000D03*
D16*
X201840000Y-83820000D03*
%TD*%
D15*
%TO.C,D_30*%
X209640000Y-86360000D03*
D16*
X201840000Y-86360000D03*
%TD*%
D15*
%TO.C,D_29*%
X209640000Y-88900000D03*
D16*
X201840000Y-88900000D03*
%TD*%
D15*
%TO.C,D_28*%
X209640000Y-91440000D03*
D16*
X201840000Y-91440000D03*
%TD*%
D15*
%TO.C,D_27*%
X209640000Y-93980000D03*
D16*
X201840000Y-93980000D03*
%TD*%
D15*
%TO.C,D_26*%
X60616000Y-109728000D03*
D16*
X68416000Y-109728000D03*
%TD*%
D15*
%TO.C,D_25*%
X60616000Y-107188000D03*
D16*
X68416000Y-107188000D03*
%TD*%
D15*
%TO.C,D_24*%
X60616000Y-104648000D03*
D16*
X68416000Y-104648000D03*
%TD*%
D15*
%TO.C,D_23*%
X60616000Y-102108000D03*
D16*
X68416000Y-102108000D03*
%TD*%
D15*
%TO.C,D_22*%
X46940000Y-109728000D03*
D16*
X54740000Y-109728000D03*
%TD*%
D15*
%TO.C,D_21*%
X46940000Y-107188000D03*
D16*
X54740000Y-107188000D03*
%TD*%
D15*
%TO.C,D_20*%
X46940000Y-104648000D03*
D16*
X54740000Y-104648000D03*
%TD*%
D15*
%TO.C,D_19*%
X46940000Y-102108000D03*
D16*
X54740000Y-102108000D03*
%TD*%
D15*
%TO.C,D_18*%
X40674749Y-99234346D03*
D16*
X48474749Y-99234346D03*
%TD*%
D15*
%TO.C,D_17*%
X40674000Y-96774000D03*
D16*
X48474000Y-96774000D03*
%TD*%
D15*
%TO.C,D_16*%
X40674000Y-94234000D03*
D16*
X48474000Y-94234000D03*
%TD*%
D15*
%TO.C,D_15*%
X40674000Y-91694000D03*
D16*
X48474000Y-91694000D03*
%TD*%
D15*
%TO.C,D_14*%
X40674000Y-89154000D03*
D16*
X48474000Y-89154000D03*
%TD*%
D15*
%TO.C,D_13*%
X40674000Y-86614000D03*
D16*
X48474000Y-86614000D03*
%TD*%
D15*
%TO.C,D_12*%
X40674000Y-84074000D03*
D16*
X48474000Y-84074000D03*
%TD*%
D15*
%TO.C,D_11*%
X40674000Y-81534000D03*
D16*
X48474000Y-81534000D03*
%TD*%
D15*
%TO.C,D_10*%
X40674000Y-78994000D03*
D16*
X48474000Y-78994000D03*
%TD*%
D15*
%TO.C,D_9*%
X221705000Y-71120000D03*
D16*
X213905000Y-71120000D03*
%TD*%
D15*
%TO.C,D_8*%
X221705000Y-73660000D03*
D16*
X213905000Y-73660000D03*
%TD*%
%TO.C,D_7*%
X213905000Y-76200000D03*
D15*
X221705000Y-76200000D03*
%TD*%
D16*
%TO.C,D_6*%
X213905000Y-78740000D03*
D15*
X221705000Y-78740000D03*
%TD*%
%TO.C,D_5*%
X221705000Y-81280000D03*
D16*
X213905000Y-81280000D03*
%TD*%
D15*
%TO.C,D_4*%
X221705000Y-83820000D03*
D16*
X213905000Y-83820000D03*
%TD*%
D15*
%TO.C,D_3*%
X221705000Y-93980000D03*
D16*
X213905000Y-93980000D03*
%TD*%
D15*
%TO.C,D_2*%
X221705000Y-91440000D03*
D16*
X213905000Y-91440000D03*
%TD*%
D15*
%TO.C,D_1*%
X221705000Y-88900000D03*
D16*
X213905000Y-88900000D03*
%TD*%
D15*
%TO.C,D_0*%
X221705000Y-86360000D03*
D16*
X213905000Y-86360000D03*
%TD*%
D17*
%TO.C,U1*%
X226060000Y-101600000D03*
X223520000Y-101600000D03*
X220980000Y-101600000D03*
X218440000Y-101600000D03*
X215900000Y-101600000D03*
X213360000Y-101600000D03*
X210820000Y-101600000D03*
X208280000Y-101600000D03*
X205740000Y-101600000D03*
X203200000Y-101600000D03*
X200660000Y-101600000D03*
X198120000Y-101600000D03*
X198120000Y-116840000D03*
X200660000Y-116840000D03*
X203200000Y-116840000D03*
X205740000Y-116840000D03*
X208280000Y-116840000D03*
X210820000Y-116840000D03*
X213360000Y-116840000D03*
X215900000Y-116840000D03*
X218440000Y-116840000D03*
X220980000Y-116840000D03*
X223520000Y-116840000D03*
X226060000Y-116840000D03*
%TD*%
M02*
