M48
; DRILL file {KiCad (6.0.0-rc1-306-g01eebd0b9d)} date Mon Mar 14 13:09:13 2022
; FORMAT={-:-/ absolute / metric / decimal}
; #@! TF.CreationDate,2022-03-14T13:09:13+00:00
; #@! TF.GenerationSoftware,Kicad,Pcbnew,(6.0.0-rc1-306-g01eebd0b9d)
; #@! TF.FileFunction,NonPlated,1,2,NPTH
FMAT,2
METRIC
; #@! TA.AperFunction,NonPlated,NPTH,ComponentDrill
T1C1.702
; #@! TA.AperFunction,NonPlated,NPTH,ComponentDrill
T2C3.048
; #@! TA.AperFunction,NonPlated,NPTH,ComponentDrill
T3C3.988
%
G90
G05
T1
X38.505Y-50.99
X38.925Y-50.99
X43.267Y-70.04
X43.688Y-70.04
X49.085Y-50.99
X49.505Y-50.99
X52.792Y-89.09
X53.212Y-89.09
X53.847Y-70.04
X54.267Y-70.04
X57.555Y-50.99
X57.975Y-50.99
X62.317Y-70.04
X62.737Y-70.04
X63.372Y-89.09
X63.792Y-89.09
X68.135Y-50.99
X68.555Y-50.99
X71.843Y-89.09
X71.843Y-108.14
X72.263Y-89.09
X72.263Y-108.14
X72.897Y-70.04
X73.317Y-70.04
X76.605Y-50.99
X77.025Y-50.99
X81.367Y-70.04
X81.787Y-70.04
X82.422Y-89.09
X82.422Y-108.14
X82.843Y-89.09
X82.843Y-108.14
X87.185Y-50.99
X87.605Y-50.99
X90.892Y-89.09
X90.892Y-108.14
X91.312Y-89.09
X91.312Y-108.14
X91.947Y-70.04
X92.367Y-70.04
X95.655Y-50.99
X96.075Y-50.99
X100.417Y-70.04
X100.837Y-70.04
X101.472Y-89.09
X101.472Y-108.14
X101.892Y-89.09
X101.892Y-108.14
X106.235Y-50.99
X106.655Y-50.99
X109.942Y-89.09
X110.362Y-89.09
X110.997Y-70.04
X111.417Y-70.04
X114.705Y-50.99
X115.125Y-50.99
X119.468Y-70.04
X119.476Y-108.14
X119.887Y-70.04
X119.896Y-108.14
X120.522Y-89.09
X120.942Y-89.09
X125.285Y-50.99
X125.705Y-50.99
X128.993Y-89.09
X129.412Y-89.09
X130.047Y-70.04
X130.056Y-108.14
X130.468Y-70.04
X130.476Y-108.14
X133.755Y-50.99
X134.175Y-50.99
X138.517Y-70.04
X138.938Y-70.04
X139.572Y-89.09
X139.993Y-89.09
X144.335Y-50.99
X144.755Y-50.99
X148.042Y-89.09
X148.042Y-108.14
X148.463Y-89.09
X148.463Y-108.14
X149.097Y-70.04
X149.517Y-70.04
X152.805Y-50.99
X153.225Y-50.99
X157.567Y-70.04
X157.987Y-70.04
X158.623Y-89.09
X158.623Y-108.14
X159.042Y-89.09
X159.042Y-108.14
X163.385Y-50.99
X163.805Y-50.99
X167.093Y-89.09
X167.093Y-108.14
X167.512Y-89.09
X167.512Y-108.14
X168.147Y-70.04
X168.567Y-70.04
X171.855Y-50.99
X172.275Y-50.99
X176.617Y-70.04
X177.037Y-70.04
X177.672Y-89.09
X177.672Y-108.14
X178.093Y-89.09
X178.093Y-108.14
X182.435Y-50.99
X182.855Y-50.99
X186.142Y-89.09
X186.562Y-89.09
X187.197Y-70.04
X187.617Y-70.04
X190.905Y-50.99
X191.325Y-50.99
X195.667Y-70.04
X196.087Y-70.04
X196.722Y-89.09
X197.142Y-89.09
X201.485Y-50.99
X201.905Y-50.99
X206.248Y-70.04
X206.667Y-70.04
X209.955Y-50.99
X210.375Y-50.99
X220.535Y-50.99
X220.955Y-50.99
T2
X113.029Y-101.155
X136.905Y-101.155
T3
X44.005Y-50.99
X48.767Y-70.04
X58.292Y-89.09
X63.055Y-50.99
X67.817Y-70.04
X77.343Y-89.09
X77.343Y-108.14
X82.105Y-50.99
X86.867Y-70.04
X96.392Y-89.09
X96.392Y-108.14
X101.155Y-50.99
X105.917Y-70.04
X113.029Y-116.395
X115.442Y-89.09
X120.205Y-50.99
X124.968Y-70.04
X124.976Y-108.14
X134.493Y-89.09
X136.905Y-116.395
X139.255Y-50.99
X144.017Y-70.04
X153.542Y-89.09
X153.542Y-108.14
X158.305Y-50.99
X163.067Y-70.04
X172.593Y-89.09
X172.593Y-108.14
X177.355Y-50.99
X182.117Y-70.04
X191.642Y-89.09
X196.405Y-50.99
X201.167Y-70.04
X215.455Y-50.99
T0
M30
