M48
; DRILL file {KiCad (6.0.0-rc1-306-g01eebd0b9d)} date Thu Apr  7 08:08:28 2022
; FORMAT={-:-/ absolute / inch / decimal}
; #@! TF.CreationDate,2022-04-07T08:08:28+01:00
; #@! TF.GenerationSoftware,Kicad,Pcbnew,(6.0.0-rc1-306-g01eebd0b9d)
; #@! TF.FileFunction,Plated,1,2,PTH
FMAT,2
INCH
; #@! TA.AperFunction,Plated,PTH,ViaDrill
T1C0.0157
; #@! TA.AperFunction,Plated,PTH,ComponentDrill
T2C0.0315
; #@! TA.AperFunction,Plated,PTH,ComponentDrill
T3C0.0394
; #@! TA.AperFunction,Plated,PTH,ComponentDrill
T4C0.0430
; #@! TA.AperFunction,Plated,PTH,ComponentDrill
T5C0.0472
; #@! TA.AperFunction,Plated,PTH,ComponentDrill
T6C0.0500
; #@! TA.AperFunction,Plated,PTH,ComponentDrill
T7C0.0591
; #@! TA.AperFunction,Plated,PTH,ComponentDrill
T8C0.0787
%
G90
G05
T1
X2.58Y-3.92
X3.42Y-4.1
X4.3Y-4.1
X5.59Y-4.1
X6.6Y-4.1
X7.01Y-4.09
X8.075Y-3.175
X8.075Y-3.8
T2
X7.475Y-4.2213
X7.475Y-4.3
X7.475Y-4.3787
T3
X1.6013Y-3.11
X1.6013Y-3.21
X1.6013Y-3.31
X1.6013Y-3.41
X1.6013Y-3.51
X1.6013Y-3.61
X1.6013Y-3.71
X1.6013Y-3.81
X1.6014Y-3.9069
X1.848Y-4.02
X1.848Y-4.12
X1.848Y-4.22
X1.848Y-4.32
X1.9084Y-3.11
X1.9084Y-3.21
X1.9084Y-3.31
X1.9084Y-3.41
X1.9084Y-3.51
X1.9084Y-3.61
X1.9084Y-3.71
X1.9084Y-3.81
X1.9085Y-3.9069
X2.1551Y-4.02
X2.1551Y-4.12
X2.1551Y-4.22
X2.1551Y-4.32
X2.3865Y-4.02
X2.3865Y-4.12
X2.3865Y-4.22
X2.3865Y-4.32
X2.6935Y-4.02
X2.6935Y-4.12
X2.6935Y-4.22
X2.6935Y-4.32
X7.35Y-3.975
X7.625Y-3.975
X7.65Y-4.25
X7.65Y-4.35
X7.9465Y-3.3
X7.9465Y-3.4
X7.9465Y-3.5
X7.9465Y-3.6
X7.9465Y-3.7
X8.2535Y-3.3
X8.2535Y-3.4
X8.2535Y-3.5
X8.2535Y-3.6
X8.2535Y-3.7
X8.4215Y-2.8
X8.4215Y-2.9
X8.4215Y-3.0
X8.4215Y-3.1
X8.4215Y-3.2
X8.4215Y-3.3
X8.4215Y-3.4
X8.4215Y-3.5
X8.4215Y-3.6
X8.4215Y-3.7
X8.7285Y-2.8
X8.7285Y-2.9
X8.7285Y-3.0
X8.7285Y-3.1
X8.7285Y-3.2
X8.7285Y-3.3
X8.7285Y-3.4
X8.7285Y-3.5
X8.7285Y-3.6
X8.7285Y-3.7
T4
X7.8Y-4.0
X7.8Y-4.6
X7.9Y-4.0
X7.9Y-4.6
X8.0Y-4.0
X8.0Y-4.6
X8.1Y-4.0
X8.1Y-4.6
X8.2Y-4.0
X8.2Y-4.6
X8.3Y-4.0
X8.3Y-4.6
X8.4Y-4.0
X8.4Y-4.6
X8.5Y-4.0
X8.5Y-4.6
X8.6Y-4.0
X8.6Y-4.6
X8.7Y-4.0
X8.7Y-4.6
X8.8Y-4.0
X8.8Y-4.6
X8.9Y-4.0
X8.9Y-4.6
T5
X1.5317Y-2.161
X1.7192Y-2.911
X2.0942Y-3.661
X2.2817Y-2.161
X2.4692Y-2.911
X2.8442Y-3.661
X2.8442Y-4.411
X3.0317Y-2.161
X3.2192Y-2.911
X3.5942Y-3.661
X3.5942Y-4.411
X3.7817Y-2.161
X3.9692Y-2.911
X4.3442Y-3.661
X4.5317Y-2.161
X4.7192Y-2.911
X4.7195Y-4.411
X5.0942Y-3.661
X5.2817Y-2.161
X5.4692Y-2.911
X5.8442Y-3.661
X5.8442Y-4.411
X6.0317Y-2.161
X6.2192Y-2.911
X6.5942Y-3.661
X6.5942Y-4.411
X6.7817Y-2.161
X6.9692Y-2.911
X7.3442Y-3.661
X7.5317Y-2.161
X7.7192Y-2.911
X8.2817Y-2.161
T6
X1.7325Y-2.2398
X1.92Y-2.9898
X2.295Y-3.7398
X2.4825Y-2.2398
X2.67Y-2.9898
X3.045Y-3.7398
X3.045Y-4.4898
X3.2325Y-2.2398
X3.42Y-2.9898
X3.795Y-3.7398
X3.795Y-4.4898
X3.9825Y-2.2398
X4.17Y-2.9898
X4.545Y-3.7398
X4.7325Y-2.2398
X4.92Y-2.9898
X4.9203Y-4.4898
X5.295Y-3.7398
X5.4825Y-2.2398
X5.67Y-2.9898
X6.045Y-3.7398
X6.045Y-4.4898
X6.2325Y-2.2398
X6.42Y-2.9898
X6.795Y-3.7398
X6.795Y-4.4898
X6.9825Y-2.2398
X7.17Y-2.9898
X7.545Y-3.7398
X7.7325Y-2.2398
X7.92Y-2.9898
X8.4825Y-2.2398
T7
X1.6325Y-2.2075
X1.82Y-2.9575
X1.8825Y-2.1075
X2.07Y-2.8575
X2.195Y-3.7075
X2.3825Y-2.2075
X2.445Y-3.6075
X2.57Y-2.9575
X2.6325Y-2.1075
X2.82Y-2.8575
X2.945Y-3.7075
X2.945Y-4.4575
X3.1325Y-2.2075
X3.195Y-3.6075
X3.195Y-4.3575
X3.32Y-2.9575
X3.3825Y-2.1075
X3.57Y-2.8575
X3.695Y-3.7075
X3.695Y-4.4575
X3.8825Y-2.2075
X3.945Y-3.6075
X3.945Y-4.3575
X4.07Y-2.9575
X4.1325Y-2.1075
X4.32Y-2.8575
X4.445Y-3.7075
X4.6325Y-2.2075
X4.695Y-3.6075
X4.82Y-2.9575
X4.8203Y-4.4575
X4.8825Y-2.1075
X5.07Y-2.8575
X5.0703Y-4.3575
X5.195Y-3.7075
X5.3825Y-2.2075
X5.445Y-3.6075
X5.57Y-2.9575
X5.6325Y-2.1075
X5.82Y-2.8575
X5.945Y-3.7075
X5.945Y-4.4575
X6.1325Y-2.2075
X6.195Y-3.6075
X6.195Y-4.3575
X6.32Y-2.9575
X6.3825Y-2.1075
X6.57Y-2.8575
X6.695Y-3.7075
X6.695Y-4.4575
X6.8825Y-2.2075
X6.945Y-3.6075
X6.945Y-4.3575
X7.07Y-2.9575
X7.1325Y-2.1075
X7.32Y-2.8575
X7.445Y-3.7075
X7.475Y-4.1386
X7.475Y-4.4614
X7.6325Y-2.2075
X7.695Y-3.6075
X7.82Y-2.9575
X7.8825Y-2.1075
X8.07Y-2.8575
X8.3825Y-2.2075
X8.6325Y-2.1075
T8
X1.2563Y-3.9413
X1.2567Y-1.5256
X2.1555Y-4.8406
X8.9925Y-1.5256
X8.9925Y-3.7614
X8.9926Y-4.8404
T0
M30
