%FSLAX45Y45*%
G04 Gerber Fmt 4.5, Leading zero omitted, Abs format (unit mm)*
G04 Created by KiCad (PCBNEW (6.0.0-rc1-306-g01eebd0b9d)) date 2022-03-14 13:09:21*
%MOMM*%
%LPD*%
G01*
G04 APERTURE LIST*
%TA.AperFunction,Profile*%
%ADD10C,0.200000*%
%TD*%
%ADD11C,0.200000*%
%ADD12C,0.170180*%
%ADD13C,0.304800*%
%ADD14C,0.398780*%
G04 APERTURE END LIST*
D10*
X23140999Y-12444563D02*
X23140999Y-11707845D01*
X3125261Y-10368305D02*
X5102333Y-12345574D01*
X22990999Y-11557845D02*
X19863930Y-11557845D01*
X5102333Y-12345574D02*
G75*
G03*
X5703403Y-12594563I601071J601011D01*
G01*
X2890975Y-9802594D02*
G75*
G03*
X3125261Y-10368305I800000J-55D01*
G01*
X23140999Y-11707845D02*
G75*
G03*
X22990999Y-11557845I-150000J0D01*
G01*
X22990999Y-12594563D02*
X5703403Y-12594563D01*
X22990999Y-12594563D02*
G75*
G03*
X23140999Y-12444563I0J150000D01*
G01*
X3041390Y-3574442D02*
X22990999Y-3574442D01*
X22990999Y-10289337D02*
G75*
G03*
X23140999Y-10139337I0J150000D01*
G01*
X19713930Y-11407845D02*
X19713930Y-10439337D01*
X19863930Y-10289337D02*
X22990999Y-10289337D01*
X19713930Y-11407845D02*
G75*
G03*
X19863930Y-11557845I150000J0D01*
G01*
X19863930Y-10289337D02*
G75*
G03*
X19713930Y-10439337I0J-150000D01*
G01*
X2890975Y-9802594D02*
X2891390Y-3724432D01*
X3041390Y-3574442D02*
G75*
G03*
X2891390Y-3724432I0J-150000D01*
G01*
X23140999Y-3724442D02*
G75*
G03*
X22990999Y-3574442I-150000J0D01*
G01*
X23140999Y-10139337D02*
X23140999Y-3724442D01*
D11*
D12*
X3765410Y-5013910D02*
X3935590Y-5184090D01*
X3935590Y-5013910D02*
X3765410Y-5184090D01*
X3807410Y-5013910D02*
X3977590Y-5184090D01*
X3977590Y-5013910D02*
X3807410Y-5184090D01*
X4241660Y-6918910D02*
X4411840Y-7089090D01*
X4411840Y-6918910D02*
X4241660Y-7089090D01*
X4283660Y-6918910D02*
X4453840Y-7089090D01*
X4453840Y-6918910D02*
X4283660Y-7089090D01*
X4823410Y-5013910D02*
X4993590Y-5184090D01*
X4993590Y-5013910D02*
X4823410Y-5184090D01*
X4865410Y-5013910D02*
X5035590Y-5184090D01*
X5035590Y-5013910D02*
X4865410Y-5184090D01*
X5194160Y-8823910D02*
X5364340Y-8994090D01*
X5364340Y-8823910D02*
X5194160Y-8994090D01*
X5236160Y-8823910D02*
X5406340Y-8994090D01*
X5406340Y-8823910D02*
X5236160Y-8994090D01*
X5299660Y-6918910D02*
X5469840Y-7089090D01*
X5469840Y-6918910D02*
X5299660Y-7089090D01*
X5341660Y-6918910D02*
X5511840Y-7089090D01*
X5511840Y-6918910D02*
X5341660Y-7089090D01*
X5670410Y-5013910D02*
X5840590Y-5184090D01*
X5840590Y-5013910D02*
X5670410Y-5184090D01*
X5712410Y-5013910D02*
X5882590Y-5184090D01*
X5882590Y-5013910D02*
X5712410Y-5184090D01*
X6146660Y-6918910D02*
X6316840Y-7089090D01*
X6316840Y-6918910D02*
X6146660Y-7089090D01*
X6188660Y-6918910D02*
X6358840Y-7089090D01*
X6358840Y-6918910D02*
X6188660Y-7089090D01*
X6252160Y-8823910D02*
X6422340Y-8994090D01*
X6422340Y-8823910D02*
X6252160Y-8994090D01*
X6294160Y-8823910D02*
X6464340Y-8994090D01*
X6464340Y-8823910D02*
X6294160Y-8994090D01*
X6728410Y-5013910D02*
X6898590Y-5184090D01*
X6898590Y-5013910D02*
X6728410Y-5184090D01*
X6770410Y-5013910D02*
X6940590Y-5184090D01*
X6940590Y-5013910D02*
X6770410Y-5184090D01*
X7099160Y-8823910D02*
X7269340Y-8994090D01*
X7269340Y-8823910D02*
X7099160Y-8994090D01*
X7099160Y-10728910D02*
X7269340Y-10899090D01*
X7269340Y-10728910D02*
X7099160Y-10899090D01*
X7141160Y-8823910D02*
X7311340Y-8994090D01*
X7311340Y-8823910D02*
X7141160Y-8994090D01*
X7141160Y-10728910D02*
X7311340Y-10899090D01*
X7311340Y-10728910D02*
X7141160Y-10899090D01*
X7204660Y-6918910D02*
X7374840Y-7089090D01*
X7374840Y-6918910D02*
X7204660Y-7089090D01*
X7246660Y-6918910D02*
X7416840Y-7089090D01*
X7416840Y-6918910D02*
X7246660Y-7089090D01*
X7575410Y-5013910D02*
X7745590Y-5184090D01*
X7745590Y-5013910D02*
X7575410Y-5184090D01*
X7617410Y-5013910D02*
X7787590Y-5184090D01*
X7787590Y-5013910D02*
X7617410Y-5184090D01*
X8051660Y-6918910D02*
X8221840Y-7089090D01*
X8221840Y-6918910D02*
X8051660Y-7089090D01*
X8093660Y-6918910D02*
X8263840Y-7089090D01*
X8263840Y-6918910D02*
X8093660Y-7089090D01*
X8157160Y-8823910D02*
X8327340Y-8994090D01*
X8327340Y-8823910D02*
X8157160Y-8994090D01*
X8157160Y-10728910D02*
X8327340Y-10899090D01*
X8327340Y-10728910D02*
X8157160Y-10899090D01*
X8199160Y-8823910D02*
X8369340Y-8994090D01*
X8369340Y-8823910D02*
X8199160Y-8994090D01*
X8199160Y-10728910D02*
X8369340Y-10899090D01*
X8369340Y-10728910D02*
X8199160Y-10899090D01*
X8633410Y-5013910D02*
X8803590Y-5184090D01*
X8803590Y-5013910D02*
X8633410Y-5184090D01*
X8675410Y-5013910D02*
X8845590Y-5184090D01*
X8845590Y-5013910D02*
X8675410Y-5184090D01*
X9004160Y-8823910D02*
X9174340Y-8994090D01*
X9174340Y-8823910D02*
X9004160Y-8994090D01*
X9004160Y-10728910D02*
X9174340Y-10899090D01*
X9174340Y-10728910D02*
X9004160Y-10899090D01*
X9046160Y-8823910D02*
X9216340Y-8994090D01*
X9216340Y-8823910D02*
X9046160Y-8994090D01*
X9046160Y-10728910D02*
X9216340Y-10899090D01*
X9216340Y-10728910D02*
X9046160Y-10899090D01*
X9109660Y-6918910D02*
X9279840Y-7089090D01*
X9279840Y-6918910D02*
X9109660Y-7089090D01*
X9151660Y-6918910D02*
X9321840Y-7089090D01*
X9321840Y-6918910D02*
X9151660Y-7089090D01*
X9480410Y-5013910D02*
X9650590Y-5184090D01*
X9650590Y-5013910D02*
X9480410Y-5184090D01*
X9522410Y-5013910D02*
X9692590Y-5184090D01*
X9692590Y-5013910D02*
X9522410Y-5184090D01*
X9956660Y-6918910D02*
X10126840Y-7089090D01*
X10126840Y-6918910D02*
X9956660Y-7089090D01*
X9998660Y-6918910D02*
X10168840Y-7089090D01*
X10168840Y-6918910D02*
X9998660Y-7089090D01*
X10062160Y-8823910D02*
X10232340Y-8994090D01*
X10232340Y-8823910D02*
X10062160Y-8994090D01*
X10062160Y-10728910D02*
X10232340Y-10899090D01*
X10232340Y-10728910D02*
X10062160Y-10899090D01*
X10104160Y-8823910D02*
X10274340Y-8994090D01*
X10274340Y-8823910D02*
X10104160Y-8994090D01*
X10104160Y-10728910D02*
X10274340Y-10899090D01*
X10274340Y-10728910D02*
X10104160Y-10899090D01*
X10538410Y-5013910D02*
X10708590Y-5184090D01*
X10708590Y-5013910D02*
X10538410Y-5184090D01*
X10580410Y-5013910D02*
X10750590Y-5184090D01*
X10750590Y-5013910D02*
X10580410Y-5184090D01*
X10909160Y-8823910D02*
X11079340Y-8994090D01*
X11079340Y-8823910D02*
X10909160Y-8994090D01*
X10951160Y-8823910D02*
X11121340Y-8994090D01*
X11121340Y-8823910D02*
X10951160Y-8994090D01*
X11014660Y-6918910D02*
X11184840Y-7089090D01*
X11184840Y-6918910D02*
X11014660Y-7089090D01*
X11056660Y-6918910D02*
X11226840Y-7089090D01*
X11226840Y-6918910D02*
X11056660Y-7089090D01*
X11385410Y-5013910D02*
X11555590Y-5184090D01*
X11555590Y-5013910D02*
X11385410Y-5184090D01*
X11427410Y-5013910D02*
X11597590Y-5184090D01*
X11597590Y-5013910D02*
X11427410Y-5184090D01*
X11861660Y-6918910D02*
X12031840Y-7089090D01*
X12031840Y-6918910D02*
X11861660Y-7089090D01*
X11862540Y-10728910D02*
X12032720Y-10899090D01*
X12032720Y-10728910D02*
X11862540Y-10899090D01*
X11903660Y-6918910D02*
X12073840Y-7089090D01*
X12073840Y-6918910D02*
X11903660Y-7089090D01*
X11904540Y-10728910D02*
X12074720Y-10899090D01*
X12074720Y-10728910D02*
X11904540Y-10899090D01*
X11967160Y-8823910D02*
X12137340Y-8994090D01*
X12137340Y-8823910D02*
X11967160Y-8994090D01*
X12009160Y-8823910D02*
X12179340Y-8994090D01*
X12179340Y-8823910D02*
X12009160Y-8994090D01*
X12443410Y-5013910D02*
X12613590Y-5184090D01*
X12613590Y-5013910D02*
X12443410Y-5184090D01*
X12485410Y-5013910D02*
X12655590Y-5184090D01*
X12655590Y-5013910D02*
X12485410Y-5184090D01*
X12814160Y-8823910D02*
X12984340Y-8994090D01*
X12984340Y-8823910D02*
X12814160Y-8994090D01*
X12856160Y-8823910D02*
X13026340Y-8994090D01*
X13026340Y-8823910D02*
X12856160Y-8994090D01*
X12919660Y-6918910D02*
X13089840Y-7089090D01*
X13089840Y-6918910D02*
X12919660Y-7089090D01*
X12920540Y-10728910D02*
X13090720Y-10899090D01*
X13090720Y-10728910D02*
X12920540Y-10899090D01*
X12961660Y-6918910D02*
X13131840Y-7089090D01*
X13131840Y-6918910D02*
X12961660Y-7089090D01*
X12962540Y-10728910D02*
X13132720Y-10899090D01*
X13132720Y-10728910D02*
X12962540Y-10899090D01*
X13290410Y-5013910D02*
X13460590Y-5184090D01*
X13460590Y-5013910D02*
X13290410Y-5184090D01*
X13332410Y-5013910D02*
X13502590Y-5184090D01*
X13502590Y-5013910D02*
X13332410Y-5184090D01*
X13766660Y-6918910D02*
X13936840Y-7089090D01*
X13936840Y-6918910D02*
X13766660Y-7089090D01*
X13808660Y-6918910D02*
X13978840Y-7089090D01*
X13978840Y-6918910D02*
X13808660Y-7089090D01*
X13872160Y-8823910D02*
X14042340Y-8994090D01*
X14042340Y-8823910D02*
X13872160Y-8994090D01*
X13914160Y-8823910D02*
X14084340Y-8994090D01*
X14084340Y-8823910D02*
X13914160Y-8994090D01*
X14348410Y-5013910D02*
X14518590Y-5184090D01*
X14518590Y-5013910D02*
X14348410Y-5184090D01*
X14390410Y-5013910D02*
X14560590Y-5184090D01*
X14560590Y-5013910D02*
X14390410Y-5184090D01*
X14719160Y-8823910D02*
X14889340Y-8994090D01*
X14889340Y-8823910D02*
X14719160Y-8994090D01*
X14719160Y-10728910D02*
X14889340Y-10899090D01*
X14889340Y-10728910D02*
X14719160Y-10899090D01*
X14761160Y-8823910D02*
X14931340Y-8994090D01*
X14931340Y-8823910D02*
X14761160Y-8994090D01*
X14761160Y-10728910D02*
X14931340Y-10899090D01*
X14931340Y-10728910D02*
X14761160Y-10899090D01*
X14824660Y-6918910D02*
X14994840Y-7089090D01*
X14994840Y-6918910D02*
X14824660Y-7089090D01*
X14866660Y-6918910D02*
X15036840Y-7089090D01*
X15036840Y-6918910D02*
X14866660Y-7089090D01*
X15195410Y-5013910D02*
X15365590Y-5184090D01*
X15365590Y-5013910D02*
X15195410Y-5184090D01*
X15237410Y-5013910D02*
X15407590Y-5184090D01*
X15407590Y-5013910D02*
X15237410Y-5184090D01*
X15671660Y-6918910D02*
X15841840Y-7089090D01*
X15841840Y-6918910D02*
X15671660Y-7089090D01*
X15713660Y-6918910D02*
X15883840Y-7089090D01*
X15883840Y-6918910D02*
X15713660Y-7089090D01*
X15777160Y-8823910D02*
X15947340Y-8994090D01*
X15947340Y-8823910D02*
X15777160Y-8994090D01*
X15777160Y-10728910D02*
X15947340Y-10899090D01*
X15947340Y-10728910D02*
X15777160Y-10899090D01*
X15819160Y-8823910D02*
X15989340Y-8994090D01*
X15989340Y-8823910D02*
X15819160Y-8994090D01*
X15819160Y-10728910D02*
X15989340Y-10899090D01*
X15989340Y-10728910D02*
X15819160Y-10899090D01*
X16253410Y-5013910D02*
X16423590Y-5184090D01*
X16423590Y-5013910D02*
X16253410Y-5184090D01*
X16295410Y-5013910D02*
X16465590Y-5184090D01*
X16465590Y-5013910D02*
X16295410Y-5184090D01*
X16624160Y-8823910D02*
X16794340Y-8994090D01*
X16794340Y-8823910D02*
X16624160Y-8994090D01*
X16624160Y-10728910D02*
X16794340Y-10899090D01*
X16794340Y-10728910D02*
X16624160Y-10899090D01*
X16666160Y-8823910D02*
X16836340Y-8994090D01*
X16836340Y-8823910D02*
X16666160Y-8994090D01*
X16666160Y-10728910D02*
X16836340Y-10899090D01*
X16836340Y-10728910D02*
X16666160Y-10899090D01*
X16729660Y-6918910D02*
X16899840Y-7089090D01*
X16899840Y-6918910D02*
X16729660Y-7089090D01*
X16771660Y-6918910D02*
X16941840Y-7089090D01*
X16941840Y-6918910D02*
X16771660Y-7089090D01*
X17100410Y-5013910D02*
X17270590Y-5184090D01*
X17270590Y-5013910D02*
X17100410Y-5184090D01*
X17142410Y-5013910D02*
X17312590Y-5184090D01*
X17312590Y-5013910D02*
X17142410Y-5184090D01*
X17576660Y-6918910D02*
X17746840Y-7089090D01*
X17746840Y-6918910D02*
X17576660Y-7089090D01*
X17618660Y-6918910D02*
X17788840Y-7089090D01*
X17788840Y-6918910D02*
X17618660Y-7089090D01*
X17682160Y-8823910D02*
X17852340Y-8994090D01*
X17852340Y-8823910D02*
X17682160Y-8994090D01*
X17682160Y-10728910D02*
X17852340Y-10899090D01*
X17852340Y-10728910D02*
X17682160Y-10899090D01*
X17724160Y-8823910D02*
X17894340Y-8994090D01*
X17894340Y-8823910D02*
X17724160Y-8994090D01*
X17724160Y-10728910D02*
X17894340Y-10899090D01*
X17894340Y-10728910D02*
X17724160Y-10899090D01*
X18158410Y-5013910D02*
X18328590Y-5184090D01*
X18328590Y-5013910D02*
X18158410Y-5184090D01*
X18200410Y-5013910D02*
X18370590Y-5184090D01*
X18370590Y-5013910D02*
X18200410Y-5184090D01*
X18529160Y-8823910D02*
X18699340Y-8994090D01*
X18699340Y-8823910D02*
X18529160Y-8994090D01*
X18571160Y-8823910D02*
X18741340Y-8994090D01*
X18741340Y-8823910D02*
X18571160Y-8994090D01*
X18634660Y-6918910D02*
X18804840Y-7089090D01*
X18804840Y-6918910D02*
X18634660Y-7089090D01*
X18676660Y-6918910D02*
X18846840Y-7089090D01*
X18846840Y-6918910D02*
X18676660Y-7089090D01*
X19005410Y-5013910D02*
X19175590Y-5184090D01*
X19175590Y-5013910D02*
X19005410Y-5184090D01*
X19047410Y-5013910D02*
X19217590Y-5184090D01*
X19217590Y-5013910D02*
X19047410Y-5184090D01*
X19481660Y-6918910D02*
X19651840Y-7089090D01*
X19651840Y-6918910D02*
X19481660Y-7089090D01*
X19523660Y-6918910D02*
X19693840Y-7089090D01*
X19693840Y-6918910D02*
X19523660Y-7089090D01*
X19587160Y-8823910D02*
X19757340Y-8994090D01*
X19757340Y-8823910D02*
X19587160Y-8994090D01*
X19629160Y-8823910D02*
X19799340Y-8994090D01*
X19799340Y-8823910D02*
X19629160Y-8994090D01*
X20063410Y-5013910D02*
X20233590Y-5184090D01*
X20233590Y-5013910D02*
X20063410Y-5184090D01*
X20105410Y-5013910D02*
X20275590Y-5184090D01*
X20275590Y-5013910D02*
X20105410Y-5184090D01*
X20539660Y-6918910D02*
X20709840Y-7089090D01*
X20709840Y-6918910D02*
X20539660Y-7089090D01*
X20581660Y-6918910D02*
X20751840Y-7089090D01*
X20751840Y-6918910D02*
X20581660Y-7089090D01*
X20910410Y-5013910D02*
X21080590Y-5184090D01*
X21080590Y-5013910D02*
X20910410Y-5184090D01*
X20952410Y-5013910D02*
X21122590Y-5184090D01*
X21122590Y-5013910D02*
X20952410Y-5184090D01*
X21968410Y-5013910D02*
X22138590Y-5184090D01*
X22138590Y-5013910D02*
X21968410Y-5184090D01*
X22010410Y-5013910D02*
X22180590Y-5184090D01*
X22180590Y-5013910D02*
X22010410Y-5184090D01*
D13*
X11455350Y-10115500D02*
G75*
G03*
X11455350Y-10115500I-152400J0D01*
G01*
X13842950Y-10115500D02*
G75*
G03*
X13842950Y-10115500I-152400J0D01*
G01*
D14*
X4400500Y-4899610D02*
X4400500Y-5298390D01*
X4201110Y-5099000D02*
X4599890Y-5099000D01*
X4876750Y-6804610D02*
X4876750Y-7203390D01*
X4677360Y-7004000D02*
X5076140Y-7004000D01*
X5829250Y-8709610D02*
X5829250Y-9108390D01*
X5629860Y-8909000D02*
X6028640Y-8909000D01*
X6305500Y-4899610D02*
X6305500Y-5298390D01*
X6106110Y-5099000D02*
X6504890Y-5099000D01*
X6781750Y-6804610D02*
X6781750Y-7203390D01*
X6582360Y-7004000D02*
X6981140Y-7004000D01*
X7734250Y-8709610D02*
X7734250Y-9108390D01*
X7534860Y-8909000D02*
X7933640Y-8909000D01*
X7734250Y-10614610D02*
X7734250Y-11013390D01*
X7534860Y-10814000D02*
X7933640Y-10814000D01*
X8210500Y-4899610D02*
X8210500Y-5298390D01*
X8011110Y-5099000D02*
X8409890Y-5099000D01*
X8686750Y-6804610D02*
X8686750Y-7203390D01*
X8487360Y-7004000D02*
X8886140Y-7004000D01*
X9639250Y-8709610D02*
X9639250Y-9108390D01*
X9439860Y-8909000D02*
X9838640Y-8909000D01*
X9639250Y-10614610D02*
X9639250Y-11013390D01*
X9439860Y-10814000D02*
X9838640Y-10814000D01*
X10115500Y-4899610D02*
X10115500Y-5298390D01*
X9916110Y-5099000D02*
X10314890Y-5099000D01*
X10591750Y-6804610D02*
X10591750Y-7203390D01*
X10392360Y-7004000D02*
X10791140Y-7004000D01*
X11302950Y-11440110D02*
X11302950Y-11838890D01*
X11103560Y-11639500D02*
X11502340Y-11639500D01*
X11544250Y-8709610D02*
X11544250Y-9108390D01*
X11344860Y-8909000D02*
X11743640Y-8909000D01*
X12020500Y-4899610D02*
X12020500Y-5298390D01*
X11821110Y-5099000D02*
X12219890Y-5099000D01*
X12496750Y-6804610D02*
X12496750Y-7203390D01*
X12297360Y-7004000D02*
X12696140Y-7004000D01*
X12497630Y-10614610D02*
X12497630Y-11013390D01*
X12298240Y-10814000D02*
X12697020Y-10814000D01*
X13449250Y-8709610D02*
X13449250Y-9108390D01*
X13249860Y-8909000D02*
X13648640Y-8909000D01*
X13690550Y-11440110D02*
X13690550Y-11838890D01*
X13491160Y-11639500D02*
X13889940Y-11639500D01*
X13925500Y-4899610D02*
X13925500Y-5298390D01*
X13726110Y-5099000D02*
X14124890Y-5099000D01*
X14401750Y-6804610D02*
X14401750Y-7203390D01*
X14202360Y-7004000D02*
X14601140Y-7004000D01*
X15354250Y-8709610D02*
X15354250Y-9108390D01*
X15154860Y-8909000D02*
X15553640Y-8909000D01*
X15354250Y-10614610D02*
X15354250Y-11013390D01*
X15154860Y-10814000D02*
X15553640Y-10814000D01*
X15830500Y-4899610D02*
X15830500Y-5298390D01*
X15631110Y-5099000D02*
X16029890Y-5099000D01*
X16306750Y-6804610D02*
X16306750Y-7203390D01*
X16107360Y-7004000D02*
X16506140Y-7004000D01*
X17259250Y-8709610D02*
X17259250Y-9108390D01*
X17059860Y-8909000D02*
X17458640Y-8909000D01*
X17259250Y-10614610D02*
X17259250Y-11013390D01*
X17059860Y-10814000D02*
X17458640Y-10814000D01*
X17735500Y-4899610D02*
X17735500Y-5298390D01*
X17536110Y-5099000D02*
X17934890Y-5099000D01*
X18211750Y-6804610D02*
X18211750Y-7203390D01*
X18012360Y-7004000D02*
X18411140Y-7004000D01*
X19164250Y-8709610D02*
X19164250Y-9108390D01*
X18964860Y-8909000D02*
X19363640Y-8909000D01*
X19640500Y-4899610D02*
X19640500Y-5298390D01*
X19441110Y-5099000D02*
X19839890Y-5099000D01*
X20116750Y-6804610D02*
X20116750Y-7203390D01*
X19917360Y-7004000D02*
X20316140Y-7004000D01*
X21545500Y-4899610D02*
X21545500Y-5298390D01*
X21346110Y-5099000D02*
X21744890Y-5099000D01*
D11*
X3138594Y-12915039D02*
X3138594Y-12715039D01*
X3186213Y-12715039D01*
X3214784Y-12724563D01*
X3233832Y-12743610D01*
X3243356Y-12762658D01*
X3252880Y-12800753D01*
X3252880Y-12829325D01*
X3243356Y-12867420D01*
X3233832Y-12886467D01*
X3214784Y-12905515D01*
X3186213Y-12915039D01*
X3138594Y-12915039D01*
X3338594Y-12915039D02*
X3338594Y-12781706D01*
X3338594Y-12819801D02*
X3348118Y-12800753D01*
X3357641Y-12791229D01*
X3376689Y-12781706D01*
X3395737Y-12781706D01*
X3462403Y-12915039D02*
X3462403Y-12781706D01*
X3462403Y-12715039D02*
X3452880Y-12724563D01*
X3462403Y-12734087D01*
X3471927Y-12724563D01*
X3462403Y-12715039D01*
X3462403Y-12734087D01*
X3586213Y-12915039D02*
X3567165Y-12905515D01*
X3557641Y-12886467D01*
X3557641Y-12715039D01*
X3690975Y-12915039D02*
X3671927Y-12905515D01*
X3662403Y-12886467D01*
X3662403Y-12715039D01*
X3919546Y-12915039D02*
X3919546Y-12715039D01*
X3986213Y-12857896D01*
X4052880Y-12715039D01*
X4052880Y-12915039D01*
X4233832Y-12915039D02*
X4233832Y-12810277D01*
X4224308Y-12791229D01*
X4205261Y-12781706D01*
X4167165Y-12781706D01*
X4148118Y-12791229D01*
X4233832Y-12905515D02*
X4214784Y-12915039D01*
X4167165Y-12915039D01*
X4148118Y-12905515D01*
X4138594Y-12886467D01*
X4138594Y-12867420D01*
X4148118Y-12848372D01*
X4167165Y-12838848D01*
X4214784Y-12838848D01*
X4233832Y-12829325D01*
X4329070Y-12781706D02*
X4329070Y-12981706D01*
X4329070Y-12791229D02*
X4348118Y-12781706D01*
X4386213Y-12781706D01*
X4405261Y-12791229D01*
X4414784Y-12800753D01*
X4424308Y-12819801D01*
X4424308Y-12876944D01*
X4414784Y-12895991D01*
X4405261Y-12905515D01*
X4386213Y-12915039D01*
X4348118Y-12915039D01*
X4329070Y-12905515D01*
X4510023Y-12895991D02*
X4519546Y-12905515D01*
X4510023Y-12915039D01*
X4500499Y-12905515D01*
X4510023Y-12895991D01*
X4510023Y-12915039D01*
X4510023Y-12791229D02*
X4519546Y-12800753D01*
X4510023Y-12810277D01*
X4500499Y-12800753D01*
X4510023Y-12791229D01*
X4510023Y-12810277D01*
D12*
X2710795Y-13159473D02*
X2880975Y-13329653D01*
X2880975Y-13159473D02*
X2710795Y-13329653D01*
D11*
X3243356Y-13335039D02*
X3129070Y-13335039D01*
X3186213Y-13335039D02*
X3186213Y-13135039D01*
X3167165Y-13163610D01*
X3148118Y-13182658D01*
X3129070Y-13192182D01*
X3329070Y-13315991D02*
X3338594Y-13325515D01*
X3329070Y-13335039D01*
X3319546Y-13325515D01*
X3329070Y-13315991D01*
X3329070Y-13335039D01*
X3405261Y-13135039D02*
X3538594Y-13135039D01*
X3452880Y-13335039D01*
X3652880Y-13135039D02*
X3671927Y-13135039D01*
X3690975Y-13144563D01*
X3700499Y-13154087D01*
X3710022Y-13173134D01*
X3719546Y-13211229D01*
X3719546Y-13258848D01*
X3710022Y-13296944D01*
X3700499Y-13315991D01*
X3690975Y-13325515D01*
X3671927Y-13335039D01*
X3652880Y-13335039D01*
X3633832Y-13325515D01*
X3624308Y-13315991D01*
X3614784Y-13296944D01*
X3605261Y-13258848D01*
X3605261Y-13211229D01*
X3614784Y-13173134D01*
X3624308Y-13154087D01*
X3633832Y-13144563D01*
X3652880Y-13135039D01*
X3795737Y-13154087D02*
X3805261Y-13144563D01*
X3824308Y-13135039D01*
X3871927Y-13135039D01*
X3890975Y-13144563D01*
X3900499Y-13154087D01*
X3910022Y-13173134D01*
X3910022Y-13192182D01*
X3900499Y-13220753D01*
X3786213Y-13335039D01*
X3910022Y-13335039D01*
X3995737Y-13335039D02*
X3995737Y-13201706D01*
X3995737Y-13220753D02*
X4005261Y-13211229D01*
X4024308Y-13201706D01*
X4052880Y-13201706D01*
X4071927Y-13211229D01*
X4081451Y-13230277D01*
X4081451Y-13335039D01*
X4081451Y-13230277D02*
X4090975Y-13211229D01*
X4110022Y-13201706D01*
X4138594Y-13201706D01*
X4157641Y-13211229D01*
X4167165Y-13230277D01*
X4167165Y-13335039D01*
X4262403Y-13335039D02*
X4262403Y-13201706D01*
X4262403Y-13220753D02*
X4271927Y-13211229D01*
X4290975Y-13201706D01*
X4319546Y-13201706D01*
X4338594Y-13211229D01*
X4348118Y-13230277D01*
X4348118Y-13335039D01*
X4348118Y-13230277D02*
X4357642Y-13211229D01*
X4376689Y-13201706D01*
X4405261Y-13201706D01*
X4424308Y-13211229D01*
X4433832Y-13230277D01*
X4433832Y-13335039D01*
X4824308Y-13125515D02*
X4652880Y-13382658D01*
X5081451Y-13135039D02*
X5100499Y-13135039D01*
X5119546Y-13144563D01*
X5129070Y-13154087D01*
X5138594Y-13173134D01*
X5148118Y-13211229D01*
X5148118Y-13258848D01*
X5138594Y-13296944D01*
X5129070Y-13315991D01*
X5119546Y-13325515D01*
X5100499Y-13335039D01*
X5081451Y-13335039D01*
X5062403Y-13325515D01*
X5052880Y-13315991D01*
X5043356Y-13296944D01*
X5033832Y-13258848D01*
X5033832Y-13211229D01*
X5043356Y-13173134D01*
X5052880Y-13154087D01*
X5062403Y-13144563D01*
X5081451Y-13135039D01*
X5233832Y-13315991D02*
X5243356Y-13325515D01*
X5233832Y-13335039D01*
X5224308Y-13325515D01*
X5233832Y-13315991D01*
X5233832Y-13335039D01*
X5367165Y-13135039D02*
X5386213Y-13135039D01*
X5405261Y-13144563D01*
X5414784Y-13154087D01*
X5424308Y-13173134D01*
X5433832Y-13211229D01*
X5433832Y-13258848D01*
X5424308Y-13296944D01*
X5414784Y-13315991D01*
X5405261Y-13325515D01*
X5386213Y-13335039D01*
X5367165Y-13335039D01*
X5348118Y-13325515D01*
X5338594Y-13315991D01*
X5329070Y-13296944D01*
X5319546Y-13258848D01*
X5319546Y-13211229D01*
X5329070Y-13173134D01*
X5338594Y-13154087D01*
X5348118Y-13144563D01*
X5367165Y-13135039D01*
X5605261Y-13135039D02*
X5567165Y-13135039D01*
X5548118Y-13144563D01*
X5538594Y-13154087D01*
X5519546Y-13182658D01*
X5510023Y-13220753D01*
X5510023Y-13296944D01*
X5519546Y-13315991D01*
X5529070Y-13325515D01*
X5548118Y-13335039D01*
X5586213Y-13335039D01*
X5605261Y-13325515D01*
X5614784Y-13315991D01*
X5624308Y-13296944D01*
X5624308Y-13249325D01*
X5614784Y-13230277D01*
X5605261Y-13220753D01*
X5586213Y-13211229D01*
X5548118Y-13211229D01*
X5529070Y-13220753D01*
X5519546Y-13230277D01*
X5510023Y-13249325D01*
X5690975Y-13135039D02*
X5824308Y-13135039D01*
X5738594Y-13335039D01*
X5938594Y-13135039D02*
X5957641Y-13135039D01*
X5976689Y-13144563D01*
X5986213Y-13154087D01*
X5995737Y-13173134D01*
X6005261Y-13211229D01*
X6005261Y-13258848D01*
X5995737Y-13296944D01*
X5986213Y-13315991D01*
X5976689Y-13325515D01*
X5957641Y-13335039D01*
X5938594Y-13335039D01*
X5919546Y-13325515D01*
X5910022Y-13315991D01*
X5900499Y-13296944D01*
X5890975Y-13258848D01*
X5890975Y-13211229D01*
X5900499Y-13173134D01*
X5910022Y-13154087D01*
X5919546Y-13144563D01*
X5938594Y-13135039D01*
X6081451Y-13135039D02*
X6081451Y-13173134D01*
X6157641Y-13135039D02*
X6157641Y-13173134D01*
X6452880Y-13411229D02*
X6443356Y-13401706D01*
X6424308Y-13373134D01*
X6414784Y-13354087D01*
X6405261Y-13325515D01*
X6395737Y-13277896D01*
X6395737Y-13239801D01*
X6405261Y-13192182D01*
X6414784Y-13163610D01*
X6424308Y-13144563D01*
X6443356Y-13115991D01*
X6452880Y-13106467D01*
X6633832Y-13335039D02*
X6519546Y-13335039D01*
X6576689Y-13335039D02*
X6576689Y-13135039D01*
X6557641Y-13163610D01*
X6538594Y-13182658D01*
X6519546Y-13192182D01*
X6710022Y-13154087D02*
X6719546Y-13144563D01*
X6738594Y-13135039D01*
X6786213Y-13135039D01*
X6805261Y-13144563D01*
X6814784Y-13154087D01*
X6824308Y-13173134D01*
X6824308Y-13192182D01*
X6814784Y-13220753D01*
X6700499Y-13335039D01*
X6824308Y-13335039D01*
X6938594Y-13220753D02*
X6919546Y-13211229D01*
X6910022Y-13201706D01*
X6900499Y-13182658D01*
X6900499Y-13173134D01*
X6910022Y-13154087D01*
X6919546Y-13144563D01*
X6938594Y-13135039D01*
X6976689Y-13135039D01*
X6995737Y-13144563D01*
X7005261Y-13154087D01*
X7014784Y-13173134D01*
X7014784Y-13182658D01*
X7005261Y-13201706D01*
X6995737Y-13211229D01*
X6976689Y-13220753D01*
X6938594Y-13220753D01*
X6919546Y-13230277D01*
X6910022Y-13239801D01*
X6900499Y-13258848D01*
X6900499Y-13296944D01*
X6910022Y-13315991D01*
X6919546Y-13325515D01*
X6938594Y-13335039D01*
X6976689Y-13335039D01*
X6995737Y-13325515D01*
X7005261Y-13315991D01*
X7014784Y-13296944D01*
X7014784Y-13258848D01*
X7005261Y-13239801D01*
X6995737Y-13230277D01*
X6976689Y-13220753D01*
X7252880Y-13335039D02*
X7252880Y-13135039D01*
X7338594Y-13335039D02*
X7338594Y-13230277D01*
X7329070Y-13211229D01*
X7310022Y-13201706D01*
X7281451Y-13201706D01*
X7262403Y-13211229D01*
X7252880Y-13220753D01*
X7462403Y-13335039D02*
X7443356Y-13325515D01*
X7433832Y-13315991D01*
X7424308Y-13296944D01*
X7424308Y-13239801D01*
X7433832Y-13220753D01*
X7443356Y-13211229D01*
X7462403Y-13201706D01*
X7490975Y-13201706D01*
X7510022Y-13211229D01*
X7519546Y-13220753D01*
X7529070Y-13239801D01*
X7529070Y-13296944D01*
X7519546Y-13315991D01*
X7510022Y-13325515D01*
X7490975Y-13335039D01*
X7462403Y-13335039D01*
X7643356Y-13335039D02*
X7624308Y-13325515D01*
X7614784Y-13306467D01*
X7614784Y-13135039D01*
X7795737Y-13325515D02*
X7776689Y-13335039D01*
X7738594Y-13335039D01*
X7719546Y-13325515D01*
X7710022Y-13306467D01*
X7710022Y-13230277D01*
X7719546Y-13211229D01*
X7738594Y-13201706D01*
X7776689Y-13201706D01*
X7795737Y-13211229D01*
X7805261Y-13230277D01*
X7805261Y-13249325D01*
X7710022Y-13268372D01*
X7881451Y-13325515D02*
X7900499Y-13335039D01*
X7938594Y-13335039D01*
X7957641Y-13325515D01*
X7967165Y-13306467D01*
X7967165Y-13296944D01*
X7957641Y-13277896D01*
X7938594Y-13268372D01*
X7910022Y-13268372D01*
X7890975Y-13258848D01*
X7881451Y-13239801D01*
X7881451Y-13230277D01*
X7890975Y-13211229D01*
X7910022Y-13201706D01*
X7938594Y-13201706D01*
X7957641Y-13211229D01*
X8033832Y-13411229D02*
X8043356Y-13401706D01*
X8062403Y-13373134D01*
X8071927Y-13354087D01*
X8081451Y-13325515D01*
X8090975Y-13277896D01*
X8090975Y-13239801D01*
X8081451Y-13192182D01*
X8071927Y-13163610D01*
X8062403Y-13144563D01*
X8043356Y-13115991D01*
X8033832Y-13106467D01*
X8395737Y-13411229D02*
X8386213Y-13401706D01*
X8367165Y-13373134D01*
X8357641Y-13354087D01*
X8348118Y-13325515D01*
X8338594Y-13277896D01*
X8338594Y-13239801D01*
X8348118Y-13192182D01*
X8357641Y-13163610D01*
X8367165Y-13144563D01*
X8386213Y-13115991D01*
X8395737Y-13106467D01*
X8471927Y-13201706D02*
X8471927Y-13335039D01*
X8471927Y-13220753D02*
X8481451Y-13211229D01*
X8500499Y-13201706D01*
X8529070Y-13201706D01*
X8548118Y-13211229D01*
X8557642Y-13230277D01*
X8557642Y-13335039D01*
X8681451Y-13335039D02*
X8662403Y-13325515D01*
X8652880Y-13315991D01*
X8643356Y-13296944D01*
X8643356Y-13239801D01*
X8652880Y-13220753D01*
X8662403Y-13211229D01*
X8681451Y-13201706D01*
X8710023Y-13201706D01*
X8729070Y-13211229D01*
X8738594Y-13220753D01*
X8748118Y-13239801D01*
X8748118Y-13296944D01*
X8738594Y-13315991D01*
X8729070Y-13325515D01*
X8710023Y-13335039D01*
X8681451Y-13335039D01*
X8805261Y-13201706D02*
X8881451Y-13201706D01*
X8833832Y-13135039D02*
X8833832Y-13306467D01*
X8843356Y-13325515D01*
X8862403Y-13335039D01*
X8881451Y-13335039D01*
X9100499Y-13201706D02*
X9100499Y-13401706D01*
X9100499Y-13211229D02*
X9119546Y-13201706D01*
X9157642Y-13201706D01*
X9176689Y-13211229D01*
X9186213Y-13220753D01*
X9195737Y-13239801D01*
X9195737Y-13296944D01*
X9186213Y-13315991D01*
X9176689Y-13325515D01*
X9157642Y-13335039D01*
X9119546Y-13335039D01*
X9100499Y-13325515D01*
X9310023Y-13335039D02*
X9290975Y-13325515D01*
X9281451Y-13306467D01*
X9281451Y-13135039D01*
X9471927Y-13335039D02*
X9471927Y-13230277D01*
X9462403Y-13211229D01*
X9443356Y-13201706D01*
X9405261Y-13201706D01*
X9386213Y-13211229D01*
X9471927Y-13325515D02*
X9452880Y-13335039D01*
X9405261Y-13335039D01*
X9386213Y-13325515D01*
X9376689Y-13306467D01*
X9376689Y-13287420D01*
X9386213Y-13268372D01*
X9405261Y-13258848D01*
X9452880Y-13258848D01*
X9471927Y-13249325D01*
X9538594Y-13201706D02*
X9614784Y-13201706D01*
X9567165Y-13135039D02*
X9567165Y-13306467D01*
X9576689Y-13325515D01*
X9595737Y-13335039D01*
X9614784Y-13335039D01*
X9757642Y-13325515D02*
X9738594Y-13335039D01*
X9700499Y-13335039D01*
X9681451Y-13325515D01*
X9671927Y-13306467D01*
X9671927Y-13230277D01*
X9681451Y-13211229D01*
X9700499Y-13201706D01*
X9738594Y-13201706D01*
X9757642Y-13211229D01*
X9767165Y-13230277D01*
X9767165Y-13249325D01*
X9671927Y-13268372D01*
X9938594Y-13335039D02*
X9938594Y-13135039D01*
X9938594Y-13325515D02*
X9919546Y-13335039D01*
X9881451Y-13335039D01*
X9862403Y-13325515D01*
X9852880Y-13315991D01*
X9843356Y-13296944D01*
X9843356Y-13239801D01*
X9852880Y-13220753D01*
X9862403Y-13211229D01*
X9881451Y-13201706D01*
X9919546Y-13201706D01*
X9938594Y-13211229D01*
X10014784Y-13411229D02*
X10024308Y-13401706D01*
X10043356Y-13373134D01*
X10052880Y-13354087D01*
X10062403Y-13325515D01*
X10071927Y-13277896D01*
X10071927Y-13239801D01*
X10062403Y-13192182D01*
X10052880Y-13163610D01*
X10043356Y-13144563D01*
X10024308Y-13115991D01*
X10014784Y-13106467D01*
X2880975Y-13534743D02*
G75*
G03*
X2880975Y-13534743I-100000J0D01*
G01*
X3119546Y-13425219D02*
X3243356Y-13425219D01*
X3176689Y-13501409D01*
X3205261Y-13501409D01*
X3224308Y-13510933D01*
X3233832Y-13520457D01*
X3243356Y-13539505D01*
X3243356Y-13587124D01*
X3233832Y-13606171D01*
X3224308Y-13615695D01*
X3205261Y-13625219D01*
X3148118Y-13625219D01*
X3129070Y-13615695D01*
X3119546Y-13606171D01*
X3329070Y-13606171D02*
X3338594Y-13615695D01*
X3329070Y-13625219D01*
X3319546Y-13615695D01*
X3329070Y-13606171D01*
X3329070Y-13625219D01*
X3462403Y-13425219D02*
X3481451Y-13425219D01*
X3500499Y-13434743D01*
X3510022Y-13444267D01*
X3519546Y-13463314D01*
X3529070Y-13501409D01*
X3529070Y-13549028D01*
X3519546Y-13587124D01*
X3510022Y-13606171D01*
X3500499Y-13615695D01*
X3481451Y-13625219D01*
X3462403Y-13625219D01*
X3443356Y-13615695D01*
X3433832Y-13606171D01*
X3424308Y-13587124D01*
X3414784Y-13549028D01*
X3414784Y-13501409D01*
X3424308Y-13463314D01*
X3433832Y-13444267D01*
X3443356Y-13434743D01*
X3462403Y-13425219D01*
X3700499Y-13491886D02*
X3700499Y-13625219D01*
X3652880Y-13415695D02*
X3605261Y-13558552D01*
X3729070Y-13558552D01*
X3833832Y-13510933D02*
X3814784Y-13501409D01*
X3805261Y-13491886D01*
X3795737Y-13472838D01*
X3795737Y-13463314D01*
X3805261Y-13444267D01*
X3814784Y-13434743D01*
X3833832Y-13425219D01*
X3871927Y-13425219D01*
X3890975Y-13434743D01*
X3900499Y-13444267D01*
X3910022Y-13463314D01*
X3910022Y-13472838D01*
X3900499Y-13491886D01*
X3890975Y-13501409D01*
X3871927Y-13510933D01*
X3833832Y-13510933D01*
X3814784Y-13520457D01*
X3805261Y-13529981D01*
X3795737Y-13549028D01*
X3795737Y-13587124D01*
X3805261Y-13606171D01*
X3814784Y-13615695D01*
X3833832Y-13625219D01*
X3871927Y-13625219D01*
X3890975Y-13615695D01*
X3900499Y-13606171D01*
X3910022Y-13587124D01*
X3910022Y-13549028D01*
X3900499Y-13529981D01*
X3890975Y-13520457D01*
X3871927Y-13510933D01*
X3995737Y-13625219D02*
X3995737Y-13491886D01*
X3995737Y-13510933D02*
X4005261Y-13501409D01*
X4024308Y-13491886D01*
X4052880Y-13491886D01*
X4071927Y-13501409D01*
X4081451Y-13520457D01*
X4081451Y-13625219D01*
X4081451Y-13520457D02*
X4090975Y-13501409D01*
X4110022Y-13491886D01*
X4138594Y-13491886D01*
X4157641Y-13501409D01*
X4167165Y-13520457D01*
X4167165Y-13625219D01*
X4262403Y-13625219D02*
X4262403Y-13491886D01*
X4262403Y-13510933D02*
X4271927Y-13501409D01*
X4290975Y-13491886D01*
X4319546Y-13491886D01*
X4338594Y-13501409D01*
X4348118Y-13520457D01*
X4348118Y-13625219D01*
X4348118Y-13520457D02*
X4357642Y-13501409D01*
X4376689Y-13491886D01*
X4405261Y-13491886D01*
X4424308Y-13501409D01*
X4433832Y-13520457D01*
X4433832Y-13625219D01*
X4824308Y-13415695D02*
X4652880Y-13672838D01*
X5081451Y-13425219D02*
X5100499Y-13425219D01*
X5119546Y-13434743D01*
X5129070Y-13444267D01*
X5138594Y-13463314D01*
X5148118Y-13501409D01*
X5148118Y-13549028D01*
X5138594Y-13587124D01*
X5129070Y-13606171D01*
X5119546Y-13615695D01*
X5100499Y-13625219D01*
X5081451Y-13625219D01*
X5062403Y-13615695D01*
X5052880Y-13606171D01*
X5043356Y-13587124D01*
X5033832Y-13549028D01*
X5033832Y-13501409D01*
X5043356Y-13463314D01*
X5052880Y-13444267D01*
X5062403Y-13434743D01*
X5081451Y-13425219D01*
X5233832Y-13606171D02*
X5243356Y-13615695D01*
X5233832Y-13625219D01*
X5224308Y-13615695D01*
X5233832Y-13606171D01*
X5233832Y-13625219D01*
X5433832Y-13625219D02*
X5319546Y-13625219D01*
X5376689Y-13625219D02*
X5376689Y-13425219D01*
X5357642Y-13453790D01*
X5338594Y-13472838D01*
X5319546Y-13482362D01*
X5510023Y-13444267D02*
X5519546Y-13434743D01*
X5538594Y-13425219D01*
X5586213Y-13425219D01*
X5605261Y-13434743D01*
X5614784Y-13444267D01*
X5624308Y-13463314D01*
X5624308Y-13482362D01*
X5614784Y-13510933D01*
X5500499Y-13625219D01*
X5624308Y-13625219D01*
X5748118Y-13425219D02*
X5767165Y-13425219D01*
X5786213Y-13434743D01*
X5795737Y-13444267D01*
X5805261Y-13463314D01*
X5814784Y-13501409D01*
X5814784Y-13549028D01*
X5805261Y-13587124D01*
X5795737Y-13606171D01*
X5786213Y-13615695D01*
X5767165Y-13625219D01*
X5748118Y-13625219D01*
X5729070Y-13615695D01*
X5719546Y-13606171D01*
X5710022Y-13587124D01*
X5700499Y-13549028D01*
X5700499Y-13501409D01*
X5710022Y-13463314D01*
X5719546Y-13444267D01*
X5729070Y-13434743D01*
X5748118Y-13425219D01*
X5938594Y-13425219D02*
X5957641Y-13425219D01*
X5976689Y-13434743D01*
X5986213Y-13444267D01*
X5995737Y-13463314D01*
X6005261Y-13501409D01*
X6005261Y-13549028D01*
X5995737Y-13587124D01*
X5986213Y-13606171D01*
X5976689Y-13615695D01*
X5957641Y-13625219D01*
X5938594Y-13625219D01*
X5919546Y-13615695D01*
X5910022Y-13606171D01*
X5900499Y-13587124D01*
X5890975Y-13549028D01*
X5890975Y-13501409D01*
X5900499Y-13463314D01*
X5910022Y-13444267D01*
X5919546Y-13434743D01*
X5938594Y-13425219D01*
X6081451Y-13425219D02*
X6081451Y-13463314D01*
X6157641Y-13425219D02*
X6157641Y-13463314D01*
X6452880Y-13701409D02*
X6443356Y-13691886D01*
X6424308Y-13663314D01*
X6414784Y-13644267D01*
X6405261Y-13615695D01*
X6395737Y-13568076D01*
X6395737Y-13529981D01*
X6405261Y-13482362D01*
X6414784Y-13453790D01*
X6424308Y-13434743D01*
X6443356Y-13406171D01*
X6452880Y-13396647D01*
X6519546Y-13444267D02*
X6529070Y-13434743D01*
X6548118Y-13425219D01*
X6595737Y-13425219D01*
X6614784Y-13434743D01*
X6624308Y-13444267D01*
X6633832Y-13463314D01*
X6633832Y-13482362D01*
X6624308Y-13510933D01*
X6510022Y-13625219D01*
X6633832Y-13625219D01*
X6871927Y-13625219D02*
X6871927Y-13425219D01*
X6957641Y-13625219D02*
X6957641Y-13520457D01*
X6948118Y-13501409D01*
X6929070Y-13491886D01*
X6900499Y-13491886D01*
X6881451Y-13501409D01*
X6871927Y-13510933D01*
X7081451Y-13625219D02*
X7062403Y-13615695D01*
X7052880Y-13606171D01*
X7043356Y-13587124D01*
X7043356Y-13529981D01*
X7052880Y-13510933D01*
X7062403Y-13501409D01*
X7081451Y-13491886D01*
X7110022Y-13491886D01*
X7129070Y-13501409D01*
X7138594Y-13510933D01*
X7148118Y-13529981D01*
X7148118Y-13587124D01*
X7138594Y-13606171D01*
X7129070Y-13615695D01*
X7110022Y-13625219D01*
X7081451Y-13625219D01*
X7262403Y-13625219D02*
X7243356Y-13615695D01*
X7233832Y-13596647D01*
X7233832Y-13425219D01*
X7414784Y-13615695D02*
X7395737Y-13625219D01*
X7357641Y-13625219D01*
X7338594Y-13615695D01*
X7329070Y-13596647D01*
X7329070Y-13520457D01*
X7338594Y-13501409D01*
X7357641Y-13491886D01*
X7395737Y-13491886D01*
X7414784Y-13501409D01*
X7424308Y-13520457D01*
X7424308Y-13539505D01*
X7329070Y-13558552D01*
X7500499Y-13615695D02*
X7519546Y-13625219D01*
X7557641Y-13625219D01*
X7576689Y-13615695D01*
X7586213Y-13596647D01*
X7586213Y-13587124D01*
X7576689Y-13568076D01*
X7557641Y-13558552D01*
X7529070Y-13558552D01*
X7510022Y-13549028D01*
X7500499Y-13529981D01*
X7500499Y-13520457D01*
X7510022Y-13501409D01*
X7529070Y-13491886D01*
X7557641Y-13491886D01*
X7576689Y-13501409D01*
X7652880Y-13701409D02*
X7662403Y-13691886D01*
X7681451Y-13663314D01*
X7690975Y-13644267D01*
X7700499Y-13615695D01*
X7710022Y-13568076D01*
X7710022Y-13529981D01*
X7700499Y-13482362D01*
X7690975Y-13453790D01*
X7681451Y-13434743D01*
X7662403Y-13406171D01*
X7652880Y-13396647D01*
X8014784Y-13701409D02*
X8005261Y-13691886D01*
X7986213Y-13663314D01*
X7976689Y-13644267D01*
X7967165Y-13615695D01*
X7957641Y-13568076D01*
X7957641Y-13529981D01*
X7967165Y-13482362D01*
X7976689Y-13453790D01*
X7986213Y-13434743D01*
X8005261Y-13406171D01*
X8014784Y-13396647D01*
X8090975Y-13491886D02*
X8090975Y-13625219D01*
X8090975Y-13510933D02*
X8100499Y-13501409D01*
X8119546Y-13491886D01*
X8148118Y-13491886D01*
X8167165Y-13501409D01*
X8176689Y-13520457D01*
X8176689Y-13625219D01*
X8300499Y-13625219D02*
X8281451Y-13615695D01*
X8271927Y-13606171D01*
X8262403Y-13587124D01*
X8262403Y-13529981D01*
X8271927Y-13510933D01*
X8281451Y-13501409D01*
X8300499Y-13491886D01*
X8329070Y-13491886D01*
X8348118Y-13501409D01*
X8357641Y-13510933D01*
X8367165Y-13529981D01*
X8367165Y-13587124D01*
X8357641Y-13606171D01*
X8348118Y-13615695D01*
X8329070Y-13625219D01*
X8300499Y-13625219D01*
X8424308Y-13491886D02*
X8500499Y-13491886D01*
X8452880Y-13425219D02*
X8452880Y-13596647D01*
X8462403Y-13615695D01*
X8481451Y-13625219D01*
X8500499Y-13625219D01*
X8719546Y-13491886D02*
X8719546Y-13691886D01*
X8719546Y-13501409D02*
X8738594Y-13491886D01*
X8776689Y-13491886D01*
X8795737Y-13501409D01*
X8805261Y-13510933D01*
X8814784Y-13529981D01*
X8814784Y-13587124D01*
X8805261Y-13606171D01*
X8795737Y-13615695D01*
X8776689Y-13625219D01*
X8738594Y-13625219D01*
X8719546Y-13615695D01*
X8929070Y-13625219D02*
X8910023Y-13615695D01*
X8900499Y-13596647D01*
X8900499Y-13425219D01*
X9090975Y-13625219D02*
X9090975Y-13520457D01*
X9081451Y-13501409D01*
X9062403Y-13491886D01*
X9024308Y-13491886D01*
X9005261Y-13501409D01*
X9090975Y-13615695D02*
X9071927Y-13625219D01*
X9024308Y-13625219D01*
X9005261Y-13615695D01*
X8995737Y-13596647D01*
X8995737Y-13577600D01*
X9005261Y-13558552D01*
X9024308Y-13549028D01*
X9071927Y-13549028D01*
X9090975Y-13539505D01*
X9157642Y-13491886D02*
X9233832Y-13491886D01*
X9186213Y-13425219D02*
X9186213Y-13596647D01*
X9195737Y-13615695D01*
X9214784Y-13625219D01*
X9233832Y-13625219D01*
X9376689Y-13615695D02*
X9357642Y-13625219D01*
X9319546Y-13625219D01*
X9300499Y-13615695D01*
X9290975Y-13596647D01*
X9290975Y-13520457D01*
X9300499Y-13501409D01*
X9319546Y-13491886D01*
X9357642Y-13491886D01*
X9376689Y-13501409D01*
X9386213Y-13520457D01*
X9386213Y-13539505D01*
X9290975Y-13558552D01*
X9557642Y-13625219D02*
X9557642Y-13425219D01*
X9557642Y-13615695D02*
X9538594Y-13625219D01*
X9500499Y-13625219D01*
X9481451Y-13615695D01*
X9471927Y-13606171D01*
X9462403Y-13587124D01*
X9462403Y-13529981D01*
X9471927Y-13510933D01*
X9481451Y-13501409D01*
X9500499Y-13491886D01*
X9538594Y-13491886D01*
X9557642Y-13501409D01*
X9633832Y-13701409D02*
X9643356Y-13691886D01*
X9662403Y-13663314D01*
X9671927Y-13644267D01*
X9681451Y-13615695D01*
X9690975Y-13568076D01*
X9690975Y-13529981D01*
X9681451Y-13482362D01*
X9671927Y-13453790D01*
X9662403Y-13434743D01*
X9643356Y-13406171D01*
X9633832Y-13396647D01*
X2780975Y-13754743D02*
X2780975Y-13954743D01*
X2680975Y-13854743D02*
X2880975Y-13854743D01*
X3119546Y-13745219D02*
X3243356Y-13745219D01*
X3176689Y-13821409D01*
X3205261Y-13821409D01*
X3224308Y-13830933D01*
X3233832Y-13840457D01*
X3243356Y-13859505D01*
X3243356Y-13907124D01*
X3233832Y-13926171D01*
X3224308Y-13935695D01*
X3205261Y-13945219D01*
X3148118Y-13945219D01*
X3129070Y-13935695D01*
X3119546Y-13926171D01*
X3329070Y-13926171D02*
X3338594Y-13935695D01*
X3329070Y-13945219D01*
X3319546Y-13935695D01*
X3329070Y-13926171D01*
X3329070Y-13945219D01*
X3433832Y-13945219D02*
X3471927Y-13945219D01*
X3490975Y-13935695D01*
X3500499Y-13926171D01*
X3519546Y-13897600D01*
X3529070Y-13859505D01*
X3529070Y-13783314D01*
X3519546Y-13764267D01*
X3510022Y-13754743D01*
X3490975Y-13745219D01*
X3452880Y-13745219D01*
X3433832Y-13754743D01*
X3424308Y-13764267D01*
X3414784Y-13783314D01*
X3414784Y-13830933D01*
X3424308Y-13849981D01*
X3433832Y-13859505D01*
X3452880Y-13869028D01*
X3490975Y-13869028D01*
X3510022Y-13859505D01*
X3519546Y-13849981D01*
X3529070Y-13830933D01*
X3643356Y-13830933D02*
X3624308Y-13821409D01*
X3614784Y-13811886D01*
X3605261Y-13792838D01*
X3605261Y-13783314D01*
X3614784Y-13764267D01*
X3624308Y-13754743D01*
X3643356Y-13745219D01*
X3681451Y-13745219D01*
X3700499Y-13754743D01*
X3710022Y-13764267D01*
X3719546Y-13783314D01*
X3719546Y-13792838D01*
X3710022Y-13811886D01*
X3700499Y-13821409D01*
X3681451Y-13830933D01*
X3643356Y-13830933D01*
X3624308Y-13840457D01*
X3614784Y-13849981D01*
X3605261Y-13869028D01*
X3605261Y-13907124D01*
X3614784Y-13926171D01*
X3624308Y-13935695D01*
X3643356Y-13945219D01*
X3681451Y-13945219D01*
X3700499Y-13935695D01*
X3710022Y-13926171D01*
X3719546Y-13907124D01*
X3719546Y-13869028D01*
X3710022Y-13849981D01*
X3700499Y-13840457D01*
X3681451Y-13830933D01*
X3833832Y-13830933D02*
X3814784Y-13821409D01*
X3805261Y-13811886D01*
X3795737Y-13792838D01*
X3795737Y-13783314D01*
X3805261Y-13764267D01*
X3814784Y-13754743D01*
X3833832Y-13745219D01*
X3871927Y-13745219D01*
X3890975Y-13754743D01*
X3900499Y-13764267D01*
X3910022Y-13783314D01*
X3910022Y-13792838D01*
X3900499Y-13811886D01*
X3890975Y-13821409D01*
X3871927Y-13830933D01*
X3833832Y-13830933D01*
X3814784Y-13840457D01*
X3805261Y-13849981D01*
X3795737Y-13869028D01*
X3795737Y-13907124D01*
X3805261Y-13926171D01*
X3814784Y-13935695D01*
X3833832Y-13945219D01*
X3871927Y-13945219D01*
X3890975Y-13935695D01*
X3900499Y-13926171D01*
X3910022Y-13907124D01*
X3910022Y-13869028D01*
X3900499Y-13849981D01*
X3890975Y-13840457D01*
X3871927Y-13830933D01*
X3995737Y-13945219D02*
X3995737Y-13811886D01*
X3995737Y-13830933D02*
X4005261Y-13821409D01*
X4024308Y-13811886D01*
X4052880Y-13811886D01*
X4071927Y-13821409D01*
X4081451Y-13840457D01*
X4081451Y-13945219D01*
X4081451Y-13840457D02*
X4090975Y-13821409D01*
X4110022Y-13811886D01*
X4138594Y-13811886D01*
X4157641Y-13821409D01*
X4167165Y-13840457D01*
X4167165Y-13945219D01*
X4262403Y-13945219D02*
X4262403Y-13811886D01*
X4262403Y-13830933D02*
X4271927Y-13821409D01*
X4290975Y-13811886D01*
X4319546Y-13811886D01*
X4338594Y-13821409D01*
X4348118Y-13840457D01*
X4348118Y-13945219D01*
X4348118Y-13840457D02*
X4357642Y-13821409D01*
X4376689Y-13811886D01*
X4405261Y-13811886D01*
X4424308Y-13821409D01*
X4433832Y-13840457D01*
X4433832Y-13945219D01*
X4824308Y-13735695D02*
X4652880Y-13992838D01*
X5081451Y-13745219D02*
X5100499Y-13745219D01*
X5119546Y-13754743D01*
X5129070Y-13764267D01*
X5138594Y-13783314D01*
X5148118Y-13821409D01*
X5148118Y-13869028D01*
X5138594Y-13907124D01*
X5129070Y-13926171D01*
X5119546Y-13935695D01*
X5100499Y-13945219D01*
X5081451Y-13945219D01*
X5062403Y-13935695D01*
X5052880Y-13926171D01*
X5043356Y-13907124D01*
X5033832Y-13869028D01*
X5033832Y-13821409D01*
X5043356Y-13783314D01*
X5052880Y-13764267D01*
X5062403Y-13754743D01*
X5081451Y-13745219D01*
X5233832Y-13926171D02*
X5243356Y-13935695D01*
X5233832Y-13945219D01*
X5224308Y-13935695D01*
X5233832Y-13926171D01*
X5233832Y-13945219D01*
X5433832Y-13945219D02*
X5319546Y-13945219D01*
X5376689Y-13945219D02*
X5376689Y-13745219D01*
X5357642Y-13773790D01*
X5338594Y-13792838D01*
X5319546Y-13802362D01*
X5614784Y-13745219D02*
X5519546Y-13745219D01*
X5510023Y-13840457D01*
X5519546Y-13830933D01*
X5538594Y-13821409D01*
X5586213Y-13821409D01*
X5605261Y-13830933D01*
X5614784Y-13840457D01*
X5624308Y-13859505D01*
X5624308Y-13907124D01*
X5614784Y-13926171D01*
X5605261Y-13935695D01*
X5586213Y-13945219D01*
X5538594Y-13945219D01*
X5519546Y-13935695D01*
X5510023Y-13926171D01*
X5690975Y-13745219D02*
X5824308Y-13745219D01*
X5738594Y-13945219D01*
X5938594Y-13745219D02*
X5957641Y-13745219D01*
X5976689Y-13754743D01*
X5986213Y-13764267D01*
X5995737Y-13783314D01*
X6005261Y-13821409D01*
X6005261Y-13869028D01*
X5995737Y-13907124D01*
X5986213Y-13926171D01*
X5976689Y-13935695D01*
X5957641Y-13945219D01*
X5938594Y-13945219D01*
X5919546Y-13935695D01*
X5910022Y-13926171D01*
X5900499Y-13907124D01*
X5890975Y-13869028D01*
X5890975Y-13821409D01*
X5900499Y-13783314D01*
X5910022Y-13764267D01*
X5919546Y-13754743D01*
X5938594Y-13745219D01*
X6081451Y-13745219D02*
X6081451Y-13783314D01*
X6157641Y-13745219D02*
X6157641Y-13783314D01*
X6452880Y-14021409D02*
X6443356Y-14011886D01*
X6424308Y-13983314D01*
X6414784Y-13964267D01*
X6405261Y-13935695D01*
X6395737Y-13888076D01*
X6395737Y-13849981D01*
X6405261Y-13802362D01*
X6414784Y-13773790D01*
X6424308Y-13754743D01*
X6443356Y-13726171D01*
X6452880Y-13716647D01*
X6510022Y-13745219D02*
X6633832Y-13745219D01*
X6567165Y-13821409D01*
X6595737Y-13821409D01*
X6614784Y-13830933D01*
X6624308Y-13840457D01*
X6633832Y-13859505D01*
X6633832Y-13907124D01*
X6624308Y-13926171D01*
X6614784Y-13935695D01*
X6595737Y-13945219D01*
X6538594Y-13945219D01*
X6519546Y-13935695D01*
X6510022Y-13926171D01*
X6805261Y-13811886D02*
X6805261Y-13945219D01*
X6757641Y-13735695D02*
X6710022Y-13878552D01*
X6833832Y-13878552D01*
X7062403Y-13945219D02*
X7062403Y-13745219D01*
X7148118Y-13945219D02*
X7148118Y-13840457D01*
X7138594Y-13821409D01*
X7119546Y-13811886D01*
X7090975Y-13811886D01*
X7071927Y-13821409D01*
X7062403Y-13830933D01*
X7271927Y-13945219D02*
X7252880Y-13935695D01*
X7243356Y-13926171D01*
X7233832Y-13907124D01*
X7233832Y-13849981D01*
X7243356Y-13830933D01*
X7252880Y-13821409D01*
X7271927Y-13811886D01*
X7300499Y-13811886D01*
X7319546Y-13821409D01*
X7329070Y-13830933D01*
X7338594Y-13849981D01*
X7338594Y-13907124D01*
X7329070Y-13926171D01*
X7319546Y-13935695D01*
X7300499Y-13945219D01*
X7271927Y-13945219D01*
X7452880Y-13945219D02*
X7433832Y-13935695D01*
X7424308Y-13916647D01*
X7424308Y-13745219D01*
X7605261Y-13935695D02*
X7586213Y-13945219D01*
X7548118Y-13945219D01*
X7529070Y-13935695D01*
X7519546Y-13916647D01*
X7519546Y-13840457D01*
X7529070Y-13821409D01*
X7548118Y-13811886D01*
X7586213Y-13811886D01*
X7605261Y-13821409D01*
X7614784Y-13840457D01*
X7614784Y-13859505D01*
X7519546Y-13878552D01*
X7690975Y-13935695D02*
X7710022Y-13945219D01*
X7748118Y-13945219D01*
X7767165Y-13935695D01*
X7776689Y-13916647D01*
X7776689Y-13907124D01*
X7767165Y-13888076D01*
X7748118Y-13878552D01*
X7719546Y-13878552D01*
X7700499Y-13869028D01*
X7690975Y-13849981D01*
X7690975Y-13840457D01*
X7700499Y-13821409D01*
X7719546Y-13811886D01*
X7748118Y-13811886D01*
X7767165Y-13821409D01*
X7843356Y-14021409D02*
X7852880Y-14011886D01*
X7871927Y-13983314D01*
X7881451Y-13964267D01*
X7890975Y-13935695D01*
X7900499Y-13888076D01*
X7900499Y-13849981D01*
X7890975Y-13802362D01*
X7881451Y-13773790D01*
X7871927Y-13754743D01*
X7852880Y-13726171D01*
X7843356Y-13716647D01*
X8205261Y-14021409D02*
X8195737Y-14011886D01*
X8176689Y-13983314D01*
X8167165Y-13964267D01*
X8157641Y-13935695D01*
X8148118Y-13888076D01*
X8148118Y-13849981D01*
X8157641Y-13802362D01*
X8167165Y-13773790D01*
X8176689Y-13754743D01*
X8195737Y-13726171D01*
X8205261Y-13716647D01*
X8281451Y-13811886D02*
X8281451Y-13945219D01*
X8281451Y-13830933D02*
X8290975Y-13821409D01*
X8310022Y-13811886D01*
X8338594Y-13811886D01*
X8357641Y-13821409D01*
X8367165Y-13840457D01*
X8367165Y-13945219D01*
X8490975Y-13945219D02*
X8471927Y-13935695D01*
X8462403Y-13926171D01*
X8452880Y-13907124D01*
X8452880Y-13849981D01*
X8462403Y-13830933D01*
X8471927Y-13821409D01*
X8490975Y-13811886D01*
X8519546Y-13811886D01*
X8538594Y-13821409D01*
X8548118Y-13830933D01*
X8557642Y-13849981D01*
X8557642Y-13907124D01*
X8548118Y-13926171D01*
X8538594Y-13935695D01*
X8519546Y-13945219D01*
X8490975Y-13945219D01*
X8614784Y-13811886D02*
X8690975Y-13811886D01*
X8643356Y-13745219D02*
X8643356Y-13916647D01*
X8652880Y-13935695D01*
X8671927Y-13945219D01*
X8690975Y-13945219D01*
X8910023Y-13811886D02*
X8910023Y-14011886D01*
X8910023Y-13821409D02*
X8929070Y-13811886D01*
X8967165Y-13811886D01*
X8986213Y-13821409D01*
X8995737Y-13830933D01*
X9005261Y-13849981D01*
X9005261Y-13907124D01*
X8995737Y-13926171D01*
X8986213Y-13935695D01*
X8967165Y-13945219D01*
X8929070Y-13945219D01*
X8910023Y-13935695D01*
X9119546Y-13945219D02*
X9100499Y-13935695D01*
X9090975Y-13916647D01*
X9090975Y-13745219D01*
X9281451Y-13945219D02*
X9281451Y-13840457D01*
X9271927Y-13821409D01*
X9252880Y-13811886D01*
X9214784Y-13811886D01*
X9195737Y-13821409D01*
X9281451Y-13935695D02*
X9262403Y-13945219D01*
X9214784Y-13945219D01*
X9195737Y-13935695D01*
X9186213Y-13916647D01*
X9186213Y-13897600D01*
X9195737Y-13878552D01*
X9214784Y-13869028D01*
X9262403Y-13869028D01*
X9281451Y-13859505D01*
X9348118Y-13811886D02*
X9424308Y-13811886D01*
X9376689Y-13745219D02*
X9376689Y-13916647D01*
X9386213Y-13935695D01*
X9405261Y-13945219D01*
X9424308Y-13945219D01*
X9567165Y-13935695D02*
X9548118Y-13945219D01*
X9510023Y-13945219D01*
X9490975Y-13935695D01*
X9481451Y-13916647D01*
X9481451Y-13840457D01*
X9490975Y-13821409D01*
X9510023Y-13811886D01*
X9548118Y-13811886D01*
X9567165Y-13821409D01*
X9576689Y-13840457D01*
X9576689Y-13859505D01*
X9481451Y-13878552D01*
X9748118Y-13945219D02*
X9748118Y-13745219D01*
X9748118Y-13935695D02*
X9729070Y-13945219D01*
X9690975Y-13945219D01*
X9671927Y-13935695D01*
X9662403Y-13926171D01*
X9652880Y-13907124D01*
X9652880Y-13849981D01*
X9662403Y-13830933D01*
X9671927Y-13821409D01*
X9690975Y-13811886D01*
X9729070Y-13811886D01*
X9748118Y-13821409D01*
X9824308Y-14021409D02*
X9833832Y-14011886D01*
X9852880Y-13983314D01*
X9862403Y-13964267D01*
X9871927Y-13935695D01*
X9881451Y-13888076D01*
X9881451Y-13849981D01*
X9871927Y-13802362D01*
X9862403Y-13773790D01*
X9852880Y-13754743D01*
X9833832Y-13726171D01*
X9824308Y-13716647D01*
M02*
